G04 #@! TF.GenerationSoftware,KiCad,Pcbnew,(5.1.4)-1*
G04 #@! TF.CreationDate,2019-11-08T19:54:45+05:00*
G04 #@! TF.ProjectId,powerSupplyArduino,706f7765-7253-4757-9070-6c7941726475,rev?*
G04 #@! TF.SameCoordinates,Original*
G04 #@! TF.FileFunction,Other,Fab,Bot*
%FSLAX46Y46*%
G04 Gerber Fmt 4.6, Leading zero omitted, Abs format (unit mm)*
G04 Created by KiCad (PCBNEW (5.1.4)-1) date 2019-11-08 19:54:45*
%MOMM*%
%LPD*%
G04 APERTURE LIST*
%ADD10C,0.100000*%
%ADD11C,0.150000*%
%ADD12C,0.075000*%
G04 APERTURE END LIST*
D10*
X134690000Y-70194000D02*
X134690000Y-71434000D01*
X136690000Y-70194000D02*
X134690000Y-70194000D01*
X136690000Y-71434000D02*
X136690000Y-70194000D01*
X134690000Y-71434000D02*
X136690000Y-71434000D01*
X96230000Y-87480000D02*
X96230000Y-88720000D01*
X98230000Y-87480000D02*
X96230000Y-87480000D01*
X98230000Y-88720000D02*
X98230000Y-87480000D01*
X96230000Y-88720000D02*
X98230000Y-88720000D01*
X120940000Y-63344000D02*
X120940000Y-64584000D01*
X122940000Y-63344000D02*
X120940000Y-63344000D01*
X122940000Y-64584000D02*
X122940000Y-63344000D01*
X120940000Y-64584000D02*
X122940000Y-64584000D01*
X123890000Y-57860000D02*
X122650000Y-57860000D01*
X123890000Y-59860000D02*
X123890000Y-57860000D01*
X122650000Y-59860000D02*
X123890000Y-59860000D01*
X122650000Y-57860000D02*
X122650000Y-59860000D01*
X110786000Y-64584000D02*
X110786000Y-63344000D01*
X108786000Y-64584000D02*
X110786000Y-64584000D01*
X108786000Y-63344000D02*
X108786000Y-64584000D01*
X110786000Y-63344000D02*
X108786000Y-63344000D01*
X160270000Y-70224000D02*
X158270000Y-70224000D01*
X158270000Y-70224000D02*
X158270000Y-71464000D01*
X158270000Y-71464000D02*
X160270000Y-71464000D01*
X160270000Y-71464000D02*
X160270000Y-70224000D01*
X154020000Y-71464000D02*
X154020000Y-70224000D01*
X152020000Y-71464000D02*
X154020000Y-71464000D01*
X152020000Y-70224000D02*
X152020000Y-71464000D01*
X154020000Y-70224000D02*
X152020000Y-70224000D01*
X140430000Y-71464000D02*
X142430000Y-71464000D01*
X142430000Y-71464000D02*
X142430000Y-70224000D01*
X142430000Y-70224000D02*
X140430000Y-70224000D01*
X140430000Y-70224000D02*
X140430000Y-71464000D01*
X139240000Y-52230000D02*
X139240000Y-53470000D01*
X141240000Y-52230000D02*
X139240000Y-52230000D01*
X141240000Y-53470000D02*
X141240000Y-52230000D01*
X139240000Y-53470000D02*
X141240000Y-53470000D01*
X116840000Y-64554000D02*
X116840000Y-63314000D01*
X114840000Y-64554000D02*
X116840000Y-64554000D01*
X114840000Y-63314000D02*
X114840000Y-64554000D01*
X116840000Y-63314000D02*
X114840000Y-63314000D01*
X98100000Y-85030000D02*
X98100000Y-83790000D01*
X96100000Y-85030000D02*
X98100000Y-85030000D01*
X96100000Y-83790000D02*
X96100000Y-85030000D01*
X98100000Y-83790000D02*
X96100000Y-83790000D01*
X97730000Y-53680000D02*
X97730000Y-52440000D01*
X95730000Y-53680000D02*
X97730000Y-53680000D01*
X95730000Y-52440000D02*
X95730000Y-53680000D01*
X97730000Y-52440000D02*
X95730000Y-52440000D01*
X146340000Y-70194000D02*
X146340000Y-71434000D01*
X148340000Y-70194000D02*
X146340000Y-70194000D01*
X148340000Y-71434000D02*
X148340000Y-70194000D01*
X146340000Y-71434000D02*
X148340000Y-71434000D01*
D11*
X135856666Y-72921142D02*
X135904285Y-72968761D01*
X136047142Y-73016380D01*
X136142380Y-73016380D01*
X136285238Y-72968761D01*
X136380476Y-72873523D01*
X136428095Y-72778285D01*
X136475714Y-72587809D01*
X136475714Y-72444952D01*
X136428095Y-72254476D01*
X136380476Y-72159238D01*
X136285238Y-72064000D01*
X136142380Y-72016380D01*
X136047142Y-72016380D01*
X135904285Y-72064000D01*
X135856666Y-72111619D01*
X134999523Y-72349714D02*
X134999523Y-73016380D01*
X135237619Y-71968761D02*
X135475714Y-72683047D01*
X134856666Y-72683047D01*
D12*
X97551428Y-88326190D02*
X97718095Y-88088095D01*
X97837142Y-88326190D02*
X97837142Y-87826190D01*
X97646666Y-87826190D01*
X97599047Y-87850000D01*
X97575238Y-87873809D01*
X97551428Y-87921428D01*
X97551428Y-87992857D01*
X97575238Y-88040476D01*
X97599047Y-88064285D01*
X97646666Y-88088095D01*
X97837142Y-88088095D01*
X97360952Y-87873809D02*
X97337142Y-87850000D01*
X97289523Y-87826190D01*
X97170476Y-87826190D01*
X97122857Y-87850000D01*
X97099047Y-87873809D01*
X97075238Y-87921428D01*
X97075238Y-87969047D01*
X97099047Y-88040476D01*
X97384761Y-88326190D01*
X97075238Y-88326190D01*
X96765714Y-87826190D02*
X96718095Y-87826190D01*
X96670476Y-87850000D01*
X96646666Y-87873809D01*
X96622857Y-87921428D01*
X96599047Y-88016666D01*
X96599047Y-88135714D01*
X96622857Y-88230952D01*
X96646666Y-88278571D01*
X96670476Y-88302380D01*
X96718095Y-88326190D01*
X96765714Y-88326190D01*
X96813333Y-88302380D01*
X96837142Y-88278571D01*
X96860952Y-88230952D01*
X96884761Y-88135714D01*
X96884761Y-88016666D01*
X96860952Y-87921428D01*
X96837142Y-87873809D01*
X96813333Y-87850000D01*
X96765714Y-87826190D01*
X122261428Y-64190190D02*
X122428095Y-63952095D01*
X122547142Y-64190190D02*
X122547142Y-63690190D01*
X122356666Y-63690190D01*
X122309047Y-63714000D01*
X122285238Y-63737809D01*
X122261428Y-63785428D01*
X122261428Y-63856857D01*
X122285238Y-63904476D01*
X122309047Y-63928285D01*
X122356666Y-63952095D01*
X122547142Y-63952095D01*
X121785238Y-64190190D02*
X122070952Y-64190190D01*
X121928095Y-64190190D02*
X121928095Y-63690190D01*
X121975714Y-63761619D01*
X122023333Y-63809238D01*
X122070952Y-63833047D01*
X121499523Y-63904476D02*
X121547142Y-63880666D01*
X121570952Y-63856857D01*
X121594761Y-63809238D01*
X121594761Y-63785428D01*
X121570952Y-63737809D01*
X121547142Y-63714000D01*
X121499523Y-63690190D01*
X121404285Y-63690190D01*
X121356666Y-63714000D01*
X121332857Y-63737809D01*
X121309047Y-63785428D01*
X121309047Y-63809238D01*
X121332857Y-63856857D01*
X121356666Y-63880666D01*
X121404285Y-63904476D01*
X121499523Y-63904476D01*
X121547142Y-63928285D01*
X121570952Y-63952095D01*
X121594761Y-63999714D01*
X121594761Y-64094952D01*
X121570952Y-64142571D01*
X121547142Y-64166380D01*
X121499523Y-64190190D01*
X121404285Y-64190190D01*
X121356666Y-64166380D01*
X121332857Y-64142571D01*
X121309047Y-64094952D01*
X121309047Y-63999714D01*
X121332857Y-63952095D01*
X121356666Y-63928285D01*
X121404285Y-63904476D01*
D11*
X125472380Y-58645714D02*
X125472380Y-58074285D01*
X125472380Y-58360000D02*
X124472380Y-58360000D01*
X124615238Y-58264761D01*
X124710476Y-58169523D01*
X124758095Y-58074285D01*
X125472380Y-59074285D02*
X124472380Y-59074285D01*
X125472380Y-59645714D02*
X124900952Y-59217142D01*
X124472380Y-59645714D02*
X125043809Y-59074285D01*
D12*
X123496190Y-58538571D02*
X123258095Y-58371904D01*
X123496190Y-58252857D02*
X122996190Y-58252857D01*
X122996190Y-58443333D01*
X123020000Y-58490952D01*
X123043809Y-58514761D01*
X123091428Y-58538571D01*
X123162857Y-58538571D01*
X123210476Y-58514761D01*
X123234285Y-58490952D01*
X123258095Y-58443333D01*
X123258095Y-58252857D01*
X123496190Y-59014761D02*
X123496190Y-58729047D01*
X123496190Y-58871904D02*
X122996190Y-58871904D01*
X123067619Y-58824285D01*
X123115238Y-58776666D01*
X123139047Y-58729047D01*
X122996190Y-59181428D02*
X122996190Y-59514761D01*
X123496190Y-59300476D01*
X110107428Y-64190190D02*
X110274095Y-63952095D01*
X110393142Y-64190190D02*
X110393142Y-63690190D01*
X110202666Y-63690190D01*
X110155047Y-63714000D01*
X110131238Y-63737809D01*
X110107428Y-63785428D01*
X110107428Y-63856857D01*
X110131238Y-63904476D01*
X110155047Y-63928285D01*
X110202666Y-63952095D01*
X110393142Y-63952095D01*
X109631238Y-64190190D02*
X109916952Y-64190190D01*
X109774095Y-64190190D02*
X109774095Y-63690190D01*
X109821714Y-63761619D01*
X109869333Y-63809238D01*
X109916952Y-63833047D01*
X109202666Y-63690190D02*
X109297904Y-63690190D01*
X109345523Y-63714000D01*
X109369333Y-63737809D01*
X109416952Y-63809238D01*
X109440761Y-63904476D01*
X109440761Y-64094952D01*
X109416952Y-64142571D01*
X109393142Y-64166380D01*
X109345523Y-64190190D01*
X109250285Y-64190190D01*
X109202666Y-64166380D01*
X109178857Y-64142571D01*
X109155047Y-64094952D01*
X109155047Y-63975904D01*
X109178857Y-63928285D01*
X109202666Y-63904476D01*
X109250285Y-63880666D01*
X109345523Y-63880666D01*
X109393142Y-63904476D01*
X109416952Y-63928285D01*
X109440761Y-63975904D01*
X159353333Y-71070190D02*
X159520000Y-70832095D01*
X159639047Y-71070190D02*
X159639047Y-70570190D01*
X159448571Y-70570190D01*
X159400952Y-70594000D01*
X159377142Y-70617809D01*
X159353333Y-70665428D01*
X159353333Y-70736857D01*
X159377142Y-70784476D01*
X159400952Y-70808285D01*
X159448571Y-70832095D01*
X159639047Y-70832095D01*
X159115238Y-71070190D02*
X159020000Y-71070190D01*
X158972380Y-71046380D01*
X158948571Y-71022571D01*
X158900952Y-70951142D01*
X158877142Y-70855904D01*
X158877142Y-70665428D01*
X158900952Y-70617809D01*
X158924761Y-70594000D01*
X158972380Y-70570190D01*
X159067619Y-70570190D01*
X159115238Y-70594000D01*
X159139047Y-70617809D01*
X159162857Y-70665428D01*
X159162857Y-70784476D01*
X159139047Y-70832095D01*
X159115238Y-70855904D01*
X159067619Y-70879714D01*
X158972380Y-70879714D01*
X158924761Y-70855904D01*
X158900952Y-70832095D01*
X158877142Y-70784476D01*
X152053333Y-71470190D02*
X152220000Y-71232095D01*
X152339047Y-71470190D02*
X152339047Y-70970190D01*
X152148571Y-70970190D01*
X152100952Y-70994000D01*
X152077142Y-71017809D01*
X152053333Y-71065428D01*
X152053333Y-71136857D01*
X152077142Y-71184476D01*
X152100952Y-71208285D01*
X152148571Y-71232095D01*
X152339047Y-71232095D01*
X151600952Y-70970190D02*
X151839047Y-70970190D01*
X151862857Y-71208285D01*
X151839047Y-71184476D01*
X151791428Y-71160666D01*
X151672380Y-71160666D01*
X151624761Y-71184476D01*
X151600952Y-71208285D01*
X151577142Y-71255904D01*
X151577142Y-71374952D01*
X151600952Y-71422571D01*
X151624761Y-71446380D01*
X151672380Y-71470190D01*
X151791428Y-71470190D01*
X151839047Y-71446380D01*
X151862857Y-71422571D01*
X141513333Y-71070190D02*
X141680000Y-70832095D01*
X141799047Y-71070190D02*
X141799047Y-70570190D01*
X141608571Y-70570190D01*
X141560952Y-70594000D01*
X141537142Y-70617809D01*
X141513333Y-70665428D01*
X141513333Y-70736857D01*
X141537142Y-70784476D01*
X141560952Y-70808285D01*
X141608571Y-70832095D01*
X141799047Y-70832095D01*
X141084761Y-70736857D02*
X141084761Y-71070190D01*
X141203809Y-70546380D02*
X141322857Y-70903523D01*
X141013333Y-70903523D01*
X140323333Y-53076190D02*
X140490000Y-52838095D01*
X140609047Y-53076190D02*
X140609047Y-52576190D01*
X140418571Y-52576190D01*
X140370952Y-52600000D01*
X140347142Y-52623809D01*
X140323333Y-52671428D01*
X140323333Y-52742857D01*
X140347142Y-52790476D01*
X140370952Y-52814285D01*
X140418571Y-52838095D01*
X140609047Y-52838095D01*
X140156666Y-52576190D02*
X139847142Y-52576190D01*
X140013809Y-52766666D01*
X139942380Y-52766666D01*
X139894761Y-52790476D01*
X139870952Y-52814285D01*
X139847142Y-52861904D01*
X139847142Y-52980952D01*
X139870952Y-53028571D01*
X139894761Y-53052380D01*
X139942380Y-53076190D01*
X140085238Y-53076190D01*
X140132857Y-53052380D01*
X140156666Y-53028571D01*
D11*
X116482857Y-62541142D02*
X116530476Y-62588761D01*
X116673333Y-62636380D01*
X116768571Y-62636380D01*
X116911428Y-62588761D01*
X117006666Y-62493523D01*
X117054285Y-62398285D01*
X117101904Y-62207809D01*
X117101904Y-62064952D01*
X117054285Y-61874476D01*
X117006666Y-61779238D01*
X116911428Y-61684000D01*
X116768571Y-61636380D01*
X116673333Y-61636380D01*
X116530476Y-61684000D01*
X116482857Y-61731619D01*
X116101904Y-61731619D02*
X116054285Y-61684000D01*
X115959047Y-61636380D01*
X115720952Y-61636380D01*
X115625714Y-61684000D01*
X115578095Y-61731619D01*
X115530476Y-61826857D01*
X115530476Y-61922095D01*
X115578095Y-62064952D01*
X116149523Y-62636380D01*
X115530476Y-62636380D01*
X114911428Y-61636380D02*
X114816190Y-61636380D01*
X114720952Y-61684000D01*
X114673333Y-61731619D01*
X114625714Y-61826857D01*
X114578095Y-62017333D01*
X114578095Y-62255428D01*
X114625714Y-62445904D01*
X114673333Y-62541142D01*
X114720952Y-62588761D01*
X114816190Y-62636380D01*
X114911428Y-62636380D01*
X115006666Y-62588761D01*
X115054285Y-62541142D01*
X115101904Y-62445904D01*
X115149523Y-62255428D01*
X115149523Y-62017333D01*
X115101904Y-61826857D01*
X115054285Y-61731619D01*
X115006666Y-61684000D01*
X114911428Y-61636380D01*
X97742857Y-83017142D02*
X97790476Y-83064761D01*
X97933333Y-83112380D01*
X98028571Y-83112380D01*
X98171428Y-83064761D01*
X98266666Y-82969523D01*
X98314285Y-82874285D01*
X98361904Y-82683809D01*
X98361904Y-82540952D01*
X98314285Y-82350476D01*
X98266666Y-82255238D01*
X98171428Y-82160000D01*
X98028571Y-82112380D01*
X97933333Y-82112380D01*
X97790476Y-82160000D01*
X97742857Y-82207619D01*
X96790476Y-83112380D02*
X97361904Y-83112380D01*
X97076190Y-83112380D02*
X97076190Y-82112380D01*
X97171428Y-82255238D01*
X97266666Y-82350476D01*
X97361904Y-82398095D01*
X96219047Y-82540952D02*
X96314285Y-82493333D01*
X96361904Y-82445714D01*
X96409523Y-82350476D01*
X96409523Y-82302857D01*
X96361904Y-82207619D01*
X96314285Y-82160000D01*
X96219047Y-82112380D01*
X96028571Y-82112380D01*
X95933333Y-82160000D01*
X95885714Y-82207619D01*
X95838095Y-82302857D01*
X95838095Y-82350476D01*
X95885714Y-82445714D01*
X95933333Y-82493333D01*
X96028571Y-82540952D01*
X96219047Y-82540952D01*
X96314285Y-82588571D01*
X96361904Y-82636190D01*
X96409523Y-82731428D01*
X96409523Y-82921904D01*
X96361904Y-83017142D01*
X96314285Y-83064761D01*
X96219047Y-83112380D01*
X96028571Y-83112380D01*
X95933333Y-83064761D01*
X95885714Y-83017142D01*
X95838095Y-82921904D01*
X95838095Y-82731428D01*
X95885714Y-82636190D01*
X95933333Y-82588571D01*
X96028571Y-82540952D01*
X97372857Y-51667142D02*
X97420476Y-51714761D01*
X97563333Y-51762380D01*
X97658571Y-51762380D01*
X97801428Y-51714761D01*
X97896666Y-51619523D01*
X97944285Y-51524285D01*
X97991904Y-51333809D01*
X97991904Y-51190952D01*
X97944285Y-51000476D01*
X97896666Y-50905238D01*
X97801428Y-50810000D01*
X97658571Y-50762380D01*
X97563333Y-50762380D01*
X97420476Y-50810000D01*
X97372857Y-50857619D01*
X96420476Y-51762380D02*
X96991904Y-51762380D01*
X96706190Y-51762380D02*
X96706190Y-50762380D01*
X96801428Y-50905238D01*
X96896666Y-51000476D01*
X96991904Y-51048095D01*
X95801428Y-50762380D02*
X95706190Y-50762380D01*
X95610952Y-50810000D01*
X95563333Y-50857619D01*
X95515714Y-50952857D01*
X95468095Y-51143333D01*
X95468095Y-51381428D01*
X95515714Y-51571904D01*
X95563333Y-51667142D01*
X95610952Y-51714761D01*
X95706190Y-51762380D01*
X95801428Y-51762380D01*
X95896666Y-51714761D01*
X95944285Y-51667142D01*
X95991904Y-51571904D01*
X96039523Y-51381428D01*
X96039523Y-51143333D01*
X95991904Y-50952857D01*
X95944285Y-50857619D01*
X95896666Y-50810000D01*
X95801428Y-50762380D01*
X147506666Y-72921142D02*
X147554285Y-72968761D01*
X147697142Y-73016380D01*
X147792380Y-73016380D01*
X147935238Y-72968761D01*
X148030476Y-72873523D01*
X148078095Y-72778285D01*
X148125714Y-72587809D01*
X148125714Y-72444952D01*
X148078095Y-72254476D01*
X148030476Y-72159238D01*
X147935238Y-72064000D01*
X147792380Y-72016380D01*
X147697142Y-72016380D01*
X147554285Y-72064000D01*
X147506666Y-72111619D01*
X146601904Y-72016380D02*
X147078095Y-72016380D01*
X147125714Y-72492571D01*
X147078095Y-72444952D01*
X146982857Y-72397333D01*
X146744761Y-72397333D01*
X146649523Y-72444952D01*
X146601904Y-72492571D01*
X146554285Y-72587809D01*
X146554285Y-72825904D01*
X146601904Y-72921142D01*
X146649523Y-72968761D01*
X146744761Y-73016380D01*
X146982857Y-73016380D01*
X147078095Y-72968761D01*
X147125714Y-72921142D01*
M02*
