G04 #@! TF.GenerationSoftware,KiCad,Pcbnew,(5.1.4)-1*
G04 #@! TF.CreationDate,2019-11-08T19:54:44+05:00*
G04 #@! TF.ProjectId,powerSupplyArduino,706f7765-7253-4757-9070-6c7941726475,rev?*
G04 #@! TF.SameCoordinates,Original*
G04 #@! TF.FileFunction,Legend,Top*
G04 #@! TF.FilePolarity,Positive*
%FSLAX46Y46*%
G04 Gerber Fmt 4.6, Leading zero omitted, Abs format (unit mm)*
G04 Created by KiCad (PCBNEW (5.1.4)-1) date 2019-11-08 19:54:44*
%MOMM*%
%LPD*%
G04 APERTURE LIST*
%ADD10C,0.150000*%
%ADD11C,0.120000*%
G04 APERTURE END LIST*
D10*
X130850952Y-57245714D02*
X130850952Y-58245714D01*
X130850952Y-57293333D02*
X130946190Y-57245714D01*
X131136666Y-57245714D01*
X131231904Y-57293333D01*
X131279523Y-57340952D01*
X131327142Y-57436190D01*
X131327142Y-57721904D01*
X131279523Y-57817142D01*
X131231904Y-57864761D01*
X131136666Y-57912380D01*
X130946190Y-57912380D01*
X130850952Y-57864761D01*
X131898571Y-57912380D02*
X131803333Y-57864761D01*
X131755714Y-57817142D01*
X131708095Y-57721904D01*
X131708095Y-57436190D01*
X131755714Y-57340952D01*
X131803333Y-57293333D01*
X131898571Y-57245714D01*
X132041428Y-57245714D01*
X132136666Y-57293333D01*
X132184285Y-57340952D01*
X132231904Y-57436190D01*
X132231904Y-57721904D01*
X132184285Y-57817142D01*
X132136666Y-57864761D01*
X132041428Y-57912380D01*
X131898571Y-57912380D01*
X132565238Y-57245714D02*
X132803333Y-57912380D01*
X133041428Y-57245714D01*
X133803333Y-57864761D02*
X133708095Y-57912380D01*
X133517619Y-57912380D01*
X133422380Y-57864761D01*
X133374761Y-57769523D01*
X133374761Y-57388571D01*
X133422380Y-57293333D01*
X133517619Y-57245714D01*
X133708095Y-57245714D01*
X133803333Y-57293333D01*
X133850952Y-57388571D01*
X133850952Y-57483809D01*
X133374761Y-57579047D01*
X134279523Y-57912380D02*
X134279523Y-57245714D01*
X134279523Y-57436190D02*
X134327142Y-57340952D01*
X134374761Y-57293333D01*
X134470000Y-57245714D01*
X134565238Y-57245714D01*
X134850952Y-57864761D02*
X134993809Y-57912380D01*
X135231904Y-57912380D01*
X135327142Y-57864761D01*
X135374761Y-57817142D01*
X135422380Y-57721904D01*
X135422380Y-57626666D01*
X135374761Y-57531428D01*
X135327142Y-57483809D01*
X135231904Y-57436190D01*
X135041428Y-57388571D01*
X134946190Y-57340952D01*
X134898571Y-57293333D01*
X134850952Y-57198095D01*
X134850952Y-57102857D01*
X134898571Y-57007619D01*
X134946190Y-56960000D01*
X135041428Y-56912380D01*
X135279523Y-56912380D01*
X135422380Y-56960000D01*
X136279523Y-57245714D02*
X136279523Y-57912380D01*
X135850952Y-57245714D02*
X135850952Y-57769523D01*
X135898571Y-57864761D01*
X135993809Y-57912380D01*
X136136666Y-57912380D01*
X136231904Y-57864761D01*
X136279523Y-57817142D01*
X136755714Y-57245714D02*
X136755714Y-58245714D01*
X136755714Y-57293333D02*
X136850952Y-57245714D01*
X137041428Y-57245714D01*
X137136666Y-57293333D01*
X137184285Y-57340952D01*
X137231904Y-57436190D01*
X137231904Y-57721904D01*
X137184285Y-57817142D01*
X137136666Y-57864761D01*
X137041428Y-57912380D01*
X136850952Y-57912380D01*
X136755714Y-57864761D01*
X137660476Y-57245714D02*
X137660476Y-58245714D01*
X137660476Y-57293333D02*
X137755714Y-57245714D01*
X137946190Y-57245714D01*
X138041428Y-57293333D01*
X138089047Y-57340952D01*
X138136666Y-57436190D01*
X138136666Y-57721904D01*
X138089047Y-57817142D01*
X138041428Y-57864761D01*
X137946190Y-57912380D01*
X137755714Y-57912380D01*
X137660476Y-57864761D01*
X138708095Y-57912380D02*
X138612857Y-57864761D01*
X138565238Y-57769523D01*
X138565238Y-56912380D01*
X138993809Y-57245714D02*
X139231904Y-57912380D01*
X139470000Y-57245714D02*
X139231904Y-57912380D01*
X139136666Y-58150476D01*
X139089047Y-58198095D01*
X138993809Y-58245714D01*
X139803333Y-57626666D02*
X140279523Y-57626666D01*
X139708095Y-57912380D02*
X140041428Y-56912380D01*
X140374761Y-57912380D01*
X140708095Y-57912380D02*
X140708095Y-57245714D01*
X140708095Y-57436190D02*
X140755714Y-57340952D01*
X140803333Y-57293333D01*
X140898571Y-57245714D01*
X140993809Y-57245714D01*
X141755714Y-57912380D02*
X141755714Y-56912380D01*
X141755714Y-57864761D02*
X141660476Y-57912380D01*
X141470000Y-57912380D01*
X141374761Y-57864761D01*
X141327142Y-57817142D01*
X141279523Y-57721904D01*
X141279523Y-57436190D01*
X141327142Y-57340952D01*
X141374761Y-57293333D01*
X141470000Y-57245714D01*
X141660476Y-57245714D01*
X141755714Y-57293333D01*
X142660476Y-57245714D02*
X142660476Y-57912380D01*
X142231904Y-57245714D02*
X142231904Y-57769523D01*
X142279523Y-57864761D01*
X142374761Y-57912380D01*
X142517619Y-57912380D01*
X142612857Y-57864761D01*
X142660476Y-57817142D01*
X143136666Y-57912380D02*
X143136666Y-57245714D01*
X143136666Y-56912380D02*
X143089047Y-56960000D01*
X143136666Y-57007619D01*
X143184285Y-56960000D01*
X143136666Y-56912380D01*
X143136666Y-57007619D01*
X143612857Y-57245714D02*
X143612857Y-57912380D01*
X143612857Y-57340952D02*
X143660476Y-57293333D01*
X143755714Y-57245714D01*
X143898571Y-57245714D01*
X143993809Y-57293333D01*
X144041428Y-57388571D01*
X144041428Y-57912380D01*
X144660476Y-57912380D02*
X144565238Y-57864761D01*
X144517619Y-57817142D01*
X144470000Y-57721904D01*
X144470000Y-57436190D01*
X144517619Y-57340952D01*
X144565238Y-57293333D01*
X144660476Y-57245714D01*
X144803333Y-57245714D01*
X144898571Y-57293333D01*
X144946190Y-57340952D01*
X144993809Y-57436190D01*
X144993809Y-57721904D01*
X144946190Y-57817142D01*
X144898571Y-57864761D01*
X144803333Y-57912380D01*
X144660476Y-57912380D01*
X146374761Y-56912380D02*
X146470000Y-56912380D01*
X146565238Y-56960000D01*
X146612857Y-57007619D01*
X146660476Y-57102857D01*
X146708095Y-57293333D01*
X146708095Y-57531428D01*
X146660476Y-57721904D01*
X146612857Y-57817142D01*
X146565238Y-57864761D01*
X146470000Y-57912380D01*
X146374761Y-57912380D01*
X146279523Y-57864761D01*
X146231904Y-57817142D01*
X146184285Y-57721904D01*
X146136666Y-57531428D01*
X146136666Y-57293333D01*
X146184285Y-57102857D01*
X146231904Y-57007619D01*
X146279523Y-56960000D01*
X146374761Y-56912380D01*
X147136666Y-57817142D02*
X147184285Y-57864761D01*
X147136666Y-57912380D01*
X147089047Y-57864761D01*
X147136666Y-57817142D01*
X147136666Y-57912380D01*
X148136666Y-57912380D02*
X147565238Y-57912380D01*
X147850952Y-57912380D02*
X147850952Y-56912380D01*
X147755714Y-57055238D01*
X147660476Y-57150476D01*
X147565238Y-57198095D01*
D11*
X156550000Y-54290000D02*
X156550000Y-51630000D01*
X153950000Y-54290000D02*
X156550000Y-54290000D01*
X153950000Y-51630000D02*
X156550000Y-51630000D01*
X153950000Y-54290000D02*
X153950000Y-51630000D01*
X152680000Y-54290000D02*
X151350000Y-54290000D01*
X151350000Y-54290000D02*
X151350000Y-52960000D01*
X119110000Y-97850000D02*
X121770000Y-97850000D01*
X119110000Y-97790000D02*
X119110000Y-97850000D01*
X121770000Y-97790000D02*
X121770000Y-97850000D01*
X119110000Y-97790000D02*
X121770000Y-97790000D01*
X119110000Y-96520000D02*
X119110000Y-95190000D01*
X119110000Y-95190000D02*
X120440000Y-95190000D01*
X131580000Y-97980000D02*
X134240000Y-97980000D01*
X131580000Y-97920000D02*
X131580000Y-97980000D01*
X134240000Y-97920000D02*
X134240000Y-97980000D01*
X131580000Y-97920000D02*
X134240000Y-97920000D01*
X131580000Y-96650000D02*
X131580000Y-95320000D01*
X131580000Y-95320000D02*
X132910000Y-95320000D01*
X154740000Y-60280000D02*
X157400000Y-60280000D01*
X154740000Y-60220000D02*
X154740000Y-60280000D01*
X157400000Y-60220000D02*
X157400000Y-60280000D01*
X154740000Y-60220000D02*
X157400000Y-60220000D01*
X154740000Y-58950000D02*
X154740000Y-57620000D01*
X154740000Y-57620000D02*
X156070000Y-57620000D01*
X150180000Y-86870000D02*
X152840000Y-86870000D01*
X150180000Y-86810000D02*
X150180000Y-86870000D01*
X152840000Y-86810000D02*
X152840000Y-86870000D01*
X150180000Y-86810000D02*
X152840000Y-86810000D01*
X150180000Y-85540000D02*
X150180000Y-84210000D01*
X150180000Y-84210000D02*
X151510000Y-84210000D01*
X150070000Y-77110000D02*
X152730000Y-77110000D01*
X150070000Y-77050000D02*
X150070000Y-77110000D01*
X152730000Y-77050000D02*
X152730000Y-77110000D01*
X150070000Y-77050000D02*
X152730000Y-77050000D01*
X150070000Y-75780000D02*
X150070000Y-74450000D01*
X150070000Y-74450000D02*
X151400000Y-74450000D01*
X150160000Y-81990000D02*
X152820000Y-81990000D01*
X150160000Y-81930000D02*
X150160000Y-81990000D01*
X152820000Y-81930000D02*
X152820000Y-81990000D01*
X150160000Y-81930000D02*
X152820000Y-81930000D01*
X150160000Y-80660000D02*
X150160000Y-79330000D01*
X150160000Y-79330000D02*
X151490000Y-79330000D01*
X100975000Y-90015000D02*
X111125000Y-90015000D01*
X100975000Y-99665000D02*
X111125000Y-99665000D01*
X100975000Y-90015000D02*
X100975000Y-99665000D01*
X111125000Y-90015000D02*
X111125000Y-99665000D01*
X99455000Y-90191000D02*
X100974000Y-90191000D01*
X99455000Y-92500000D02*
X100974000Y-92500000D01*
X99455000Y-90191000D02*
X99455000Y-92500000D01*
X100974000Y-90191000D02*
X100974000Y-92500000D01*
X99455000Y-91345000D02*
X100215000Y-91345000D01*
X110235000Y-51821000D02*
X110235000Y-61971000D01*
X100585000Y-51821000D02*
X100585000Y-61971000D01*
X110235000Y-51821000D02*
X100585000Y-51821000D01*
X110235000Y-61971000D02*
X100585000Y-61971000D01*
X110059000Y-50301000D02*
X110059000Y-51820000D01*
X107750000Y-50301000D02*
X107750000Y-51820000D01*
X110059000Y-50301000D02*
X107750000Y-50301000D01*
X110059000Y-51820000D02*
X107750000Y-51820000D01*
X108905000Y-50301000D02*
X108905000Y-51061000D01*
X178035000Y-74475000D02*
X167885000Y-74475000D01*
X178035000Y-64825000D02*
X167885000Y-64825000D01*
X178035000Y-74475000D02*
X178035000Y-64825000D01*
X167885000Y-74475000D02*
X167885000Y-64825000D01*
X179555000Y-74299000D02*
X178036000Y-74299000D01*
X179555000Y-71990000D02*
X178036000Y-71990000D01*
X179555000Y-74299000D02*
X179555000Y-71990000D01*
X178036000Y-74299000D02*
X178036000Y-71990000D01*
X179555000Y-73145000D02*
X178795000Y-73145000D01*
X120649000Y-51821000D02*
X120649000Y-61971000D01*
X110999000Y-51821000D02*
X110999000Y-61971000D01*
X120649000Y-51821000D02*
X110999000Y-51821000D01*
X120649000Y-61971000D02*
X110999000Y-61971000D01*
X120473000Y-50301000D02*
X120473000Y-51820000D01*
X118164000Y-50301000D02*
X118164000Y-51820000D01*
X120473000Y-50301000D02*
X118164000Y-50301000D01*
X120473000Y-51820000D02*
X118164000Y-51820000D01*
X119319000Y-50301000D02*
X119319000Y-51061000D01*
X159230000Y-98810000D02*
X159230000Y-96630000D01*
X159230000Y-92210000D02*
X159230000Y-94390000D01*
X152630000Y-98050000D02*
X152630000Y-96630000D01*
X152630000Y-92970000D02*
X152630000Y-94390000D01*
X159230000Y-98810000D02*
X153390000Y-98810000D01*
X153390000Y-98810000D02*
X152630000Y-98050000D01*
X152630000Y-92970000D02*
X153390000Y-92210000D01*
X153390000Y-92210000D02*
X159230000Y-92210000D01*
D10*
X113895000Y-74390000D02*
X112470000Y-74390000D01*
X121145000Y-74165000D02*
X120820000Y-74165000D01*
X121145000Y-81415000D02*
X120820000Y-81415000D01*
X113895000Y-81415000D02*
X114220000Y-81415000D01*
X113895000Y-74165000D02*
X114220000Y-74165000D01*
X113895000Y-81415000D02*
X113895000Y-81090000D01*
X121145000Y-81415000D02*
X121145000Y-81090000D01*
X121145000Y-74165000D02*
X121145000Y-74490000D01*
X113895000Y-74165000D02*
X113895000Y-74390000D01*
D11*
X135840000Y-79350000D02*
X135840000Y-82800000D01*
X135840000Y-79350000D02*
X135840000Y-77400000D01*
X145960000Y-79350000D02*
X145960000Y-81300000D01*
X145960000Y-79350000D02*
X145960000Y-77400000D01*
X155865000Y-79620000D02*
X155865000Y-83070000D01*
X155865000Y-79620000D02*
X155865000Y-77670000D01*
X164735000Y-79620000D02*
X164735000Y-81570000D01*
X164735000Y-79620000D02*
X164735000Y-77670000D01*
X140860000Y-89420000D02*
X142060000Y-89420000D01*
X142060000Y-91180000D02*
X140860000Y-91180000D01*
X142350000Y-64912000D02*
X141150000Y-64912000D01*
X141150000Y-63152000D02*
X142350000Y-63152000D01*
X114010000Y-89730000D02*
X115210000Y-89730000D01*
X115210000Y-91490000D02*
X114010000Y-91490000D01*
X126950000Y-91180000D02*
X125750000Y-91180000D01*
X125750000Y-89420000D02*
X126950000Y-89420000D01*
X134210000Y-91180000D02*
X133010000Y-91180000D01*
X133010000Y-89420000D02*
X134210000Y-89420000D01*
X147900000Y-71724000D02*
X146700000Y-71724000D01*
X146700000Y-69964000D02*
X147900000Y-69964000D01*
X152800000Y-63152000D02*
X154000000Y-63152000D01*
X154000000Y-64912000D02*
X152800000Y-64912000D01*
X152450000Y-69964000D02*
X153650000Y-69964000D01*
X153650000Y-71724000D02*
X152450000Y-71724000D01*
X142100000Y-71724000D02*
X140900000Y-71724000D01*
X140900000Y-69964000D02*
X142100000Y-69964000D01*
X94650000Y-79730000D02*
X94650000Y-78530000D01*
X96410000Y-78530000D02*
X96410000Y-79730000D01*
X136210000Y-64912000D02*
X135010000Y-64912000D01*
X135010000Y-63152000D02*
X136210000Y-63152000D01*
X174470000Y-86770000D02*
X175670000Y-86770000D01*
X175670000Y-88530000D02*
X174470000Y-88530000D01*
X175730000Y-91910000D02*
X174530000Y-91910000D01*
X174530000Y-90150000D02*
X175730000Y-90150000D01*
X148310000Y-64912000D02*
X147110000Y-64912000D01*
X147110000Y-63152000D02*
X148310000Y-63152000D01*
X148850000Y-91180000D02*
X147650000Y-91180000D01*
X147650000Y-89420000D02*
X148850000Y-89420000D01*
X121370000Y-63084000D02*
X122570000Y-63084000D01*
X122570000Y-64844000D02*
X121370000Y-64844000D01*
X139428000Y-96050000D02*
X139428000Y-97250000D01*
X137668000Y-97250000D02*
X137668000Y-96050000D01*
X175730000Y-81245000D02*
X174530000Y-81245000D01*
X174530000Y-79485000D02*
X175730000Y-79485000D01*
X174530000Y-75910000D02*
X175730000Y-75910000D01*
X175730000Y-77670000D02*
X174530000Y-77670000D01*
X128250064Y-95570000D02*
X127045936Y-95570000D01*
X128250064Y-98290000D02*
X127045936Y-98290000D01*
X123110000Y-51400000D02*
X123110000Y-54060000D01*
X133330000Y-51400000D02*
X123110000Y-51400000D01*
X133330000Y-54060000D02*
X123110000Y-54060000D01*
X133330000Y-51400000D02*
X133330000Y-54060000D01*
X134600000Y-51400000D02*
X135930000Y-51400000D01*
X135930000Y-51400000D02*
X135930000Y-52730000D01*
X98530000Y-62860000D02*
X98530000Y-68060000D01*
X103670000Y-62860000D02*
X98530000Y-62860000D01*
X106270000Y-68060000D02*
X98530000Y-68060000D01*
X103670000Y-62860000D02*
X103670000Y-65460000D01*
X103670000Y-65460000D02*
X106270000Y-65460000D01*
X106270000Y-65460000D02*
X106270000Y-68060000D01*
X104940000Y-62860000D02*
X106270000Y-62860000D01*
X106270000Y-62860000D02*
X106270000Y-64190000D01*
X93410000Y-83420000D02*
X90750000Y-83420000D01*
X93410000Y-86020000D02*
X93410000Y-83420000D01*
X90750000Y-86020000D02*
X90750000Y-83420000D01*
X93410000Y-86020000D02*
X90750000Y-86020000D01*
X93410000Y-87290000D02*
X93410000Y-88620000D01*
X93410000Y-88620000D02*
X92080000Y-88620000D01*
X90540000Y-81180000D02*
X93200000Y-81180000D01*
X90540000Y-53180000D02*
X90540000Y-81180000D01*
X93200000Y-53180000D02*
X93200000Y-81180000D01*
X90540000Y-53180000D02*
X93200000Y-53180000D01*
X90540000Y-51910000D02*
X90540000Y-50580000D01*
X90540000Y-50580000D02*
X91870000Y-50580000D01*
X146080000Y-96050000D02*
X146080000Y-97050000D01*
X147780000Y-97050000D02*
X147780000Y-96050000D01*
X114010000Y-95400000D02*
X115010000Y-95400000D01*
X115010000Y-93700000D02*
X114010000Y-93700000D01*
X115010000Y-96570000D02*
X114010000Y-96570000D01*
X114010000Y-98270000D02*
X115010000Y-98270000D01*
X116370000Y-63150000D02*
X115370000Y-63150000D01*
X115370000Y-64850000D02*
X116370000Y-64850000D01*
X174530000Y-84760000D02*
X175530000Y-84760000D01*
X175530000Y-83060000D02*
X174530000Y-83060000D01*
X158740000Y-64852000D02*
X159740000Y-64852000D01*
X159740000Y-63152000D02*
X158740000Y-63152000D01*
X139660000Y-53780000D02*
X140660000Y-53780000D01*
X140660000Y-52080000D02*
X139660000Y-52080000D01*
X174530000Y-95425000D02*
X175530000Y-95425000D01*
X175530000Y-93725000D02*
X174530000Y-93725000D01*
X177450000Y-56730000D02*
X177450000Y-58280000D01*
X177450000Y-62060000D02*
X177450000Y-60510000D01*
X172110000Y-61300000D02*
X172110000Y-60510000D01*
X172110000Y-57490000D02*
X172110000Y-58280000D01*
X177450000Y-56730000D02*
X172870000Y-56730000D01*
X172870000Y-56730000D02*
X172110000Y-57490000D01*
X172110000Y-61300000D02*
X172870000Y-62060000D01*
X172870000Y-62060000D02*
X177450000Y-62060000D01*
X122420000Y-58230000D02*
X122420000Y-59230000D01*
X124120000Y-59230000D02*
X124120000Y-58230000D01*
X143604000Y-97050000D02*
X143604000Y-96050000D01*
X141904000Y-96050000D02*
X141904000Y-97050000D01*
X177450000Y-50680000D02*
X177450000Y-52230000D01*
X177450000Y-56010000D02*
X177450000Y-54460000D01*
X172110000Y-55250000D02*
X172110000Y-54460000D01*
X172110000Y-51440000D02*
X172110000Y-52230000D01*
X177450000Y-50680000D02*
X172870000Y-50680000D01*
X172870000Y-50680000D02*
X172110000Y-51440000D01*
X172110000Y-55250000D02*
X172870000Y-56010000D01*
X172870000Y-56010000D02*
X177450000Y-56010000D01*
X167410000Y-51850000D02*
X165540000Y-51850000D01*
X160550000Y-51850000D02*
X162420000Y-51850000D01*
X159790000Y-60230000D02*
X162420000Y-60230000D01*
X168170000Y-60230000D02*
X165540000Y-60230000D01*
X159790000Y-60230000D02*
X159790000Y-52610000D01*
X159790000Y-52610000D02*
X160550000Y-51850000D01*
X167410000Y-51850000D02*
X168170000Y-52610000D01*
X168170000Y-52610000D02*
X168170000Y-60230000D01*
X146400000Y-53890000D02*
X147400000Y-53890000D01*
X147400000Y-52190000D02*
X146400000Y-52190000D01*
D10*
X93938095Y-91622380D02*
X93938095Y-90622380D01*
X93938095Y-91098571D02*
X94509523Y-91098571D01*
X94509523Y-91622380D02*
X94509523Y-90622380D01*
X95509523Y-91622380D02*
X94938095Y-91622380D01*
X95223809Y-91622380D02*
X95223809Y-90622380D01*
X95128571Y-90765238D01*
X95033333Y-90860476D01*
X94938095Y-90908095D01*
X166068095Y-91622380D02*
X166068095Y-90622380D01*
X166068095Y-91098571D02*
X166639523Y-91098571D01*
X166639523Y-91622380D02*
X166639523Y-90622380D01*
X167068095Y-90717619D02*
X167115714Y-90670000D01*
X167210952Y-90622380D01*
X167449047Y-90622380D01*
X167544285Y-90670000D01*
X167591904Y-90717619D01*
X167639523Y-90812857D01*
X167639523Y-90908095D01*
X167591904Y-91050952D01*
X167020476Y-91622380D01*
X167639523Y-91622380D01*
X149802380Y-53293333D02*
X150516666Y-53293333D01*
X150659523Y-53340952D01*
X150754761Y-53436190D01*
X150802380Y-53579047D01*
X150802380Y-53674285D01*
X150230952Y-52674285D02*
X150183333Y-52769523D01*
X150135714Y-52817142D01*
X150040476Y-52864761D01*
X149992857Y-52864761D01*
X149897619Y-52817142D01*
X149850000Y-52769523D01*
X149802380Y-52674285D01*
X149802380Y-52483809D01*
X149850000Y-52388571D01*
X149897619Y-52340952D01*
X149992857Y-52293333D01*
X150040476Y-52293333D01*
X150135714Y-52340952D01*
X150183333Y-52388571D01*
X150230952Y-52483809D01*
X150230952Y-52674285D01*
X150278571Y-52769523D01*
X150326190Y-52817142D01*
X150421428Y-52864761D01*
X150611904Y-52864761D01*
X150707142Y-52817142D01*
X150754761Y-52769523D01*
X150802380Y-52674285D01*
X150802380Y-52483809D01*
X150754761Y-52388571D01*
X150707142Y-52340952D01*
X150611904Y-52293333D01*
X150421428Y-52293333D01*
X150326190Y-52340952D01*
X150278571Y-52388571D01*
X150230952Y-52483809D01*
X119630476Y-93642380D02*
X119630476Y-94356666D01*
X119582857Y-94499523D01*
X119487619Y-94594761D01*
X119344761Y-94642380D01*
X119249523Y-94642380D01*
X120630476Y-94642380D02*
X120059047Y-94642380D01*
X120344761Y-94642380D02*
X120344761Y-93642380D01*
X120249523Y-93785238D01*
X120154285Y-93880476D01*
X120059047Y-93928095D01*
X121011428Y-93737619D02*
X121059047Y-93690000D01*
X121154285Y-93642380D01*
X121392380Y-93642380D01*
X121487619Y-93690000D01*
X121535238Y-93737619D01*
X121582857Y-93832857D01*
X121582857Y-93928095D01*
X121535238Y-94070952D01*
X120963809Y-94642380D01*
X121582857Y-94642380D01*
X132100476Y-93772380D02*
X132100476Y-94486666D01*
X132052857Y-94629523D01*
X131957619Y-94724761D01*
X131814761Y-94772380D01*
X131719523Y-94772380D01*
X133100476Y-94772380D02*
X132529047Y-94772380D01*
X132814761Y-94772380D02*
X132814761Y-93772380D01*
X132719523Y-93915238D01*
X132624285Y-94010476D01*
X132529047Y-94058095D01*
X134052857Y-94772380D02*
X133481428Y-94772380D01*
X133767142Y-94772380D02*
X133767142Y-93772380D01*
X133671904Y-93915238D01*
X133576666Y-94010476D01*
X133481428Y-94058095D01*
X155260476Y-56072380D02*
X155260476Y-56786666D01*
X155212857Y-56929523D01*
X155117619Y-57024761D01*
X154974761Y-57072380D01*
X154879523Y-57072380D01*
X156260476Y-57072380D02*
X155689047Y-57072380D01*
X155974761Y-57072380D02*
X155974761Y-56072380D01*
X155879523Y-56215238D01*
X155784285Y-56310476D01*
X155689047Y-56358095D01*
X156879523Y-56072380D02*
X156974761Y-56072380D01*
X157070000Y-56120000D01*
X157117619Y-56167619D01*
X157165238Y-56262857D01*
X157212857Y-56453333D01*
X157212857Y-56691428D01*
X157165238Y-56881904D01*
X157117619Y-56977142D01*
X157070000Y-57024761D01*
X156974761Y-57072380D01*
X156879523Y-57072380D01*
X156784285Y-57024761D01*
X156736666Y-56977142D01*
X156689047Y-56881904D01*
X156641428Y-56691428D01*
X156641428Y-56453333D01*
X156689047Y-56262857D01*
X156736666Y-56167619D01*
X156784285Y-56120000D01*
X156879523Y-56072380D01*
X151176666Y-82662380D02*
X151176666Y-83376666D01*
X151129047Y-83519523D01*
X151033809Y-83614761D01*
X150890952Y-83662380D01*
X150795714Y-83662380D01*
X151557619Y-82662380D02*
X152224285Y-82662380D01*
X151795714Y-83662380D01*
X151066666Y-72902380D02*
X151066666Y-73616666D01*
X151019047Y-73759523D01*
X150923809Y-73854761D01*
X150780952Y-73902380D01*
X150685714Y-73902380D01*
X151495238Y-72997619D02*
X151542857Y-72950000D01*
X151638095Y-72902380D01*
X151876190Y-72902380D01*
X151971428Y-72950000D01*
X152019047Y-72997619D01*
X152066666Y-73092857D01*
X152066666Y-73188095D01*
X152019047Y-73330952D01*
X151447619Y-73902380D01*
X152066666Y-73902380D01*
X151156666Y-77782380D02*
X151156666Y-78496666D01*
X151109047Y-78639523D01*
X151013809Y-78734761D01*
X150870952Y-78782380D01*
X150775714Y-78782380D01*
X152156666Y-78782380D02*
X151585238Y-78782380D01*
X151870952Y-78782380D02*
X151870952Y-77782380D01*
X151775714Y-77925238D01*
X151680476Y-78020476D01*
X151585238Y-78068095D01*
X104694761Y-89277380D02*
X104361428Y-88801190D01*
X104123333Y-89277380D02*
X104123333Y-88277380D01*
X104504285Y-88277380D01*
X104599523Y-88325000D01*
X104647142Y-88372619D01*
X104694761Y-88467857D01*
X104694761Y-88610714D01*
X104647142Y-88705952D01*
X104599523Y-88753571D01*
X104504285Y-88801190D01*
X104123333Y-88801190D01*
X104980476Y-88277380D02*
X105313809Y-89277380D01*
X105647142Y-88277380D01*
X106409047Y-88610714D02*
X106409047Y-89277380D01*
X106170952Y-88229761D02*
X105932857Y-88944047D01*
X106551904Y-88944047D01*
X111877380Y-56731238D02*
X111401190Y-57064571D01*
X111877380Y-57302666D02*
X110877380Y-57302666D01*
X110877380Y-56921714D01*
X110925000Y-56826476D01*
X110972619Y-56778857D01*
X111067857Y-56731238D01*
X111210714Y-56731238D01*
X111305952Y-56778857D01*
X111353571Y-56826476D01*
X111401190Y-56921714D01*
X111401190Y-57302666D01*
X110877380Y-56445523D02*
X111877380Y-56112190D01*
X110877380Y-55778857D01*
X110877380Y-55540761D02*
X110877380Y-54921714D01*
X111258333Y-55255047D01*
X111258333Y-55112190D01*
X111305952Y-55016952D01*
X111353571Y-54969333D01*
X111448809Y-54921714D01*
X111686904Y-54921714D01*
X111782142Y-54969333D01*
X111829761Y-55016952D01*
X111877380Y-55112190D01*
X111877380Y-55397904D01*
X111829761Y-55493142D01*
X111782142Y-55540761D01*
X173124761Y-76117380D02*
X172791428Y-75641190D01*
X172553333Y-76117380D02*
X172553333Y-75117380D01*
X172934285Y-75117380D01*
X173029523Y-75165000D01*
X173077142Y-75212619D01*
X173124761Y-75307857D01*
X173124761Y-75450714D01*
X173077142Y-75545952D01*
X173029523Y-75593571D01*
X172934285Y-75641190D01*
X172553333Y-75641190D01*
X173410476Y-75117380D02*
X173743809Y-76117380D01*
X174077142Y-75117380D01*
X174362857Y-75212619D02*
X174410476Y-75165000D01*
X174505714Y-75117380D01*
X174743809Y-75117380D01*
X174839047Y-75165000D01*
X174886666Y-75212619D01*
X174934285Y-75307857D01*
X174934285Y-75403095D01*
X174886666Y-75545952D01*
X174315238Y-76117380D01*
X174934285Y-76117380D01*
X122291380Y-56731238D02*
X121815190Y-57064571D01*
X122291380Y-57302666D02*
X121291380Y-57302666D01*
X121291380Y-56921714D01*
X121339000Y-56826476D01*
X121386619Y-56778857D01*
X121481857Y-56731238D01*
X121624714Y-56731238D01*
X121719952Y-56778857D01*
X121767571Y-56826476D01*
X121815190Y-56921714D01*
X121815190Y-57302666D01*
X121291380Y-56445523D02*
X122291380Y-56112190D01*
X121291380Y-55778857D01*
X122291380Y-54921714D02*
X122291380Y-55493142D01*
X122291380Y-55207428D02*
X121291380Y-55207428D01*
X121434238Y-55302666D01*
X121529476Y-55397904D01*
X121577095Y-55493142D01*
X155287142Y-100427142D02*
X155239523Y-100474761D01*
X155096666Y-100522380D01*
X155001428Y-100522380D01*
X154858571Y-100474761D01*
X154763333Y-100379523D01*
X154715714Y-100284285D01*
X154668095Y-100093809D01*
X154668095Y-99950952D01*
X154715714Y-99760476D01*
X154763333Y-99665238D01*
X154858571Y-99570000D01*
X155001428Y-99522380D01*
X155096666Y-99522380D01*
X155239523Y-99570000D01*
X155287142Y-99617619D01*
X156239523Y-100522380D02*
X155668095Y-100522380D01*
X155953809Y-100522380D02*
X155953809Y-99522380D01*
X155858571Y-99665238D01*
X155763333Y-99760476D01*
X155668095Y-99808095D01*
X156572857Y-99522380D02*
X157239523Y-99522380D01*
X156810952Y-100522380D01*
X151269047Y-98591428D02*
X152030952Y-98591428D01*
X151650000Y-98972380D02*
X151650000Y-98210476D01*
X116758095Y-71192380D02*
X116758095Y-72001904D01*
X116805714Y-72097142D01*
X116853333Y-72144761D01*
X116948571Y-72192380D01*
X117139047Y-72192380D01*
X117234285Y-72144761D01*
X117281904Y-72097142D01*
X117329523Y-72001904D01*
X117329523Y-71192380D01*
X117710476Y-71192380D02*
X118329523Y-71192380D01*
X117996190Y-71573333D01*
X118139047Y-71573333D01*
X118234285Y-71620952D01*
X118281904Y-71668571D01*
X118329523Y-71763809D01*
X118329523Y-72001904D01*
X118281904Y-72097142D01*
X118234285Y-72144761D01*
X118139047Y-72192380D01*
X117853333Y-72192380D01*
X117758095Y-72144761D01*
X117710476Y-72097142D01*
X134452380Y-80111904D02*
X135261904Y-80111904D01*
X135357142Y-80064285D01*
X135404761Y-80016666D01*
X135452380Y-79921428D01*
X135452380Y-79730952D01*
X135404761Y-79635714D01*
X135357142Y-79588095D01*
X135261904Y-79540476D01*
X134452380Y-79540476D01*
X134547619Y-79111904D02*
X134500000Y-79064285D01*
X134452380Y-78969047D01*
X134452380Y-78730952D01*
X134500000Y-78635714D01*
X134547619Y-78588095D01*
X134642857Y-78540476D01*
X134738095Y-78540476D01*
X134880952Y-78588095D01*
X135452380Y-79159523D01*
X135452380Y-78540476D01*
X154472380Y-80381904D02*
X155281904Y-80381904D01*
X155377142Y-80334285D01*
X155424761Y-80286666D01*
X155472380Y-80191428D01*
X155472380Y-80000952D01*
X155424761Y-79905714D01*
X155377142Y-79858095D01*
X155281904Y-79810476D01*
X154472380Y-79810476D01*
X155472380Y-78810476D02*
X155472380Y-79381904D01*
X155472380Y-79096190D02*
X154472380Y-79096190D01*
X154615238Y-79191428D01*
X154710476Y-79286666D01*
X154758095Y-79381904D01*
X140817142Y-92452380D02*
X140483809Y-91976190D01*
X140245714Y-92452380D02*
X140245714Y-91452380D01*
X140626666Y-91452380D01*
X140721904Y-91500000D01*
X140769523Y-91547619D01*
X140817142Y-91642857D01*
X140817142Y-91785714D01*
X140769523Y-91880952D01*
X140721904Y-91928571D01*
X140626666Y-91976190D01*
X140245714Y-91976190D01*
X141198095Y-91547619D02*
X141245714Y-91500000D01*
X141340952Y-91452380D01*
X141579047Y-91452380D01*
X141674285Y-91500000D01*
X141721904Y-91547619D01*
X141769523Y-91642857D01*
X141769523Y-91738095D01*
X141721904Y-91880952D01*
X141150476Y-92452380D01*
X141769523Y-92452380D01*
X142245714Y-92452380D02*
X142436190Y-92452380D01*
X142531428Y-92404761D01*
X142579047Y-92357142D01*
X142674285Y-92214285D01*
X142721904Y-92023809D01*
X142721904Y-91642857D01*
X142674285Y-91547619D01*
X142626666Y-91500000D01*
X142531428Y-91452380D01*
X142340952Y-91452380D01*
X142245714Y-91500000D01*
X142198095Y-91547619D01*
X142150476Y-91642857D01*
X142150476Y-91880952D01*
X142198095Y-91976190D01*
X142245714Y-92023809D01*
X142340952Y-92071428D01*
X142531428Y-92071428D01*
X142626666Y-92023809D01*
X142674285Y-91976190D01*
X142721904Y-91880952D01*
X141107142Y-62784380D02*
X140773809Y-62308190D01*
X140535714Y-62784380D02*
X140535714Y-61784380D01*
X140916666Y-61784380D01*
X141011904Y-61832000D01*
X141059523Y-61879619D01*
X141107142Y-61974857D01*
X141107142Y-62117714D01*
X141059523Y-62212952D01*
X141011904Y-62260571D01*
X140916666Y-62308190D01*
X140535714Y-62308190D01*
X141488095Y-61879619D02*
X141535714Y-61832000D01*
X141630952Y-61784380D01*
X141869047Y-61784380D01*
X141964285Y-61832000D01*
X142011904Y-61879619D01*
X142059523Y-61974857D01*
X142059523Y-62070095D01*
X142011904Y-62212952D01*
X141440476Y-62784380D01*
X142059523Y-62784380D01*
X142630952Y-62212952D02*
X142535714Y-62165333D01*
X142488095Y-62117714D01*
X142440476Y-62022476D01*
X142440476Y-61974857D01*
X142488095Y-61879619D01*
X142535714Y-61832000D01*
X142630952Y-61784380D01*
X142821428Y-61784380D01*
X142916666Y-61832000D01*
X142964285Y-61879619D01*
X143011904Y-61974857D01*
X143011904Y-62022476D01*
X142964285Y-62117714D01*
X142916666Y-62165333D01*
X142821428Y-62212952D01*
X142630952Y-62212952D01*
X142535714Y-62260571D01*
X142488095Y-62308190D01*
X142440476Y-62403428D01*
X142440476Y-62593904D01*
X142488095Y-62689142D01*
X142535714Y-62736761D01*
X142630952Y-62784380D01*
X142821428Y-62784380D01*
X142916666Y-62736761D01*
X142964285Y-62689142D01*
X143011904Y-62593904D01*
X143011904Y-62403428D01*
X142964285Y-62308190D01*
X142916666Y-62260571D01*
X142821428Y-62212952D01*
X113967142Y-89362380D02*
X113633809Y-88886190D01*
X113395714Y-89362380D02*
X113395714Y-88362380D01*
X113776666Y-88362380D01*
X113871904Y-88410000D01*
X113919523Y-88457619D01*
X113967142Y-88552857D01*
X113967142Y-88695714D01*
X113919523Y-88790952D01*
X113871904Y-88838571D01*
X113776666Y-88886190D01*
X113395714Y-88886190D01*
X114348095Y-88457619D02*
X114395714Y-88410000D01*
X114490952Y-88362380D01*
X114729047Y-88362380D01*
X114824285Y-88410000D01*
X114871904Y-88457619D01*
X114919523Y-88552857D01*
X114919523Y-88648095D01*
X114871904Y-88790952D01*
X114300476Y-89362380D01*
X114919523Y-89362380D01*
X115252857Y-88362380D02*
X115919523Y-88362380D01*
X115490952Y-89362380D01*
X125707142Y-89052380D02*
X125373809Y-88576190D01*
X125135714Y-89052380D02*
X125135714Y-88052380D01*
X125516666Y-88052380D01*
X125611904Y-88100000D01*
X125659523Y-88147619D01*
X125707142Y-88242857D01*
X125707142Y-88385714D01*
X125659523Y-88480952D01*
X125611904Y-88528571D01*
X125516666Y-88576190D01*
X125135714Y-88576190D01*
X126088095Y-88147619D02*
X126135714Y-88100000D01*
X126230952Y-88052380D01*
X126469047Y-88052380D01*
X126564285Y-88100000D01*
X126611904Y-88147619D01*
X126659523Y-88242857D01*
X126659523Y-88338095D01*
X126611904Y-88480952D01*
X126040476Y-89052380D01*
X126659523Y-89052380D01*
X127516666Y-88052380D02*
X127326190Y-88052380D01*
X127230952Y-88100000D01*
X127183333Y-88147619D01*
X127088095Y-88290476D01*
X127040476Y-88480952D01*
X127040476Y-88861904D01*
X127088095Y-88957142D01*
X127135714Y-89004761D01*
X127230952Y-89052380D01*
X127421428Y-89052380D01*
X127516666Y-89004761D01*
X127564285Y-88957142D01*
X127611904Y-88861904D01*
X127611904Y-88623809D01*
X127564285Y-88528571D01*
X127516666Y-88480952D01*
X127421428Y-88433333D01*
X127230952Y-88433333D01*
X127135714Y-88480952D01*
X127088095Y-88528571D01*
X127040476Y-88623809D01*
X132667142Y-91727380D02*
X132333809Y-91251190D01*
X132095714Y-91727380D02*
X132095714Y-90727380D01*
X132476666Y-90727380D01*
X132571904Y-90775000D01*
X132619523Y-90822619D01*
X132667142Y-90917857D01*
X132667142Y-91060714D01*
X132619523Y-91155952D01*
X132571904Y-91203571D01*
X132476666Y-91251190D01*
X132095714Y-91251190D01*
X133048095Y-90822619D02*
X133095714Y-90775000D01*
X133190952Y-90727380D01*
X133429047Y-90727380D01*
X133524285Y-90775000D01*
X133571904Y-90822619D01*
X133619523Y-90917857D01*
X133619523Y-91013095D01*
X133571904Y-91155952D01*
X133000476Y-91727380D01*
X133619523Y-91727380D01*
X134524285Y-90727380D02*
X134048095Y-90727380D01*
X134000476Y-91203571D01*
X134048095Y-91155952D01*
X134143333Y-91108333D01*
X134381428Y-91108333D01*
X134476666Y-91155952D01*
X134524285Y-91203571D01*
X134571904Y-91298809D01*
X134571904Y-91536904D01*
X134524285Y-91632142D01*
X134476666Y-91679761D01*
X134381428Y-91727380D01*
X134143333Y-91727380D01*
X134048095Y-91679761D01*
X134000476Y-91632142D01*
X146657142Y-72996380D02*
X146323809Y-72520190D01*
X146085714Y-72996380D02*
X146085714Y-71996380D01*
X146466666Y-71996380D01*
X146561904Y-72044000D01*
X146609523Y-72091619D01*
X146657142Y-72186857D01*
X146657142Y-72329714D01*
X146609523Y-72424952D01*
X146561904Y-72472571D01*
X146466666Y-72520190D01*
X146085714Y-72520190D01*
X147038095Y-72091619D02*
X147085714Y-72044000D01*
X147180952Y-71996380D01*
X147419047Y-71996380D01*
X147514285Y-72044000D01*
X147561904Y-72091619D01*
X147609523Y-72186857D01*
X147609523Y-72282095D01*
X147561904Y-72424952D01*
X146990476Y-72996380D01*
X147609523Y-72996380D01*
X148466666Y-72329714D02*
X148466666Y-72996380D01*
X148228571Y-71948761D02*
X147990476Y-72663047D01*
X148609523Y-72663047D01*
X152757142Y-66184380D02*
X152423809Y-65708190D01*
X152185714Y-66184380D02*
X152185714Y-65184380D01*
X152566666Y-65184380D01*
X152661904Y-65232000D01*
X152709523Y-65279619D01*
X152757142Y-65374857D01*
X152757142Y-65517714D01*
X152709523Y-65612952D01*
X152661904Y-65660571D01*
X152566666Y-65708190D01*
X152185714Y-65708190D01*
X153138095Y-65279619D02*
X153185714Y-65232000D01*
X153280952Y-65184380D01*
X153519047Y-65184380D01*
X153614285Y-65232000D01*
X153661904Y-65279619D01*
X153709523Y-65374857D01*
X153709523Y-65470095D01*
X153661904Y-65612952D01*
X153090476Y-66184380D01*
X153709523Y-66184380D01*
X154042857Y-65184380D02*
X154661904Y-65184380D01*
X154328571Y-65565333D01*
X154471428Y-65565333D01*
X154566666Y-65612952D01*
X154614285Y-65660571D01*
X154661904Y-65755809D01*
X154661904Y-65993904D01*
X154614285Y-66089142D01*
X154566666Y-66136761D01*
X154471428Y-66184380D01*
X154185714Y-66184380D01*
X154090476Y-66136761D01*
X154042857Y-66089142D01*
X152407142Y-72996380D02*
X152073809Y-72520190D01*
X151835714Y-72996380D02*
X151835714Y-71996380D01*
X152216666Y-71996380D01*
X152311904Y-72044000D01*
X152359523Y-72091619D01*
X152407142Y-72186857D01*
X152407142Y-72329714D01*
X152359523Y-72424952D01*
X152311904Y-72472571D01*
X152216666Y-72520190D01*
X151835714Y-72520190D01*
X152788095Y-72091619D02*
X152835714Y-72044000D01*
X152930952Y-71996380D01*
X153169047Y-71996380D01*
X153264285Y-72044000D01*
X153311904Y-72091619D01*
X153359523Y-72186857D01*
X153359523Y-72282095D01*
X153311904Y-72424952D01*
X152740476Y-72996380D01*
X153359523Y-72996380D01*
X153740476Y-72091619D02*
X153788095Y-72044000D01*
X153883333Y-71996380D01*
X154121428Y-71996380D01*
X154216666Y-72044000D01*
X154264285Y-72091619D01*
X154311904Y-72186857D01*
X154311904Y-72282095D01*
X154264285Y-72424952D01*
X153692857Y-72996380D01*
X154311904Y-72996380D01*
X140857142Y-72996380D02*
X140523809Y-72520190D01*
X140285714Y-72996380D02*
X140285714Y-71996380D01*
X140666666Y-71996380D01*
X140761904Y-72044000D01*
X140809523Y-72091619D01*
X140857142Y-72186857D01*
X140857142Y-72329714D01*
X140809523Y-72424952D01*
X140761904Y-72472571D01*
X140666666Y-72520190D01*
X140285714Y-72520190D01*
X141238095Y-72091619D02*
X141285714Y-72044000D01*
X141380952Y-71996380D01*
X141619047Y-71996380D01*
X141714285Y-72044000D01*
X141761904Y-72091619D01*
X141809523Y-72186857D01*
X141809523Y-72282095D01*
X141761904Y-72424952D01*
X141190476Y-72996380D01*
X141809523Y-72996380D01*
X142761904Y-72996380D02*
X142190476Y-72996380D01*
X142476190Y-72996380D02*
X142476190Y-71996380D01*
X142380952Y-72139238D01*
X142285714Y-72234476D01*
X142190476Y-72282095D01*
X97682380Y-79772857D02*
X97206190Y-80106190D01*
X97682380Y-80344285D02*
X96682380Y-80344285D01*
X96682380Y-79963333D01*
X96730000Y-79868095D01*
X96777619Y-79820476D01*
X96872857Y-79772857D01*
X97015714Y-79772857D01*
X97110952Y-79820476D01*
X97158571Y-79868095D01*
X97206190Y-79963333D01*
X97206190Y-80344285D01*
X97682380Y-78820476D02*
X97682380Y-79391904D01*
X97682380Y-79106190D02*
X96682380Y-79106190D01*
X96825238Y-79201428D01*
X96920476Y-79296666D01*
X96968095Y-79391904D01*
X97682380Y-78344285D02*
X97682380Y-78153809D01*
X97634761Y-78058571D01*
X97587142Y-78010952D01*
X97444285Y-77915714D01*
X97253809Y-77868095D01*
X96872857Y-77868095D01*
X96777619Y-77915714D01*
X96730000Y-77963333D01*
X96682380Y-78058571D01*
X96682380Y-78249047D01*
X96730000Y-78344285D01*
X96777619Y-78391904D01*
X96872857Y-78439523D01*
X97110952Y-78439523D01*
X97206190Y-78391904D01*
X97253809Y-78344285D01*
X97301428Y-78249047D01*
X97301428Y-78058571D01*
X97253809Y-77963333D01*
X97206190Y-77915714D01*
X97110952Y-77868095D01*
X134967142Y-62784380D02*
X134633809Y-62308190D01*
X134395714Y-62784380D02*
X134395714Y-61784380D01*
X134776666Y-61784380D01*
X134871904Y-61832000D01*
X134919523Y-61879619D01*
X134967142Y-61974857D01*
X134967142Y-62117714D01*
X134919523Y-62212952D01*
X134871904Y-62260571D01*
X134776666Y-62308190D01*
X134395714Y-62308190D01*
X135919523Y-62784380D02*
X135348095Y-62784380D01*
X135633809Y-62784380D02*
X135633809Y-61784380D01*
X135538571Y-61927238D01*
X135443333Y-62022476D01*
X135348095Y-62070095D01*
X136824285Y-61784380D02*
X136348095Y-61784380D01*
X136300476Y-62260571D01*
X136348095Y-62212952D01*
X136443333Y-62165333D01*
X136681428Y-62165333D01*
X136776666Y-62212952D01*
X136824285Y-62260571D01*
X136871904Y-62355809D01*
X136871904Y-62593904D01*
X136824285Y-62689142D01*
X136776666Y-62736761D01*
X136681428Y-62784380D01*
X136443333Y-62784380D01*
X136348095Y-62736761D01*
X136300476Y-62689142D01*
X174427142Y-89802380D02*
X174093809Y-89326190D01*
X173855714Y-89802380D02*
X173855714Y-88802380D01*
X174236666Y-88802380D01*
X174331904Y-88850000D01*
X174379523Y-88897619D01*
X174427142Y-88992857D01*
X174427142Y-89135714D01*
X174379523Y-89230952D01*
X174331904Y-89278571D01*
X174236666Y-89326190D01*
X173855714Y-89326190D01*
X175379523Y-89802380D02*
X174808095Y-89802380D01*
X175093809Y-89802380D02*
X175093809Y-88802380D01*
X174998571Y-88945238D01*
X174903333Y-89040476D01*
X174808095Y-89088095D01*
X176236666Y-89135714D02*
X176236666Y-89802380D01*
X175998571Y-88754761D02*
X175760476Y-89469047D01*
X176379523Y-89469047D01*
X174487142Y-89782380D02*
X174153809Y-89306190D01*
X173915714Y-89782380D02*
X173915714Y-88782380D01*
X174296666Y-88782380D01*
X174391904Y-88830000D01*
X174439523Y-88877619D01*
X174487142Y-88972857D01*
X174487142Y-89115714D01*
X174439523Y-89210952D01*
X174391904Y-89258571D01*
X174296666Y-89306190D01*
X173915714Y-89306190D01*
X175439523Y-89782380D02*
X174868095Y-89782380D01*
X175153809Y-89782380D02*
X175153809Y-88782380D01*
X175058571Y-88925238D01*
X174963333Y-89020476D01*
X174868095Y-89068095D01*
X175820476Y-88877619D02*
X175868095Y-88830000D01*
X175963333Y-88782380D01*
X176201428Y-88782380D01*
X176296666Y-88830000D01*
X176344285Y-88877619D01*
X176391904Y-88972857D01*
X176391904Y-89068095D01*
X176344285Y-89210952D01*
X175772857Y-89782380D01*
X176391904Y-89782380D01*
X147067142Y-62784380D02*
X146733809Y-62308190D01*
X146495714Y-62784380D02*
X146495714Y-61784380D01*
X146876666Y-61784380D01*
X146971904Y-61832000D01*
X147019523Y-61879619D01*
X147067142Y-61974857D01*
X147067142Y-62117714D01*
X147019523Y-62212952D01*
X146971904Y-62260571D01*
X146876666Y-62308190D01*
X146495714Y-62308190D01*
X148019523Y-62784380D02*
X147448095Y-62784380D01*
X147733809Y-62784380D02*
X147733809Y-61784380D01*
X147638571Y-61927238D01*
X147543333Y-62022476D01*
X147448095Y-62070095D01*
X148638571Y-61784380D02*
X148733809Y-61784380D01*
X148829047Y-61832000D01*
X148876666Y-61879619D01*
X148924285Y-61974857D01*
X148971904Y-62165333D01*
X148971904Y-62403428D01*
X148924285Y-62593904D01*
X148876666Y-62689142D01*
X148829047Y-62736761D01*
X148733809Y-62784380D01*
X148638571Y-62784380D01*
X148543333Y-62736761D01*
X148495714Y-62689142D01*
X148448095Y-62593904D01*
X148400476Y-62403428D01*
X148400476Y-62165333D01*
X148448095Y-61974857D01*
X148495714Y-61879619D01*
X148543333Y-61832000D01*
X148638571Y-61784380D01*
X148083333Y-89052380D02*
X147750000Y-88576190D01*
X147511904Y-89052380D02*
X147511904Y-88052380D01*
X147892857Y-88052380D01*
X147988095Y-88100000D01*
X148035714Y-88147619D01*
X148083333Y-88242857D01*
X148083333Y-88385714D01*
X148035714Y-88480952D01*
X147988095Y-88528571D01*
X147892857Y-88576190D01*
X147511904Y-88576190D01*
X148654761Y-88480952D02*
X148559523Y-88433333D01*
X148511904Y-88385714D01*
X148464285Y-88290476D01*
X148464285Y-88242857D01*
X148511904Y-88147619D01*
X148559523Y-88100000D01*
X148654761Y-88052380D01*
X148845238Y-88052380D01*
X148940476Y-88100000D01*
X148988095Y-88147619D01*
X149035714Y-88242857D01*
X149035714Y-88290476D01*
X148988095Y-88385714D01*
X148940476Y-88433333D01*
X148845238Y-88480952D01*
X148654761Y-88480952D01*
X148559523Y-88528571D01*
X148511904Y-88576190D01*
X148464285Y-88671428D01*
X148464285Y-88861904D01*
X148511904Y-88957142D01*
X148559523Y-89004761D01*
X148654761Y-89052380D01*
X148845238Y-89052380D01*
X148940476Y-89004761D01*
X148988095Y-88957142D01*
X149035714Y-88861904D01*
X149035714Y-88671428D01*
X148988095Y-88576190D01*
X148940476Y-88528571D01*
X148845238Y-88480952D01*
X121803333Y-62716380D02*
X121470000Y-62240190D01*
X121231904Y-62716380D02*
X121231904Y-61716380D01*
X121612857Y-61716380D01*
X121708095Y-61764000D01*
X121755714Y-61811619D01*
X121803333Y-61906857D01*
X121803333Y-62049714D01*
X121755714Y-62144952D01*
X121708095Y-62192571D01*
X121612857Y-62240190D01*
X121231904Y-62240190D01*
X122136666Y-61716380D02*
X122803333Y-61716380D01*
X122374761Y-62716380D01*
X137300380Y-96816666D02*
X136824190Y-97150000D01*
X137300380Y-97388095D02*
X136300380Y-97388095D01*
X136300380Y-97007142D01*
X136348000Y-96911904D01*
X136395619Y-96864285D01*
X136490857Y-96816666D01*
X136633714Y-96816666D01*
X136728952Y-96864285D01*
X136776571Y-96911904D01*
X136824190Y-97007142D01*
X136824190Y-97388095D01*
X136300380Y-95959523D02*
X136300380Y-96150000D01*
X136348000Y-96245238D01*
X136395619Y-96292857D01*
X136538476Y-96388095D01*
X136728952Y-96435714D01*
X137109904Y-96435714D01*
X137205142Y-96388095D01*
X137252761Y-96340476D01*
X137300380Y-96245238D01*
X137300380Y-96054761D01*
X137252761Y-95959523D01*
X137205142Y-95911904D01*
X137109904Y-95864285D01*
X136871809Y-95864285D01*
X136776571Y-95911904D01*
X136728952Y-95959523D01*
X136681333Y-96054761D01*
X136681333Y-96245238D01*
X136728952Y-96340476D01*
X136776571Y-96388095D01*
X136871809Y-96435714D01*
X174963333Y-79117380D02*
X174630000Y-78641190D01*
X174391904Y-79117380D02*
X174391904Y-78117380D01*
X174772857Y-78117380D01*
X174868095Y-78165000D01*
X174915714Y-78212619D01*
X174963333Y-78307857D01*
X174963333Y-78450714D01*
X174915714Y-78545952D01*
X174868095Y-78593571D01*
X174772857Y-78641190D01*
X174391904Y-78641190D01*
X175344285Y-78212619D02*
X175391904Y-78165000D01*
X175487142Y-78117380D01*
X175725238Y-78117380D01*
X175820476Y-78165000D01*
X175868095Y-78212619D01*
X175915714Y-78307857D01*
X175915714Y-78403095D01*
X175868095Y-78545952D01*
X175296666Y-79117380D01*
X175915714Y-79117380D01*
X174963333Y-75542380D02*
X174630000Y-75066190D01*
X174391904Y-75542380D02*
X174391904Y-74542380D01*
X174772857Y-74542380D01*
X174868095Y-74590000D01*
X174915714Y-74637619D01*
X174963333Y-74732857D01*
X174963333Y-74875714D01*
X174915714Y-74970952D01*
X174868095Y-75018571D01*
X174772857Y-75066190D01*
X174391904Y-75066190D01*
X175915714Y-75542380D02*
X175344285Y-75542380D01*
X175630000Y-75542380D02*
X175630000Y-74542380D01*
X175534761Y-74685238D01*
X175439523Y-74780476D01*
X175344285Y-74828095D01*
X127481333Y-99662380D02*
X127005142Y-99662380D01*
X127005142Y-98662380D01*
X128338476Y-99662380D02*
X127767047Y-99662380D01*
X128052761Y-99662380D02*
X128052761Y-98662380D01*
X127957523Y-98805238D01*
X127862285Y-98900476D01*
X127767047Y-98948095D01*
X136382380Y-53063333D02*
X137096666Y-53063333D01*
X137239523Y-53110952D01*
X137334761Y-53206190D01*
X137382380Y-53349047D01*
X137382380Y-53444285D01*
X136382380Y-52158571D02*
X136382380Y-52349047D01*
X136430000Y-52444285D01*
X136477619Y-52491904D01*
X136620476Y-52587142D01*
X136810952Y-52634761D01*
X137191904Y-52634761D01*
X137287142Y-52587142D01*
X137334761Y-52539523D01*
X137382380Y-52444285D01*
X137382380Y-52253809D01*
X137334761Y-52158571D01*
X137287142Y-52110952D01*
X137191904Y-52063333D01*
X136953809Y-52063333D01*
X136858571Y-52110952D01*
X136810952Y-52158571D01*
X136763333Y-52253809D01*
X136763333Y-52444285D01*
X136810952Y-52539523D01*
X136858571Y-52587142D01*
X136953809Y-52634761D01*
X106722380Y-65793333D02*
X107436666Y-65793333D01*
X107579523Y-65840952D01*
X107674761Y-65936190D01*
X107722380Y-66079047D01*
X107722380Y-66174285D01*
X106722380Y-64840952D02*
X106722380Y-65317142D01*
X107198571Y-65364761D01*
X107150952Y-65317142D01*
X107103333Y-65221904D01*
X107103333Y-64983809D01*
X107150952Y-64888571D01*
X107198571Y-64840952D01*
X107293809Y-64793333D01*
X107531904Y-64793333D01*
X107627142Y-64840952D01*
X107674761Y-64888571D01*
X107722380Y-64983809D01*
X107722380Y-65221904D01*
X107674761Y-65317142D01*
X107627142Y-65364761D01*
X91746666Y-89072380D02*
X91746666Y-89786666D01*
X91699047Y-89929523D01*
X91603809Y-90024761D01*
X91460952Y-90072380D01*
X91365714Y-90072380D01*
X92651428Y-89405714D02*
X92651428Y-90072380D01*
X92413333Y-89024761D02*
X92175238Y-89739047D01*
X92794285Y-89739047D01*
X93842380Y-62563333D02*
X94556666Y-62563333D01*
X94699523Y-62610952D01*
X94794761Y-62706190D01*
X94842380Y-62849047D01*
X94842380Y-62944285D01*
X93842380Y-62182380D02*
X93842380Y-61563333D01*
X94223333Y-61896666D01*
X94223333Y-61753809D01*
X94270952Y-61658571D01*
X94318571Y-61610952D01*
X94413809Y-61563333D01*
X94651904Y-61563333D01*
X94747142Y-61610952D01*
X94794761Y-61658571D01*
X94842380Y-61753809D01*
X94842380Y-62039523D01*
X94794761Y-62134761D01*
X94747142Y-62182380D01*
X145537142Y-97192857D02*
X145584761Y-97240476D01*
X145632380Y-97383333D01*
X145632380Y-97478571D01*
X145584761Y-97621428D01*
X145489523Y-97716666D01*
X145394285Y-97764285D01*
X145203809Y-97811904D01*
X145060952Y-97811904D01*
X144870476Y-97764285D01*
X144775238Y-97716666D01*
X144680000Y-97621428D01*
X144632380Y-97478571D01*
X144632380Y-97383333D01*
X144680000Y-97240476D01*
X144727619Y-97192857D01*
X144727619Y-96811904D02*
X144680000Y-96764285D01*
X144632380Y-96669047D01*
X144632380Y-96430952D01*
X144680000Y-96335714D01*
X144727619Y-96288095D01*
X144822857Y-96240476D01*
X144918095Y-96240476D01*
X145060952Y-96288095D01*
X145632380Y-96859523D01*
X145632380Y-96240476D01*
X144727619Y-95859523D02*
X144680000Y-95811904D01*
X144632380Y-95716666D01*
X144632380Y-95478571D01*
X144680000Y-95383333D01*
X144727619Y-95335714D01*
X144822857Y-95288095D01*
X144918095Y-95288095D01*
X145060952Y-95335714D01*
X145632380Y-95907142D01*
X145632380Y-95288095D01*
X113867142Y-96657142D02*
X113819523Y-96704761D01*
X113676666Y-96752380D01*
X113581428Y-96752380D01*
X113438571Y-96704761D01*
X113343333Y-96609523D01*
X113295714Y-96514285D01*
X113248095Y-96323809D01*
X113248095Y-96180952D01*
X113295714Y-95990476D01*
X113343333Y-95895238D01*
X113438571Y-95800000D01*
X113581428Y-95752380D01*
X113676666Y-95752380D01*
X113819523Y-95800000D01*
X113867142Y-95847619D01*
X114248095Y-95847619D02*
X114295714Y-95800000D01*
X114390952Y-95752380D01*
X114629047Y-95752380D01*
X114724285Y-95800000D01*
X114771904Y-95847619D01*
X114819523Y-95942857D01*
X114819523Y-96038095D01*
X114771904Y-96180952D01*
X114200476Y-96752380D01*
X114819523Y-96752380D01*
X115771904Y-96752380D02*
X115200476Y-96752380D01*
X115486190Y-96752380D02*
X115486190Y-95752380D01*
X115390952Y-95895238D01*
X115295714Y-95990476D01*
X115200476Y-96038095D01*
X113867142Y-96027142D02*
X113819523Y-96074761D01*
X113676666Y-96122380D01*
X113581428Y-96122380D01*
X113438571Y-96074761D01*
X113343333Y-95979523D01*
X113295714Y-95884285D01*
X113248095Y-95693809D01*
X113248095Y-95550952D01*
X113295714Y-95360476D01*
X113343333Y-95265238D01*
X113438571Y-95170000D01*
X113581428Y-95122380D01*
X113676666Y-95122380D01*
X113819523Y-95170000D01*
X113867142Y-95217619D01*
X114819523Y-96122380D02*
X114248095Y-96122380D01*
X114533809Y-96122380D02*
X114533809Y-95122380D01*
X114438571Y-95265238D01*
X114343333Y-95360476D01*
X114248095Y-95408095D01*
X115295714Y-96122380D02*
X115486190Y-96122380D01*
X115581428Y-96074761D01*
X115629047Y-96027142D01*
X115724285Y-95884285D01*
X115771904Y-95693809D01*
X115771904Y-95312857D01*
X115724285Y-95217619D01*
X115676666Y-95170000D01*
X115581428Y-95122380D01*
X115390952Y-95122380D01*
X115295714Y-95170000D01*
X115248095Y-95217619D01*
X115200476Y-95312857D01*
X115200476Y-95550952D01*
X115248095Y-95646190D01*
X115295714Y-95693809D01*
X115390952Y-95741428D01*
X115581428Y-95741428D01*
X115676666Y-95693809D01*
X115724285Y-95646190D01*
X115771904Y-95550952D01*
X115227142Y-62607142D02*
X115179523Y-62654761D01*
X115036666Y-62702380D01*
X114941428Y-62702380D01*
X114798571Y-62654761D01*
X114703333Y-62559523D01*
X114655714Y-62464285D01*
X114608095Y-62273809D01*
X114608095Y-62130952D01*
X114655714Y-61940476D01*
X114703333Y-61845238D01*
X114798571Y-61750000D01*
X114941428Y-61702380D01*
X115036666Y-61702380D01*
X115179523Y-61750000D01*
X115227142Y-61797619D01*
X116179523Y-62702380D02*
X115608095Y-62702380D01*
X115893809Y-62702380D02*
X115893809Y-61702380D01*
X115798571Y-61845238D01*
X115703333Y-61940476D01*
X115608095Y-61988095D01*
X117036666Y-61702380D02*
X116846190Y-61702380D01*
X116750952Y-61750000D01*
X116703333Y-61797619D01*
X116608095Y-61940476D01*
X116560476Y-62130952D01*
X116560476Y-62511904D01*
X116608095Y-62607142D01*
X116655714Y-62654761D01*
X116750952Y-62702380D01*
X116941428Y-62702380D01*
X117036666Y-62654761D01*
X117084285Y-62607142D01*
X117131904Y-62511904D01*
X117131904Y-62273809D01*
X117084285Y-62178571D01*
X117036666Y-62130952D01*
X116941428Y-62083333D01*
X116750952Y-62083333D01*
X116655714Y-62130952D01*
X116608095Y-62178571D01*
X116560476Y-62273809D01*
X174387142Y-82517142D02*
X174339523Y-82564761D01*
X174196666Y-82612380D01*
X174101428Y-82612380D01*
X173958571Y-82564761D01*
X173863333Y-82469523D01*
X173815714Y-82374285D01*
X173768095Y-82183809D01*
X173768095Y-82040952D01*
X173815714Y-81850476D01*
X173863333Y-81755238D01*
X173958571Y-81660000D01*
X174101428Y-81612380D01*
X174196666Y-81612380D01*
X174339523Y-81660000D01*
X174387142Y-81707619D01*
X175339523Y-82612380D02*
X174768095Y-82612380D01*
X175053809Y-82612380D02*
X175053809Y-81612380D01*
X174958571Y-81755238D01*
X174863333Y-81850476D01*
X174768095Y-81898095D01*
X176244285Y-81612380D02*
X175768095Y-81612380D01*
X175720476Y-82088571D01*
X175768095Y-82040952D01*
X175863333Y-81993333D01*
X176101428Y-81993333D01*
X176196666Y-82040952D01*
X176244285Y-82088571D01*
X176291904Y-82183809D01*
X176291904Y-82421904D01*
X176244285Y-82517142D01*
X176196666Y-82564761D01*
X176101428Y-82612380D01*
X175863333Y-82612380D01*
X175768095Y-82564761D01*
X175720476Y-82517142D01*
X158597142Y-66109142D02*
X158549523Y-66156761D01*
X158406666Y-66204380D01*
X158311428Y-66204380D01*
X158168571Y-66156761D01*
X158073333Y-66061523D01*
X158025714Y-65966285D01*
X157978095Y-65775809D01*
X157978095Y-65632952D01*
X158025714Y-65442476D01*
X158073333Y-65347238D01*
X158168571Y-65252000D01*
X158311428Y-65204380D01*
X158406666Y-65204380D01*
X158549523Y-65252000D01*
X158597142Y-65299619D01*
X159549523Y-66204380D02*
X158978095Y-66204380D01*
X159263809Y-66204380D02*
X159263809Y-65204380D01*
X159168571Y-65347238D01*
X159073333Y-65442476D01*
X158978095Y-65490095D01*
X159930476Y-65299619D02*
X159978095Y-65252000D01*
X160073333Y-65204380D01*
X160311428Y-65204380D01*
X160406666Y-65252000D01*
X160454285Y-65299619D01*
X160501904Y-65394857D01*
X160501904Y-65490095D01*
X160454285Y-65632952D01*
X159882857Y-66204380D01*
X160501904Y-66204380D01*
X139517142Y-55037142D02*
X139469523Y-55084761D01*
X139326666Y-55132380D01*
X139231428Y-55132380D01*
X139088571Y-55084761D01*
X138993333Y-54989523D01*
X138945714Y-54894285D01*
X138898095Y-54703809D01*
X138898095Y-54560952D01*
X138945714Y-54370476D01*
X138993333Y-54275238D01*
X139088571Y-54180000D01*
X139231428Y-54132380D01*
X139326666Y-54132380D01*
X139469523Y-54180000D01*
X139517142Y-54227619D01*
X140469523Y-55132380D02*
X139898095Y-55132380D01*
X140183809Y-55132380D02*
X140183809Y-54132380D01*
X140088571Y-54275238D01*
X139993333Y-54370476D01*
X139898095Y-54418095D01*
X141421904Y-55132380D02*
X140850476Y-55132380D01*
X141136190Y-55132380D02*
X141136190Y-54132380D01*
X141040952Y-54275238D01*
X140945714Y-54370476D01*
X140850476Y-54418095D01*
X174863333Y-96682142D02*
X174815714Y-96729761D01*
X174672857Y-96777380D01*
X174577619Y-96777380D01*
X174434761Y-96729761D01*
X174339523Y-96634523D01*
X174291904Y-96539285D01*
X174244285Y-96348809D01*
X174244285Y-96205952D01*
X174291904Y-96015476D01*
X174339523Y-95920238D01*
X174434761Y-95825000D01*
X174577619Y-95777380D01*
X174672857Y-95777380D01*
X174815714Y-95825000D01*
X174863333Y-95872619D01*
X175339523Y-96777380D02*
X175530000Y-96777380D01*
X175625238Y-96729761D01*
X175672857Y-96682142D01*
X175768095Y-96539285D01*
X175815714Y-96348809D01*
X175815714Y-95967857D01*
X175768095Y-95872619D01*
X175720476Y-95825000D01*
X175625238Y-95777380D01*
X175434761Y-95777380D01*
X175339523Y-95825000D01*
X175291904Y-95872619D01*
X175244285Y-95967857D01*
X175244285Y-96205952D01*
X175291904Y-96301190D01*
X175339523Y-96348809D01*
X175434761Y-96396428D01*
X175625238Y-96396428D01*
X175720476Y-96348809D01*
X175768095Y-96301190D01*
X175815714Y-96205952D01*
X174613333Y-63697142D02*
X174565714Y-63744761D01*
X174422857Y-63792380D01*
X174327619Y-63792380D01*
X174184761Y-63744761D01*
X174089523Y-63649523D01*
X174041904Y-63554285D01*
X173994285Y-63363809D01*
X173994285Y-63220952D01*
X174041904Y-63030476D01*
X174089523Y-62935238D01*
X174184761Y-62840000D01*
X174327619Y-62792380D01*
X174422857Y-62792380D01*
X174565714Y-62840000D01*
X174613333Y-62887619D01*
X175184761Y-63220952D02*
X175089523Y-63173333D01*
X175041904Y-63125714D01*
X174994285Y-63030476D01*
X174994285Y-62982857D01*
X175041904Y-62887619D01*
X175089523Y-62840000D01*
X175184761Y-62792380D01*
X175375238Y-62792380D01*
X175470476Y-62840000D01*
X175518095Y-62887619D01*
X175565714Y-62982857D01*
X175565714Y-63030476D01*
X175518095Y-63125714D01*
X175470476Y-63173333D01*
X175375238Y-63220952D01*
X175184761Y-63220952D01*
X175089523Y-63268571D01*
X175041904Y-63316190D01*
X174994285Y-63411428D01*
X174994285Y-63601904D01*
X175041904Y-63697142D01*
X175089523Y-63744761D01*
X175184761Y-63792380D01*
X175375238Y-63792380D01*
X175470476Y-63744761D01*
X175518095Y-63697142D01*
X175565714Y-63601904D01*
X175565714Y-63411428D01*
X175518095Y-63316190D01*
X175470476Y-63268571D01*
X175375238Y-63220952D01*
X171019047Y-61831428D02*
X171780952Y-61831428D01*
X171400000Y-62212380D02*
X171400000Y-61450476D01*
X121877142Y-58896666D02*
X121924761Y-58944285D01*
X121972380Y-59087142D01*
X121972380Y-59182380D01*
X121924761Y-59325238D01*
X121829523Y-59420476D01*
X121734285Y-59468095D01*
X121543809Y-59515714D01*
X121400952Y-59515714D01*
X121210476Y-59468095D01*
X121115238Y-59420476D01*
X121020000Y-59325238D01*
X120972380Y-59182380D01*
X120972380Y-59087142D01*
X121020000Y-58944285D01*
X121067619Y-58896666D01*
X120972380Y-58563333D02*
X120972380Y-57896666D01*
X121972380Y-58325238D01*
X144861142Y-96716666D02*
X144908761Y-96764285D01*
X144956380Y-96907142D01*
X144956380Y-97002380D01*
X144908761Y-97145238D01*
X144813523Y-97240476D01*
X144718285Y-97288095D01*
X144527809Y-97335714D01*
X144384952Y-97335714D01*
X144194476Y-97288095D01*
X144099238Y-97240476D01*
X144004000Y-97145238D01*
X143956380Y-97002380D01*
X143956380Y-96907142D01*
X144004000Y-96764285D01*
X144051619Y-96716666D01*
X143956380Y-95859523D02*
X143956380Y-96050000D01*
X144004000Y-96145238D01*
X144051619Y-96192857D01*
X144194476Y-96288095D01*
X144384952Y-96335714D01*
X144765904Y-96335714D01*
X144861142Y-96288095D01*
X144908761Y-96240476D01*
X144956380Y-96145238D01*
X144956380Y-95954761D01*
X144908761Y-95859523D01*
X144861142Y-95811904D01*
X144765904Y-95764285D01*
X144527809Y-95764285D01*
X144432571Y-95811904D01*
X144384952Y-95859523D01*
X144337333Y-95954761D01*
X144337333Y-96145238D01*
X144384952Y-96240476D01*
X144432571Y-96288095D01*
X144527809Y-96335714D01*
X174613333Y-57647142D02*
X174565714Y-57694761D01*
X174422857Y-57742380D01*
X174327619Y-57742380D01*
X174184761Y-57694761D01*
X174089523Y-57599523D01*
X174041904Y-57504285D01*
X173994285Y-57313809D01*
X173994285Y-57170952D01*
X174041904Y-56980476D01*
X174089523Y-56885238D01*
X174184761Y-56790000D01*
X174327619Y-56742380D01*
X174422857Y-56742380D01*
X174565714Y-56790000D01*
X174613333Y-56837619D01*
X174946666Y-56742380D02*
X175565714Y-56742380D01*
X175232380Y-57123333D01*
X175375238Y-57123333D01*
X175470476Y-57170952D01*
X175518095Y-57218571D01*
X175565714Y-57313809D01*
X175565714Y-57551904D01*
X175518095Y-57647142D01*
X175470476Y-57694761D01*
X175375238Y-57742380D01*
X175089523Y-57742380D01*
X174994285Y-57694761D01*
X174946666Y-57647142D01*
X171019047Y-55781428D02*
X171780952Y-55781428D01*
X171400000Y-56162380D02*
X171400000Y-55400476D01*
X158887142Y-56206666D02*
X158934761Y-56254285D01*
X158982380Y-56397142D01*
X158982380Y-56492380D01*
X158934761Y-56635238D01*
X158839523Y-56730476D01*
X158744285Y-56778095D01*
X158553809Y-56825714D01*
X158410952Y-56825714D01*
X158220476Y-56778095D01*
X158125238Y-56730476D01*
X158030000Y-56635238D01*
X157982380Y-56492380D01*
X157982380Y-56397142D01*
X158030000Y-56254285D01*
X158077619Y-56206666D01*
X158077619Y-55825714D02*
X158030000Y-55778095D01*
X157982380Y-55682857D01*
X157982380Y-55444761D01*
X158030000Y-55349523D01*
X158077619Y-55301904D01*
X158172857Y-55254285D01*
X158268095Y-55254285D01*
X158410952Y-55301904D01*
X158982380Y-55873333D01*
X158982380Y-55254285D01*
X160141428Y-51630952D02*
X160141428Y-50869047D01*
X160522380Y-51250000D02*
X159760476Y-51250000D01*
X146733333Y-55147142D02*
X146685714Y-55194761D01*
X146542857Y-55242380D01*
X146447619Y-55242380D01*
X146304761Y-55194761D01*
X146209523Y-55099523D01*
X146161904Y-55004285D01*
X146114285Y-54813809D01*
X146114285Y-54670952D01*
X146161904Y-54480476D01*
X146209523Y-54385238D01*
X146304761Y-54290000D01*
X146447619Y-54242380D01*
X146542857Y-54242380D01*
X146685714Y-54290000D01*
X146733333Y-54337619D01*
X147685714Y-55242380D02*
X147114285Y-55242380D01*
X147400000Y-55242380D02*
X147400000Y-54242380D01*
X147304761Y-54385238D01*
X147209523Y-54480476D01*
X147114285Y-54528095D01*
M02*
