G04 #@! TF.GenerationSoftware,KiCad,Pcbnew,(5.1.4)-1*
G04 #@! TF.CreationDate,2019-11-08T19:54:45+05:00*
G04 #@! TF.ProjectId,powerSupplyArduino,706f7765-7253-4757-9070-6c7941726475,rev?*
G04 #@! TF.SameCoordinates,Original*
G04 #@! TF.FileFunction,Soldermask,Top*
G04 #@! TF.FilePolarity,Negative*
%FSLAX46Y46*%
G04 Gerber Fmt 4.6, Leading zero omitted, Abs format (unit mm)*
G04 Created by KiCad (PCBNEW (5.1.4)-1) date 2019-11-08 19:54:45*
%MOMM*%
%LPD*%
G04 APERTURE LIST*
%ADD10C,0.100000*%
G04 APERTURE END LIST*
D10*
G36*
X139249000Y-98801000D02*
G01*
X137847000Y-98801000D01*
X137847000Y-97199000D01*
X139249000Y-97199000D01*
X139249000Y-98801000D01*
X139249000Y-98801000D01*
G37*
G36*
X167464239Y-92181467D02*
G01*
X167778282Y-92243934D01*
X168369926Y-92489001D01*
X168902392Y-92844784D01*
X169355216Y-93297608D01*
X169710999Y-93830074D01*
X169925745Y-94348517D01*
X169956066Y-94421719D01*
X170081000Y-95049803D01*
X170081000Y-95690197D01*
X170018533Y-96004239D01*
X169956066Y-96318282D01*
X169710999Y-96909926D01*
X169355216Y-97442392D01*
X168902392Y-97895216D01*
X168369926Y-98250999D01*
X167778282Y-98496066D01*
X167464239Y-98558533D01*
X167150197Y-98621000D01*
X166509803Y-98621000D01*
X166195761Y-98558533D01*
X165881718Y-98496066D01*
X165290074Y-98250999D01*
X164757608Y-97895216D01*
X164304784Y-97442392D01*
X163949001Y-96909926D01*
X163703934Y-96318282D01*
X163641467Y-96004239D01*
X163579000Y-95690197D01*
X163579000Y-95049803D01*
X163703934Y-94421719D01*
X163734255Y-94348517D01*
X163949001Y-93830074D01*
X164304784Y-93297608D01*
X164757608Y-92844784D01*
X165290074Y-92489001D01*
X165881718Y-92243934D01*
X166195761Y-92181467D01*
X166509803Y-92119000D01*
X167150197Y-92119000D01*
X167464239Y-92181467D01*
X167464239Y-92181467D01*
G37*
G36*
X95334239Y-92181467D02*
G01*
X95648282Y-92243934D01*
X96239926Y-92489001D01*
X96772392Y-92844784D01*
X97225216Y-93297608D01*
X97580999Y-93830074D01*
X97795745Y-94348517D01*
X97826066Y-94421719D01*
X97951000Y-95049803D01*
X97951000Y-95690197D01*
X97888533Y-96004239D01*
X97826066Y-96318282D01*
X97580999Y-96909926D01*
X97225216Y-97442392D01*
X96772392Y-97895216D01*
X96239926Y-98250999D01*
X95648282Y-98496066D01*
X95334239Y-98558533D01*
X95020197Y-98621000D01*
X94379803Y-98621000D01*
X94065761Y-98558533D01*
X93751718Y-98496066D01*
X93160074Y-98250999D01*
X92627608Y-97895216D01*
X92174784Y-97442392D01*
X91819001Y-96909926D01*
X91573934Y-96318282D01*
X91511467Y-96004239D01*
X91449000Y-95690197D01*
X91449000Y-95049803D01*
X91573934Y-94421719D01*
X91604255Y-94348517D01*
X91819001Y-93830074D01*
X92174784Y-93297608D01*
X92627608Y-92844784D01*
X93160074Y-92489001D01*
X93751718Y-92243934D01*
X94065761Y-92181467D01*
X94379803Y-92119000D01*
X95020197Y-92119000D01*
X95334239Y-92181467D01*
X95334239Y-92181467D01*
G37*
G36*
X147606000Y-98601000D02*
G01*
X146254000Y-98601000D01*
X146254000Y-96999000D01*
X147606000Y-96999000D01*
X147606000Y-98601000D01*
X147606000Y-98601000D01*
G37*
G36*
X143430000Y-98601000D02*
G01*
X142078000Y-98601000D01*
X142078000Y-96999000D01*
X143430000Y-96999000D01*
X143430000Y-98601000D01*
X143430000Y-98601000D01*
G37*
G36*
X129748562Y-95558181D02*
G01*
X129783481Y-95568774D01*
X129815663Y-95585976D01*
X129843873Y-95609127D01*
X129867024Y-95637337D01*
X129884226Y-95669519D01*
X129894819Y-95704438D01*
X129899000Y-95746895D01*
X129899000Y-98113105D01*
X129894819Y-98155562D01*
X129884226Y-98190481D01*
X129867024Y-98222663D01*
X129843873Y-98250873D01*
X129815663Y-98274024D01*
X129783481Y-98291226D01*
X129748562Y-98301819D01*
X129706105Y-98306000D01*
X128564895Y-98306000D01*
X128522438Y-98301819D01*
X128487519Y-98291226D01*
X128455337Y-98274024D01*
X128427127Y-98250873D01*
X128403976Y-98222663D01*
X128386774Y-98190481D01*
X128376181Y-98155562D01*
X128372000Y-98113105D01*
X128372000Y-95746895D01*
X128376181Y-95704438D01*
X128386774Y-95669519D01*
X128403976Y-95637337D01*
X128427127Y-95609127D01*
X128455337Y-95585976D01*
X128487519Y-95568774D01*
X128522438Y-95558181D01*
X128564895Y-95554000D01*
X129706105Y-95554000D01*
X129748562Y-95558181D01*
X129748562Y-95558181D01*
G37*
G36*
X126773562Y-95558181D02*
G01*
X126808481Y-95568774D01*
X126840663Y-95585976D01*
X126868873Y-95609127D01*
X126892024Y-95637337D01*
X126909226Y-95669519D01*
X126919819Y-95704438D01*
X126924000Y-95746895D01*
X126924000Y-98113105D01*
X126919819Y-98155562D01*
X126909226Y-98190481D01*
X126892024Y-98222663D01*
X126868873Y-98250873D01*
X126840663Y-98274024D01*
X126808481Y-98291226D01*
X126773562Y-98301819D01*
X126731105Y-98306000D01*
X125589895Y-98306000D01*
X125547438Y-98301819D01*
X125512519Y-98291226D01*
X125480337Y-98274024D01*
X125452127Y-98250873D01*
X125428976Y-98222663D01*
X125411774Y-98190481D01*
X125401181Y-98155562D01*
X125397000Y-98113105D01*
X125397000Y-95746895D01*
X125401181Y-95704438D01*
X125411774Y-95669519D01*
X125428976Y-95637337D01*
X125452127Y-95609127D01*
X125480337Y-95585976D01*
X125512519Y-95568774D01*
X125547438Y-95558181D01*
X125589895Y-95554000D01*
X126731105Y-95554000D01*
X126773562Y-95558181D01*
X126773562Y-95558181D01*
G37*
G36*
X106161410Y-96616056D02*
G01*
X106274893Y-96638629D01*
X106415206Y-96696748D01*
X106541484Y-96781125D01*
X106648875Y-96888516D01*
X106733252Y-97014794D01*
X106791371Y-97155107D01*
X106821000Y-97304063D01*
X106821000Y-97455937D01*
X106791371Y-97604893D01*
X106733252Y-97745206D01*
X106648875Y-97871484D01*
X106541484Y-97978875D01*
X106415206Y-98063252D01*
X106274893Y-98121371D01*
X106178101Y-98140624D01*
X106125938Y-98151000D01*
X105974062Y-98151000D01*
X105921899Y-98140624D01*
X105825107Y-98121371D01*
X105684794Y-98063252D01*
X105558516Y-97978875D01*
X105451125Y-97871484D01*
X105366748Y-97745206D01*
X105308629Y-97604893D01*
X105279000Y-97455937D01*
X105279000Y-97304063D01*
X105308629Y-97155107D01*
X105366748Y-97014794D01*
X105451125Y-96888516D01*
X105558516Y-96781125D01*
X105684794Y-96696748D01*
X105825107Y-96638629D01*
X105938590Y-96616056D01*
X105974062Y-96609000D01*
X106125938Y-96609000D01*
X106161410Y-96616056D01*
X106161410Y-96616056D01*
G37*
G36*
X116561000Y-98096000D02*
G01*
X114959000Y-98096000D01*
X114959000Y-96744000D01*
X116561000Y-96744000D01*
X116561000Y-98096000D01*
X116561000Y-98096000D01*
G37*
G36*
X114061000Y-98096000D02*
G01*
X112459000Y-98096000D01*
X112459000Y-96744000D01*
X114061000Y-96744000D01*
X114061000Y-98096000D01*
X114061000Y-98096000D01*
G37*
G36*
X133811000Y-97551000D02*
G01*
X132009000Y-97551000D01*
X132009000Y-95749000D01*
X133811000Y-95749000D01*
X133811000Y-97551000D01*
X133811000Y-97551000D01*
G37*
G36*
X121341000Y-97421000D02*
G01*
X119539000Y-97421000D01*
X119539000Y-95619000D01*
X121341000Y-95619000D01*
X121341000Y-97421000D01*
X121341000Y-97421000D01*
G37*
G36*
X160431000Y-96361000D02*
G01*
X156829000Y-96361000D01*
X156829000Y-94659000D01*
X160431000Y-94659000D01*
X160431000Y-96361000D01*
X160431000Y-96361000D01*
G37*
G36*
X155031000Y-96361000D02*
G01*
X151429000Y-96361000D01*
X151429000Y-94659000D01*
X155031000Y-94659000D01*
X155031000Y-96361000D01*
X155031000Y-96361000D01*
G37*
G36*
X139249000Y-96101000D02*
G01*
X137847000Y-96101000D01*
X137847000Y-94499000D01*
X139249000Y-94499000D01*
X139249000Y-96101000D01*
X139249000Y-96101000D01*
G37*
G36*
X147606000Y-96101000D02*
G01*
X146254000Y-96101000D01*
X146254000Y-94499000D01*
X147606000Y-94499000D01*
X147606000Y-96101000D01*
X147606000Y-96101000D01*
G37*
G36*
X143430000Y-96101000D02*
G01*
X142078000Y-96101000D01*
X142078000Y-94499000D01*
X143430000Y-94499000D01*
X143430000Y-96101000D01*
X143430000Y-96101000D01*
G37*
G36*
X103635589Y-94078876D02*
G01*
X103734893Y-94098629D01*
X103875206Y-94156748D01*
X104001484Y-94241125D01*
X104108875Y-94348516D01*
X104193252Y-94474794D01*
X104251371Y-94615107D01*
X104281000Y-94764063D01*
X104281000Y-94915937D01*
X104251371Y-95064893D01*
X104193252Y-95205206D01*
X104108875Y-95331484D01*
X104001484Y-95438875D01*
X103875206Y-95523252D01*
X103734893Y-95581371D01*
X103645521Y-95599148D01*
X103585938Y-95611000D01*
X103434062Y-95611000D01*
X103374479Y-95599148D01*
X103285107Y-95581371D01*
X103144794Y-95523252D01*
X103018516Y-95438875D01*
X102911125Y-95331484D01*
X102826748Y-95205206D01*
X102768629Y-95064893D01*
X102739000Y-94915937D01*
X102739000Y-94764063D01*
X102768629Y-94615107D01*
X102826748Y-94474794D01*
X102911125Y-94348516D01*
X103018516Y-94241125D01*
X103144794Y-94156748D01*
X103285107Y-94098629D01*
X103384411Y-94078876D01*
X103434062Y-94069000D01*
X103585938Y-94069000D01*
X103635589Y-94078876D01*
X103635589Y-94078876D01*
G37*
G36*
X174581000Y-95251000D02*
G01*
X172979000Y-95251000D01*
X172979000Y-93899000D01*
X174581000Y-93899000D01*
X174581000Y-95251000D01*
X174581000Y-95251000D01*
G37*
G36*
X177081000Y-95251000D02*
G01*
X175479000Y-95251000D01*
X175479000Y-93899000D01*
X177081000Y-93899000D01*
X177081000Y-95251000D01*
X177081000Y-95251000D01*
G37*
G36*
X114061000Y-95226000D02*
G01*
X112459000Y-95226000D01*
X112459000Y-93874000D01*
X114061000Y-93874000D01*
X114061000Y-95226000D01*
X114061000Y-95226000D01*
G37*
G36*
X116561000Y-95226000D02*
G01*
X114959000Y-95226000D01*
X114959000Y-93874000D01*
X116561000Y-93874000D01*
X116561000Y-95226000D01*
X116561000Y-95226000D01*
G37*
G36*
X106175589Y-91538876D02*
G01*
X106274893Y-91558629D01*
X106415206Y-91616748D01*
X106541484Y-91701125D01*
X106648875Y-91808516D01*
X106733252Y-91934794D01*
X106791371Y-92075107D01*
X106821000Y-92224063D01*
X106821000Y-92375937D01*
X106791371Y-92524893D01*
X106733252Y-92665206D01*
X106648875Y-92791484D01*
X106541484Y-92898875D01*
X106415206Y-92983252D01*
X106274893Y-93041371D01*
X106175589Y-93061124D01*
X106125938Y-93071000D01*
X105974062Y-93071000D01*
X105924411Y-93061124D01*
X105825107Y-93041371D01*
X105684794Y-92983252D01*
X105558516Y-92898875D01*
X105451125Y-92791484D01*
X105366748Y-92665206D01*
X105308629Y-92524893D01*
X105279000Y-92375937D01*
X105279000Y-92224063D01*
X105308629Y-92075107D01*
X105366748Y-91934794D01*
X105451125Y-91808516D01*
X105558516Y-91701125D01*
X105684794Y-91616748D01*
X105825107Y-91558629D01*
X105924411Y-91538876D01*
X105974062Y-91529000D01*
X106125938Y-91529000D01*
X106175589Y-91538876D01*
X106175589Y-91538876D01*
G37*
G36*
X177281000Y-91731000D02*
G01*
X175679000Y-91731000D01*
X175679000Y-90329000D01*
X177281000Y-90329000D01*
X177281000Y-91731000D01*
X177281000Y-91731000D01*
G37*
G36*
X174581000Y-91731000D02*
G01*
X172979000Y-91731000D01*
X172979000Y-90329000D01*
X174581000Y-90329000D01*
X174581000Y-91731000D01*
X174581000Y-91731000D01*
G37*
G36*
X114061000Y-91311000D02*
G01*
X112459000Y-91311000D01*
X112459000Y-89909000D01*
X114061000Y-89909000D01*
X114061000Y-91311000D01*
X114061000Y-91311000D01*
G37*
G36*
X116761000Y-91311000D02*
G01*
X115159000Y-91311000D01*
X115159000Y-89909000D01*
X116761000Y-89909000D01*
X116761000Y-91311000D01*
X116761000Y-91311000D01*
G37*
G36*
X135761000Y-91001000D02*
G01*
X134159000Y-91001000D01*
X134159000Y-89599000D01*
X135761000Y-89599000D01*
X135761000Y-91001000D01*
X135761000Y-91001000D01*
G37*
G36*
X143611000Y-91001000D02*
G01*
X142009000Y-91001000D01*
X142009000Y-89599000D01*
X143611000Y-89599000D01*
X143611000Y-91001000D01*
X143611000Y-91001000D01*
G37*
G36*
X140911000Y-91001000D02*
G01*
X139309000Y-91001000D01*
X139309000Y-89599000D01*
X140911000Y-89599000D01*
X140911000Y-91001000D01*
X140911000Y-91001000D01*
G37*
G36*
X125801000Y-91001000D02*
G01*
X124199000Y-91001000D01*
X124199000Y-89599000D01*
X125801000Y-89599000D01*
X125801000Y-91001000D01*
X125801000Y-91001000D01*
G37*
G36*
X133061000Y-91001000D02*
G01*
X131459000Y-91001000D01*
X131459000Y-89599000D01*
X133061000Y-89599000D01*
X133061000Y-91001000D01*
X133061000Y-91001000D01*
G37*
G36*
X147701000Y-91001000D02*
G01*
X146099000Y-91001000D01*
X146099000Y-89599000D01*
X147701000Y-89599000D01*
X147701000Y-91001000D01*
X147701000Y-91001000D01*
G37*
G36*
X150401000Y-91001000D02*
G01*
X148799000Y-91001000D01*
X148799000Y-89599000D01*
X150401000Y-89599000D01*
X150401000Y-91001000D01*
X150401000Y-91001000D01*
G37*
G36*
X128501000Y-91001000D02*
G01*
X126899000Y-91001000D01*
X126899000Y-89599000D01*
X128501000Y-89599000D01*
X128501000Y-91001000D01*
X128501000Y-91001000D01*
G37*
G36*
X174521000Y-88351000D02*
G01*
X172919000Y-88351000D01*
X172919000Y-86949000D01*
X174521000Y-86949000D01*
X174521000Y-88351000D01*
X174521000Y-88351000D01*
G37*
G36*
X177221000Y-88351000D02*
G01*
X175619000Y-88351000D01*
X175619000Y-86949000D01*
X177221000Y-86949000D01*
X177221000Y-88351000D01*
X177221000Y-88351000D01*
G37*
G36*
X92981000Y-88191000D02*
G01*
X91179000Y-88191000D01*
X91179000Y-86389000D01*
X92981000Y-86389000D01*
X92981000Y-88191000D01*
X92981000Y-88191000D01*
G37*
G36*
X152411000Y-86441000D02*
G01*
X150609000Y-86441000D01*
X150609000Y-84639000D01*
X152411000Y-84639000D01*
X152411000Y-86441000D01*
X152411000Y-86441000D01*
G37*
G36*
X92190442Y-83855518D02*
G01*
X92256627Y-83862037D01*
X92426466Y-83913557D01*
X92582991Y-83997222D01*
X92618729Y-84026552D01*
X92720186Y-84109814D01*
X92803448Y-84211271D01*
X92832778Y-84247009D01*
X92916443Y-84403534D01*
X92967963Y-84573373D01*
X92985359Y-84750000D01*
X92967963Y-84926627D01*
X92916443Y-85096466D01*
X92832778Y-85252991D01*
X92803448Y-85288729D01*
X92720186Y-85390186D01*
X92618729Y-85473448D01*
X92582991Y-85502778D01*
X92426466Y-85586443D01*
X92256627Y-85637963D01*
X92190442Y-85644482D01*
X92124260Y-85651000D01*
X92035740Y-85651000D01*
X91969558Y-85644482D01*
X91903373Y-85637963D01*
X91733534Y-85586443D01*
X91577009Y-85502778D01*
X91541271Y-85473448D01*
X91439814Y-85390186D01*
X91356552Y-85288729D01*
X91327222Y-85252991D01*
X91243557Y-85096466D01*
X91192037Y-84926627D01*
X91174641Y-84750000D01*
X91192037Y-84573373D01*
X91243557Y-84403534D01*
X91327222Y-84247009D01*
X91356552Y-84211271D01*
X91439814Y-84109814D01*
X91541271Y-84026552D01*
X91577009Y-83997222D01*
X91733534Y-83913557D01*
X91903373Y-83862037D01*
X91969558Y-83855518D01*
X92035740Y-83849000D01*
X92124260Y-83849000D01*
X92190442Y-83855518D01*
X92190442Y-83855518D01*
G37*
G36*
X174581000Y-84586000D02*
G01*
X172979000Y-84586000D01*
X172979000Y-83234000D01*
X174581000Y-83234000D01*
X174581000Y-84586000D01*
X174581000Y-84586000D01*
G37*
G36*
X177081000Y-84586000D02*
G01*
X175479000Y-84586000D01*
X175479000Y-83234000D01*
X177081000Y-83234000D01*
X177081000Y-84586000D01*
X177081000Y-84586000D01*
G37*
G36*
X164369928Y-81071764D02*
G01*
X164391009Y-81078160D01*
X164410445Y-81088548D01*
X164427476Y-81102524D01*
X164441452Y-81119555D01*
X164451840Y-81138991D01*
X164458236Y-81160072D01*
X164461000Y-81188140D01*
X164461000Y-83001860D01*
X164458236Y-83029928D01*
X164451840Y-83051009D01*
X164441452Y-83070445D01*
X164427476Y-83087476D01*
X164410445Y-83101452D01*
X164391009Y-83111840D01*
X164369928Y-83118236D01*
X164341860Y-83121000D01*
X163878140Y-83121000D01*
X163850072Y-83118236D01*
X163828991Y-83111840D01*
X163809555Y-83101452D01*
X163792524Y-83087476D01*
X163778548Y-83070445D01*
X163768160Y-83051009D01*
X163761764Y-83029928D01*
X163759000Y-83001860D01*
X163759000Y-81188140D01*
X163761764Y-81160072D01*
X163768160Y-81138991D01*
X163778548Y-81119555D01*
X163792524Y-81102524D01*
X163809555Y-81088548D01*
X163828991Y-81078160D01*
X163850072Y-81071764D01*
X163878140Y-81069000D01*
X164341860Y-81069000D01*
X164369928Y-81071764D01*
X164369928Y-81071764D01*
G37*
G36*
X156749928Y-81071764D02*
G01*
X156771009Y-81078160D01*
X156790445Y-81088548D01*
X156807476Y-81102524D01*
X156821452Y-81119555D01*
X156831840Y-81138991D01*
X156838236Y-81160072D01*
X156841000Y-81188140D01*
X156841000Y-83001860D01*
X156838236Y-83029928D01*
X156831840Y-83051009D01*
X156821452Y-83070445D01*
X156807476Y-83087476D01*
X156790445Y-83101452D01*
X156771009Y-83111840D01*
X156749928Y-83118236D01*
X156721860Y-83121000D01*
X156258140Y-83121000D01*
X156230072Y-83118236D01*
X156208991Y-83111840D01*
X156189555Y-83101452D01*
X156172524Y-83087476D01*
X156158548Y-83070445D01*
X156148160Y-83051009D01*
X156141764Y-83029928D01*
X156139000Y-83001860D01*
X156139000Y-81188140D01*
X156141764Y-81160072D01*
X156148160Y-81138991D01*
X156158548Y-81119555D01*
X156172524Y-81102524D01*
X156189555Y-81088548D01*
X156208991Y-81078160D01*
X156230072Y-81071764D01*
X156258140Y-81069000D01*
X156721860Y-81069000D01*
X156749928Y-81071764D01*
X156749928Y-81071764D01*
G37*
G36*
X158019928Y-81071764D02*
G01*
X158041009Y-81078160D01*
X158060445Y-81088548D01*
X158077476Y-81102524D01*
X158091452Y-81119555D01*
X158101840Y-81138991D01*
X158108236Y-81160072D01*
X158111000Y-81188140D01*
X158111000Y-83001860D01*
X158108236Y-83029928D01*
X158101840Y-83051009D01*
X158091452Y-83070445D01*
X158077476Y-83087476D01*
X158060445Y-83101452D01*
X158041009Y-83111840D01*
X158019928Y-83118236D01*
X157991860Y-83121000D01*
X157528140Y-83121000D01*
X157500072Y-83118236D01*
X157478991Y-83111840D01*
X157459555Y-83101452D01*
X157442524Y-83087476D01*
X157428548Y-83070445D01*
X157418160Y-83051009D01*
X157411764Y-83029928D01*
X157409000Y-83001860D01*
X157409000Y-81188140D01*
X157411764Y-81160072D01*
X157418160Y-81138991D01*
X157428548Y-81119555D01*
X157442524Y-81102524D01*
X157459555Y-81088548D01*
X157478991Y-81078160D01*
X157500072Y-81071764D01*
X157528140Y-81069000D01*
X157991860Y-81069000D01*
X158019928Y-81071764D01*
X158019928Y-81071764D01*
G37*
G36*
X159289928Y-81071764D02*
G01*
X159311009Y-81078160D01*
X159330445Y-81088548D01*
X159347476Y-81102524D01*
X159361452Y-81119555D01*
X159371840Y-81138991D01*
X159378236Y-81160072D01*
X159381000Y-81188140D01*
X159381000Y-83001860D01*
X159378236Y-83029928D01*
X159371840Y-83051009D01*
X159361452Y-83070445D01*
X159347476Y-83087476D01*
X159330445Y-83101452D01*
X159311009Y-83111840D01*
X159289928Y-83118236D01*
X159261860Y-83121000D01*
X158798140Y-83121000D01*
X158770072Y-83118236D01*
X158748991Y-83111840D01*
X158729555Y-83101452D01*
X158712524Y-83087476D01*
X158698548Y-83070445D01*
X158688160Y-83051009D01*
X158681764Y-83029928D01*
X158679000Y-83001860D01*
X158679000Y-81188140D01*
X158681764Y-81160072D01*
X158688160Y-81138991D01*
X158698548Y-81119555D01*
X158712524Y-81102524D01*
X158729555Y-81088548D01*
X158748991Y-81078160D01*
X158770072Y-81071764D01*
X158798140Y-81069000D01*
X159261860Y-81069000D01*
X159289928Y-81071764D01*
X159289928Y-81071764D01*
G37*
G36*
X160559928Y-81071764D02*
G01*
X160581009Y-81078160D01*
X160600445Y-81088548D01*
X160617476Y-81102524D01*
X160631452Y-81119555D01*
X160641840Y-81138991D01*
X160648236Y-81160072D01*
X160651000Y-81188140D01*
X160651000Y-83001860D01*
X160648236Y-83029928D01*
X160641840Y-83051009D01*
X160631452Y-83070445D01*
X160617476Y-83087476D01*
X160600445Y-83101452D01*
X160581009Y-83111840D01*
X160559928Y-83118236D01*
X160531860Y-83121000D01*
X160068140Y-83121000D01*
X160040072Y-83118236D01*
X160018991Y-83111840D01*
X159999555Y-83101452D01*
X159982524Y-83087476D01*
X159968548Y-83070445D01*
X159958160Y-83051009D01*
X159951764Y-83029928D01*
X159949000Y-83001860D01*
X159949000Y-81188140D01*
X159951764Y-81160072D01*
X159958160Y-81138991D01*
X159968548Y-81119555D01*
X159982524Y-81102524D01*
X159999555Y-81088548D01*
X160018991Y-81078160D01*
X160040072Y-81071764D01*
X160068140Y-81069000D01*
X160531860Y-81069000D01*
X160559928Y-81071764D01*
X160559928Y-81071764D01*
G37*
G36*
X161829928Y-81071764D02*
G01*
X161851009Y-81078160D01*
X161870445Y-81088548D01*
X161887476Y-81102524D01*
X161901452Y-81119555D01*
X161911840Y-81138991D01*
X161918236Y-81160072D01*
X161921000Y-81188140D01*
X161921000Y-83001860D01*
X161918236Y-83029928D01*
X161911840Y-83051009D01*
X161901452Y-83070445D01*
X161887476Y-83087476D01*
X161870445Y-83101452D01*
X161851009Y-83111840D01*
X161829928Y-83118236D01*
X161801860Y-83121000D01*
X161338140Y-83121000D01*
X161310072Y-83118236D01*
X161288991Y-83111840D01*
X161269555Y-83101452D01*
X161252524Y-83087476D01*
X161238548Y-83070445D01*
X161228160Y-83051009D01*
X161221764Y-83029928D01*
X161219000Y-83001860D01*
X161219000Y-81188140D01*
X161221764Y-81160072D01*
X161228160Y-81138991D01*
X161238548Y-81119555D01*
X161252524Y-81102524D01*
X161269555Y-81088548D01*
X161288991Y-81078160D01*
X161310072Y-81071764D01*
X161338140Y-81069000D01*
X161801860Y-81069000D01*
X161829928Y-81071764D01*
X161829928Y-81071764D01*
G37*
G36*
X163099928Y-81071764D02*
G01*
X163121009Y-81078160D01*
X163140445Y-81088548D01*
X163157476Y-81102524D01*
X163171452Y-81119555D01*
X163181840Y-81138991D01*
X163188236Y-81160072D01*
X163191000Y-81188140D01*
X163191000Y-83001860D01*
X163188236Y-83029928D01*
X163181840Y-83051009D01*
X163171452Y-83070445D01*
X163157476Y-83087476D01*
X163140445Y-83101452D01*
X163121009Y-83111840D01*
X163099928Y-83118236D01*
X163071860Y-83121000D01*
X162608140Y-83121000D01*
X162580072Y-83118236D01*
X162558991Y-83111840D01*
X162539555Y-83101452D01*
X162522524Y-83087476D01*
X162508548Y-83070445D01*
X162498160Y-83051009D01*
X162491764Y-83029928D01*
X162489000Y-83001860D01*
X162489000Y-81188140D01*
X162491764Y-81160072D01*
X162498160Y-81138991D01*
X162508548Y-81119555D01*
X162522524Y-81102524D01*
X162539555Y-81088548D01*
X162558991Y-81078160D01*
X162580072Y-81071764D01*
X162608140Y-81069000D01*
X163071860Y-81069000D01*
X163099928Y-81071764D01*
X163099928Y-81071764D01*
G37*
G36*
X120646000Y-82891000D02*
G01*
X114394000Y-82891000D01*
X114394000Y-81189000D01*
X120646000Y-81189000D01*
X120646000Y-82891000D01*
X120646000Y-82891000D01*
G37*
G36*
X136714928Y-80801764D02*
G01*
X136736009Y-80808160D01*
X136755445Y-80818548D01*
X136772476Y-80832524D01*
X136786452Y-80849555D01*
X136796840Y-80868991D01*
X136803236Y-80890072D01*
X136806000Y-80918140D01*
X136806000Y-82731860D01*
X136803236Y-82759928D01*
X136796840Y-82781009D01*
X136786452Y-82800445D01*
X136772476Y-82817476D01*
X136755445Y-82831452D01*
X136736009Y-82841840D01*
X136714928Y-82848236D01*
X136686860Y-82851000D01*
X136223140Y-82851000D01*
X136195072Y-82848236D01*
X136173991Y-82841840D01*
X136154555Y-82831452D01*
X136137524Y-82817476D01*
X136123548Y-82800445D01*
X136113160Y-82781009D01*
X136106764Y-82759928D01*
X136104000Y-82731860D01*
X136104000Y-80918140D01*
X136106764Y-80890072D01*
X136113160Y-80868991D01*
X136123548Y-80849555D01*
X136137524Y-80832524D01*
X136154555Y-80818548D01*
X136173991Y-80808160D01*
X136195072Y-80801764D01*
X136223140Y-80799000D01*
X136686860Y-80799000D01*
X136714928Y-80801764D01*
X136714928Y-80801764D01*
G37*
G36*
X141794928Y-80801764D02*
G01*
X141816009Y-80808160D01*
X141835445Y-80818548D01*
X141852476Y-80832524D01*
X141866452Y-80849555D01*
X141876840Y-80868991D01*
X141883236Y-80890072D01*
X141886000Y-80918140D01*
X141886000Y-82731860D01*
X141883236Y-82759928D01*
X141876840Y-82781009D01*
X141866452Y-82800445D01*
X141852476Y-82817476D01*
X141835445Y-82831452D01*
X141816009Y-82841840D01*
X141794928Y-82848236D01*
X141766860Y-82851000D01*
X141303140Y-82851000D01*
X141275072Y-82848236D01*
X141253991Y-82841840D01*
X141234555Y-82831452D01*
X141217524Y-82817476D01*
X141203548Y-82800445D01*
X141193160Y-82781009D01*
X141186764Y-82759928D01*
X141184000Y-82731860D01*
X141184000Y-80918140D01*
X141186764Y-80890072D01*
X141193160Y-80868991D01*
X141203548Y-80849555D01*
X141217524Y-80832524D01*
X141234555Y-80818548D01*
X141253991Y-80808160D01*
X141275072Y-80801764D01*
X141303140Y-80799000D01*
X141766860Y-80799000D01*
X141794928Y-80801764D01*
X141794928Y-80801764D01*
G37*
G36*
X143064928Y-80801764D02*
G01*
X143086009Y-80808160D01*
X143105445Y-80818548D01*
X143122476Y-80832524D01*
X143136452Y-80849555D01*
X143146840Y-80868991D01*
X143153236Y-80890072D01*
X143156000Y-80918140D01*
X143156000Y-82731860D01*
X143153236Y-82759928D01*
X143146840Y-82781009D01*
X143136452Y-82800445D01*
X143122476Y-82817476D01*
X143105445Y-82831452D01*
X143086009Y-82841840D01*
X143064928Y-82848236D01*
X143036860Y-82851000D01*
X142573140Y-82851000D01*
X142545072Y-82848236D01*
X142523991Y-82841840D01*
X142504555Y-82831452D01*
X142487524Y-82817476D01*
X142473548Y-82800445D01*
X142463160Y-82781009D01*
X142456764Y-82759928D01*
X142454000Y-82731860D01*
X142454000Y-80918140D01*
X142456764Y-80890072D01*
X142463160Y-80868991D01*
X142473548Y-80849555D01*
X142487524Y-80832524D01*
X142504555Y-80818548D01*
X142523991Y-80808160D01*
X142545072Y-80801764D01*
X142573140Y-80799000D01*
X143036860Y-80799000D01*
X143064928Y-80801764D01*
X143064928Y-80801764D01*
G37*
G36*
X144334928Y-80801764D02*
G01*
X144356009Y-80808160D01*
X144375445Y-80818548D01*
X144392476Y-80832524D01*
X144406452Y-80849555D01*
X144416840Y-80868991D01*
X144423236Y-80890072D01*
X144426000Y-80918140D01*
X144426000Y-82731860D01*
X144423236Y-82759928D01*
X144416840Y-82781009D01*
X144406452Y-82800445D01*
X144392476Y-82817476D01*
X144375445Y-82831452D01*
X144356009Y-82841840D01*
X144334928Y-82848236D01*
X144306860Y-82851000D01*
X143843140Y-82851000D01*
X143815072Y-82848236D01*
X143793991Y-82841840D01*
X143774555Y-82831452D01*
X143757524Y-82817476D01*
X143743548Y-82800445D01*
X143733160Y-82781009D01*
X143726764Y-82759928D01*
X143724000Y-82731860D01*
X143724000Y-80918140D01*
X143726764Y-80890072D01*
X143733160Y-80868991D01*
X143743548Y-80849555D01*
X143757524Y-80832524D01*
X143774555Y-80818548D01*
X143793991Y-80808160D01*
X143815072Y-80801764D01*
X143843140Y-80799000D01*
X144306860Y-80799000D01*
X144334928Y-80801764D01*
X144334928Y-80801764D01*
G37*
G36*
X139254928Y-80801764D02*
G01*
X139276009Y-80808160D01*
X139295445Y-80818548D01*
X139312476Y-80832524D01*
X139326452Y-80849555D01*
X139336840Y-80868991D01*
X139343236Y-80890072D01*
X139346000Y-80918140D01*
X139346000Y-82731860D01*
X139343236Y-82759928D01*
X139336840Y-82781009D01*
X139326452Y-82800445D01*
X139312476Y-82817476D01*
X139295445Y-82831452D01*
X139276009Y-82841840D01*
X139254928Y-82848236D01*
X139226860Y-82851000D01*
X138763140Y-82851000D01*
X138735072Y-82848236D01*
X138713991Y-82841840D01*
X138694555Y-82831452D01*
X138677524Y-82817476D01*
X138663548Y-82800445D01*
X138653160Y-82781009D01*
X138646764Y-82759928D01*
X138644000Y-82731860D01*
X138644000Y-80918140D01*
X138646764Y-80890072D01*
X138653160Y-80868991D01*
X138663548Y-80849555D01*
X138677524Y-80832524D01*
X138694555Y-80818548D01*
X138713991Y-80808160D01*
X138735072Y-80801764D01*
X138763140Y-80799000D01*
X139226860Y-80799000D01*
X139254928Y-80801764D01*
X139254928Y-80801764D01*
G37*
G36*
X137984928Y-80801764D02*
G01*
X138006009Y-80808160D01*
X138025445Y-80818548D01*
X138042476Y-80832524D01*
X138056452Y-80849555D01*
X138066840Y-80868991D01*
X138073236Y-80890072D01*
X138076000Y-80918140D01*
X138076000Y-82731860D01*
X138073236Y-82759928D01*
X138066840Y-82781009D01*
X138056452Y-82800445D01*
X138042476Y-82817476D01*
X138025445Y-82831452D01*
X138006009Y-82841840D01*
X137984928Y-82848236D01*
X137956860Y-82851000D01*
X137493140Y-82851000D01*
X137465072Y-82848236D01*
X137443991Y-82841840D01*
X137424555Y-82831452D01*
X137407524Y-82817476D01*
X137393548Y-82800445D01*
X137383160Y-82781009D01*
X137376764Y-82759928D01*
X137374000Y-82731860D01*
X137374000Y-80918140D01*
X137376764Y-80890072D01*
X137383160Y-80868991D01*
X137393548Y-80849555D01*
X137407524Y-80832524D01*
X137424555Y-80818548D01*
X137443991Y-80808160D01*
X137465072Y-80801764D01*
X137493140Y-80799000D01*
X137956860Y-80799000D01*
X137984928Y-80801764D01*
X137984928Y-80801764D01*
G37*
G36*
X145604928Y-80801764D02*
G01*
X145626009Y-80808160D01*
X145645445Y-80818548D01*
X145662476Y-80832524D01*
X145676452Y-80849555D01*
X145686840Y-80868991D01*
X145693236Y-80890072D01*
X145696000Y-80918140D01*
X145696000Y-82731860D01*
X145693236Y-82759928D01*
X145686840Y-82781009D01*
X145676452Y-82800445D01*
X145662476Y-82817476D01*
X145645445Y-82831452D01*
X145626009Y-82841840D01*
X145604928Y-82848236D01*
X145576860Y-82851000D01*
X145113140Y-82851000D01*
X145085072Y-82848236D01*
X145063991Y-82841840D01*
X145044555Y-82831452D01*
X145027524Y-82817476D01*
X145013548Y-82800445D01*
X145003160Y-82781009D01*
X144996764Y-82759928D01*
X144994000Y-82731860D01*
X144994000Y-80918140D01*
X144996764Y-80890072D01*
X145003160Y-80868991D01*
X145013548Y-80849555D01*
X145027524Y-80832524D01*
X145044555Y-80818548D01*
X145063991Y-80808160D01*
X145085072Y-80801764D01*
X145113140Y-80799000D01*
X145576860Y-80799000D01*
X145604928Y-80801764D01*
X145604928Y-80801764D01*
G37*
G36*
X140524928Y-80801764D02*
G01*
X140546009Y-80808160D01*
X140565445Y-80818548D01*
X140582476Y-80832524D01*
X140596452Y-80849555D01*
X140606840Y-80868991D01*
X140613236Y-80890072D01*
X140616000Y-80918140D01*
X140616000Y-82731860D01*
X140613236Y-82759928D01*
X140606840Y-82781009D01*
X140596452Y-82800445D01*
X140582476Y-82817476D01*
X140565445Y-82831452D01*
X140546009Y-82841840D01*
X140524928Y-82848236D01*
X140496860Y-82851000D01*
X140033140Y-82851000D01*
X140005072Y-82848236D01*
X139983991Y-82841840D01*
X139964555Y-82831452D01*
X139947524Y-82817476D01*
X139933548Y-82800445D01*
X139923160Y-82781009D01*
X139916764Y-82759928D01*
X139914000Y-82731860D01*
X139914000Y-80918140D01*
X139916764Y-80890072D01*
X139923160Y-80868991D01*
X139933548Y-80849555D01*
X139947524Y-80832524D01*
X139964555Y-80818548D01*
X139983991Y-80808160D01*
X140005072Y-80801764D01*
X140033140Y-80799000D01*
X140496860Y-80799000D01*
X140524928Y-80801764D01*
X140524928Y-80801764D01*
G37*
G36*
X152391000Y-81561000D02*
G01*
X150589000Y-81561000D01*
X150589000Y-79759000D01*
X152391000Y-79759000D01*
X152391000Y-81561000D01*
X152391000Y-81561000D01*
G37*
G36*
X96231000Y-81281000D02*
G01*
X94829000Y-81281000D01*
X94829000Y-79679000D01*
X96231000Y-79679000D01*
X96231000Y-81281000D01*
X96231000Y-81281000D01*
G37*
G36*
X174581000Y-81066000D02*
G01*
X172979000Y-81066000D01*
X172979000Y-79664000D01*
X174581000Y-79664000D01*
X174581000Y-81066000D01*
X174581000Y-81066000D01*
G37*
G36*
X177281000Y-81066000D02*
G01*
X175679000Y-81066000D01*
X175679000Y-79664000D01*
X177281000Y-79664000D01*
X177281000Y-81066000D01*
X177281000Y-81066000D01*
G37*
G36*
X122621000Y-80916000D02*
G01*
X120919000Y-80916000D01*
X120919000Y-74664000D01*
X122621000Y-74664000D01*
X122621000Y-80916000D01*
X122621000Y-80916000D01*
G37*
G36*
X114121000Y-80916000D02*
G01*
X112419000Y-80916000D01*
X112419000Y-74664000D01*
X114121000Y-74664000D01*
X114121000Y-80916000D01*
X114121000Y-80916000D01*
G37*
G36*
X91980442Y-78955518D02*
G01*
X92046627Y-78962037D01*
X92216466Y-79013557D01*
X92372991Y-79097222D01*
X92408729Y-79126552D01*
X92510186Y-79209814D01*
X92593448Y-79311271D01*
X92622778Y-79347009D01*
X92622779Y-79347011D01*
X92685312Y-79464000D01*
X92706443Y-79503534D01*
X92757963Y-79673373D01*
X92775359Y-79850000D01*
X92757963Y-80026627D01*
X92706443Y-80196466D01*
X92622778Y-80352991D01*
X92593448Y-80388729D01*
X92510186Y-80490186D01*
X92408729Y-80573448D01*
X92372991Y-80602778D01*
X92216466Y-80686443D01*
X92046627Y-80737963D01*
X91980442Y-80744482D01*
X91914260Y-80751000D01*
X91825740Y-80751000D01*
X91759558Y-80744482D01*
X91693373Y-80737963D01*
X91523534Y-80686443D01*
X91367009Y-80602778D01*
X91331271Y-80573448D01*
X91229814Y-80490186D01*
X91146552Y-80388729D01*
X91117222Y-80352991D01*
X91033557Y-80196466D01*
X90982037Y-80026627D01*
X90964641Y-79850000D01*
X90982037Y-79673373D01*
X91033557Y-79503534D01*
X91054689Y-79464000D01*
X91117221Y-79347011D01*
X91117222Y-79347009D01*
X91146552Y-79311271D01*
X91229814Y-79209814D01*
X91331271Y-79126552D01*
X91367009Y-79097222D01*
X91523534Y-79013557D01*
X91693373Y-78962037D01*
X91759558Y-78955518D01*
X91825740Y-78949000D01*
X91914260Y-78949000D01*
X91980442Y-78955518D01*
X91980442Y-78955518D01*
G37*
G36*
X96231000Y-78581000D02*
G01*
X94829000Y-78581000D01*
X94829000Y-76979000D01*
X96231000Y-76979000D01*
X96231000Y-78581000D01*
X96231000Y-78581000D01*
G37*
G36*
X91980442Y-76415518D02*
G01*
X92046627Y-76422037D01*
X92216466Y-76473557D01*
X92372991Y-76557222D01*
X92408729Y-76586552D01*
X92510186Y-76669814D01*
X92593448Y-76771271D01*
X92622778Y-76807009D01*
X92706443Y-76963534D01*
X92757963Y-77133373D01*
X92775359Y-77310000D01*
X92757963Y-77486627D01*
X92706443Y-77656466D01*
X92622778Y-77812991D01*
X92614561Y-77823003D01*
X92510186Y-77950186D01*
X92413250Y-78029738D01*
X92372991Y-78062778D01*
X92372989Y-78062779D01*
X92265105Y-78120445D01*
X92216466Y-78146443D01*
X92046627Y-78197963D01*
X91980443Y-78204481D01*
X91914260Y-78211000D01*
X91825740Y-78211000D01*
X91759557Y-78204481D01*
X91693373Y-78197963D01*
X91523534Y-78146443D01*
X91474896Y-78120445D01*
X91367011Y-78062779D01*
X91367009Y-78062778D01*
X91326750Y-78029738D01*
X91229814Y-77950186D01*
X91125439Y-77823003D01*
X91117222Y-77812991D01*
X91033557Y-77656466D01*
X90982037Y-77486627D01*
X90964641Y-77310000D01*
X90982037Y-77133373D01*
X91033557Y-76963534D01*
X91117222Y-76807009D01*
X91146552Y-76771271D01*
X91229814Y-76669814D01*
X91331271Y-76586552D01*
X91367009Y-76557222D01*
X91523534Y-76473557D01*
X91693373Y-76422037D01*
X91759558Y-76415518D01*
X91825740Y-76409000D01*
X91914260Y-76409000D01*
X91980442Y-76415518D01*
X91980442Y-76415518D01*
G37*
G36*
X163099928Y-76121764D02*
G01*
X163121009Y-76128160D01*
X163140445Y-76138548D01*
X163157476Y-76152524D01*
X163171452Y-76169555D01*
X163181840Y-76188991D01*
X163188236Y-76210072D01*
X163191000Y-76238140D01*
X163191000Y-78051860D01*
X163188236Y-78079928D01*
X163181840Y-78101009D01*
X163171452Y-78120445D01*
X163157476Y-78137476D01*
X163140445Y-78151452D01*
X163121009Y-78161840D01*
X163099928Y-78168236D01*
X163071860Y-78171000D01*
X162608140Y-78171000D01*
X162580072Y-78168236D01*
X162558991Y-78161840D01*
X162539555Y-78151452D01*
X162522524Y-78137476D01*
X162508548Y-78120445D01*
X162498160Y-78101009D01*
X162491764Y-78079928D01*
X162489000Y-78051860D01*
X162489000Y-76238140D01*
X162491764Y-76210072D01*
X162498160Y-76188991D01*
X162508548Y-76169555D01*
X162522524Y-76152524D01*
X162539555Y-76138548D01*
X162558991Y-76128160D01*
X162580072Y-76121764D01*
X162608140Y-76119000D01*
X163071860Y-76119000D01*
X163099928Y-76121764D01*
X163099928Y-76121764D01*
G37*
G36*
X158019928Y-76121764D02*
G01*
X158041009Y-76128160D01*
X158060445Y-76138548D01*
X158077476Y-76152524D01*
X158091452Y-76169555D01*
X158101840Y-76188991D01*
X158108236Y-76210072D01*
X158111000Y-76238140D01*
X158111000Y-78051860D01*
X158108236Y-78079928D01*
X158101840Y-78101009D01*
X158091452Y-78120445D01*
X158077476Y-78137476D01*
X158060445Y-78151452D01*
X158041009Y-78161840D01*
X158019928Y-78168236D01*
X157991860Y-78171000D01*
X157528140Y-78171000D01*
X157500072Y-78168236D01*
X157478991Y-78161840D01*
X157459555Y-78151452D01*
X157442524Y-78137476D01*
X157428548Y-78120445D01*
X157418160Y-78101009D01*
X157411764Y-78079928D01*
X157409000Y-78051860D01*
X157409000Y-76238140D01*
X157411764Y-76210072D01*
X157418160Y-76188991D01*
X157428548Y-76169555D01*
X157442524Y-76152524D01*
X157459555Y-76138548D01*
X157478991Y-76128160D01*
X157500072Y-76121764D01*
X157528140Y-76119000D01*
X157991860Y-76119000D01*
X158019928Y-76121764D01*
X158019928Y-76121764D01*
G37*
G36*
X156749928Y-76121764D02*
G01*
X156771009Y-76128160D01*
X156790445Y-76138548D01*
X156807476Y-76152524D01*
X156821452Y-76169555D01*
X156831840Y-76188991D01*
X156838236Y-76210072D01*
X156841000Y-76238140D01*
X156841000Y-78051860D01*
X156838236Y-78079928D01*
X156831840Y-78101009D01*
X156821452Y-78120445D01*
X156807476Y-78137476D01*
X156790445Y-78151452D01*
X156771009Y-78161840D01*
X156749928Y-78168236D01*
X156721860Y-78171000D01*
X156258140Y-78171000D01*
X156230072Y-78168236D01*
X156208991Y-78161840D01*
X156189555Y-78151452D01*
X156172524Y-78137476D01*
X156158548Y-78120445D01*
X156148160Y-78101009D01*
X156141764Y-78079928D01*
X156139000Y-78051860D01*
X156139000Y-76238140D01*
X156141764Y-76210072D01*
X156148160Y-76188991D01*
X156158548Y-76169555D01*
X156172524Y-76152524D01*
X156189555Y-76138548D01*
X156208991Y-76128160D01*
X156230072Y-76121764D01*
X156258140Y-76119000D01*
X156721860Y-76119000D01*
X156749928Y-76121764D01*
X156749928Y-76121764D01*
G37*
G36*
X164369928Y-76121764D02*
G01*
X164391009Y-76128160D01*
X164410445Y-76138548D01*
X164427476Y-76152524D01*
X164441452Y-76169555D01*
X164451840Y-76188991D01*
X164458236Y-76210072D01*
X164461000Y-76238140D01*
X164461000Y-78051860D01*
X164458236Y-78079928D01*
X164451840Y-78101009D01*
X164441452Y-78120445D01*
X164427476Y-78137476D01*
X164410445Y-78151452D01*
X164391009Y-78161840D01*
X164369928Y-78168236D01*
X164341860Y-78171000D01*
X163878140Y-78171000D01*
X163850072Y-78168236D01*
X163828991Y-78161840D01*
X163809555Y-78151452D01*
X163792524Y-78137476D01*
X163778548Y-78120445D01*
X163768160Y-78101009D01*
X163761764Y-78079928D01*
X163759000Y-78051860D01*
X163759000Y-76238140D01*
X163761764Y-76210072D01*
X163768160Y-76188991D01*
X163778548Y-76169555D01*
X163792524Y-76152524D01*
X163809555Y-76138548D01*
X163828991Y-76128160D01*
X163850072Y-76121764D01*
X163878140Y-76119000D01*
X164341860Y-76119000D01*
X164369928Y-76121764D01*
X164369928Y-76121764D01*
G37*
G36*
X160559928Y-76121764D02*
G01*
X160581009Y-76128160D01*
X160600445Y-76138548D01*
X160617476Y-76152524D01*
X160631452Y-76169555D01*
X160641840Y-76188991D01*
X160648236Y-76210072D01*
X160651000Y-76238140D01*
X160651000Y-78051860D01*
X160648236Y-78079928D01*
X160641840Y-78101009D01*
X160631452Y-78120445D01*
X160617476Y-78137476D01*
X160600445Y-78151452D01*
X160581009Y-78161840D01*
X160559928Y-78168236D01*
X160531860Y-78171000D01*
X160068140Y-78171000D01*
X160040072Y-78168236D01*
X160018991Y-78161840D01*
X159999555Y-78151452D01*
X159982524Y-78137476D01*
X159968548Y-78120445D01*
X159958160Y-78101009D01*
X159951764Y-78079928D01*
X159949000Y-78051860D01*
X159949000Y-76238140D01*
X159951764Y-76210072D01*
X159958160Y-76188991D01*
X159968548Y-76169555D01*
X159982524Y-76152524D01*
X159999555Y-76138548D01*
X160018991Y-76128160D01*
X160040072Y-76121764D01*
X160068140Y-76119000D01*
X160531860Y-76119000D01*
X160559928Y-76121764D01*
X160559928Y-76121764D01*
G37*
G36*
X161829928Y-76121764D02*
G01*
X161851009Y-76128160D01*
X161870445Y-76138548D01*
X161887476Y-76152524D01*
X161901452Y-76169555D01*
X161911840Y-76188991D01*
X161918236Y-76210072D01*
X161921000Y-76238140D01*
X161921000Y-78051860D01*
X161918236Y-78079928D01*
X161911840Y-78101009D01*
X161901452Y-78120445D01*
X161887476Y-78137476D01*
X161870445Y-78151452D01*
X161851009Y-78161840D01*
X161829928Y-78168236D01*
X161801860Y-78171000D01*
X161338140Y-78171000D01*
X161310072Y-78168236D01*
X161288991Y-78161840D01*
X161269555Y-78151452D01*
X161252524Y-78137476D01*
X161238548Y-78120445D01*
X161228160Y-78101009D01*
X161221764Y-78079928D01*
X161219000Y-78051860D01*
X161219000Y-76238140D01*
X161221764Y-76210072D01*
X161228160Y-76188991D01*
X161238548Y-76169555D01*
X161252524Y-76152524D01*
X161269555Y-76138548D01*
X161288991Y-76128160D01*
X161310072Y-76121764D01*
X161338140Y-76119000D01*
X161801860Y-76119000D01*
X161829928Y-76121764D01*
X161829928Y-76121764D01*
G37*
G36*
X159289928Y-76121764D02*
G01*
X159311009Y-76128160D01*
X159330445Y-76138548D01*
X159347476Y-76152524D01*
X159361452Y-76169555D01*
X159371840Y-76188991D01*
X159378236Y-76210072D01*
X159381000Y-76238140D01*
X159381000Y-78051860D01*
X159378236Y-78079928D01*
X159371840Y-78101009D01*
X159361452Y-78120445D01*
X159347476Y-78137476D01*
X159330445Y-78151452D01*
X159311009Y-78161840D01*
X159289928Y-78168236D01*
X159261860Y-78171000D01*
X158798140Y-78171000D01*
X158770072Y-78168236D01*
X158748991Y-78161840D01*
X158729555Y-78151452D01*
X158712524Y-78137476D01*
X158698548Y-78120445D01*
X158688160Y-78101009D01*
X158681764Y-78079928D01*
X158679000Y-78051860D01*
X158679000Y-76238140D01*
X158681764Y-76210072D01*
X158688160Y-76188991D01*
X158698548Y-76169555D01*
X158712524Y-76152524D01*
X158729555Y-76138548D01*
X158748991Y-76128160D01*
X158770072Y-76121764D01*
X158798140Y-76119000D01*
X159261860Y-76119000D01*
X159289928Y-76121764D01*
X159289928Y-76121764D01*
G37*
G36*
X139254928Y-75851764D02*
G01*
X139276009Y-75858160D01*
X139295445Y-75868548D01*
X139312476Y-75882524D01*
X139326452Y-75899555D01*
X139336840Y-75918991D01*
X139343236Y-75940072D01*
X139346000Y-75968140D01*
X139346000Y-77781860D01*
X139343236Y-77809928D01*
X139336840Y-77831009D01*
X139326452Y-77850445D01*
X139312476Y-77867476D01*
X139295445Y-77881452D01*
X139276009Y-77891840D01*
X139254928Y-77898236D01*
X139226860Y-77901000D01*
X138763140Y-77901000D01*
X138735072Y-77898236D01*
X138713991Y-77891840D01*
X138694555Y-77881452D01*
X138677524Y-77867476D01*
X138663548Y-77850445D01*
X138653160Y-77831009D01*
X138646764Y-77809928D01*
X138644000Y-77781860D01*
X138644000Y-75968140D01*
X138646764Y-75940072D01*
X138653160Y-75918991D01*
X138663548Y-75899555D01*
X138677524Y-75882524D01*
X138694555Y-75868548D01*
X138713991Y-75858160D01*
X138735072Y-75851764D01*
X138763140Y-75849000D01*
X139226860Y-75849000D01*
X139254928Y-75851764D01*
X139254928Y-75851764D01*
G37*
G36*
X141794928Y-75851764D02*
G01*
X141816009Y-75858160D01*
X141835445Y-75868548D01*
X141852476Y-75882524D01*
X141866452Y-75899555D01*
X141876840Y-75918991D01*
X141883236Y-75940072D01*
X141886000Y-75968140D01*
X141886000Y-77781860D01*
X141883236Y-77809928D01*
X141876840Y-77831009D01*
X141866452Y-77850445D01*
X141852476Y-77867476D01*
X141835445Y-77881452D01*
X141816009Y-77891840D01*
X141794928Y-77898236D01*
X141766860Y-77901000D01*
X141303140Y-77901000D01*
X141275072Y-77898236D01*
X141253991Y-77891840D01*
X141234555Y-77881452D01*
X141217524Y-77867476D01*
X141203548Y-77850445D01*
X141193160Y-77831009D01*
X141186764Y-77809928D01*
X141184000Y-77781860D01*
X141184000Y-75968140D01*
X141186764Y-75940072D01*
X141193160Y-75918991D01*
X141203548Y-75899555D01*
X141217524Y-75882524D01*
X141234555Y-75868548D01*
X141253991Y-75858160D01*
X141275072Y-75851764D01*
X141303140Y-75849000D01*
X141766860Y-75849000D01*
X141794928Y-75851764D01*
X141794928Y-75851764D01*
G37*
G36*
X137984928Y-75851764D02*
G01*
X138006009Y-75858160D01*
X138025445Y-75868548D01*
X138042476Y-75882524D01*
X138056452Y-75899555D01*
X138066840Y-75918991D01*
X138073236Y-75940072D01*
X138076000Y-75968140D01*
X138076000Y-77781860D01*
X138073236Y-77809928D01*
X138066840Y-77831009D01*
X138056452Y-77850445D01*
X138042476Y-77867476D01*
X138025445Y-77881452D01*
X138006009Y-77891840D01*
X137984928Y-77898236D01*
X137956860Y-77901000D01*
X137493140Y-77901000D01*
X137465072Y-77898236D01*
X137443991Y-77891840D01*
X137424555Y-77881452D01*
X137407524Y-77867476D01*
X137393548Y-77850445D01*
X137383160Y-77831009D01*
X137376764Y-77809928D01*
X137374000Y-77781860D01*
X137374000Y-75968140D01*
X137376764Y-75940072D01*
X137383160Y-75918991D01*
X137393548Y-75899555D01*
X137407524Y-75882524D01*
X137424555Y-75868548D01*
X137443991Y-75858160D01*
X137465072Y-75851764D01*
X137493140Y-75849000D01*
X137956860Y-75849000D01*
X137984928Y-75851764D01*
X137984928Y-75851764D01*
G37*
G36*
X136714928Y-75851764D02*
G01*
X136736009Y-75858160D01*
X136755445Y-75868548D01*
X136772476Y-75882524D01*
X136786452Y-75899555D01*
X136796840Y-75918991D01*
X136803236Y-75940072D01*
X136806000Y-75968140D01*
X136806000Y-77781860D01*
X136803236Y-77809928D01*
X136796840Y-77831009D01*
X136786452Y-77850445D01*
X136772476Y-77867476D01*
X136755445Y-77881452D01*
X136736009Y-77891840D01*
X136714928Y-77898236D01*
X136686860Y-77901000D01*
X136223140Y-77901000D01*
X136195072Y-77898236D01*
X136173991Y-77891840D01*
X136154555Y-77881452D01*
X136137524Y-77867476D01*
X136123548Y-77850445D01*
X136113160Y-77831009D01*
X136106764Y-77809928D01*
X136104000Y-77781860D01*
X136104000Y-75968140D01*
X136106764Y-75940072D01*
X136113160Y-75918991D01*
X136123548Y-75899555D01*
X136137524Y-75882524D01*
X136154555Y-75868548D01*
X136173991Y-75858160D01*
X136195072Y-75851764D01*
X136223140Y-75849000D01*
X136686860Y-75849000D01*
X136714928Y-75851764D01*
X136714928Y-75851764D01*
G37*
G36*
X143064928Y-75851764D02*
G01*
X143086009Y-75858160D01*
X143105445Y-75868548D01*
X143122476Y-75882524D01*
X143136452Y-75899555D01*
X143146840Y-75918991D01*
X143153236Y-75940072D01*
X143156000Y-75968140D01*
X143156000Y-77781860D01*
X143153236Y-77809928D01*
X143146840Y-77831009D01*
X143136452Y-77850445D01*
X143122476Y-77867476D01*
X143105445Y-77881452D01*
X143086009Y-77891840D01*
X143064928Y-77898236D01*
X143036860Y-77901000D01*
X142573140Y-77901000D01*
X142545072Y-77898236D01*
X142523991Y-77891840D01*
X142504555Y-77881452D01*
X142487524Y-77867476D01*
X142473548Y-77850445D01*
X142463160Y-77831009D01*
X142456764Y-77809928D01*
X142454000Y-77781860D01*
X142454000Y-75968140D01*
X142456764Y-75940072D01*
X142463160Y-75918991D01*
X142473548Y-75899555D01*
X142487524Y-75882524D01*
X142504555Y-75868548D01*
X142523991Y-75858160D01*
X142545072Y-75851764D01*
X142573140Y-75849000D01*
X143036860Y-75849000D01*
X143064928Y-75851764D01*
X143064928Y-75851764D01*
G37*
G36*
X140524928Y-75851764D02*
G01*
X140546009Y-75858160D01*
X140565445Y-75868548D01*
X140582476Y-75882524D01*
X140596452Y-75899555D01*
X140606840Y-75918991D01*
X140613236Y-75940072D01*
X140616000Y-75968140D01*
X140616000Y-77781860D01*
X140613236Y-77809928D01*
X140606840Y-77831009D01*
X140596452Y-77850445D01*
X140582476Y-77867476D01*
X140565445Y-77881452D01*
X140546009Y-77891840D01*
X140524928Y-77898236D01*
X140496860Y-77901000D01*
X140033140Y-77901000D01*
X140005072Y-77898236D01*
X139983991Y-77891840D01*
X139964555Y-77881452D01*
X139947524Y-77867476D01*
X139933548Y-77850445D01*
X139923160Y-77831009D01*
X139916764Y-77809928D01*
X139914000Y-77781860D01*
X139914000Y-75968140D01*
X139916764Y-75940072D01*
X139923160Y-75918991D01*
X139933548Y-75899555D01*
X139947524Y-75882524D01*
X139964555Y-75868548D01*
X139983991Y-75858160D01*
X140005072Y-75851764D01*
X140033140Y-75849000D01*
X140496860Y-75849000D01*
X140524928Y-75851764D01*
X140524928Y-75851764D01*
G37*
G36*
X145604928Y-75851764D02*
G01*
X145626009Y-75858160D01*
X145645445Y-75868548D01*
X145662476Y-75882524D01*
X145676452Y-75899555D01*
X145686840Y-75918991D01*
X145693236Y-75940072D01*
X145696000Y-75968140D01*
X145696000Y-77781860D01*
X145693236Y-77809928D01*
X145686840Y-77831009D01*
X145676452Y-77850445D01*
X145662476Y-77867476D01*
X145645445Y-77881452D01*
X145626009Y-77891840D01*
X145604928Y-77898236D01*
X145576860Y-77901000D01*
X145113140Y-77901000D01*
X145085072Y-77898236D01*
X145063991Y-77891840D01*
X145044555Y-77881452D01*
X145027524Y-77867476D01*
X145013548Y-77850445D01*
X145003160Y-77831009D01*
X144996764Y-77809928D01*
X144994000Y-77781860D01*
X144994000Y-75968140D01*
X144996764Y-75940072D01*
X145003160Y-75918991D01*
X145013548Y-75899555D01*
X145027524Y-75882524D01*
X145044555Y-75868548D01*
X145063991Y-75858160D01*
X145085072Y-75851764D01*
X145113140Y-75849000D01*
X145576860Y-75849000D01*
X145604928Y-75851764D01*
X145604928Y-75851764D01*
G37*
G36*
X144334928Y-75851764D02*
G01*
X144356009Y-75858160D01*
X144375445Y-75868548D01*
X144392476Y-75882524D01*
X144406452Y-75899555D01*
X144416840Y-75918991D01*
X144423236Y-75940072D01*
X144426000Y-75968140D01*
X144426000Y-77781860D01*
X144423236Y-77809928D01*
X144416840Y-77831009D01*
X144406452Y-77850445D01*
X144392476Y-77867476D01*
X144375445Y-77881452D01*
X144356009Y-77891840D01*
X144334928Y-77898236D01*
X144306860Y-77901000D01*
X143843140Y-77901000D01*
X143815072Y-77898236D01*
X143793991Y-77891840D01*
X143774555Y-77881452D01*
X143757524Y-77867476D01*
X143743548Y-77850445D01*
X143733160Y-77831009D01*
X143726764Y-77809928D01*
X143724000Y-77781860D01*
X143724000Y-75968140D01*
X143726764Y-75940072D01*
X143733160Y-75918991D01*
X143743548Y-75899555D01*
X143757524Y-75882524D01*
X143774555Y-75868548D01*
X143793991Y-75858160D01*
X143815072Y-75851764D01*
X143843140Y-75849000D01*
X144306860Y-75849000D01*
X144334928Y-75851764D01*
X144334928Y-75851764D01*
G37*
G36*
X177281000Y-77491000D02*
G01*
X175679000Y-77491000D01*
X175679000Y-76089000D01*
X177281000Y-76089000D01*
X177281000Y-77491000D01*
X177281000Y-77491000D01*
G37*
G36*
X174581000Y-77491000D02*
G01*
X172979000Y-77491000D01*
X172979000Y-76089000D01*
X174581000Y-76089000D01*
X174581000Y-77491000D01*
X174581000Y-77491000D01*
G37*
G36*
X152301000Y-76681000D02*
G01*
X150499000Y-76681000D01*
X150499000Y-74879000D01*
X152301000Y-74879000D01*
X152301000Y-76681000D01*
X152301000Y-76681000D01*
G37*
G36*
X91980443Y-73875519D02*
G01*
X92046627Y-73882037D01*
X92216466Y-73933557D01*
X92372991Y-74017222D01*
X92408729Y-74046552D01*
X92510186Y-74129814D01*
X92593448Y-74231271D01*
X92622778Y-74267009D01*
X92706443Y-74423534D01*
X92757963Y-74593373D01*
X92775359Y-74770000D01*
X92757963Y-74946627D01*
X92706443Y-75116466D01*
X92622778Y-75272991D01*
X92593448Y-75308729D01*
X92510186Y-75410186D01*
X92444612Y-75464000D01*
X92372991Y-75522778D01*
X92216466Y-75606443D01*
X92046627Y-75657963D01*
X91980442Y-75664482D01*
X91914260Y-75671000D01*
X91825740Y-75671000D01*
X91759558Y-75664482D01*
X91693373Y-75657963D01*
X91523534Y-75606443D01*
X91367009Y-75522778D01*
X91295388Y-75464000D01*
X91229814Y-75410186D01*
X91146552Y-75308729D01*
X91117222Y-75272991D01*
X91033557Y-75116466D01*
X90982037Y-74946627D01*
X90964641Y-74770000D01*
X90982037Y-74593373D01*
X91033557Y-74423534D01*
X91117222Y-74267009D01*
X91146552Y-74231271D01*
X91229814Y-74129814D01*
X91331271Y-74046552D01*
X91367009Y-74017222D01*
X91523534Y-73933557D01*
X91693373Y-73882037D01*
X91759557Y-73875519D01*
X91825740Y-73869000D01*
X91914260Y-73869000D01*
X91980443Y-73875519D01*
X91980443Y-73875519D01*
G37*
G36*
X120646000Y-74391000D02*
G01*
X114394000Y-74391000D01*
X114394000Y-72689000D01*
X120646000Y-72689000D01*
X120646000Y-74391000D01*
X120646000Y-74391000D01*
G37*
G36*
X91980442Y-71335518D02*
G01*
X92046627Y-71342037D01*
X92216466Y-71393557D01*
X92372991Y-71477222D01*
X92408729Y-71506552D01*
X92510186Y-71589814D01*
X92593448Y-71691271D01*
X92622778Y-71727009D01*
X92706443Y-71883534D01*
X92757963Y-72053373D01*
X92775359Y-72230000D01*
X92757963Y-72406627D01*
X92706443Y-72576466D01*
X92622778Y-72732991D01*
X92593448Y-72768729D01*
X92510186Y-72870186D01*
X92408729Y-72953448D01*
X92372991Y-72982778D01*
X92216466Y-73066443D01*
X92046627Y-73117963D01*
X91980443Y-73124481D01*
X91914260Y-73131000D01*
X91825740Y-73131000D01*
X91759557Y-73124481D01*
X91693373Y-73117963D01*
X91523534Y-73066443D01*
X91367009Y-72982778D01*
X91331271Y-72953448D01*
X91229814Y-72870186D01*
X91146552Y-72768729D01*
X91117222Y-72732991D01*
X91033557Y-72576466D01*
X90982037Y-72406627D01*
X90964641Y-72230000D01*
X90982037Y-72053373D01*
X91033557Y-71883534D01*
X91117222Y-71727009D01*
X91146552Y-71691271D01*
X91229814Y-71589814D01*
X91331271Y-71506552D01*
X91367009Y-71477222D01*
X91523534Y-71393557D01*
X91693373Y-71342037D01*
X91759558Y-71335518D01*
X91825740Y-71329000D01*
X91914260Y-71329000D01*
X91980442Y-71335518D01*
X91980442Y-71335518D01*
G37*
G36*
X173085589Y-71428876D02*
G01*
X173184893Y-71448629D01*
X173325206Y-71506748D01*
X173451484Y-71591125D01*
X173558875Y-71698516D01*
X173643252Y-71824794D01*
X173701371Y-71965107D01*
X173731000Y-72114063D01*
X173731000Y-72265937D01*
X173701371Y-72414893D01*
X173643252Y-72555206D01*
X173558875Y-72681484D01*
X173451484Y-72788875D01*
X173325206Y-72873252D01*
X173184893Y-72931371D01*
X173085589Y-72951124D01*
X173035938Y-72961000D01*
X172884062Y-72961000D01*
X172834411Y-72951124D01*
X172735107Y-72931371D01*
X172594794Y-72873252D01*
X172468516Y-72788875D01*
X172361125Y-72681484D01*
X172276748Y-72555206D01*
X172218629Y-72414893D01*
X172189000Y-72265937D01*
X172189000Y-72114063D01*
X172218629Y-71965107D01*
X172276748Y-71824794D01*
X172361125Y-71698516D01*
X172468516Y-71591125D01*
X172594794Y-71506748D01*
X172735107Y-71448629D01*
X172834411Y-71428876D01*
X172884062Y-71419000D01*
X173035938Y-71419000D01*
X173085589Y-71428876D01*
X173085589Y-71428876D01*
G37*
G36*
X155201000Y-71545000D02*
G01*
X153599000Y-71545000D01*
X153599000Y-70143000D01*
X155201000Y-70143000D01*
X155201000Y-71545000D01*
X155201000Y-71545000D01*
G37*
G36*
X143651000Y-71545000D02*
G01*
X142049000Y-71545000D01*
X142049000Y-70143000D01*
X143651000Y-70143000D01*
X143651000Y-71545000D01*
X143651000Y-71545000D01*
G37*
G36*
X140951000Y-71545000D02*
G01*
X139349000Y-71545000D01*
X139349000Y-70143000D01*
X140951000Y-70143000D01*
X140951000Y-71545000D01*
X140951000Y-71545000D01*
G37*
G36*
X146751000Y-71545000D02*
G01*
X145149000Y-71545000D01*
X145149000Y-70143000D01*
X146751000Y-70143000D01*
X146751000Y-71545000D01*
X146751000Y-71545000D01*
G37*
G36*
X149451000Y-71545000D02*
G01*
X147849000Y-71545000D01*
X147849000Y-70143000D01*
X149451000Y-70143000D01*
X149451000Y-71545000D01*
X149451000Y-71545000D01*
G37*
G36*
X152501000Y-71545000D02*
G01*
X150899000Y-71545000D01*
X150899000Y-70143000D01*
X152501000Y-70143000D01*
X152501000Y-71545000D01*
X152501000Y-71545000D01*
G37*
G36*
X91980442Y-68795518D02*
G01*
X92046627Y-68802037D01*
X92216466Y-68853557D01*
X92372991Y-68937222D01*
X92408729Y-68966552D01*
X92510186Y-69049814D01*
X92593448Y-69151271D01*
X92622778Y-69187009D01*
X92706443Y-69343534D01*
X92757963Y-69513373D01*
X92775359Y-69690000D01*
X92757963Y-69866627D01*
X92706443Y-70036466D01*
X92622778Y-70192991D01*
X92593448Y-70228729D01*
X92510186Y-70330186D01*
X92408729Y-70413448D01*
X92372991Y-70442778D01*
X92216466Y-70526443D01*
X92046627Y-70577963D01*
X91980442Y-70584482D01*
X91914260Y-70591000D01*
X91825740Y-70591000D01*
X91759558Y-70584482D01*
X91693373Y-70577963D01*
X91523534Y-70526443D01*
X91367009Y-70442778D01*
X91331271Y-70413448D01*
X91229814Y-70330186D01*
X91146552Y-70228729D01*
X91117222Y-70192991D01*
X91033557Y-70036466D01*
X90982037Y-69866627D01*
X90964641Y-69690000D01*
X90982037Y-69513373D01*
X91033557Y-69343534D01*
X91117222Y-69187009D01*
X91146552Y-69151271D01*
X91229814Y-69049814D01*
X91331271Y-68966552D01*
X91367009Y-68937222D01*
X91523534Y-68853557D01*
X91693373Y-68802037D01*
X91759558Y-68795518D01*
X91825740Y-68789000D01*
X91914260Y-68789000D01*
X91980442Y-68795518D01*
X91980442Y-68795518D01*
G37*
G36*
X175625589Y-68888876D02*
G01*
X175724893Y-68908629D01*
X175865206Y-68966748D01*
X175991484Y-69051125D01*
X176098875Y-69158516D01*
X176183252Y-69284794D01*
X176241371Y-69425107D01*
X176271000Y-69574063D01*
X176271000Y-69725937D01*
X176241371Y-69874893D01*
X176183252Y-70015206D01*
X176098875Y-70141484D01*
X175991484Y-70248875D01*
X175865206Y-70333252D01*
X175724893Y-70391371D01*
X175625589Y-70411124D01*
X175575938Y-70421000D01*
X175424062Y-70421000D01*
X175374411Y-70411124D01*
X175275107Y-70391371D01*
X175134794Y-70333252D01*
X175008516Y-70248875D01*
X174901125Y-70141484D01*
X174816748Y-70015206D01*
X174758629Y-69874893D01*
X174729000Y-69725937D01*
X174729000Y-69574063D01*
X174758629Y-69425107D01*
X174816748Y-69284794D01*
X174901125Y-69158516D01*
X175008516Y-69051125D01*
X175134794Y-68966748D01*
X175275107Y-68908629D01*
X175374411Y-68888876D01*
X175424062Y-68879000D01*
X175575938Y-68879000D01*
X175625589Y-68888876D01*
X175625589Y-68888876D01*
G37*
G36*
X91980443Y-66255519D02*
G01*
X92046627Y-66262037D01*
X92216466Y-66313557D01*
X92372991Y-66397222D01*
X92408729Y-66426552D01*
X92510186Y-66509814D01*
X92593448Y-66611271D01*
X92622778Y-66647009D01*
X92706443Y-66803534D01*
X92757963Y-66973373D01*
X92775359Y-67150000D01*
X92757963Y-67326627D01*
X92706443Y-67496466D01*
X92622778Y-67652991D01*
X92593448Y-67688729D01*
X92510186Y-67790186D01*
X92408729Y-67873448D01*
X92372991Y-67902778D01*
X92216466Y-67986443D01*
X92046627Y-68037963D01*
X91980443Y-68044481D01*
X91914260Y-68051000D01*
X91825740Y-68051000D01*
X91759557Y-68044481D01*
X91693373Y-68037963D01*
X91523534Y-67986443D01*
X91367009Y-67902778D01*
X91331271Y-67873448D01*
X91229814Y-67790186D01*
X91146552Y-67688729D01*
X91117222Y-67652991D01*
X91033557Y-67496466D01*
X90982037Y-67326627D01*
X90964641Y-67150000D01*
X90982037Y-66973373D01*
X91033557Y-66803534D01*
X91117222Y-66647009D01*
X91146552Y-66611271D01*
X91229814Y-66509814D01*
X91331271Y-66426552D01*
X91367009Y-66397222D01*
X91523534Y-66313557D01*
X91693373Y-66262037D01*
X91759557Y-66255519D01*
X91825740Y-66249000D01*
X91914260Y-66249000D01*
X91980443Y-66255519D01*
X91980443Y-66255519D01*
G37*
G36*
X173085589Y-66348876D02*
G01*
X173184893Y-66368629D01*
X173325206Y-66426748D01*
X173451484Y-66511125D01*
X173558875Y-66618516D01*
X173643252Y-66744794D01*
X173701371Y-66885107D01*
X173731000Y-67034063D01*
X173731000Y-67185937D01*
X173701371Y-67334893D01*
X173643252Y-67475206D01*
X173558875Y-67601484D01*
X173451484Y-67708875D01*
X173325206Y-67793252D01*
X173184893Y-67851371D01*
X173085589Y-67871124D01*
X173035938Y-67881000D01*
X172884062Y-67881000D01*
X172834411Y-67871124D01*
X172735107Y-67851371D01*
X172594794Y-67793252D01*
X172468516Y-67708875D01*
X172361125Y-67601484D01*
X172276748Y-67475206D01*
X172218629Y-67334893D01*
X172189000Y-67185937D01*
X172189000Y-67034063D01*
X172218629Y-66885107D01*
X172276748Y-66744794D01*
X172361125Y-66618516D01*
X172468516Y-66511125D01*
X172594794Y-66426748D01*
X172735107Y-66368629D01*
X172834411Y-66348876D01*
X172884062Y-66339000D01*
X173035938Y-66339000D01*
X173085589Y-66348876D01*
X173085589Y-66348876D01*
G37*
G36*
X105050443Y-65835519D02*
G01*
X105116627Y-65842037D01*
X105286466Y-65893557D01*
X105442991Y-65977222D01*
X105478729Y-66006552D01*
X105580186Y-66089814D01*
X105663448Y-66191271D01*
X105692778Y-66227009D01*
X105776443Y-66383534D01*
X105827963Y-66553373D01*
X105845359Y-66730000D01*
X105827963Y-66906627D01*
X105776443Y-67076466D01*
X105692778Y-67232991D01*
X105663448Y-67268729D01*
X105580186Y-67370186D01*
X105478729Y-67453448D01*
X105442991Y-67482778D01*
X105286466Y-67566443D01*
X105116627Y-67617963D01*
X105050442Y-67624482D01*
X104984260Y-67631000D01*
X104895740Y-67631000D01*
X104829558Y-67624482D01*
X104763373Y-67617963D01*
X104593534Y-67566443D01*
X104437009Y-67482778D01*
X104401271Y-67453448D01*
X104299814Y-67370186D01*
X104216552Y-67268729D01*
X104187222Y-67232991D01*
X104103557Y-67076466D01*
X104052037Y-66906627D01*
X104034641Y-66730000D01*
X104052037Y-66553373D01*
X104103557Y-66383534D01*
X104187222Y-66227009D01*
X104216552Y-66191271D01*
X104299814Y-66089814D01*
X104401271Y-66006552D01*
X104437009Y-65977222D01*
X104593534Y-65893557D01*
X104763373Y-65842037D01*
X104829557Y-65835519D01*
X104895740Y-65829000D01*
X104984260Y-65829000D01*
X105050443Y-65835519D01*
X105050443Y-65835519D01*
G37*
G36*
X99970443Y-65835519D02*
G01*
X100036627Y-65842037D01*
X100206466Y-65893557D01*
X100362991Y-65977222D01*
X100398729Y-66006552D01*
X100500186Y-66089814D01*
X100583448Y-66191271D01*
X100612778Y-66227009D01*
X100696443Y-66383534D01*
X100747963Y-66553373D01*
X100765359Y-66730000D01*
X100747963Y-66906627D01*
X100696443Y-67076466D01*
X100612778Y-67232991D01*
X100583448Y-67268729D01*
X100500186Y-67370186D01*
X100398729Y-67453448D01*
X100362991Y-67482778D01*
X100206466Y-67566443D01*
X100036627Y-67617963D01*
X99970442Y-67624482D01*
X99904260Y-67631000D01*
X99815740Y-67631000D01*
X99749558Y-67624482D01*
X99683373Y-67617963D01*
X99513534Y-67566443D01*
X99357009Y-67482778D01*
X99321271Y-67453448D01*
X99219814Y-67370186D01*
X99136552Y-67268729D01*
X99107222Y-67232991D01*
X99023557Y-67076466D01*
X98972037Y-66906627D01*
X98954641Y-66730000D01*
X98972037Y-66553373D01*
X99023557Y-66383534D01*
X99107222Y-66227009D01*
X99136552Y-66191271D01*
X99219814Y-66089814D01*
X99321271Y-66006552D01*
X99357009Y-65977222D01*
X99513534Y-65893557D01*
X99683373Y-65842037D01*
X99749557Y-65835519D01*
X99815740Y-65829000D01*
X99904260Y-65829000D01*
X99970443Y-65835519D01*
X99970443Y-65835519D01*
G37*
G36*
X102510443Y-65835519D02*
G01*
X102576627Y-65842037D01*
X102746466Y-65893557D01*
X102902991Y-65977222D01*
X102938729Y-66006552D01*
X103040186Y-66089814D01*
X103123448Y-66191271D01*
X103152778Y-66227009D01*
X103236443Y-66383534D01*
X103287963Y-66553373D01*
X103305359Y-66730000D01*
X103287963Y-66906627D01*
X103236443Y-67076466D01*
X103152778Y-67232991D01*
X103123448Y-67268729D01*
X103040186Y-67370186D01*
X102938729Y-67453448D01*
X102902991Y-67482778D01*
X102746466Y-67566443D01*
X102576627Y-67617963D01*
X102510442Y-67624482D01*
X102444260Y-67631000D01*
X102355740Y-67631000D01*
X102289558Y-67624482D01*
X102223373Y-67617963D01*
X102053534Y-67566443D01*
X101897009Y-67482778D01*
X101861271Y-67453448D01*
X101759814Y-67370186D01*
X101676552Y-67268729D01*
X101647222Y-67232991D01*
X101563557Y-67076466D01*
X101512037Y-66906627D01*
X101494641Y-66730000D01*
X101512037Y-66553373D01*
X101563557Y-66383534D01*
X101647222Y-66227009D01*
X101676552Y-66191271D01*
X101759814Y-66089814D01*
X101861271Y-66006552D01*
X101897009Y-65977222D01*
X102053534Y-65893557D01*
X102223373Y-65842037D01*
X102289557Y-65835519D01*
X102355740Y-65829000D01*
X102444260Y-65829000D01*
X102510443Y-65835519D01*
X102510443Y-65835519D01*
G37*
G36*
X91980443Y-63715519D02*
G01*
X92046627Y-63722037D01*
X92216466Y-63773557D01*
X92372991Y-63857222D01*
X92408729Y-63886552D01*
X92510186Y-63969814D01*
X92593448Y-64071271D01*
X92622778Y-64107009D01*
X92706443Y-64263534D01*
X92757963Y-64433373D01*
X92775359Y-64610000D01*
X92757963Y-64786627D01*
X92706443Y-64956466D01*
X92622778Y-65112991D01*
X92593448Y-65148729D01*
X92510186Y-65250186D01*
X92408729Y-65333448D01*
X92372991Y-65362778D01*
X92216466Y-65446443D01*
X92046627Y-65497963D01*
X91980442Y-65504482D01*
X91914260Y-65511000D01*
X91825740Y-65511000D01*
X91759558Y-65504482D01*
X91693373Y-65497963D01*
X91523534Y-65446443D01*
X91367009Y-65362778D01*
X91331271Y-65333448D01*
X91229814Y-65250186D01*
X91146552Y-65148729D01*
X91117222Y-65112991D01*
X91033557Y-64956466D01*
X90982037Y-64786627D01*
X90964641Y-64610000D01*
X90982037Y-64433373D01*
X91033557Y-64263534D01*
X91117222Y-64107009D01*
X91146552Y-64071271D01*
X91229814Y-63969814D01*
X91331271Y-63886552D01*
X91367009Y-63857222D01*
X91523534Y-63773557D01*
X91693373Y-63722037D01*
X91759557Y-63715519D01*
X91825740Y-63709000D01*
X91914260Y-63709000D01*
X91980443Y-63715519D01*
X91980443Y-63715519D01*
G37*
G36*
X102510442Y-63295518D02*
G01*
X102576627Y-63302037D01*
X102746466Y-63353557D01*
X102902991Y-63437222D01*
X102938729Y-63466552D01*
X103040186Y-63549814D01*
X103123448Y-63651271D01*
X103152778Y-63687009D01*
X103236443Y-63843534D01*
X103287963Y-64013373D01*
X103305359Y-64190000D01*
X103287963Y-64366627D01*
X103236443Y-64536466D01*
X103152778Y-64692991D01*
X103123448Y-64728729D01*
X103040186Y-64830186D01*
X102938729Y-64913448D01*
X102902991Y-64942778D01*
X102746466Y-65026443D01*
X102576627Y-65077963D01*
X102510443Y-65084481D01*
X102444260Y-65091000D01*
X102355740Y-65091000D01*
X102289557Y-65084481D01*
X102223373Y-65077963D01*
X102053534Y-65026443D01*
X101897009Y-64942778D01*
X101861271Y-64913448D01*
X101759814Y-64830186D01*
X101676552Y-64728729D01*
X101647222Y-64692991D01*
X101563557Y-64536466D01*
X101512037Y-64366627D01*
X101494641Y-64190000D01*
X101512037Y-64013373D01*
X101563557Y-63843534D01*
X101647222Y-63687009D01*
X101676552Y-63651271D01*
X101759814Y-63549814D01*
X101861271Y-63466552D01*
X101897009Y-63437222D01*
X102053534Y-63353557D01*
X102223373Y-63302037D01*
X102289558Y-63295518D01*
X102355740Y-63289000D01*
X102444260Y-63289000D01*
X102510442Y-63295518D01*
X102510442Y-63295518D01*
G37*
G36*
X99970442Y-63295518D02*
G01*
X100036627Y-63302037D01*
X100206466Y-63353557D01*
X100362991Y-63437222D01*
X100398729Y-63466552D01*
X100500186Y-63549814D01*
X100583448Y-63651271D01*
X100612778Y-63687009D01*
X100696443Y-63843534D01*
X100747963Y-64013373D01*
X100765359Y-64190000D01*
X100747963Y-64366627D01*
X100696443Y-64536466D01*
X100612778Y-64692991D01*
X100583448Y-64728729D01*
X100500186Y-64830186D01*
X100398729Y-64913448D01*
X100362991Y-64942778D01*
X100206466Y-65026443D01*
X100036627Y-65077963D01*
X99970443Y-65084481D01*
X99904260Y-65091000D01*
X99815740Y-65091000D01*
X99749557Y-65084481D01*
X99683373Y-65077963D01*
X99513534Y-65026443D01*
X99357009Y-64942778D01*
X99321271Y-64913448D01*
X99219814Y-64830186D01*
X99136552Y-64728729D01*
X99107222Y-64692991D01*
X99023557Y-64536466D01*
X98972037Y-64366627D01*
X98954641Y-64190000D01*
X98972037Y-64013373D01*
X99023557Y-63843534D01*
X99107222Y-63687009D01*
X99136552Y-63651271D01*
X99219814Y-63549814D01*
X99321271Y-63466552D01*
X99357009Y-63437222D01*
X99513534Y-63353557D01*
X99683373Y-63302037D01*
X99749558Y-63295518D01*
X99815740Y-63289000D01*
X99904260Y-63289000D01*
X99970442Y-63295518D01*
X99970442Y-63295518D01*
G37*
G36*
X105841000Y-65091000D02*
G01*
X104039000Y-65091000D01*
X104039000Y-63289000D01*
X105841000Y-63289000D01*
X105841000Y-65091000D01*
X105841000Y-65091000D01*
G37*
G36*
X143901000Y-64733000D02*
G01*
X142299000Y-64733000D01*
X142299000Y-63331000D01*
X143901000Y-63331000D01*
X143901000Y-64733000D01*
X143901000Y-64733000D01*
G37*
G36*
X149861000Y-64733000D02*
G01*
X148259000Y-64733000D01*
X148259000Y-63331000D01*
X149861000Y-63331000D01*
X149861000Y-64733000D01*
X149861000Y-64733000D01*
G37*
G36*
X147161000Y-64733000D02*
G01*
X145559000Y-64733000D01*
X145559000Y-63331000D01*
X147161000Y-63331000D01*
X147161000Y-64733000D01*
X147161000Y-64733000D01*
G37*
G36*
X137761000Y-64733000D02*
G01*
X136159000Y-64733000D01*
X136159000Y-63331000D01*
X137761000Y-63331000D01*
X137761000Y-64733000D01*
X137761000Y-64733000D01*
G37*
G36*
X135061000Y-64733000D02*
G01*
X133459000Y-64733000D01*
X133459000Y-63331000D01*
X135061000Y-63331000D01*
X135061000Y-64733000D01*
X135061000Y-64733000D01*
G37*
G36*
X152851000Y-64733000D02*
G01*
X151249000Y-64733000D01*
X151249000Y-63331000D01*
X152851000Y-63331000D01*
X152851000Y-64733000D01*
X152851000Y-64733000D01*
G37*
G36*
X155551000Y-64733000D02*
G01*
X153949000Y-64733000D01*
X153949000Y-63331000D01*
X155551000Y-63331000D01*
X155551000Y-64733000D01*
X155551000Y-64733000D01*
G37*
G36*
X141201000Y-64733000D02*
G01*
X139599000Y-64733000D01*
X139599000Y-63331000D01*
X141201000Y-63331000D01*
X141201000Y-64733000D01*
X141201000Y-64733000D01*
G37*
G36*
X158791000Y-64678000D02*
G01*
X157189000Y-64678000D01*
X157189000Y-63326000D01*
X158791000Y-63326000D01*
X158791000Y-64678000D01*
X158791000Y-64678000D01*
G37*
G36*
X161291000Y-64678000D02*
G01*
X159689000Y-64678000D01*
X159689000Y-63326000D01*
X161291000Y-63326000D01*
X161291000Y-64678000D01*
X161291000Y-64678000D01*
G37*
G36*
X115421000Y-64676000D02*
G01*
X113819000Y-64676000D01*
X113819000Y-63324000D01*
X115421000Y-63324000D01*
X115421000Y-64676000D01*
X115421000Y-64676000D01*
G37*
G36*
X117921000Y-64676000D02*
G01*
X116319000Y-64676000D01*
X116319000Y-63324000D01*
X117921000Y-63324000D01*
X117921000Y-64676000D01*
X117921000Y-64676000D01*
G37*
G36*
X124121000Y-64665000D02*
G01*
X122519000Y-64665000D01*
X122519000Y-63263000D01*
X124121000Y-63263000D01*
X124121000Y-64665000D01*
X124121000Y-64665000D01*
G37*
G36*
X121421000Y-64665000D02*
G01*
X119819000Y-64665000D01*
X119819000Y-63263000D01*
X121421000Y-63263000D01*
X121421000Y-64665000D01*
X121421000Y-64665000D01*
G37*
G36*
X91980443Y-61175519D02*
G01*
X92046627Y-61182037D01*
X92216466Y-61233557D01*
X92372991Y-61317222D01*
X92408729Y-61346552D01*
X92510186Y-61429814D01*
X92593448Y-61531271D01*
X92622778Y-61567009D01*
X92706443Y-61723534D01*
X92757963Y-61893373D01*
X92775359Y-62070000D01*
X92757963Y-62246627D01*
X92706443Y-62416466D01*
X92622778Y-62572991D01*
X92593448Y-62608729D01*
X92510186Y-62710186D01*
X92408729Y-62793448D01*
X92372991Y-62822778D01*
X92216466Y-62906443D01*
X92046627Y-62957963D01*
X91980443Y-62964481D01*
X91914260Y-62971000D01*
X91825740Y-62971000D01*
X91759557Y-62964481D01*
X91693373Y-62957963D01*
X91523534Y-62906443D01*
X91367009Y-62822778D01*
X91331271Y-62793448D01*
X91229814Y-62710186D01*
X91146552Y-62608729D01*
X91117222Y-62572991D01*
X91033557Y-62416466D01*
X90982037Y-62246627D01*
X90964641Y-62070000D01*
X90982037Y-61893373D01*
X91033557Y-61723534D01*
X91117222Y-61567009D01*
X91146552Y-61531271D01*
X91229814Y-61429814D01*
X91331271Y-61346552D01*
X91367009Y-61317222D01*
X91523534Y-61233557D01*
X91693373Y-61182037D01*
X91759557Y-61175519D01*
X91825740Y-61169000D01*
X91914260Y-61169000D01*
X91980443Y-61175519D01*
X91980443Y-61175519D01*
G37*
G36*
X165281000Y-61141000D02*
G01*
X162679000Y-61141000D01*
X162679000Y-57039000D01*
X165281000Y-57039000D01*
X165281000Y-61141000D01*
X165281000Y-61141000D01*
G37*
G36*
X123946000Y-60781000D02*
G01*
X122594000Y-60781000D01*
X122594000Y-59179000D01*
X123946000Y-59179000D01*
X123946000Y-60781000D01*
X123946000Y-60781000D01*
G37*
G36*
X91980442Y-58635518D02*
G01*
X92046627Y-58642037D01*
X92216466Y-58693557D01*
X92372991Y-58777222D01*
X92408729Y-58806552D01*
X92510186Y-58889814D01*
X92593448Y-58991271D01*
X92622778Y-59027009D01*
X92706443Y-59183534D01*
X92757963Y-59353373D01*
X92775359Y-59530000D01*
X92757963Y-59706627D01*
X92706443Y-59876466D01*
X92622778Y-60032991D01*
X92593448Y-60068729D01*
X92510186Y-60170186D01*
X92408729Y-60253448D01*
X92372991Y-60282778D01*
X92216466Y-60366443D01*
X92046627Y-60417963D01*
X91980442Y-60424482D01*
X91914260Y-60431000D01*
X91825740Y-60431000D01*
X91759558Y-60424482D01*
X91693373Y-60417963D01*
X91523534Y-60366443D01*
X91367009Y-60282778D01*
X91331271Y-60253448D01*
X91229814Y-60170186D01*
X91146552Y-60068729D01*
X91117222Y-60032991D01*
X91033557Y-59876466D01*
X90982037Y-59706627D01*
X90964641Y-59530000D01*
X90982037Y-59353373D01*
X91033557Y-59183534D01*
X91117222Y-59027009D01*
X91146552Y-58991271D01*
X91229814Y-58889814D01*
X91331271Y-58806552D01*
X91367009Y-58777222D01*
X91523534Y-58693557D01*
X91693373Y-58642037D01*
X91759558Y-58635518D01*
X91825740Y-58629000D01*
X91914260Y-58629000D01*
X91980442Y-58635518D01*
X91980442Y-58635518D01*
G37*
G36*
X178531000Y-60271000D02*
G01*
X175429000Y-60271000D01*
X175429000Y-58569000D01*
X178531000Y-58569000D01*
X178531000Y-60271000D01*
X178531000Y-60271000D01*
G37*
G36*
X174131000Y-60271000D02*
G01*
X171029000Y-60271000D01*
X171029000Y-58569000D01*
X174131000Y-58569000D01*
X174131000Y-60271000D01*
X174131000Y-60271000D01*
G37*
G36*
X156971000Y-59851000D02*
G01*
X155169000Y-59851000D01*
X155169000Y-58049000D01*
X156971000Y-58049000D01*
X156971000Y-59851000D01*
X156971000Y-59851000D01*
G37*
G36*
X123946000Y-58281000D02*
G01*
X122594000Y-58281000D01*
X122594000Y-56679000D01*
X123946000Y-56679000D01*
X123946000Y-58281000D01*
X123946000Y-58281000D01*
G37*
G36*
X91980443Y-56095519D02*
G01*
X92046627Y-56102037D01*
X92216466Y-56153557D01*
X92372991Y-56237222D01*
X92408729Y-56266552D01*
X92510186Y-56349814D01*
X92593448Y-56451271D01*
X92622778Y-56487009D01*
X92706443Y-56643534D01*
X92757963Y-56813373D01*
X92775359Y-56990000D01*
X92757963Y-57166627D01*
X92706443Y-57336466D01*
X92622778Y-57492991D01*
X92593448Y-57528729D01*
X92510186Y-57630186D01*
X92408729Y-57713448D01*
X92372991Y-57742778D01*
X92216466Y-57826443D01*
X92046627Y-57877963D01*
X91980443Y-57884481D01*
X91914260Y-57891000D01*
X91825740Y-57891000D01*
X91759557Y-57884481D01*
X91693373Y-57877963D01*
X91523534Y-57826443D01*
X91367009Y-57742778D01*
X91331271Y-57713448D01*
X91229814Y-57630186D01*
X91146552Y-57528729D01*
X91117222Y-57492991D01*
X91033557Y-57336466D01*
X90982037Y-57166627D01*
X90964641Y-56990000D01*
X90982037Y-56813373D01*
X91033557Y-56643534D01*
X91117222Y-56487009D01*
X91146552Y-56451271D01*
X91229814Y-56349814D01*
X91331271Y-56266552D01*
X91367009Y-56237222D01*
X91523534Y-56153557D01*
X91693373Y-56102037D01*
X91759557Y-56095519D01*
X91825740Y-56089000D01*
X91914260Y-56089000D01*
X91980443Y-56095519D01*
X91980443Y-56095519D01*
G37*
G36*
X102995589Y-56134876D02*
G01*
X103094893Y-56154629D01*
X103235206Y-56212748D01*
X103361484Y-56297125D01*
X103468875Y-56404516D01*
X103553252Y-56530794D01*
X103611371Y-56671107D01*
X103641000Y-56820063D01*
X103641000Y-56971937D01*
X103611371Y-57120893D01*
X103553252Y-57261206D01*
X103468875Y-57387484D01*
X103361484Y-57494875D01*
X103235206Y-57579252D01*
X103094893Y-57637371D01*
X102995589Y-57657124D01*
X102945938Y-57667000D01*
X102794062Y-57667000D01*
X102744411Y-57657124D01*
X102645107Y-57637371D01*
X102504794Y-57579252D01*
X102378516Y-57494875D01*
X102271125Y-57387484D01*
X102186748Y-57261206D01*
X102128629Y-57120893D01*
X102099000Y-56971937D01*
X102099000Y-56820063D01*
X102128629Y-56671107D01*
X102186748Y-56530794D01*
X102271125Y-56404516D01*
X102378516Y-56297125D01*
X102504794Y-56212748D01*
X102645107Y-56154629D01*
X102744411Y-56134876D01*
X102794062Y-56125000D01*
X102945938Y-56125000D01*
X102995589Y-56134876D01*
X102995589Y-56134876D01*
G37*
G36*
X108075589Y-56134876D02*
G01*
X108174893Y-56154629D01*
X108315206Y-56212748D01*
X108441484Y-56297125D01*
X108548875Y-56404516D01*
X108633252Y-56530794D01*
X108691371Y-56671107D01*
X108721000Y-56820063D01*
X108721000Y-56971937D01*
X108691371Y-57120893D01*
X108633252Y-57261206D01*
X108548875Y-57387484D01*
X108441484Y-57494875D01*
X108315206Y-57579252D01*
X108174893Y-57637371D01*
X108075589Y-57657124D01*
X108025938Y-57667000D01*
X107874062Y-57667000D01*
X107824411Y-57657124D01*
X107725107Y-57637371D01*
X107584794Y-57579252D01*
X107458516Y-57494875D01*
X107351125Y-57387484D01*
X107266748Y-57261206D01*
X107208629Y-57120893D01*
X107179000Y-56971937D01*
X107179000Y-56820063D01*
X107208629Y-56671107D01*
X107266748Y-56530794D01*
X107351125Y-56404516D01*
X107458516Y-56297125D01*
X107584794Y-56212748D01*
X107725107Y-56154629D01*
X107824411Y-56134876D01*
X107874062Y-56125000D01*
X108025938Y-56125000D01*
X108075589Y-56134876D01*
X108075589Y-56134876D01*
G37*
G36*
X113409589Y-56134876D02*
G01*
X113508893Y-56154629D01*
X113649206Y-56212748D01*
X113775484Y-56297125D01*
X113882875Y-56404516D01*
X113967252Y-56530794D01*
X114025371Y-56671107D01*
X114055000Y-56820063D01*
X114055000Y-56971937D01*
X114025371Y-57120893D01*
X113967252Y-57261206D01*
X113882875Y-57387484D01*
X113775484Y-57494875D01*
X113649206Y-57579252D01*
X113508893Y-57637371D01*
X113409589Y-57657124D01*
X113359938Y-57667000D01*
X113208062Y-57667000D01*
X113158411Y-57657124D01*
X113059107Y-57637371D01*
X112918794Y-57579252D01*
X112792516Y-57494875D01*
X112685125Y-57387484D01*
X112600748Y-57261206D01*
X112542629Y-57120893D01*
X112513000Y-56971937D01*
X112513000Y-56820063D01*
X112542629Y-56671107D01*
X112600748Y-56530794D01*
X112685125Y-56404516D01*
X112792516Y-56297125D01*
X112918794Y-56212748D01*
X113059107Y-56154629D01*
X113158411Y-56134876D01*
X113208062Y-56125000D01*
X113359938Y-56125000D01*
X113409589Y-56134876D01*
X113409589Y-56134876D01*
G37*
G36*
X118489589Y-56134876D02*
G01*
X118588893Y-56154629D01*
X118729206Y-56212748D01*
X118855484Y-56297125D01*
X118962875Y-56404516D01*
X119047252Y-56530794D01*
X119105371Y-56671107D01*
X119135000Y-56820063D01*
X119135000Y-56971937D01*
X119105371Y-57120893D01*
X119047252Y-57261206D01*
X118962875Y-57387484D01*
X118855484Y-57494875D01*
X118729206Y-57579252D01*
X118588893Y-57637371D01*
X118489589Y-57657124D01*
X118439938Y-57667000D01*
X118288062Y-57667000D01*
X118238411Y-57657124D01*
X118139107Y-57637371D01*
X117998794Y-57579252D01*
X117872516Y-57494875D01*
X117765125Y-57387484D01*
X117680748Y-57261206D01*
X117622629Y-57120893D01*
X117593000Y-56971937D01*
X117593000Y-56820063D01*
X117622629Y-56671107D01*
X117680748Y-56530794D01*
X117765125Y-56404516D01*
X117872516Y-56297125D01*
X117998794Y-56212748D01*
X118139107Y-56154629D01*
X118238411Y-56134876D01*
X118288062Y-56125000D01*
X118439938Y-56125000D01*
X118489589Y-56134876D01*
X118489589Y-56134876D01*
G37*
G36*
X91980442Y-53555518D02*
G01*
X92046627Y-53562037D01*
X92216466Y-53613557D01*
X92372991Y-53697222D01*
X92391946Y-53712778D01*
X92510186Y-53809814D01*
X92593448Y-53911271D01*
X92622778Y-53947009D01*
X92706443Y-54103534D01*
X92757963Y-54273373D01*
X92775359Y-54450000D01*
X92757963Y-54626627D01*
X92706443Y-54796466D01*
X92622778Y-54952991D01*
X92593448Y-54988729D01*
X92510186Y-55090186D01*
X92408729Y-55173448D01*
X92372991Y-55202778D01*
X92216466Y-55286443D01*
X92046627Y-55337963D01*
X91980443Y-55344481D01*
X91914260Y-55351000D01*
X91825740Y-55351000D01*
X91759557Y-55344481D01*
X91693373Y-55337963D01*
X91523534Y-55286443D01*
X91367009Y-55202778D01*
X91331271Y-55173448D01*
X91229814Y-55090186D01*
X91146552Y-54988729D01*
X91117222Y-54952991D01*
X91033557Y-54796466D01*
X90982037Y-54626627D01*
X90964641Y-54450000D01*
X90982037Y-54273373D01*
X91033557Y-54103534D01*
X91117222Y-53947009D01*
X91146552Y-53911271D01*
X91229814Y-53809814D01*
X91348054Y-53712778D01*
X91367009Y-53697222D01*
X91523534Y-53613557D01*
X91693373Y-53562037D01*
X91759558Y-53555518D01*
X91825740Y-53549000D01*
X91914260Y-53549000D01*
X91980442Y-53555518D01*
X91980442Y-53555518D01*
G37*
G36*
X115949589Y-53594876D02*
G01*
X116048893Y-53614629D01*
X116189206Y-53672748D01*
X116315484Y-53757125D01*
X116422875Y-53864516D01*
X116507252Y-53990794D01*
X116565371Y-54131107D01*
X116595000Y-54280063D01*
X116595000Y-54431937D01*
X116565371Y-54580893D01*
X116507252Y-54721206D01*
X116422875Y-54847484D01*
X116315484Y-54954875D01*
X116189206Y-55039252D01*
X116048893Y-55097371D01*
X115949589Y-55117124D01*
X115899938Y-55127000D01*
X115748062Y-55127000D01*
X115698411Y-55117124D01*
X115599107Y-55097371D01*
X115458794Y-55039252D01*
X115332516Y-54954875D01*
X115225125Y-54847484D01*
X115140748Y-54721206D01*
X115082629Y-54580893D01*
X115053000Y-54431937D01*
X115053000Y-54280063D01*
X115082629Y-54131107D01*
X115140748Y-53990794D01*
X115225125Y-53864516D01*
X115332516Y-53757125D01*
X115458794Y-53672748D01*
X115599107Y-53614629D01*
X115698411Y-53594876D01*
X115748062Y-53585000D01*
X115899938Y-53585000D01*
X115949589Y-53594876D01*
X115949589Y-53594876D01*
G37*
G36*
X105535589Y-53594876D02*
G01*
X105634893Y-53614629D01*
X105775206Y-53672748D01*
X105901484Y-53757125D01*
X106008875Y-53864516D01*
X106093252Y-53990794D01*
X106151371Y-54131107D01*
X106181000Y-54280063D01*
X106181000Y-54431937D01*
X106151371Y-54580893D01*
X106093252Y-54721206D01*
X106008875Y-54847484D01*
X105901484Y-54954875D01*
X105775206Y-55039252D01*
X105634893Y-55097371D01*
X105535589Y-55117124D01*
X105485938Y-55127000D01*
X105334062Y-55127000D01*
X105284411Y-55117124D01*
X105185107Y-55097371D01*
X105044794Y-55039252D01*
X104918516Y-54954875D01*
X104811125Y-54847484D01*
X104726748Y-54721206D01*
X104668629Y-54580893D01*
X104639000Y-54431937D01*
X104639000Y-54280063D01*
X104668629Y-54131107D01*
X104726748Y-53990794D01*
X104811125Y-53864516D01*
X104918516Y-53757125D01*
X105044794Y-53672748D01*
X105185107Y-53614629D01*
X105284411Y-53594876D01*
X105334062Y-53585000D01*
X105485938Y-53585000D01*
X105535589Y-53594876D01*
X105535589Y-53594876D01*
G37*
G36*
X165281000Y-55041000D02*
G01*
X162679000Y-55041000D01*
X162679000Y-50939000D01*
X165281000Y-50939000D01*
X165281000Y-55041000D01*
X165281000Y-55041000D01*
G37*
G36*
X174131000Y-54221000D02*
G01*
X171029000Y-54221000D01*
X171029000Y-52519000D01*
X174131000Y-52519000D01*
X174131000Y-54221000D01*
X174131000Y-54221000D01*
G37*
G36*
X178531000Y-54221000D02*
G01*
X175429000Y-54221000D01*
X175429000Y-52519000D01*
X178531000Y-52519000D01*
X178531000Y-54221000D01*
X178531000Y-54221000D01*
G37*
G36*
X153581000Y-53861000D02*
G01*
X151779000Y-53861000D01*
X151779000Y-52059000D01*
X153581000Y-52059000D01*
X153581000Y-53861000D01*
X153581000Y-53861000D01*
G37*
G36*
X155330442Y-52065518D02*
G01*
X155396627Y-52072037D01*
X155566466Y-52123557D01*
X155722991Y-52207222D01*
X155747101Y-52227009D01*
X155860186Y-52319814D01*
X155943448Y-52421271D01*
X155972778Y-52457009D01*
X156056443Y-52613534D01*
X156107963Y-52783373D01*
X156125359Y-52960000D01*
X156107963Y-53136627D01*
X156056443Y-53306466D01*
X155972778Y-53462991D01*
X155956539Y-53482778D01*
X155860186Y-53600186D01*
X155758729Y-53683448D01*
X155722991Y-53712778D01*
X155566466Y-53796443D01*
X155396627Y-53847963D01*
X155330443Y-53854481D01*
X155264260Y-53861000D01*
X155175740Y-53861000D01*
X155109557Y-53854481D01*
X155043373Y-53847963D01*
X154873534Y-53796443D01*
X154717009Y-53712778D01*
X154681271Y-53683448D01*
X154579814Y-53600186D01*
X154483461Y-53482778D01*
X154467222Y-53462991D01*
X154383557Y-53306466D01*
X154332037Y-53136627D01*
X154314641Y-52960000D01*
X154332037Y-52783373D01*
X154383557Y-52613534D01*
X154467222Y-52457009D01*
X154496552Y-52421271D01*
X154579814Y-52319814D01*
X154692899Y-52227009D01*
X154717009Y-52207222D01*
X154873534Y-52123557D01*
X155043373Y-52072037D01*
X155109558Y-52065518D01*
X155175740Y-52059000D01*
X155264260Y-52059000D01*
X155330442Y-52065518D01*
X155330442Y-52065518D01*
G37*
G36*
X148951000Y-53716000D02*
G01*
X147349000Y-53716000D01*
X147349000Y-52364000D01*
X148951000Y-52364000D01*
X148951000Y-53716000D01*
X148951000Y-53716000D01*
G37*
G36*
X146451000Y-53716000D02*
G01*
X144849000Y-53716000D01*
X144849000Y-52364000D01*
X146451000Y-52364000D01*
X146451000Y-53716000D01*
X146451000Y-53716000D01*
G37*
G36*
X124550442Y-51835518D02*
G01*
X124616627Y-51842037D01*
X124786466Y-51893557D01*
X124942991Y-51977222D01*
X124978729Y-52006552D01*
X125080186Y-52089814D01*
X125163448Y-52191271D01*
X125192778Y-52227009D01*
X125276443Y-52383534D01*
X125327963Y-52553373D01*
X125345359Y-52730000D01*
X125327963Y-52906627D01*
X125276443Y-53076466D01*
X125192778Y-53232991D01*
X125163448Y-53268729D01*
X125080186Y-53370186D01*
X124978729Y-53453448D01*
X124942991Y-53482778D01*
X124786466Y-53566443D01*
X124616627Y-53617963D01*
X124550442Y-53624482D01*
X124484260Y-53631000D01*
X124395740Y-53631000D01*
X124329558Y-53624482D01*
X124263373Y-53617963D01*
X124093534Y-53566443D01*
X123937009Y-53482778D01*
X123901271Y-53453448D01*
X123799814Y-53370186D01*
X123716552Y-53268729D01*
X123687222Y-53232991D01*
X123603557Y-53076466D01*
X123552037Y-52906627D01*
X123534641Y-52730000D01*
X123552037Y-52553373D01*
X123603557Y-52383534D01*
X123687222Y-52227009D01*
X123716552Y-52191271D01*
X123799814Y-52089814D01*
X123901271Y-52006552D01*
X123937009Y-51977222D01*
X124093534Y-51893557D01*
X124263373Y-51842037D01*
X124329558Y-51835518D01*
X124395740Y-51829000D01*
X124484260Y-51829000D01*
X124550442Y-51835518D01*
X124550442Y-51835518D01*
G37*
G36*
X127090442Y-51835518D02*
G01*
X127156627Y-51842037D01*
X127326466Y-51893557D01*
X127482991Y-51977222D01*
X127518729Y-52006552D01*
X127620186Y-52089814D01*
X127703448Y-52191271D01*
X127732778Y-52227009D01*
X127816443Y-52383534D01*
X127867963Y-52553373D01*
X127885359Y-52730000D01*
X127867963Y-52906627D01*
X127816443Y-53076466D01*
X127732778Y-53232991D01*
X127703448Y-53268729D01*
X127620186Y-53370186D01*
X127518729Y-53453448D01*
X127482991Y-53482778D01*
X127326466Y-53566443D01*
X127156627Y-53617963D01*
X127090442Y-53624482D01*
X127024260Y-53631000D01*
X126935740Y-53631000D01*
X126869558Y-53624482D01*
X126803373Y-53617963D01*
X126633534Y-53566443D01*
X126477009Y-53482778D01*
X126441271Y-53453448D01*
X126339814Y-53370186D01*
X126256552Y-53268729D01*
X126227222Y-53232991D01*
X126143557Y-53076466D01*
X126092037Y-52906627D01*
X126074641Y-52730000D01*
X126092037Y-52553373D01*
X126143557Y-52383534D01*
X126227222Y-52227009D01*
X126256552Y-52191271D01*
X126339814Y-52089814D01*
X126441271Y-52006552D01*
X126477009Y-51977222D01*
X126633534Y-51893557D01*
X126803373Y-51842037D01*
X126869558Y-51835518D01*
X126935740Y-51829000D01*
X127024260Y-51829000D01*
X127090442Y-51835518D01*
X127090442Y-51835518D01*
G37*
G36*
X129630442Y-51835518D02*
G01*
X129696627Y-51842037D01*
X129866466Y-51893557D01*
X130022991Y-51977222D01*
X130058729Y-52006552D01*
X130160186Y-52089814D01*
X130243448Y-52191271D01*
X130272778Y-52227009D01*
X130356443Y-52383534D01*
X130407963Y-52553373D01*
X130425359Y-52730000D01*
X130407963Y-52906627D01*
X130356443Y-53076466D01*
X130272778Y-53232991D01*
X130243448Y-53268729D01*
X130160186Y-53370186D01*
X130058729Y-53453448D01*
X130022991Y-53482778D01*
X129866466Y-53566443D01*
X129696627Y-53617963D01*
X129630442Y-53624482D01*
X129564260Y-53631000D01*
X129475740Y-53631000D01*
X129409558Y-53624482D01*
X129343373Y-53617963D01*
X129173534Y-53566443D01*
X129017009Y-53482778D01*
X128981271Y-53453448D01*
X128879814Y-53370186D01*
X128796552Y-53268729D01*
X128767222Y-53232991D01*
X128683557Y-53076466D01*
X128632037Y-52906627D01*
X128614641Y-52730000D01*
X128632037Y-52553373D01*
X128683557Y-52383534D01*
X128767222Y-52227009D01*
X128796552Y-52191271D01*
X128879814Y-52089814D01*
X128981271Y-52006552D01*
X129017009Y-51977222D01*
X129173534Y-51893557D01*
X129343373Y-51842037D01*
X129409558Y-51835518D01*
X129475740Y-51829000D01*
X129564260Y-51829000D01*
X129630442Y-51835518D01*
X129630442Y-51835518D01*
G37*
G36*
X132170442Y-51835518D02*
G01*
X132236627Y-51842037D01*
X132406466Y-51893557D01*
X132562991Y-51977222D01*
X132598729Y-52006552D01*
X132700186Y-52089814D01*
X132783448Y-52191271D01*
X132812778Y-52227009D01*
X132896443Y-52383534D01*
X132947963Y-52553373D01*
X132965359Y-52730000D01*
X132947963Y-52906627D01*
X132896443Y-53076466D01*
X132812778Y-53232991D01*
X132783448Y-53268729D01*
X132700186Y-53370186D01*
X132598729Y-53453448D01*
X132562991Y-53482778D01*
X132406466Y-53566443D01*
X132236627Y-53617963D01*
X132170442Y-53624482D01*
X132104260Y-53631000D01*
X132015740Y-53631000D01*
X131949558Y-53624482D01*
X131883373Y-53617963D01*
X131713534Y-53566443D01*
X131557009Y-53482778D01*
X131521271Y-53453448D01*
X131419814Y-53370186D01*
X131336552Y-53268729D01*
X131307222Y-53232991D01*
X131223557Y-53076466D01*
X131172037Y-52906627D01*
X131154641Y-52730000D01*
X131172037Y-52553373D01*
X131223557Y-52383534D01*
X131307222Y-52227009D01*
X131336552Y-52191271D01*
X131419814Y-52089814D01*
X131521271Y-52006552D01*
X131557009Y-51977222D01*
X131713534Y-51893557D01*
X131883373Y-51842037D01*
X131949558Y-51835518D01*
X132015740Y-51829000D01*
X132104260Y-51829000D01*
X132170442Y-51835518D01*
X132170442Y-51835518D01*
G37*
G36*
X135501000Y-53631000D02*
G01*
X133699000Y-53631000D01*
X133699000Y-51829000D01*
X135501000Y-51829000D01*
X135501000Y-53631000D01*
X135501000Y-53631000D01*
G37*
G36*
X142211000Y-53606000D02*
G01*
X140609000Y-53606000D01*
X140609000Y-52254000D01*
X142211000Y-52254000D01*
X142211000Y-53606000D01*
X142211000Y-53606000D01*
G37*
G36*
X139711000Y-53606000D02*
G01*
X138109000Y-53606000D01*
X138109000Y-52254000D01*
X139711000Y-52254000D01*
X139711000Y-53606000D01*
X139711000Y-53606000D01*
G37*
G36*
X92771000Y-52811000D02*
G01*
X90969000Y-52811000D01*
X90969000Y-51009000D01*
X92771000Y-51009000D01*
X92771000Y-52811000D01*
X92771000Y-52811000D01*
G37*
M02*
