G04 #@! TF.GenerationSoftware,KiCad,Pcbnew,(5.1.4)-1*
G04 #@! TF.CreationDate,2019-11-08T19:54:45+05:00*
G04 #@! TF.ProjectId,powerSupplyArduino,706f7765-7253-4757-9070-6c7941726475,rev?*
G04 #@! TF.SameCoordinates,Original*
G04 #@! TF.FileFunction,Legend,Bot*
G04 #@! TF.FilePolarity,Positive*
%FSLAX46Y46*%
G04 Gerber Fmt 4.6, Leading zero omitted, Abs format (unit mm)*
G04 Created by KiCad (PCBNEW (5.1.4)-1) date 2019-11-08 19:54:45*
%MOMM*%
%LPD*%
G04 APERTURE LIST*
%ADD10C,0.120000*%
%ADD11C,0.150000*%
G04 APERTURE END LIST*
D10*
X136190000Y-71664000D02*
X135190000Y-71664000D01*
X135190000Y-69964000D02*
X136190000Y-69964000D01*
X97830000Y-87220000D02*
X96630000Y-87220000D01*
X96630000Y-88980000D02*
X97830000Y-88980000D01*
X122540000Y-63084000D02*
X121340000Y-63084000D01*
X121340000Y-64844000D02*
X122540000Y-64844000D01*
X124150000Y-59460000D02*
X124150000Y-58260000D01*
X122390000Y-58260000D02*
X122390000Y-59460000D01*
X109186000Y-64844000D02*
X110386000Y-64844000D01*
X110386000Y-63084000D02*
X109186000Y-63084000D01*
X159870000Y-69964000D02*
X158670000Y-69964000D01*
X158670000Y-71724000D02*
X159870000Y-71724000D01*
X152420000Y-71724000D02*
X153620000Y-71724000D01*
X153620000Y-69964000D02*
X152420000Y-69964000D01*
X140830000Y-71724000D02*
X142030000Y-71724000D01*
X142030000Y-69964000D02*
X140830000Y-69964000D01*
X140840000Y-51970000D02*
X139640000Y-51970000D01*
X139640000Y-53730000D02*
X140840000Y-53730000D01*
X115340000Y-63084000D02*
X116340000Y-63084000D01*
X116340000Y-64784000D02*
X115340000Y-64784000D01*
X96600000Y-83560000D02*
X97600000Y-83560000D01*
X97600000Y-85260000D02*
X96600000Y-85260000D01*
X96230000Y-52210000D02*
X97230000Y-52210000D01*
X97230000Y-53910000D02*
X96230000Y-53910000D01*
X147840000Y-71664000D02*
X146840000Y-71664000D01*
X146840000Y-69964000D02*
X147840000Y-69964000D01*
D11*
X135856666Y-72921142D02*
X135904285Y-72968761D01*
X136047142Y-73016380D01*
X136142380Y-73016380D01*
X136285238Y-72968761D01*
X136380476Y-72873523D01*
X136428095Y-72778285D01*
X136475714Y-72587809D01*
X136475714Y-72444952D01*
X136428095Y-72254476D01*
X136380476Y-72159238D01*
X136285238Y-72064000D01*
X136142380Y-72016380D01*
X136047142Y-72016380D01*
X135904285Y-72064000D01*
X135856666Y-72111619D01*
X134999523Y-72349714D02*
X134999523Y-73016380D01*
X135237619Y-71968761D02*
X135475714Y-72683047D01*
X134856666Y-72683047D01*
X97872857Y-90252380D02*
X98206190Y-89776190D01*
X98444285Y-90252380D02*
X98444285Y-89252380D01*
X98063333Y-89252380D01*
X97968095Y-89300000D01*
X97920476Y-89347619D01*
X97872857Y-89442857D01*
X97872857Y-89585714D01*
X97920476Y-89680952D01*
X97968095Y-89728571D01*
X98063333Y-89776190D01*
X98444285Y-89776190D01*
X97491904Y-89347619D02*
X97444285Y-89300000D01*
X97349047Y-89252380D01*
X97110952Y-89252380D01*
X97015714Y-89300000D01*
X96968095Y-89347619D01*
X96920476Y-89442857D01*
X96920476Y-89538095D01*
X96968095Y-89680952D01*
X97539523Y-90252380D01*
X96920476Y-90252380D01*
X96301428Y-89252380D02*
X96206190Y-89252380D01*
X96110952Y-89300000D01*
X96063333Y-89347619D01*
X96015714Y-89442857D01*
X95968095Y-89633333D01*
X95968095Y-89871428D01*
X96015714Y-90061904D01*
X96063333Y-90157142D01*
X96110952Y-90204761D01*
X96206190Y-90252380D01*
X96301428Y-90252380D01*
X96396666Y-90204761D01*
X96444285Y-90157142D01*
X96491904Y-90061904D01*
X96539523Y-89871428D01*
X96539523Y-89633333D01*
X96491904Y-89442857D01*
X96444285Y-89347619D01*
X96396666Y-89300000D01*
X96301428Y-89252380D01*
X122582857Y-66116380D02*
X122916190Y-65640190D01*
X123154285Y-66116380D02*
X123154285Y-65116380D01*
X122773333Y-65116380D01*
X122678095Y-65164000D01*
X122630476Y-65211619D01*
X122582857Y-65306857D01*
X122582857Y-65449714D01*
X122630476Y-65544952D01*
X122678095Y-65592571D01*
X122773333Y-65640190D01*
X123154285Y-65640190D01*
X121630476Y-66116380D02*
X122201904Y-66116380D01*
X121916190Y-66116380D02*
X121916190Y-65116380D01*
X122011428Y-65259238D01*
X122106666Y-65354476D01*
X122201904Y-65402095D01*
X121059047Y-65544952D02*
X121154285Y-65497333D01*
X121201904Y-65449714D01*
X121249523Y-65354476D01*
X121249523Y-65306857D01*
X121201904Y-65211619D01*
X121154285Y-65164000D01*
X121059047Y-65116380D01*
X120868571Y-65116380D01*
X120773333Y-65164000D01*
X120725714Y-65211619D01*
X120678095Y-65306857D01*
X120678095Y-65354476D01*
X120725714Y-65449714D01*
X120773333Y-65497333D01*
X120868571Y-65544952D01*
X121059047Y-65544952D01*
X121154285Y-65592571D01*
X121201904Y-65640190D01*
X121249523Y-65735428D01*
X121249523Y-65925904D01*
X121201904Y-66021142D01*
X121154285Y-66068761D01*
X121059047Y-66116380D01*
X120868571Y-66116380D01*
X120773333Y-66068761D01*
X120725714Y-66021142D01*
X120678095Y-65925904D01*
X120678095Y-65735428D01*
X120725714Y-65640190D01*
X120773333Y-65592571D01*
X120868571Y-65544952D01*
X122022380Y-58217142D02*
X121546190Y-57883809D01*
X122022380Y-57645714D02*
X121022380Y-57645714D01*
X121022380Y-58026666D01*
X121070000Y-58121904D01*
X121117619Y-58169523D01*
X121212857Y-58217142D01*
X121355714Y-58217142D01*
X121450952Y-58169523D01*
X121498571Y-58121904D01*
X121546190Y-58026666D01*
X121546190Y-57645714D01*
X122022380Y-59169523D02*
X122022380Y-58598095D01*
X122022380Y-58883809D02*
X121022380Y-58883809D01*
X121165238Y-58788571D01*
X121260476Y-58693333D01*
X121308095Y-58598095D01*
X121022380Y-59502857D02*
X121022380Y-60169523D01*
X122022380Y-59740952D01*
X110428857Y-62716380D02*
X110762190Y-62240190D01*
X111000285Y-62716380D02*
X111000285Y-61716380D01*
X110619333Y-61716380D01*
X110524095Y-61764000D01*
X110476476Y-61811619D01*
X110428857Y-61906857D01*
X110428857Y-62049714D01*
X110476476Y-62144952D01*
X110524095Y-62192571D01*
X110619333Y-62240190D01*
X111000285Y-62240190D01*
X109476476Y-62716380D02*
X110047904Y-62716380D01*
X109762190Y-62716380D02*
X109762190Y-61716380D01*
X109857428Y-61859238D01*
X109952666Y-61954476D01*
X110047904Y-62002095D01*
X108619333Y-61716380D02*
X108809809Y-61716380D01*
X108905047Y-61764000D01*
X108952666Y-61811619D01*
X109047904Y-61954476D01*
X109095523Y-62144952D01*
X109095523Y-62525904D01*
X109047904Y-62621142D01*
X109000285Y-62668761D01*
X108905047Y-62716380D01*
X108714571Y-62716380D01*
X108619333Y-62668761D01*
X108571714Y-62621142D01*
X108524095Y-62525904D01*
X108524095Y-62287809D01*
X108571714Y-62192571D01*
X108619333Y-62144952D01*
X108714571Y-62097333D01*
X108905047Y-62097333D01*
X109000285Y-62144952D01*
X109047904Y-62192571D01*
X109095523Y-62287809D01*
X159436666Y-69596380D02*
X159770000Y-69120190D01*
X160008095Y-69596380D02*
X160008095Y-68596380D01*
X159627142Y-68596380D01*
X159531904Y-68644000D01*
X159484285Y-68691619D01*
X159436666Y-68786857D01*
X159436666Y-68929714D01*
X159484285Y-69024952D01*
X159531904Y-69072571D01*
X159627142Y-69120190D01*
X160008095Y-69120190D01*
X158960476Y-69596380D02*
X158770000Y-69596380D01*
X158674761Y-69548761D01*
X158627142Y-69501142D01*
X158531904Y-69358285D01*
X158484285Y-69167809D01*
X158484285Y-68786857D01*
X158531904Y-68691619D01*
X158579523Y-68644000D01*
X158674761Y-68596380D01*
X158865238Y-68596380D01*
X158960476Y-68644000D01*
X159008095Y-68691619D01*
X159055714Y-68786857D01*
X159055714Y-69024952D01*
X159008095Y-69120190D01*
X158960476Y-69167809D01*
X158865238Y-69215428D01*
X158674761Y-69215428D01*
X158579523Y-69167809D01*
X158531904Y-69120190D01*
X158484285Y-69024952D01*
X153186666Y-69596380D02*
X153520000Y-69120190D01*
X153758095Y-69596380D02*
X153758095Y-68596380D01*
X153377142Y-68596380D01*
X153281904Y-68644000D01*
X153234285Y-68691619D01*
X153186666Y-68786857D01*
X153186666Y-68929714D01*
X153234285Y-69024952D01*
X153281904Y-69072571D01*
X153377142Y-69120190D01*
X153758095Y-69120190D01*
X152281904Y-68596380D02*
X152758095Y-68596380D01*
X152805714Y-69072571D01*
X152758095Y-69024952D01*
X152662857Y-68977333D01*
X152424761Y-68977333D01*
X152329523Y-69024952D01*
X152281904Y-69072571D01*
X152234285Y-69167809D01*
X152234285Y-69405904D01*
X152281904Y-69501142D01*
X152329523Y-69548761D01*
X152424761Y-69596380D01*
X152662857Y-69596380D01*
X152758095Y-69548761D01*
X152805714Y-69501142D01*
X141596666Y-72996380D02*
X141930000Y-72520190D01*
X142168095Y-72996380D02*
X142168095Y-71996380D01*
X141787142Y-71996380D01*
X141691904Y-72044000D01*
X141644285Y-72091619D01*
X141596666Y-72186857D01*
X141596666Y-72329714D01*
X141644285Y-72424952D01*
X141691904Y-72472571D01*
X141787142Y-72520190D01*
X142168095Y-72520190D01*
X140739523Y-72329714D02*
X140739523Y-72996380D01*
X140977619Y-71948761D02*
X141215714Y-72663047D01*
X140596666Y-72663047D01*
X140406666Y-55002380D02*
X140740000Y-54526190D01*
X140978095Y-55002380D02*
X140978095Y-54002380D01*
X140597142Y-54002380D01*
X140501904Y-54050000D01*
X140454285Y-54097619D01*
X140406666Y-54192857D01*
X140406666Y-54335714D01*
X140454285Y-54430952D01*
X140501904Y-54478571D01*
X140597142Y-54526190D01*
X140978095Y-54526190D01*
X140073333Y-54002380D02*
X139454285Y-54002380D01*
X139787619Y-54383333D01*
X139644761Y-54383333D01*
X139549523Y-54430952D01*
X139501904Y-54478571D01*
X139454285Y-54573809D01*
X139454285Y-54811904D01*
X139501904Y-54907142D01*
X139549523Y-54954761D01*
X139644761Y-55002380D01*
X139930476Y-55002380D01*
X140025714Y-54954761D01*
X140073333Y-54907142D01*
X116482857Y-62541142D02*
X116530476Y-62588761D01*
X116673333Y-62636380D01*
X116768571Y-62636380D01*
X116911428Y-62588761D01*
X117006666Y-62493523D01*
X117054285Y-62398285D01*
X117101904Y-62207809D01*
X117101904Y-62064952D01*
X117054285Y-61874476D01*
X117006666Y-61779238D01*
X116911428Y-61684000D01*
X116768571Y-61636380D01*
X116673333Y-61636380D01*
X116530476Y-61684000D01*
X116482857Y-61731619D01*
X116101904Y-61731619D02*
X116054285Y-61684000D01*
X115959047Y-61636380D01*
X115720952Y-61636380D01*
X115625714Y-61684000D01*
X115578095Y-61731619D01*
X115530476Y-61826857D01*
X115530476Y-61922095D01*
X115578095Y-62064952D01*
X116149523Y-62636380D01*
X115530476Y-62636380D01*
X114911428Y-61636380D02*
X114816190Y-61636380D01*
X114720952Y-61684000D01*
X114673333Y-61731619D01*
X114625714Y-61826857D01*
X114578095Y-62017333D01*
X114578095Y-62255428D01*
X114625714Y-62445904D01*
X114673333Y-62541142D01*
X114720952Y-62588761D01*
X114816190Y-62636380D01*
X114911428Y-62636380D01*
X115006666Y-62588761D01*
X115054285Y-62541142D01*
X115101904Y-62445904D01*
X115149523Y-62255428D01*
X115149523Y-62017333D01*
X115101904Y-61826857D01*
X115054285Y-61731619D01*
X115006666Y-61684000D01*
X114911428Y-61636380D01*
X97742857Y-83017142D02*
X97790476Y-83064761D01*
X97933333Y-83112380D01*
X98028571Y-83112380D01*
X98171428Y-83064761D01*
X98266666Y-82969523D01*
X98314285Y-82874285D01*
X98361904Y-82683809D01*
X98361904Y-82540952D01*
X98314285Y-82350476D01*
X98266666Y-82255238D01*
X98171428Y-82160000D01*
X98028571Y-82112380D01*
X97933333Y-82112380D01*
X97790476Y-82160000D01*
X97742857Y-82207619D01*
X96790476Y-83112380D02*
X97361904Y-83112380D01*
X97076190Y-83112380D02*
X97076190Y-82112380D01*
X97171428Y-82255238D01*
X97266666Y-82350476D01*
X97361904Y-82398095D01*
X96219047Y-82540952D02*
X96314285Y-82493333D01*
X96361904Y-82445714D01*
X96409523Y-82350476D01*
X96409523Y-82302857D01*
X96361904Y-82207619D01*
X96314285Y-82160000D01*
X96219047Y-82112380D01*
X96028571Y-82112380D01*
X95933333Y-82160000D01*
X95885714Y-82207619D01*
X95838095Y-82302857D01*
X95838095Y-82350476D01*
X95885714Y-82445714D01*
X95933333Y-82493333D01*
X96028571Y-82540952D01*
X96219047Y-82540952D01*
X96314285Y-82588571D01*
X96361904Y-82636190D01*
X96409523Y-82731428D01*
X96409523Y-82921904D01*
X96361904Y-83017142D01*
X96314285Y-83064761D01*
X96219047Y-83112380D01*
X96028571Y-83112380D01*
X95933333Y-83064761D01*
X95885714Y-83017142D01*
X95838095Y-82921904D01*
X95838095Y-82731428D01*
X95885714Y-82636190D01*
X95933333Y-82588571D01*
X96028571Y-82540952D01*
X97372857Y-51667142D02*
X97420476Y-51714761D01*
X97563333Y-51762380D01*
X97658571Y-51762380D01*
X97801428Y-51714761D01*
X97896666Y-51619523D01*
X97944285Y-51524285D01*
X97991904Y-51333809D01*
X97991904Y-51190952D01*
X97944285Y-51000476D01*
X97896666Y-50905238D01*
X97801428Y-50810000D01*
X97658571Y-50762380D01*
X97563333Y-50762380D01*
X97420476Y-50810000D01*
X97372857Y-50857619D01*
X96420476Y-51762380D02*
X96991904Y-51762380D01*
X96706190Y-51762380D02*
X96706190Y-50762380D01*
X96801428Y-50905238D01*
X96896666Y-51000476D01*
X96991904Y-51048095D01*
X95801428Y-50762380D02*
X95706190Y-50762380D01*
X95610952Y-50810000D01*
X95563333Y-50857619D01*
X95515714Y-50952857D01*
X95468095Y-51143333D01*
X95468095Y-51381428D01*
X95515714Y-51571904D01*
X95563333Y-51667142D01*
X95610952Y-51714761D01*
X95706190Y-51762380D01*
X95801428Y-51762380D01*
X95896666Y-51714761D01*
X95944285Y-51667142D01*
X95991904Y-51571904D01*
X96039523Y-51381428D01*
X96039523Y-51143333D01*
X95991904Y-50952857D01*
X95944285Y-50857619D01*
X95896666Y-50810000D01*
X95801428Y-50762380D01*
X147506666Y-72921142D02*
X147554285Y-72968761D01*
X147697142Y-73016380D01*
X147792380Y-73016380D01*
X147935238Y-72968761D01*
X148030476Y-72873523D01*
X148078095Y-72778285D01*
X148125714Y-72587809D01*
X148125714Y-72444952D01*
X148078095Y-72254476D01*
X148030476Y-72159238D01*
X147935238Y-72064000D01*
X147792380Y-72016380D01*
X147697142Y-72016380D01*
X147554285Y-72064000D01*
X147506666Y-72111619D01*
X146601904Y-72016380D02*
X147078095Y-72016380D01*
X147125714Y-72492571D01*
X147078095Y-72444952D01*
X146982857Y-72397333D01*
X146744761Y-72397333D01*
X146649523Y-72444952D01*
X146601904Y-72492571D01*
X146554285Y-72587809D01*
X146554285Y-72825904D01*
X146601904Y-72921142D01*
X146649523Y-72968761D01*
X146744761Y-73016380D01*
X146982857Y-73016380D01*
X147078095Y-72968761D01*
X147125714Y-72921142D01*
M02*
