G04 #@! TF.GenerationSoftware,KiCad,Pcbnew,(5.1.4)-1*
G04 #@! TF.CreationDate,2019-11-08T19:54:44+05:00*
G04 #@! TF.ProjectId,powerSupplyArduino,706f7765-7253-4757-9070-6c7941726475,rev?*
G04 #@! TF.SameCoordinates,Original*
G04 #@! TF.FileFunction,Copper,L1,Top*
G04 #@! TF.FilePolarity,Positive*
%FSLAX46Y46*%
G04 Gerber Fmt 4.6, Leading zero omitted, Abs format (unit mm)*
G04 Created by KiCad (PCBNEW (5.1.4)-1) date 2019-11-08 19:54:44*
%MOMM*%
%LPD*%
G04 APERTURE LIST*
%ADD10C,6.400000*%
%ADD11C,0.800000*%
%ADD12R,1.700000X1.700000*%
%ADD13O,1.700000X1.700000*%
%ADD14C,1.440000*%
%ADD15R,3.500000X1.600000*%
%ADD16R,0.550000X1.600000*%
%ADD17R,1.600000X0.550000*%
%ADD18C,0.100000*%
%ADD19C,0.600000*%
%ADD20R,1.500000X1.300000*%
%ADD21R,1.300000X1.500000*%
%ADD22C,1.425000*%
%ADD23R,1.250000X1.500000*%
%ADD24R,1.500000X1.250000*%
%ADD25R,3.000000X1.600000*%
%ADD26R,2.500000X4.000000*%
%ADD27C,1.000000*%
%ADD28C,0.800000*%
%ADD29C,0.600000*%
%ADD30C,1.000000*%
%ADD31C,0.900000*%
G04 APERTURE END LIST*
D10*
X94700000Y-95370000D03*
D11*
X97100000Y-95370000D03*
X96397056Y-97067056D03*
X94700000Y-97770000D03*
X93002944Y-97067056D03*
X92300000Y-95370000D03*
X93002944Y-93672944D03*
X94700000Y-92970000D03*
X96397056Y-93672944D03*
D10*
X166830000Y-95370000D03*
D11*
X169230000Y-95370000D03*
X168527056Y-97067056D03*
X166830000Y-97770000D03*
X165132944Y-97067056D03*
X164430000Y-95370000D03*
X165132944Y-93672944D03*
X166830000Y-92970000D03*
X168527056Y-93672944D03*
D12*
X152680000Y-52960000D03*
D13*
X155220000Y-52960000D03*
D12*
X120440000Y-96520000D03*
X132910000Y-96650000D03*
X156070000Y-58950000D03*
X151510000Y-85540000D03*
X151400000Y-75780000D03*
X151490000Y-80660000D03*
D14*
X106050000Y-92300000D03*
X103510000Y-94840000D03*
X106050000Y-97380000D03*
X107950000Y-56896000D03*
X105410000Y-54356000D03*
X102870000Y-56896000D03*
X172960000Y-72190000D03*
X175500000Y-69650000D03*
X172960000Y-67110000D03*
X118364000Y-56896000D03*
X115824000Y-54356000D03*
X113284000Y-56896000D03*
D15*
X153230000Y-95510000D03*
X158630000Y-95510000D03*
D16*
X114720000Y-73540000D03*
X115520000Y-73540000D03*
X116320000Y-73540000D03*
X117120000Y-73540000D03*
X117920000Y-73540000D03*
X118720000Y-73540000D03*
X119520000Y-73540000D03*
X120320000Y-73540000D03*
D17*
X121770000Y-74990000D03*
X121770000Y-75790000D03*
X121770000Y-76590000D03*
X121770000Y-77390000D03*
X121770000Y-78190000D03*
X121770000Y-78990000D03*
X121770000Y-79790000D03*
X121770000Y-80590000D03*
D16*
X120320000Y-82040000D03*
X119520000Y-82040000D03*
X118720000Y-82040000D03*
X117920000Y-82040000D03*
X117120000Y-82040000D03*
X116320000Y-82040000D03*
X115520000Y-82040000D03*
X114720000Y-82040000D03*
D17*
X113270000Y-80590000D03*
X113270000Y-79790000D03*
X113270000Y-78990000D03*
X113270000Y-78190000D03*
X113270000Y-77390000D03*
X113270000Y-76590000D03*
X113270000Y-75790000D03*
X113270000Y-74990000D03*
D18*
G36*
X136619703Y-75900722D02*
G01*
X136634264Y-75902882D01*
X136648543Y-75906459D01*
X136662403Y-75911418D01*
X136675710Y-75917712D01*
X136688336Y-75925280D01*
X136700159Y-75934048D01*
X136711066Y-75943934D01*
X136720952Y-75954841D01*
X136729720Y-75966664D01*
X136737288Y-75979290D01*
X136743582Y-75992597D01*
X136748541Y-76006457D01*
X136752118Y-76020736D01*
X136754278Y-76035297D01*
X136755000Y-76050000D01*
X136755000Y-77700000D01*
X136754278Y-77714703D01*
X136752118Y-77729264D01*
X136748541Y-77743543D01*
X136743582Y-77757403D01*
X136737288Y-77770710D01*
X136729720Y-77783336D01*
X136720952Y-77795159D01*
X136711066Y-77806066D01*
X136700159Y-77815952D01*
X136688336Y-77824720D01*
X136675710Y-77832288D01*
X136662403Y-77838582D01*
X136648543Y-77843541D01*
X136634264Y-77847118D01*
X136619703Y-77849278D01*
X136605000Y-77850000D01*
X136305000Y-77850000D01*
X136290297Y-77849278D01*
X136275736Y-77847118D01*
X136261457Y-77843541D01*
X136247597Y-77838582D01*
X136234290Y-77832288D01*
X136221664Y-77824720D01*
X136209841Y-77815952D01*
X136198934Y-77806066D01*
X136189048Y-77795159D01*
X136180280Y-77783336D01*
X136172712Y-77770710D01*
X136166418Y-77757403D01*
X136161459Y-77743543D01*
X136157882Y-77729264D01*
X136155722Y-77714703D01*
X136155000Y-77700000D01*
X136155000Y-76050000D01*
X136155722Y-76035297D01*
X136157882Y-76020736D01*
X136161459Y-76006457D01*
X136166418Y-75992597D01*
X136172712Y-75979290D01*
X136180280Y-75966664D01*
X136189048Y-75954841D01*
X136198934Y-75943934D01*
X136209841Y-75934048D01*
X136221664Y-75925280D01*
X136234290Y-75917712D01*
X136247597Y-75911418D01*
X136261457Y-75906459D01*
X136275736Y-75902882D01*
X136290297Y-75900722D01*
X136305000Y-75900000D01*
X136605000Y-75900000D01*
X136619703Y-75900722D01*
X136619703Y-75900722D01*
G37*
D19*
X136455000Y-76875000D03*
D18*
G36*
X137889703Y-75900722D02*
G01*
X137904264Y-75902882D01*
X137918543Y-75906459D01*
X137932403Y-75911418D01*
X137945710Y-75917712D01*
X137958336Y-75925280D01*
X137970159Y-75934048D01*
X137981066Y-75943934D01*
X137990952Y-75954841D01*
X137999720Y-75966664D01*
X138007288Y-75979290D01*
X138013582Y-75992597D01*
X138018541Y-76006457D01*
X138022118Y-76020736D01*
X138024278Y-76035297D01*
X138025000Y-76050000D01*
X138025000Y-77700000D01*
X138024278Y-77714703D01*
X138022118Y-77729264D01*
X138018541Y-77743543D01*
X138013582Y-77757403D01*
X138007288Y-77770710D01*
X137999720Y-77783336D01*
X137990952Y-77795159D01*
X137981066Y-77806066D01*
X137970159Y-77815952D01*
X137958336Y-77824720D01*
X137945710Y-77832288D01*
X137932403Y-77838582D01*
X137918543Y-77843541D01*
X137904264Y-77847118D01*
X137889703Y-77849278D01*
X137875000Y-77850000D01*
X137575000Y-77850000D01*
X137560297Y-77849278D01*
X137545736Y-77847118D01*
X137531457Y-77843541D01*
X137517597Y-77838582D01*
X137504290Y-77832288D01*
X137491664Y-77824720D01*
X137479841Y-77815952D01*
X137468934Y-77806066D01*
X137459048Y-77795159D01*
X137450280Y-77783336D01*
X137442712Y-77770710D01*
X137436418Y-77757403D01*
X137431459Y-77743543D01*
X137427882Y-77729264D01*
X137425722Y-77714703D01*
X137425000Y-77700000D01*
X137425000Y-76050000D01*
X137425722Y-76035297D01*
X137427882Y-76020736D01*
X137431459Y-76006457D01*
X137436418Y-75992597D01*
X137442712Y-75979290D01*
X137450280Y-75966664D01*
X137459048Y-75954841D01*
X137468934Y-75943934D01*
X137479841Y-75934048D01*
X137491664Y-75925280D01*
X137504290Y-75917712D01*
X137517597Y-75911418D01*
X137531457Y-75906459D01*
X137545736Y-75902882D01*
X137560297Y-75900722D01*
X137575000Y-75900000D01*
X137875000Y-75900000D01*
X137889703Y-75900722D01*
X137889703Y-75900722D01*
G37*
D19*
X137725000Y-76875000D03*
D18*
G36*
X139159703Y-75900722D02*
G01*
X139174264Y-75902882D01*
X139188543Y-75906459D01*
X139202403Y-75911418D01*
X139215710Y-75917712D01*
X139228336Y-75925280D01*
X139240159Y-75934048D01*
X139251066Y-75943934D01*
X139260952Y-75954841D01*
X139269720Y-75966664D01*
X139277288Y-75979290D01*
X139283582Y-75992597D01*
X139288541Y-76006457D01*
X139292118Y-76020736D01*
X139294278Y-76035297D01*
X139295000Y-76050000D01*
X139295000Y-77700000D01*
X139294278Y-77714703D01*
X139292118Y-77729264D01*
X139288541Y-77743543D01*
X139283582Y-77757403D01*
X139277288Y-77770710D01*
X139269720Y-77783336D01*
X139260952Y-77795159D01*
X139251066Y-77806066D01*
X139240159Y-77815952D01*
X139228336Y-77824720D01*
X139215710Y-77832288D01*
X139202403Y-77838582D01*
X139188543Y-77843541D01*
X139174264Y-77847118D01*
X139159703Y-77849278D01*
X139145000Y-77850000D01*
X138845000Y-77850000D01*
X138830297Y-77849278D01*
X138815736Y-77847118D01*
X138801457Y-77843541D01*
X138787597Y-77838582D01*
X138774290Y-77832288D01*
X138761664Y-77824720D01*
X138749841Y-77815952D01*
X138738934Y-77806066D01*
X138729048Y-77795159D01*
X138720280Y-77783336D01*
X138712712Y-77770710D01*
X138706418Y-77757403D01*
X138701459Y-77743543D01*
X138697882Y-77729264D01*
X138695722Y-77714703D01*
X138695000Y-77700000D01*
X138695000Y-76050000D01*
X138695722Y-76035297D01*
X138697882Y-76020736D01*
X138701459Y-76006457D01*
X138706418Y-75992597D01*
X138712712Y-75979290D01*
X138720280Y-75966664D01*
X138729048Y-75954841D01*
X138738934Y-75943934D01*
X138749841Y-75934048D01*
X138761664Y-75925280D01*
X138774290Y-75917712D01*
X138787597Y-75911418D01*
X138801457Y-75906459D01*
X138815736Y-75902882D01*
X138830297Y-75900722D01*
X138845000Y-75900000D01*
X139145000Y-75900000D01*
X139159703Y-75900722D01*
X139159703Y-75900722D01*
G37*
D19*
X138995000Y-76875000D03*
D18*
G36*
X140429703Y-75900722D02*
G01*
X140444264Y-75902882D01*
X140458543Y-75906459D01*
X140472403Y-75911418D01*
X140485710Y-75917712D01*
X140498336Y-75925280D01*
X140510159Y-75934048D01*
X140521066Y-75943934D01*
X140530952Y-75954841D01*
X140539720Y-75966664D01*
X140547288Y-75979290D01*
X140553582Y-75992597D01*
X140558541Y-76006457D01*
X140562118Y-76020736D01*
X140564278Y-76035297D01*
X140565000Y-76050000D01*
X140565000Y-77700000D01*
X140564278Y-77714703D01*
X140562118Y-77729264D01*
X140558541Y-77743543D01*
X140553582Y-77757403D01*
X140547288Y-77770710D01*
X140539720Y-77783336D01*
X140530952Y-77795159D01*
X140521066Y-77806066D01*
X140510159Y-77815952D01*
X140498336Y-77824720D01*
X140485710Y-77832288D01*
X140472403Y-77838582D01*
X140458543Y-77843541D01*
X140444264Y-77847118D01*
X140429703Y-77849278D01*
X140415000Y-77850000D01*
X140115000Y-77850000D01*
X140100297Y-77849278D01*
X140085736Y-77847118D01*
X140071457Y-77843541D01*
X140057597Y-77838582D01*
X140044290Y-77832288D01*
X140031664Y-77824720D01*
X140019841Y-77815952D01*
X140008934Y-77806066D01*
X139999048Y-77795159D01*
X139990280Y-77783336D01*
X139982712Y-77770710D01*
X139976418Y-77757403D01*
X139971459Y-77743543D01*
X139967882Y-77729264D01*
X139965722Y-77714703D01*
X139965000Y-77700000D01*
X139965000Y-76050000D01*
X139965722Y-76035297D01*
X139967882Y-76020736D01*
X139971459Y-76006457D01*
X139976418Y-75992597D01*
X139982712Y-75979290D01*
X139990280Y-75966664D01*
X139999048Y-75954841D01*
X140008934Y-75943934D01*
X140019841Y-75934048D01*
X140031664Y-75925280D01*
X140044290Y-75917712D01*
X140057597Y-75911418D01*
X140071457Y-75906459D01*
X140085736Y-75902882D01*
X140100297Y-75900722D01*
X140115000Y-75900000D01*
X140415000Y-75900000D01*
X140429703Y-75900722D01*
X140429703Y-75900722D01*
G37*
D19*
X140265000Y-76875000D03*
D18*
G36*
X141699703Y-75900722D02*
G01*
X141714264Y-75902882D01*
X141728543Y-75906459D01*
X141742403Y-75911418D01*
X141755710Y-75917712D01*
X141768336Y-75925280D01*
X141780159Y-75934048D01*
X141791066Y-75943934D01*
X141800952Y-75954841D01*
X141809720Y-75966664D01*
X141817288Y-75979290D01*
X141823582Y-75992597D01*
X141828541Y-76006457D01*
X141832118Y-76020736D01*
X141834278Y-76035297D01*
X141835000Y-76050000D01*
X141835000Y-77700000D01*
X141834278Y-77714703D01*
X141832118Y-77729264D01*
X141828541Y-77743543D01*
X141823582Y-77757403D01*
X141817288Y-77770710D01*
X141809720Y-77783336D01*
X141800952Y-77795159D01*
X141791066Y-77806066D01*
X141780159Y-77815952D01*
X141768336Y-77824720D01*
X141755710Y-77832288D01*
X141742403Y-77838582D01*
X141728543Y-77843541D01*
X141714264Y-77847118D01*
X141699703Y-77849278D01*
X141685000Y-77850000D01*
X141385000Y-77850000D01*
X141370297Y-77849278D01*
X141355736Y-77847118D01*
X141341457Y-77843541D01*
X141327597Y-77838582D01*
X141314290Y-77832288D01*
X141301664Y-77824720D01*
X141289841Y-77815952D01*
X141278934Y-77806066D01*
X141269048Y-77795159D01*
X141260280Y-77783336D01*
X141252712Y-77770710D01*
X141246418Y-77757403D01*
X141241459Y-77743543D01*
X141237882Y-77729264D01*
X141235722Y-77714703D01*
X141235000Y-77700000D01*
X141235000Y-76050000D01*
X141235722Y-76035297D01*
X141237882Y-76020736D01*
X141241459Y-76006457D01*
X141246418Y-75992597D01*
X141252712Y-75979290D01*
X141260280Y-75966664D01*
X141269048Y-75954841D01*
X141278934Y-75943934D01*
X141289841Y-75934048D01*
X141301664Y-75925280D01*
X141314290Y-75917712D01*
X141327597Y-75911418D01*
X141341457Y-75906459D01*
X141355736Y-75902882D01*
X141370297Y-75900722D01*
X141385000Y-75900000D01*
X141685000Y-75900000D01*
X141699703Y-75900722D01*
X141699703Y-75900722D01*
G37*
D19*
X141535000Y-76875000D03*
D18*
G36*
X142969703Y-75900722D02*
G01*
X142984264Y-75902882D01*
X142998543Y-75906459D01*
X143012403Y-75911418D01*
X143025710Y-75917712D01*
X143038336Y-75925280D01*
X143050159Y-75934048D01*
X143061066Y-75943934D01*
X143070952Y-75954841D01*
X143079720Y-75966664D01*
X143087288Y-75979290D01*
X143093582Y-75992597D01*
X143098541Y-76006457D01*
X143102118Y-76020736D01*
X143104278Y-76035297D01*
X143105000Y-76050000D01*
X143105000Y-77700000D01*
X143104278Y-77714703D01*
X143102118Y-77729264D01*
X143098541Y-77743543D01*
X143093582Y-77757403D01*
X143087288Y-77770710D01*
X143079720Y-77783336D01*
X143070952Y-77795159D01*
X143061066Y-77806066D01*
X143050159Y-77815952D01*
X143038336Y-77824720D01*
X143025710Y-77832288D01*
X143012403Y-77838582D01*
X142998543Y-77843541D01*
X142984264Y-77847118D01*
X142969703Y-77849278D01*
X142955000Y-77850000D01*
X142655000Y-77850000D01*
X142640297Y-77849278D01*
X142625736Y-77847118D01*
X142611457Y-77843541D01*
X142597597Y-77838582D01*
X142584290Y-77832288D01*
X142571664Y-77824720D01*
X142559841Y-77815952D01*
X142548934Y-77806066D01*
X142539048Y-77795159D01*
X142530280Y-77783336D01*
X142522712Y-77770710D01*
X142516418Y-77757403D01*
X142511459Y-77743543D01*
X142507882Y-77729264D01*
X142505722Y-77714703D01*
X142505000Y-77700000D01*
X142505000Y-76050000D01*
X142505722Y-76035297D01*
X142507882Y-76020736D01*
X142511459Y-76006457D01*
X142516418Y-75992597D01*
X142522712Y-75979290D01*
X142530280Y-75966664D01*
X142539048Y-75954841D01*
X142548934Y-75943934D01*
X142559841Y-75934048D01*
X142571664Y-75925280D01*
X142584290Y-75917712D01*
X142597597Y-75911418D01*
X142611457Y-75906459D01*
X142625736Y-75902882D01*
X142640297Y-75900722D01*
X142655000Y-75900000D01*
X142955000Y-75900000D01*
X142969703Y-75900722D01*
X142969703Y-75900722D01*
G37*
D19*
X142805000Y-76875000D03*
D18*
G36*
X144239703Y-75900722D02*
G01*
X144254264Y-75902882D01*
X144268543Y-75906459D01*
X144282403Y-75911418D01*
X144295710Y-75917712D01*
X144308336Y-75925280D01*
X144320159Y-75934048D01*
X144331066Y-75943934D01*
X144340952Y-75954841D01*
X144349720Y-75966664D01*
X144357288Y-75979290D01*
X144363582Y-75992597D01*
X144368541Y-76006457D01*
X144372118Y-76020736D01*
X144374278Y-76035297D01*
X144375000Y-76050000D01*
X144375000Y-77700000D01*
X144374278Y-77714703D01*
X144372118Y-77729264D01*
X144368541Y-77743543D01*
X144363582Y-77757403D01*
X144357288Y-77770710D01*
X144349720Y-77783336D01*
X144340952Y-77795159D01*
X144331066Y-77806066D01*
X144320159Y-77815952D01*
X144308336Y-77824720D01*
X144295710Y-77832288D01*
X144282403Y-77838582D01*
X144268543Y-77843541D01*
X144254264Y-77847118D01*
X144239703Y-77849278D01*
X144225000Y-77850000D01*
X143925000Y-77850000D01*
X143910297Y-77849278D01*
X143895736Y-77847118D01*
X143881457Y-77843541D01*
X143867597Y-77838582D01*
X143854290Y-77832288D01*
X143841664Y-77824720D01*
X143829841Y-77815952D01*
X143818934Y-77806066D01*
X143809048Y-77795159D01*
X143800280Y-77783336D01*
X143792712Y-77770710D01*
X143786418Y-77757403D01*
X143781459Y-77743543D01*
X143777882Y-77729264D01*
X143775722Y-77714703D01*
X143775000Y-77700000D01*
X143775000Y-76050000D01*
X143775722Y-76035297D01*
X143777882Y-76020736D01*
X143781459Y-76006457D01*
X143786418Y-75992597D01*
X143792712Y-75979290D01*
X143800280Y-75966664D01*
X143809048Y-75954841D01*
X143818934Y-75943934D01*
X143829841Y-75934048D01*
X143841664Y-75925280D01*
X143854290Y-75917712D01*
X143867597Y-75911418D01*
X143881457Y-75906459D01*
X143895736Y-75902882D01*
X143910297Y-75900722D01*
X143925000Y-75900000D01*
X144225000Y-75900000D01*
X144239703Y-75900722D01*
X144239703Y-75900722D01*
G37*
D19*
X144075000Y-76875000D03*
D18*
G36*
X145509703Y-75900722D02*
G01*
X145524264Y-75902882D01*
X145538543Y-75906459D01*
X145552403Y-75911418D01*
X145565710Y-75917712D01*
X145578336Y-75925280D01*
X145590159Y-75934048D01*
X145601066Y-75943934D01*
X145610952Y-75954841D01*
X145619720Y-75966664D01*
X145627288Y-75979290D01*
X145633582Y-75992597D01*
X145638541Y-76006457D01*
X145642118Y-76020736D01*
X145644278Y-76035297D01*
X145645000Y-76050000D01*
X145645000Y-77700000D01*
X145644278Y-77714703D01*
X145642118Y-77729264D01*
X145638541Y-77743543D01*
X145633582Y-77757403D01*
X145627288Y-77770710D01*
X145619720Y-77783336D01*
X145610952Y-77795159D01*
X145601066Y-77806066D01*
X145590159Y-77815952D01*
X145578336Y-77824720D01*
X145565710Y-77832288D01*
X145552403Y-77838582D01*
X145538543Y-77843541D01*
X145524264Y-77847118D01*
X145509703Y-77849278D01*
X145495000Y-77850000D01*
X145195000Y-77850000D01*
X145180297Y-77849278D01*
X145165736Y-77847118D01*
X145151457Y-77843541D01*
X145137597Y-77838582D01*
X145124290Y-77832288D01*
X145111664Y-77824720D01*
X145099841Y-77815952D01*
X145088934Y-77806066D01*
X145079048Y-77795159D01*
X145070280Y-77783336D01*
X145062712Y-77770710D01*
X145056418Y-77757403D01*
X145051459Y-77743543D01*
X145047882Y-77729264D01*
X145045722Y-77714703D01*
X145045000Y-77700000D01*
X145045000Y-76050000D01*
X145045722Y-76035297D01*
X145047882Y-76020736D01*
X145051459Y-76006457D01*
X145056418Y-75992597D01*
X145062712Y-75979290D01*
X145070280Y-75966664D01*
X145079048Y-75954841D01*
X145088934Y-75943934D01*
X145099841Y-75934048D01*
X145111664Y-75925280D01*
X145124290Y-75917712D01*
X145137597Y-75911418D01*
X145151457Y-75906459D01*
X145165736Y-75902882D01*
X145180297Y-75900722D01*
X145195000Y-75900000D01*
X145495000Y-75900000D01*
X145509703Y-75900722D01*
X145509703Y-75900722D01*
G37*
D19*
X145345000Y-76875000D03*
D18*
G36*
X145509703Y-80850722D02*
G01*
X145524264Y-80852882D01*
X145538543Y-80856459D01*
X145552403Y-80861418D01*
X145565710Y-80867712D01*
X145578336Y-80875280D01*
X145590159Y-80884048D01*
X145601066Y-80893934D01*
X145610952Y-80904841D01*
X145619720Y-80916664D01*
X145627288Y-80929290D01*
X145633582Y-80942597D01*
X145638541Y-80956457D01*
X145642118Y-80970736D01*
X145644278Y-80985297D01*
X145645000Y-81000000D01*
X145645000Y-82650000D01*
X145644278Y-82664703D01*
X145642118Y-82679264D01*
X145638541Y-82693543D01*
X145633582Y-82707403D01*
X145627288Y-82720710D01*
X145619720Y-82733336D01*
X145610952Y-82745159D01*
X145601066Y-82756066D01*
X145590159Y-82765952D01*
X145578336Y-82774720D01*
X145565710Y-82782288D01*
X145552403Y-82788582D01*
X145538543Y-82793541D01*
X145524264Y-82797118D01*
X145509703Y-82799278D01*
X145495000Y-82800000D01*
X145195000Y-82800000D01*
X145180297Y-82799278D01*
X145165736Y-82797118D01*
X145151457Y-82793541D01*
X145137597Y-82788582D01*
X145124290Y-82782288D01*
X145111664Y-82774720D01*
X145099841Y-82765952D01*
X145088934Y-82756066D01*
X145079048Y-82745159D01*
X145070280Y-82733336D01*
X145062712Y-82720710D01*
X145056418Y-82707403D01*
X145051459Y-82693543D01*
X145047882Y-82679264D01*
X145045722Y-82664703D01*
X145045000Y-82650000D01*
X145045000Y-81000000D01*
X145045722Y-80985297D01*
X145047882Y-80970736D01*
X145051459Y-80956457D01*
X145056418Y-80942597D01*
X145062712Y-80929290D01*
X145070280Y-80916664D01*
X145079048Y-80904841D01*
X145088934Y-80893934D01*
X145099841Y-80884048D01*
X145111664Y-80875280D01*
X145124290Y-80867712D01*
X145137597Y-80861418D01*
X145151457Y-80856459D01*
X145165736Y-80852882D01*
X145180297Y-80850722D01*
X145195000Y-80850000D01*
X145495000Y-80850000D01*
X145509703Y-80850722D01*
X145509703Y-80850722D01*
G37*
D19*
X145345000Y-81825000D03*
D18*
G36*
X144239703Y-80850722D02*
G01*
X144254264Y-80852882D01*
X144268543Y-80856459D01*
X144282403Y-80861418D01*
X144295710Y-80867712D01*
X144308336Y-80875280D01*
X144320159Y-80884048D01*
X144331066Y-80893934D01*
X144340952Y-80904841D01*
X144349720Y-80916664D01*
X144357288Y-80929290D01*
X144363582Y-80942597D01*
X144368541Y-80956457D01*
X144372118Y-80970736D01*
X144374278Y-80985297D01*
X144375000Y-81000000D01*
X144375000Y-82650000D01*
X144374278Y-82664703D01*
X144372118Y-82679264D01*
X144368541Y-82693543D01*
X144363582Y-82707403D01*
X144357288Y-82720710D01*
X144349720Y-82733336D01*
X144340952Y-82745159D01*
X144331066Y-82756066D01*
X144320159Y-82765952D01*
X144308336Y-82774720D01*
X144295710Y-82782288D01*
X144282403Y-82788582D01*
X144268543Y-82793541D01*
X144254264Y-82797118D01*
X144239703Y-82799278D01*
X144225000Y-82800000D01*
X143925000Y-82800000D01*
X143910297Y-82799278D01*
X143895736Y-82797118D01*
X143881457Y-82793541D01*
X143867597Y-82788582D01*
X143854290Y-82782288D01*
X143841664Y-82774720D01*
X143829841Y-82765952D01*
X143818934Y-82756066D01*
X143809048Y-82745159D01*
X143800280Y-82733336D01*
X143792712Y-82720710D01*
X143786418Y-82707403D01*
X143781459Y-82693543D01*
X143777882Y-82679264D01*
X143775722Y-82664703D01*
X143775000Y-82650000D01*
X143775000Y-81000000D01*
X143775722Y-80985297D01*
X143777882Y-80970736D01*
X143781459Y-80956457D01*
X143786418Y-80942597D01*
X143792712Y-80929290D01*
X143800280Y-80916664D01*
X143809048Y-80904841D01*
X143818934Y-80893934D01*
X143829841Y-80884048D01*
X143841664Y-80875280D01*
X143854290Y-80867712D01*
X143867597Y-80861418D01*
X143881457Y-80856459D01*
X143895736Y-80852882D01*
X143910297Y-80850722D01*
X143925000Y-80850000D01*
X144225000Y-80850000D01*
X144239703Y-80850722D01*
X144239703Y-80850722D01*
G37*
D19*
X144075000Y-81825000D03*
D18*
G36*
X142969703Y-80850722D02*
G01*
X142984264Y-80852882D01*
X142998543Y-80856459D01*
X143012403Y-80861418D01*
X143025710Y-80867712D01*
X143038336Y-80875280D01*
X143050159Y-80884048D01*
X143061066Y-80893934D01*
X143070952Y-80904841D01*
X143079720Y-80916664D01*
X143087288Y-80929290D01*
X143093582Y-80942597D01*
X143098541Y-80956457D01*
X143102118Y-80970736D01*
X143104278Y-80985297D01*
X143105000Y-81000000D01*
X143105000Y-82650000D01*
X143104278Y-82664703D01*
X143102118Y-82679264D01*
X143098541Y-82693543D01*
X143093582Y-82707403D01*
X143087288Y-82720710D01*
X143079720Y-82733336D01*
X143070952Y-82745159D01*
X143061066Y-82756066D01*
X143050159Y-82765952D01*
X143038336Y-82774720D01*
X143025710Y-82782288D01*
X143012403Y-82788582D01*
X142998543Y-82793541D01*
X142984264Y-82797118D01*
X142969703Y-82799278D01*
X142955000Y-82800000D01*
X142655000Y-82800000D01*
X142640297Y-82799278D01*
X142625736Y-82797118D01*
X142611457Y-82793541D01*
X142597597Y-82788582D01*
X142584290Y-82782288D01*
X142571664Y-82774720D01*
X142559841Y-82765952D01*
X142548934Y-82756066D01*
X142539048Y-82745159D01*
X142530280Y-82733336D01*
X142522712Y-82720710D01*
X142516418Y-82707403D01*
X142511459Y-82693543D01*
X142507882Y-82679264D01*
X142505722Y-82664703D01*
X142505000Y-82650000D01*
X142505000Y-81000000D01*
X142505722Y-80985297D01*
X142507882Y-80970736D01*
X142511459Y-80956457D01*
X142516418Y-80942597D01*
X142522712Y-80929290D01*
X142530280Y-80916664D01*
X142539048Y-80904841D01*
X142548934Y-80893934D01*
X142559841Y-80884048D01*
X142571664Y-80875280D01*
X142584290Y-80867712D01*
X142597597Y-80861418D01*
X142611457Y-80856459D01*
X142625736Y-80852882D01*
X142640297Y-80850722D01*
X142655000Y-80850000D01*
X142955000Y-80850000D01*
X142969703Y-80850722D01*
X142969703Y-80850722D01*
G37*
D19*
X142805000Y-81825000D03*
D18*
G36*
X141699703Y-80850722D02*
G01*
X141714264Y-80852882D01*
X141728543Y-80856459D01*
X141742403Y-80861418D01*
X141755710Y-80867712D01*
X141768336Y-80875280D01*
X141780159Y-80884048D01*
X141791066Y-80893934D01*
X141800952Y-80904841D01*
X141809720Y-80916664D01*
X141817288Y-80929290D01*
X141823582Y-80942597D01*
X141828541Y-80956457D01*
X141832118Y-80970736D01*
X141834278Y-80985297D01*
X141835000Y-81000000D01*
X141835000Y-82650000D01*
X141834278Y-82664703D01*
X141832118Y-82679264D01*
X141828541Y-82693543D01*
X141823582Y-82707403D01*
X141817288Y-82720710D01*
X141809720Y-82733336D01*
X141800952Y-82745159D01*
X141791066Y-82756066D01*
X141780159Y-82765952D01*
X141768336Y-82774720D01*
X141755710Y-82782288D01*
X141742403Y-82788582D01*
X141728543Y-82793541D01*
X141714264Y-82797118D01*
X141699703Y-82799278D01*
X141685000Y-82800000D01*
X141385000Y-82800000D01*
X141370297Y-82799278D01*
X141355736Y-82797118D01*
X141341457Y-82793541D01*
X141327597Y-82788582D01*
X141314290Y-82782288D01*
X141301664Y-82774720D01*
X141289841Y-82765952D01*
X141278934Y-82756066D01*
X141269048Y-82745159D01*
X141260280Y-82733336D01*
X141252712Y-82720710D01*
X141246418Y-82707403D01*
X141241459Y-82693543D01*
X141237882Y-82679264D01*
X141235722Y-82664703D01*
X141235000Y-82650000D01*
X141235000Y-81000000D01*
X141235722Y-80985297D01*
X141237882Y-80970736D01*
X141241459Y-80956457D01*
X141246418Y-80942597D01*
X141252712Y-80929290D01*
X141260280Y-80916664D01*
X141269048Y-80904841D01*
X141278934Y-80893934D01*
X141289841Y-80884048D01*
X141301664Y-80875280D01*
X141314290Y-80867712D01*
X141327597Y-80861418D01*
X141341457Y-80856459D01*
X141355736Y-80852882D01*
X141370297Y-80850722D01*
X141385000Y-80850000D01*
X141685000Y-80850000D01*
X141699703Y-80850722D01*
X141699703Y-80850722D01*
G37*
D19*
X141535000Y-81825000D03*
D18*
G36*
X140429703Y-80850722D02*
G01*
X140444264Y-80852882D01*
X140458543Y-80856459D01*
X140472403Y-80861418D01*
X140485710Y-80867712D01*
X140498336Y-80875280D01*
X140510159Y-80884048D01*
X140521066Y-80893934D01*
X140530952Y-80904841D01*
X140539720Y-80916664D01*
X140547288Y-80929290D01*
X140553582Y-80942597D01*
X140558541Y-80956457D01*
X140562118Y-80970736D01*
X140564278Y-80985297D01*
X140565000Y-81000000D01*
X140565000Y-82650000D01*
X140564278Y-82664703D01*
X140562118Y-82679264D01*
X140558541Y-82693543D01*
X140553582Y-82707403D01*
X140547288Y-82720710D01*
X140539720Y-82733336D01*
X140530952Y-82745159D01*
X140521066Y-82756066D01*
X140510159Y-82765952D01*
X140498336Y-82774720D01*
X140485710Y-82782288D01*
X140472403Y-82788582D01*
X140458543Y-82793541D01*
X140444264Y-82797118D01*
X140429703Y-82799278D01*
X140415000Y-82800000D01*
X140115000Y-82800000D01*
X140100297Y-82799278D01*
X140085736Y-82797118D01*
X140071457Y-82793541D01*
X140057597Y-82788582D01*
X140044290Y-82782288D01*
X140031664Y-82774720D01*
X140019841Y-82765952D01*
X140008934Y-82756066D01*
X139999048Y-82745159D01*
X139990280Y-82733336D01*
X139982712Y-82720710D01*
X139976418Y-82707403D01*
X139971459Y-82693543D01*
X139967882Y-82679264D01*
X139965722Y-82664703D01*
X139965000Y-82650000D01*
X139965000Y-81000000D01*
X139965722Y-80985297D01*
X139967882Y-80970736D01*
X139971459Y-80956457D01*
X139976418Y-80942597D01*
X139982712Y-80929290D01*
X139990280Y-80916664D01*
X139999048Y-80904841D01*
X140008934Y-80893934D01*
X140019841Y-80884048D01*
X140031664Y-80875280D01*
X140044290Y-80867712D01*
X140057597Y-80861418D01*
X140071457Y-80856459D01*
X140085736Y-80852882D01*
X140100297Y-80850722D01*
X140115000Y-80850000D01*
X140415000Y-80850000D01*
X140429703Y-80850722D01*
X140429703Y-80850722D01*
G37*
D19*
X140265000Y-81825000D03*
D18*
G36*
X139159703Y-80850722D02*
G01*
X139174264Y-80852882D01*
X139188543Y-80856459D01*
X139202403Y-80861418D01*
X139215710Y-80867712D01*
X139228336Y-80875280D01*
X139240159Y-80884048D01*
X139251066Y-80893934D01*
X139260952Y-80904841D01*
X139269720Y-80916664D01*
X139277288Y-80929290D01*
X139283582Y-80942597D01*
X139288541Y-80956457D01*
X139292118Y-80970736D01*
X139294278Y-80985297D01*
X139295000Y-81000000D01*
X139295000Y-82650000D01*
X139294278Y-82664703D01*
X139292118Y-82679264D01*
X139288541Y-82693543D01*
X139283582Y-82707403D01*
X139277288Y-82720710D01*
X139269720Y-82733336D01*
X139260952Y-82745159D01*
X139251066Y-82756066D01*
X139240159Y-82765952D01*
X139228336Y-82774720D01*
X139215710Y-82782288D01*
X139202403Y-82788582D01*
X139188543Y-82793541D01*
X139174264Y-82797118D01*
X139159703Y-82799278D01*
X139145000Y-82800000D01*
X138845000Y-82800000D01*
X138830297Y-82799278D01*
X138815736Y-82797118D01*
X138801457Y-82793541D01*
X138787597Y-82788582D01*
X138774290Y-82782288D01*
X138761664Y-82774720D01*
X138749841Y-82765952D01*
X138738934Y-82756066D01*
X138729048Y-82745159D01*
X138720280Y-82733336D01*
X138712712Y-82720710D01*
X138706418Y-82707403D01*
X138701459Y-82693543D01*
X138697882Y-82679264D01*
X138695722Y-82664703D01*
X138695000Y-82650000D01*
X138695000Y-81000000D01*
X138695722Y-80985297D01*
X138697882Y-80970736D01*
X138701459Y-80956457D01*
X138706418Y-80942597D01*
X138712712Y-80929290D01*
X138720280Y-80916664D01*
X138729048Y-80904841D01*
X138738934Y-80893934D01*
X138749841Y-80884048D01*
X138761664Y-80875280D01*
X138774290Y-80867712D01*
X138787597Y-80861418D01*
X138801457Y-80856459D01*
X138815736Y-80852882D01*
X138830297Y-80850722D01*
X138845000Y-80850000D01*
X139145000Y-80850000D01*
X139159703Y-80850722D01*
X139159703Y-80850722D01*
G37*
D19*
X138995000Y-81825000D03*
D18*
G36*
X137889703Y-80850722D02*
G01*
X137904264Y-80852882D01*
X137918543Y-80856459D01*
X137932403Y-80861418D01*
X137945710Y-80867712D01*
X137958336Y-80875280D01*
X137970159Y-80884048D01*
X137981066Y-80893934D01*
X137990952Y-80904841D01*
X137999720Y-80916664D01*
X138007288Y-80929290D01*
X138013582Y-80942597D01*
X138018541Y-80956457D01*
X138022118Y-80970736D01*
X138024278Y-80985297D01*
X138025000Y-81000000D01*
X138025000Y-82650000D01*
X138024278Y-82664703D01*
X138022118Y-82679264D01*
X138018541Y-82693543D01*
X138013582Y-82707403D01*
X138007288Y-82720710D01*
X137999720Y-82733336D01*
X137990952Y-82745159D01*
X137981066Y-82756066D01*
X137970159Y-82765952D01*
X137958336Y-82774720D01*
X137945710Y-82782288D01*
X137932403Y-82788582D01*
X137918543Y-82793541D01*
X137904264Y-82797118D01*
X137889703Y-82799278D01*
X137875000Y-82800000D01*
X137575000Y-82800000D01*
X137560297Y-82799278D01*
X137545736Y-82797118D01*
X137531457Y-82793541D01*
X137517597Y-82788582D01*
X137504290Y-82782288D01*
X137491664Y-82774720D01*
X137479841Y-82765952D01*
X137468934Y-82756066D01*
X137459048Y-82745159D01*
X137450280Y-82733336D01*
X137442712Y-82720710D01*
X137436418Y-82707403D01*
X137431459Y-82693543D01*
X137427882Y-82679264D01*
X137425722Y-82664703D01*
X137425000Y-82650000D01*
X137425000Y-81000000D01*
X137425722Y-80985297D01*
X137427882Y-80970736D01*
X137431459Y-80956457D01*
X137436418Y-80942597D01*
X137442712Y-80929290D01*
X137450280Y-80916664D01*
X137459048Y-80904841D01*
X137468934Y-80893934D01*
X137479841Y-80884048D01*
X137491664Y-80875280D01*
X137504290Y-80867712D01*
X137517597Y-80861418D01*
X137531457Y-80856459D01*
X137545736Y-80852882D01*
X137560297Y-80850722D01*
X137575000Y-80850000D01*
X137875000Y-80850000D01*
X137889703Y-80850722D01*
X137889703Y-80850722D01*
G37*
D19*
X137725000Y-81825000D03*
D18*
G36*
X136619703Y-80850722D02*
G01*
X136634264Y-80852882D01*
X136648543Y-80856459D01*
X136662403Y-80861418D01*
X136675710Y-80867712D01*
X136688336Y-80875280D01*
X136700159Y-80884048D01*
X136711066Y-80893934D01*
X136720952Y-80904841D01*
X136729720Y-80916664D01*
X136737288Y-80929290D01*
X136743582Y-80942597D01*
X136748541Y-80956457D01*
X136752118Y-80970736D01*
X136754278Y-80985297D01*
X136755000Y-81000000D01*
X136755000Y-82650000D01*
X136754278Y-82664703D01*
X136752118Y-82679264D01*
X136748541Y-82693543D01*
X136743582Y-82707403D01*
X136737288Y-82720710D01*
X136729720Y-82733336D01*
X136720952Y-82745159D01*
X136711066Y-82756066D01*
X136700159Y-82765952D01*
X136688336Y-82774720D01*
X136675710Y-82782288D01*
X136662403Y-82788582D01*
X136648543Y-82793541D01*
X136634264Y-82797118D01*
X136619703Y-82799278D01*
X136605000Y-82800000D01*
X136305000Y-82800000D01*
X136290297Y-82799278D01*
X136275736Y-82797118D01*
X136261457Y-82793541D01*
X136247597Y-82788582D01*
X136234290Y-82782288D01*
X136221664Y-82774720D01*
X136209841Y-82765952D01*
X136198934Y-82756066D01*
X136189048Y-82745159D01*
X136180280Y-82733336D01*
X136172712Y-82720710D01*
X136166418Y-82707403D01*
X136161459Y-82693543D01*
X136157882Y-82679264D01*
X136155722Y-82664703D01*
X136155000Y-82650000D01*
X136155000Y-81000000D01*
X136155722Y-80985297D01*
X136157882Y-80970736D01*
X136161459Y-80956457D01*
X136166418Y-80942597D01*
X136172712Y-80929290D01*
X136180280Y-80916664D01*
X136189048Y-80904841D01*
X136198934Y-80893934D01*
X136209841Y-80884048D01*
X136221664Y-80875280D01*
X136234290Y-80867712D01*
X136247597Y-80861418D01*
X136261457Y-80856459D01*
X136275736Y-80852882D01*
X136290297Y-80850722D01*
X136305000Y-80850000D01*
X136605000Y-80850000D01*
X136619703Y-80850722D01*
X136619703Y-80850722D01*
G37*
D19*
X136455000Y-81825000D03*
D18*
G36*
X156654703Y-76170722D02*
G01*
X156669264Y-76172882D01*
X156683543Y-76176459D01*
X156697403Y-76181418D01*
X156710710Y-76187712D01*
X156723336Y-76195280D01*
X156735159Y-76204048D01*
X156746066Y-76213934D01*
X156755952Y-76224841D01*
X156764720Y-76236664D01*
X156772288Y-76249290D01*
X156778582Y-76262597D01*
X156783541Y-76276457D01*
X156787118Y-76290736D01*
X156789278Y-76305297D01*
X156790000Y-76320000D01*
X156790000Y-77970000D01*
X156789278Y-77984703D01*
X156787118Y-77999264D01*
X156783541Y-78013543D01*
X156778582Y-78027403D01*
X156772288Y-78040710D01*
X156764720Y-78053336D01*
X156755952Y-78065159D01*
X156746066Y-78076066D01*
X156735159Y-78085952D01*
X156723336Y-78094720D01*
X156710710Y-78102288D01*
X156697403Y-78108582D01*
X156683543Y-78113541D01*
X156669264Y-78117118D01*
X156654703Y-78119278D01*
X156640000Y-78120000D01*
X156340000Y-78120000D01*
X156325297Y-78119278D01*
X156310736Y-78117118D01*
X156296457Y-78113541D01*
X156282597Y-78108582D01*
X156269290Y-78102288D01*
X156256664Y-78094720D01*
X156244841Y-78085952D01*
X156233934Y-78076066D01*
X156224048Y-78065159D01*
X156215280Y-78053336D01*
X156207712Y-78040710D01*
X156201418Y-78027403D01*
X156196459Y-78013543D01*
X156192882Y-77999264D01*
X156190722Y-77984703D01*
X156190000Y-77970000D01*
X156190000Y-76320000D01*
X156190722Y-76305297D01*
X156192882Y-76290736D01*
X156196459Y-76276457D01*
X156201418Y-76262597D01*
X156207712Y-76249290D01*
X156215280Y-76236664D01*
X156224048Y-76224841D01*
X156233934Y-76213934D01*
X156244841Y-76204048D01*
X156256664Y-76195280D01*
X156269290Y-76187712D01*
X156282597Y-76181418D01*
X156296457Y-76176459D01*
X156310736Y-76172882D01*
X156325297Y-76170722D01*
X156340000Y-76170000D01*
X156640000Y-76170000D01*
X156654703Y-76170722D01*
X156654703Y-76170722D01*
G37*
D19*
X156490000Y-77145000D03*
D18*
G36*
X157924703Y-76170722D02*
G01*
X157939264Y-76172882D01*
X157953543Y-76176459D01*
X157967403Y-76181418D01*
X157980710Y-76187712D01*
X157993336Y-76195280D01*
X158005159Y-76204048D01*
X158016066Y-76213934D01*
X158025952Y-76224841D01*
X158034720Y-76236664D01*
X158042288Y-76249290D01*
X158048582Y-76262597D01*
X158053541Y-76276457D01*
X158057118Y-76290736D01*
X158059278Y-76305297D01*
X158060000Y-76320000D01*
X158060000Y-77970000D01*
X158059278Y-77984703D01*
X158057118Y-77999264D01*
X158053541Y-78013543D01*
X158048582Y-78027403D01*
X158042288Y-78040710D01*
X158034720Y-78053336D01*
X158025952Y-78065159D01*
X158016066Y-78076066D01*
X158005159Y-78085952D01*
X157993336Y-78094720D01*
X157980710Y-78102288D01*
X157967403Y-78108582D01*
X157953543Y-78113541D01*
X157939264Y-78117118D01*
X157924703Y-78119278D01*
X157910000Y-78120000D01*
X157610000Y-78120000D01*
X157595297Y-78119278D01*
X157580736Y-78117118D01*
X157566457Y-78113541D01*
X157552597Y-78108582D01*
X157539290Y-78102288D01*
X157526664Y-78094720D01*
X157514841Y-78085952D01*
X157503934Y-78076066D01*
X157494048Y-78065159D01*
X157485280Y-78053336D01*
X157477712Y-78040710D01*
X157471418Y-78027403D01*
X157466459Y-78013543D01*
X157462882Y-77999264D01*
X157460722Y-77984703D01*
X157460000Y-77970000D01*
X157460000Y-76320000D01*
X157460722Y-76305297D01*
X157462882Y-76290736D01*
X157466459Y-76276457D01*
X157471418Y-76262597D01*
X157477712Y-76249290D01*
X157485280Y-76236664D01*
X157494048Y-76224841D01*
X157503934Y-76213934D01*
X157514841Y-76204048D01*
X157526664Y-76195280D01*
X157539290Y-76187712D01*
X157552597Y-76181418D01*
X157566457Y-76176459D01*
X157580736Y-76172882D01*
X157595297Y-76170722D01*
X157610000Y-76170000D01*
X157910000Y-76170000D01*
X157924703Y-76170722D01*
X157924703Y-76170722D01*
G37*
D19*
X157760000Y-77145000D03*
D18*
G36*
X159194703Y-76170722D02*
G01*
X159209264Y-76172882D01*
X159223543Y-76176459D01*
X159237403Y-76181418D01*
X159250710Y-76187712D01*
X159263336Y-76195280D01*
X159275159Y-76204048D01*
X159286066Y-76213934D01*
X159295952Y-76224841D01*
X159304720Y-76236664D01*
X159312288Y-76249290D01*
X159318582Y-76262597D01*
X159323541Y-76276457D01*
X159327118Y-76290736D01*
X159329278Y-76305297D01*
X159330000Y-76320000D01*
X159330000Y-77970000D01*
X159329278Y-77984703D01*
X159327118Y-77999264D01*
X159323541Y-78013543D01*
X159318582Y-78027403D01*
X159312288Y-78040710D01*
X159304720Y-78053336D01*
X159295952Y-78065159D01*
X159286066Y-78076066D01*
X159275159Y-78085952D01*
X159263336Y-78094720D01*
X159250710Y-78102288D01*
X159237403Y-78108582D01*
X159223543Y-78113541D01*
X159209264Y-78117118D01*
X159194703Y-78119278D01*
X159180000Y-78120000D01*
X158880000Y-78120000D01*
X158865297Y-78119278D01*
X158850736Y-78117118D01*
X158836457Y-78113541D01*
X158822597Y-78108582D01*
X158809290Y-78102288D01*
X158796664Y-78094720D01*
X158784841Y-78085952D01*
X158773934Y-78076066D01*
X158764048Y-78065159D01*
X158755280Y-78053336D01*
X158747712Y-78040710D01*
X158741418Y-78027403D01*
X158736459Y-78013543D01*
X158732882Y-77999264D01*
X158730722Y-77984703D01*
X158730000Y-77970000D01*
X158730000Y-76320000D01*
X158730722Y-76305297D01*
X158732882Y-76290736D01*
X158736459Y-76276457D01*
X158741418Y-76262597D01*
X158747712Y-76249290D01*
X158755280Y-76236664D01*
X158764048Y-76224841D01*
X158773934Y-76213934D01*
X158784841Y-76204048D01*
X158796664Y-76195280D01*
X158809290Y-76187712D01*
X158822597Y-76181418D01*
X158836457Y-76176459D01*
X158850736Y-76172882D01*
X158865297Y-76170722D01*
X158880000Y-76170000D01*
X159180000Y-76170000D01*
X159194703Y-76170722D01*
X159194703Y-76170722D01*
G37*
D19*
X159030000Y-77145000D03*
D18*
G36*
X160464703Y-76170722D02*
G01*
X160479264Y-76172882D01*
X160493543Y-76176459D01*
X160507403Y-76181418D01*
X160520710Y-76187712D01*
X160533336Y-76195280D01*
X160545159Y-76204048D01*
X160556066Y-76213934D01*
X160565952Y-76224841D01*
X160574720Y-76236664D01*
X160582288Y-76249290D01*
X160588582Y-76262597D01*
X160593541Y-76276457D01*
X160597118Y-76290736D01*
X160599278Y-76305297D01*
X160600000Y-76320000D01*
X160600000Y-77970000D01*
X160599278Y-77984703D01*
X160597118Y-77999264D01*
X160593541Y-78013543D01*
X160588582Y-78027403D01*
X160582288Y-78040710D01*
X160574720Y-78053336D01*
X160565952Y-78065159D01*
X160556066Y-78076066D01*
X160545159Y-78085952D01*
X160533336Y-78094720D01*
X160520710Y-78102288D01*
X160507403Y-78108582D01*
X160493543Y-78113541D01*
X160479264Y-78117118D01*
X160464703Y-78119278D01*
X160450000Y-78120000D01*
X160150000Y-78120000D01*
X160135297Y-78119278D01*
X160120736Y-78117118D01*
X160106457Y-78113541D01*
X160092597Y-78108582D01*
X160079290Y-78102288D01*
X160066664Y-78094720D01*
X160054841Y-78085952D01*
X160043934Y-78076066D01*
X160034048Y-78065159D01*
X160025280Y-78053336D01*
X160017712Y-78040710D01*
X160011418Y-78027403D01*
X160006459Y-78013543D01*
X160002882Y-77999264D01*
X160000722Y-77984703D01*
X160000000Y-77970000D01*
X160000000Y-76320000D01*
X160000722Y-76305297D01*
X160002882Y-76290736D01*
X160006459Y-76276457D01*
X160011418Y-76262597D01*
X160017712Y-76249290D01*
X160025280Y-76236664D01*
X160034048Y-76224841D01*
X160043934Y-76213934D01*
X160054841Y-76204048D01*
X160066664Y-76195280D01*
X160079290Y-76187712D01*
X160092597Y-76181418D01*
X160106457Y-76176459D01*
X160120736Y-76172882D01*
X160135297Y-76170722D01*
X160150000Y-76170000D01*
X160450000Y-76170000D01*
X160464703Y-76170722D01*
X160464703Y-76170722D01*
G37*
D19*
X160300000Y-77145000D03*
D18*
G36*
X161734703Y-76170722D02*
G01*
X161749264Y-76172882D01*
X161763543Y-76176459D01*
X161777403Y-76181418D01*
X161790710Y-76187712D01*
X161803336Y-76195280D01*
X161815159Y-76204048D01*
X161826066Y-76213934D01*
X161835952Y-76224841D01*
X161844720Y-76236664D01*
X161852288Y-76249290D01*
X161858582Y-76262597D01*
X161863541Y-76276457D01*
X161867118Y-76290736D01*
X161869278Y-76305297D01*
X161870000Y-76320000D01*
X161870000Y-77970000D01*
X161869278Y-77984703D01*
X161867118Y-77999264D01*
X161863541Y-78013543D01*
X161858582Y-78027403D01*
X161852288Y-78040710D01*
X161844720Y-78053336D01*
X161835952Y-78065159D01*
X161826066Y-78076066D01*
X161815159Y-78085952D01*
X161803336Y-78094720D01*
X161790710Y-78102288D01*
X161777403Y-78108582D01*
X161763543Y-78113541D01*
X161749264Y-78117118D01*
X161734703Y-78119278D01*
X161720000Y-78120000D01*
X161420000Y-78120000D01*
X161405297Y-78119278D01*
X161390736Y-78117118D01*
X161376457Y-78113541D01*
X161362597Y-78108582D01*
X161349290Y-78102288D01*
X161336664Y-78094720D01*
X161324841Y-78085952D01*
X161313934Y-78076066D01*
X161304048Y-78065159D01*
X161295280Y-78053336D01*
X161287712Y-78040710D01*
X161281418Y-78027403D01*
X161276459Y-78013543D01*
X161272882Y-77999264D01*
X161270722Y-77984703D01*
X161270000Y-77970000D01*
X161270000Y-76320000D01*
X161270722Y-76305297D01*
X161272882Y-76290736D01*
X161276459Y-76276457D01*
X161281418Y-76262597D01*
X161287712Y-76249290D01*
X161295280Y-76236664D01*
X161304048Y-76224841D01*
X161313934Y-76213934D01*
X161324841Y-76204048D01*
X161336664Y-76195280D01*
X161349290Y-76187712D01*
X161362597Y-76181418D01*
X161376457Y-76176459D01*
X161390736Y-76172882D01*
X161405297Y-76170722D01*
X161420000Y-76170000D01*
X161720000Y-76170000D01*
X161734703Y-76170722D01*
X161734703Y-76170722D01*
G37*
D19*
X161570000Y-77145000D03*
D18*
G36*
X163004703Y-76170722D02*
G01*
X163019264Y-76172882D01*
X163033543Y-76176459D01*
X163047403Y-76181418D01*
X163060710Y-76187712D01*
X163073336Y-76195280D01*
X163085159Y-76204048D01*
X163096066Y-76213934D01*
X163105952Y-76224841D01*
X163114720Y-76236664D01*
X163122288Y-76249290D01*
X163128582Y-76262597D01*
X163133541Y-76276457D01*
X163137118Y-76290736D01*
X163139278Y-76305297D01*
X163140000Y-76320000D01*
X163140000Y-77970000D01*
X163139278Y-77984703D01*
X163137118Y-77999264D01*
X163133541Y-78013543D01*
X163128582Y-78027403D01*
X163122288Y-78040710D01*
X163114720Y-78053336D01*
X163105952Y-78065159D01*
X163096066Y-78076066D01*
X163085159Y-78085952D01*
X163073336Y-78094720D01*
X163060710Y-78102288D01*
X163047403Y-78108582D01*
X163033543Y-78113541D01*
X163019264Y-78117118D01*
X163004703Y-78119278D01*
X162990000Y-78120000D01*
X162690000Y-78120000D01*
X162675297Y-78119278D01*
X162660736Y-78117118D01*
X162646457Y-78113541D01*
X162632597Y-78108582D01*
X162619290Y-78102288D01*
X162606664Y-78094720D01*
X162594841Y-78085952D01*
X162583934Y-78076066D01*
X162574048Y-78065159D01*
X162565280Y-78053336D01*
X162557712Y-78040710D01*
X162551418Y-78027403D01*
X162546459Y-78013543D01*
X162542882Y-77999264D01*
X162540722Y-77984703D01*
X162540000Y-77970000D01*
X162540000Y-76320000D01*
X162540722Y-76305297D01*
X162542882Y-76290736D01*
X162546459Y-76276457D01*
X162551418Y-76262597D01*
X162557712Y-76249290D01*
X162565280Y-76236664D01*
X162574048Y-76224841D01*
X162583934Y-76213934D01*
X162594841Y-76204048D01*
X162606664Y-76195280D01*
X162619290Y-76187712D01*
X162632597Y-76181418D01*
X162646457Y-76176459D01*
X162660736Y-76172882D01*
X162675297Y-76170722D01*
X162690000Y-76170000D01*
X162990000Y-76170000D01*
X163004703Y-76170722D01*
X163004703Y-76170722D01*
G37*
D19*
X162840000Y-77145000D03*
D18*
G36*
X164274703Y-76170722D02*
G01*
X164289264Y-76172882D01*
X164303543Y-76176459D01*
X164317403Y-76181418D01*
X164330710Y-76187712D01*
X164343336Y-76195280D01*
X164355159Y-76204048D01*
X164366066Y-76213934D01*
X164375952Y-76224841D01*
X164384720Y-76236664D01*
X164392288Y-76249290D01*
X164398582Y-76262597D01*
X164403541Y-76276457D01*
X164407118Y-76290736D01*
X164409278Y-76305297D01*
X164410000Y-76320000D01*
X164410000Y-77970000D01*
X164409278Y-77984703D01*
X164407118Y-77999264D01*
X164403541Y-78013543D01*
X164398582Y-78027403D01*
X164392288Y-78040710D01*
X164384720Y-78053336D01*
X164375952Y-78065159D01*
X164366066Y-78076066D01*
X164355159Y-78085952D01*
X164343336Y-78094720D01*
X164330710Y-78102288D01*
X164317403Y-78108582D01*
X164303543Y-78113541D01*
X164289264Y-78117118D01*
X164274703Y-78119278D01*
X164260000Y-78120000D01*
X163960000Y-78120000D01*
X163945297Y-78119278D01*
X163930736Y-78117118D01*
X163916457Y-78113541D01*
X163902597Y-78108582D01*
X163889290Y-78102288D01*
X163876664Y-78094720D01*
X163864841Y-78085952D01*
X163853934Y-78076066D01*
X163844048Y-78065159D01*
X163835280Y-78053336D01*
X163827712Y-78040710D01*
X163821418Y-78027403D01*
X163816459Y-78013543D01*
X163812882Y-77999264D01*
X163810722Y-77984703D01*
X163810000Y-77970000D01*
X163810000Y-76320000D01*
X163810722Y-76305297D01*
X163812882Y-76290736D01*
X163816459Y-76276457D01*
X163821418Y-76262597D01*
X163827712Y-76249290D01*
X163835280Y-76236664D01*
X163844048Y-76224841D01*
X163853934Y-76213934D01*
X163864841Y-76204048D01*
X163876664Y-76195280D01*
X163889290Y-76187712D01*
X163902597Y-76181418D01*
X163916457Y-76176459D01*
X163930736Y-76172882D01*
X163945297Y-76170722D01*
X163960000Y-76170000D01*
X164260000Y-76170000D01*
X164274703Y-76170722D01*
X164274703Y-76170722D01*
G37*
D19*
X164110000Y-77145000D03*
D18*
G36*
X164274703Y-81120722D02*
G01*
X164289264Y-81122882D01*
X164303543Y-81126459D01*
X164317403Y-81131418D01*
X164330710Y-81137712D01*
X164343336Y-81145280D01*
X164355159Y-81154048D01*
X164366066Y-81163934D01*
X164375952Y-81174841D01*
X164384720Y-81186664D01*
X164392288Y-81199290D01*
X164398582Y-81212597D01*
X164403541Y-81226457D01*
X164407118Y-81240736D01*
X164409278Y-81255297D01*
X164410000Y-81270000D01*
X164410000Y-82920000D01*
X164409278Y-82934703D01*
X164407118Y-82949264D01*
X164403541Y-82963543D01*
X164398582Y-82977403D01*
X164392288Y-82990710D01*
X164384720Y-83003336D01*
X164375952Y-83015159D01*
X164366066Y-83026066D01*
X164355159Y-83035952D01*
X164343336Y-83044720D01*
X164330710Y-83052288D01*
X164317403Y-83058582D01*
X164303543Y-83063541D01*
X164289264Y-83067118D01*
X164274703Y-83069278D01*
X164260000Y-83070000D01*
X163960000Y-83070000D01*
X163945297Y-83069278D01*
X163930736Y-83067118D01*
X163916457Y-83063541D01*
X163902597Y-83058582D01*
X163889290Y-83052288D01*
X163876664Y-83044720D01*
X163864841Y-83035952D01*
X163853934Y-83026066D01*
X163844048Y-83015159D01*
X163835280Y-83003336D01*
X163827712Y-82990710D01*
X163821418Y-82977403D01*
X163816459Y-82963543D01*
X163812882Y-82949264D01*
X163810722Y-82934703D01*
X163810000Y-82920000D01*
X163810000Y-81270000D01*
X163810722Y-81255297D01*
X163812882Y-81240736D01*
X163816459Y-81226457D01*
X163821418Y-81212597D01*
X163827712Y-81199290D01*
X163835280Y-81186664D01*
X163844048Y-81174841D01*
X163853934Y-81163934D01*
X163864841Y-81154048D01*
X163876664Y-81145280D01*
X163889290Y-81137712D01*
X163902597Y-81131418D01*
X163916457Y-81126459D01*
X163930736Y-81122882D01*
X163945297Y-81120722D01*
X163960000Y-81120000D01*
X164260000Y-81120000D01*
X164274703Y-81120722D01*
X164274703Y-81120722D01*
G37*
D19*
X164110000Y-82095000D03*
D18*
G36*
X163004703Y-81120722D02*
G01*
X163019264Y-81122882D01*
X163033543Y-81126459D01*
X163047403Y-81131418D01*
X163060710Y-81137712D01*
X163073336Y-81145280D01*
X163085159Y-81154048D01*
X163096066Y-81163934D01*
X163105952Y-81174841D01*
X163114720Y-81186664D01*
X163122288Y-81199290D01*
X163128582Y-81212597D01*
X163133541Y-81226457D01*
X163137118Y-81240736D01*
X163139278Y-81255297D01*
X163140000Y-81270000D01*
X163140000Y-82920000D01*
X163139278Y-82934703D01*
X163137118Y-82949264D01*
X163133541Y-82963543D01*
X163128582Y-82977403D01*
X163122288Y-82990710D01*
X163114720Y-83003336D01*
X163105952Y-83015159D01*
X163096066Y-83026066D01*
X163085159Y-83035952D01*
X163073336Y-83044720D01*
X163060710Y-83052288D01*
X163047403Y-83058582D01*
X163033543Y-83063541D01*
X163019264Y-83067118D01*
X163004703Y-83069278D01*
X162990000Y-83070000D01*
X162690000Y-83070000D01*
X162675297Y-83069278D01*
X162660736Y-83067118D01*
X162646457Y-83063541D01*
X162632597Y-83058582D01*
X162619290Y-83052288D01*
X162606664Y-83044720D01*
X162594841Y-83035952D01*
X162583934Y-83026066D01*
X162574048Y-83015159D01*
X162565280Y-83003336D01*
X162557712Y-82990710D01*
X162551418Y-82977403D01*
X162546459Y-82963543D01*
X162542882Y-82949264D01*
X162540722Y-82934703D01*
X162540000Y-82920000D01*
X162540000Y-81270000D01*
X162540722Y-81255297D01*
X162542882Y-81240736D01*
X162546459Y-81226457D01*
X162551418Y-81212597D01*
X162557712Y-81199290D01*
X162565280Y-81186664D01*
X162574048Y-81174841D01*
X162583934Y-81163934D01*
X162594841Y-81154048D01*
X162606664Y-81145280D01*
X162619290Y-81137712D01*
X162632597Y-81131418D01*
X162646457Y-81126459D01*
X162660736Y-81122882D01*
X162675297Y-81120722D01*
X162690000Y-81120000D01*
X162990000Y-81120000D01*
X163004703Y-81120722D01*
X163004703Y-81120722D01*
G37*
D19*
X162840000Y-82095000D03*
D18*
G36*
X161734703Y-81120722D02*
G01*
X161749264Y-81122882D01*
X161763543Y-81126459D01*
X161777403Y-81131418D01*
X161790710Y-81137712D01*
X161803336Y-81145280D01*
X161815159Y-81154048D01*
X161826066Y-81163934D01*
X161835952Y-81174841D01*
X161844720Y-81186664D01*
X161852288Y-81199290D01*
X161858582Y-81212597D01*
X161863541Y-81226457D01*
X161867118Y-81240736D01*
X161869278Y-81255297D01*
X161870000Y-81270000D01*
X161870000Y-82920000D01*
X161869278Y-82934703D01*
X161867118Y-82949264D01*
X161863541Y-82963543D01*
X161858582Y-82977403D01*
X161852288Y-82990710D01*
X161844720Y-83003336D01*
X161835952Y-83015159D01*
X161826066Y-83026066D01*
X161815159Y-83035952D01*
X161803336Y-83044720D01*
X161790710Y-83052288D01*
X161777403Y-83058582D01*
X161763543Y-83063541D01*
X161749264Y-83067118D01*
X161734703Y-83069278D01*
X161720000Y-83070000D01*
X161420000Y-83070000D01*
X161405297Y-83069278D01*
X161390736Y-83067118D01*
X161376457Y-83063541D01*
X161362597Y-83058582D01*
X161349290Y-83052288D01*
X161336664Y-83044720D01*
X161324841Y-83035952D01*
X161313934Y-83026066D01*
X161304048Y-83015159D01*
X161295280Y-83003336D01*
X161287712Y-82990710D01*
X161281418Y-82977403D01*
X161276459Y-82963543D01*
X161272882Y-82949264D01*
X161270722Y-82934703D01*
X161270000Y-82920000D01*
X161270000Y-81270000D01*
X161270722Y-81255297D01*
X161272882Y-81240736D01*
X161276459Y-81226457D01*
X161281418Y-81212597D01*
X161287712Y-81199290D01*
X161295280Y-81186664D01*
X161304048Y-81174841D01*
X161313934Y-81163934D01*
X161324841Y-81154048D01*
X161336664Y-81145280D01*
X161349290Y-81137712D01*
X161362597Y-81131418D01*
X161376457Y-81126459D01*
X161390736Y-81122882D01*
X161405297Y-81120722D01*
X161420000Y-81120000D01*
X161720000Y-81120000D01*
X161734703Y-81120722D01*
X161734703Y-81120722D01*
G37*
D19*
X161570000Y-82095000D03*
D18*
G36*
X160464703Y-81120722D02*
G01*
X160479264Y-81122882D01*
X160493543Y-81126459D01*
X160507403Y-81131418D01*
X160520710Y-81137712D01*
X160533336Y-81145280D01*
X160545159Y-81154048D01*
X160556066Y-81163934D01*
X160565952Y-81174841D01*
X160574720Y-81186664D01*
X160582288Y-81199290D01*
X160588582Y-81212597D01*
X160593541Y-81226457D01*
X160597118Y-81240736D01*
X160599278Y-81255297D01*
X160600000Y-81270000D01*
X160600000Y-82920000D01*
X160599278Y-82934703D01*
X160597118Y-82949264D01*
X160593541Y-82963543D01*
X160588582Y-82977403D01*
X160582288Y-82990710D01*
X160574720Y-83003336D01*
X160565952Y-83015159D01*
X160556066Y-83026066D01*
X160545159Y-83035952D01*
X160533336Y-83044720D01*
X160520710Y-83052288D01*
X160507403Y-83058582D01*
X160493543Y-83063541D01*
X160479264Y-83067118D01*
X160464703Y-83069278D01*
X160450000Y-83070000D01*
X160150000Y-83070000D01*
X160135297Y-83069278D01*
X160120736Y-83067118D01*
X160106457Y-83063541D01*
X160092597Y-83058582D01*
X160079290Y-83052288D01*
X160066664Y-83044720D01*
X160054841Y-83035952D01*
X160043934Y-83026066D01*
X160034048Y-83015159D01*
X160025280Y-83003336D01*
X160017712Y-82990710D01*
X160011418Y-82977403D01*
X160006459Y-82963543D01*
X160002882Y-82949264D01*
X160000722Y-82934703D01*
X160000000Y-82920000D01*
X160000000Y-81270000D01*
X160000722Y-81255297D01*
X160002882Y-81240736D01*
X160006459Y-81226457D01*
X160011418Y-81212597D01*
X160017712Y-81199290D01*
X160025280Y-81186664D01*
X160034048Y-81174841D01*
X160043934Y-81163934D01*
X160054841Y-81154048D01*
X160066664Y-81145280D01*
X160079290Y-81137712D01*
X160092597Y-81131418D01*
X160106457Y-81126459D01*
X160120736Y-81122882D01*
X160135297Y-81120722D01*
X160150000Y-81120000D01*
X160450000Y-81120000D01*
X160464703Y-81120722D01*
X160464703Y-81120722D01*
G37*
D19*
X160300000Y-82095000D03*
D18*
G36*
X159194703Y-81120722D02*
G01*
X159209264Y-81122882D01*
X159223543Y-81126459D01*
X159237403Y-81131418D01*
X159250710Y-81137712D01*
X159263336Y-81145280D01*
X159275159Y-81154048D01*
X159286066Y-81163934D01*
X159295952Y-81174841D01*
X159304720Y-81186664D01*
X159312288Y-81199290D01*
X159318582Y-81212597D01*
X159323541Y-81226457D01*
X159327118Y-81240736D01*
X159329278Y-81255297D01*
X159330000Y-81270000D01*
X159330000Y-82920000D01*
X159329278Y-82934703D01*
X159327118Y-82949264D01*
X159323541Y-82963543D01*
X159318582Y-82977403D01*
X159312288Y-82990710D01*
X159304720Y-83003336D01*
X159295952Y-83015159D01*
X159286066Y-83026066D01*
X159275159Y-83035952D01*
X159263336Y-83044720D01*
X159250710Y-83052288D01*
X159237403Y-83058582D01*
X159223543Y-83063541D01*
X159209264Y-83067118D01*
X159194703Y-83069278D01*
X159180000Y-83070000D01*
X158880000Y-83070000D01*
X158865297Y-83069278D01*
X158850736Y-83067118D01*
X158836457Y-83063541D01*
X158822597Y-83058582D01*
X158809290Y-83052288D01*
X158796664Y-83044720D01*
X158784841Y-83035952D01*
X158773934Y-83026066D01*
X158764048Y-83015159D01*
X158755280Y-83003336D01*
X158747712Y-82990710D01*
X158741418Y-82977403D01*
X158736459Y-82963543D01*
X158732882Y-82949264D01*
X158730722Y-82934703D01*
X158730000Y-82920000D01*
X158730000Y-81270000D01*
X158730722Y-81255297D01*
X158732882Y-81240736D01*
X158736459Y-81226457D01*
X158741418Y-81212597D01*
X158747712Y-81199290D01*
X158755280Y-81186664D01*
X158764048Y-81174841D01*
X158773934Y-81163934D01*
X158784841Y-81154048D01*
X158796664Y-81145280D01*
X158809290Y-81137712D01*
X158822597Y-81131418D01*
X158836457Y-81126459D01*
X158850736Y-81122882D01*
X158865297Y-81120722D01*
X158880000Y-81120000D01*
X159180000Y-81120000D01*
X159194703Y-81120722D01*
X159194703Y-81120722D01*
G37*
D19*
X159030000Y-82095000D03*
D18*
G36*
X157924703Y-81120722D02*
G01*
X157939264Y-81122882D01*
X157953543Y-81126459D01*
X157967403Y-81131418D01*
X157980710Y-81137712D01*
X157993336Y-81145280D01*
X158005159Y-81154048D01*
X158016066Y-81163934D01*
X158025952Y-81174841D01*
X158034720Y-81186664D01*
X158042288Y-81199290D01*
X158048582Y-81212597D01*
X158053541Y-81226457D01*
X158057118Y-81240736D01*
X158059278Y-81255297D01*
X158060000Y-81270000D01*
X158060000Y-82920000D01*
X158059278Y-82934703D01*
X158057118Y-82949264D01*
X158053541Y-82963543D01*
X158048582Y-82977403D01*
X158042288Y-82990710D01*
X158034720Y-83003336D01*
X158025952Y-83015159D01*
X158016066Y-83026066D01*
X158005159Y-83035952D01*
X157993336Y-83044720D01*
X157980710Y-83052288D01*
X157967403Y-83058582D01*
X157953543Y-83063541D01*
X157939264Y-83067118D01*
X157924703Y-83069278D01*
X157910000Y-83070000D01*
X157610000Y-83070000D01*
X157595297Y-83069278D01*
X157580736Y-83067118D01*
X157566457Y-83063541D01*
X157552597Y-83058582D01*
X157539290Y-83052288D01*
X157526664Y-83044720D01*
X157514841Y-83035952D01*
X157503934Y-83026066D01*
X157494048Y-83015159D01*
X157485280Y-83003336D01*
X157477712Y-82990710D01*
X157471418Y-82977403D01*
X157466459Y-82963543D01*
X157462882Y-82949264D01*
X157460722Y-82934703D01*
X157460000Y-82920000D01*
X157460000Y-81270000D01*
X157460722Y-81255297D01*
X157462882Y-81240736D01*
X157466459Y-81226457D01*
X157471418Y-81212597D01*
X157477712Y-81199290D01*
X157485280Y-81186664D01*
X157494048Y-81174841D01*
X157503934Y-81163934D01*
X157514841Y-81154048D01*
X157526664Y-81145280D01*
X157539290Y-81137712D01*
X157552597Y-81131418D01*
X157566457Y-81126459D01*
X157580736Y-81122882D01*
X157595297Y-81120722D01*
X157610000Y-81120000D01*
X157910000Y-81120000D01*
X157924703Y-81120722D01*
X157924703Y-81120722D01*
G37*
D19*
X157760000Y-82095000D03*
D18*
G36*
X156654703Y-81120722D02*
G01*
X156669264Y-81122882D01*
X156683543Y-81126459D01*
X156697403Y-81131418D01*
X156710710Y-81137712D01*
X156723336Y-81145280D01*
X156735159Y-81154048D01*
X156746066Y-81163934D01*
X156755952Y-81174841D01*
X156764720Y-81186664D01*
X156772288Y-81199290D01*
X156778582Y-81212597D01*
X156783541Y-81226457D01*
X156787118Y-81240736D01*
X156789278Y-81255297D01*
X156790000Y-81270000D01*
X156790000Y-82920000D01*
X156789278Y-82934703D01*
X156787118Y-82949264D01*
X156783541Y-82963543D01*
X156778582Y-82977403D01*
X156772288Y-82990710D01*
X156764720Y-83003336D01*
X156755952Y-83015159D01*
X156746066Y-83026066D01*
X156735159Y-83035952D01*
X156723336Y-83044720D01*
X156710710Y-83052288D01*
X156697403Y-83058582D01*
X156683543Y-83063541D01*
X156669264Y-83067118D01*
X156654703Y-83069278D01*
X156640000Y-83070000D01*
X156340000Y-83070000D01*
X156325297Y-83069278D01*
X156310736Y-83067118D01*
X156296457Y-83063541D01*
X156282597Y-83058582D01*
X156269290Y-83052288D01*
X156256664Y-83044720D01*
X156244841Y-83035952D01*
X156233934Y-83026066D01*
X156224048Y-83015159D01*
X156215280Y-83003336D01*
X156207712Y-82990710D01*
X156201418Y-82977403D01*
X156196459Y-82963543D01*
X156192882Y-82949264D01*
X156190722Y-82934703D01*
X156190000Y-82920000D01*
X156190000Y-81270000D01*
X156190722Y-81255297D01*
X156192882Y-81240736D01*
X156196459Y-81226457D01*
X156201418Y-81212597D01*
X156207712Y-81199290D01*
X156215280Y-81186664D01*
X156224048Y-81174841D01*
X156233934Y-81163934D01*
X156244841Y-81154048D01*
X156256664Y-81145280D01*
X156269290Y-81137712D01*
X156282597Y-81131418D01*
X156296457Y-81126459D01*
X156310736Y-81122882D01*
X156325297Y-81120722D01*
X156340000Y-81120000D01*
X156640000Y-81120000D01*
X156654703Y-81120722D01*
X156654703Y-81120722D01*
G37*
D19*
X156490000Y-82095000D03*
D20*
X142810000Y-90300000D03*
X140110000Y-90300000D03*
X140400000Y-64032000D03*
X143100000Y-64032000D03*
X115960000Y-90610000D03*
X113260000Y-90610000D03*
X125000000Y-90300000D03*
X127700000Y-90300000D03*
X132260000Y-90300000D03*
X134960000Y-90300000D03*
X145950000Y-70844000D03*
X148650000Y-70844000D03*
X154750000Y-64032000D03*
X152050000Y-64032000D03*
X154400000Y-70844000D03*
X151700000Y-70844000D03*
X140150000Y-70844000D03*
X142850000Y-70844000D03*
D21*
X95530000Y-77780000D03*
X95530000Y-80480000D03*
D20*
X134260000Y-64032000D03*
X136960000Y-64032000D03*
X176420000Y-87650000D03*
X173720000Y-87650000D03*
X173780000Y-91030000D03*
X176480000Y-91030000D03*
X146360000Y-64032000D03*
X149060000Y-64032000D03*
X146900000Y-90300000D03*
X149600000Y-90300000D03*
X123320000Y-63964000D03*
X120620000Y-63964000D03*
D21*
X138548000Y-98000000D03*
X138548000Y-95300000D03*
D20*
X173780000Y-80365000D03*
X176480000Y-80365000D03*
X176480000Y-76790000D03*
X173780000Y-76790000D03*
D18*
G36*
X126647504Y-95606204D02*
G01*
X126671773Y-95609804D01*
X126695571Y-95615765D01*
X126718671Y-95624030D01*
X126740849Y-95634520D01*
X126761893Y-95647133D01*
X126781598Y-95661747D01*
X126799777Y-95678223D01*
X126816253Y-95696402D01*
X126830867Y-95716107D01*
X126843480Y-95737151D01*
X126853970Y-95759329D01*
X126862235Y-95782429D01*
X126868196Y-95806227D01*
X126871796Y-95830496D01*
X126873000Y-95855000D01*
X126873000Y-98005000D01*
X126871796Y-98029504D01*
X126868196Y-98053773D01*
X126862235Y-98077571D01*
X126853970Y-98100671D01*
X126843480Y-98122849D01*
X126830867Y-98143893D01*
X126816253Y-98163598D01*
X126799777Y-98181777D01*
X126781598Y-98198253D01*
X126761893Y-98212867D01*
X126740849Y-98225480D01*
X126718671Y-98235970D01*
X126695571Y-98244235D01*
X126671773Y-98250196D01*
X126647504Y-98253796D01*
X126623000Y-98255000D01*
X125698000Y-98255000D01*
X125673496Y-98253796D01*
X125649227Y-98250196D01*
X125625429Y-98244235D01*
X125602329Y-98235970D01*
X125580151Y-98225480D01*
X125559107Y-98212867D01*
X125539402Y-98198253D01*
X125521223Y-98181777D01*
X125504747Y-98163598D01*
X125490133Y-98143893D01*
X125477520Y-98122849D01*
X125467030Y-98100671D01*
X125458765Y-98077571D01*
X125452804Y-98053773D01*
X125449204Y-98029504D01*
X125448000Y-98005000D01*
X125448000Y-95855000D01*
X125449204Y-95830496D01*
X125452804Y-95806227D01*
X125458765Y-95782429D01*
X125467030Y-95759329D01*
X125477520Y-95737151D01*
X125490133Y-95716107D01*
X125504747Y-95696402D01*
X125521223Y-95678223D01*
X125539402Y-95661747D01*
X125559107Y-95647133D01*
X125580151Y-95634520D01*
X125602329Y-95624030D01*
X125625429Y-95615765D01*
X125649227Y-95609804D01*
X125673496Y-95606204D01*
X125698000Y-95605000D01*
X126623000Y-95605000D01*
X126647504Y-95606204D01*
X126647504Y-95606204D01*
G37*
D22*
X126160500Y-96930000D03*
D18*
G36*
X129622504Y-95606204D02*
G01*
X129646773Y-95609804D01*
X129670571Y-95615765D01*
X129693671Y-95624030D01*
X129715849Y-95634520D01*
X129736893Y-95647133D01*
X129756598Y-95661747D01*
X129774777Y-95678223D01*
X129791253Y-95696402D01*
X129805867Y-95716107D01*
X129818480Y-95737151D01*
X129828970Y-95759329D01*
X129837235Y-95782429D01*
X129843196Y-95806227D01*
X129846796Y-95830496D01*
X129848000Y-95855000D01*
X129848000Y-98005000D01*
X129846796Y-98029504D01*
X129843196Y-98053773D01*
X129837235Y-98077571D01*
X129828970Y-98100671D01*
X129818480Y-98122849D01*
X129805867Y-98143893D01*
X129791253Y-98163598D01*
X129774777Y-98181777D01*
X129756598Y-98198253D01*
X129736893Y-98212867D01*
X129715849Y-98225480D01*
X129693671Y-98235970D01*
X129670571Y-98244235D01*
X129646773Y-98250196D01*
X129622504Y-98253796D01*
X129598000Y-98255000D01*
X128673000Y-98255000D01*
X128648496Y-98253796D01*
X128624227Y-98250196D01*
X128600429Y-98244235D01*
X128577329Y-98235970D01*
X128555151Y-98225480D01*
X128534107Y-98212867D01*
X128514402Y-98198253D01*
X128496223Y-98181777D01*
X128479747Y-98163598D01*
X128465133Y-98143893D01*
X128452520Y-98122849D01*
X128442030Y-98100671D01*
X128433765Y-98077571D01*
X128427804Y-98053773D01*
X128424204Y-98029504D01*
X128423000Y-98005000D01*
X128423000Y-95855000D01*
X128424204Y-95830496D01*
X128427804Y-95806227D01*
X128433765Y-95782429D01*
X128442030Y-95759329D01*
X128452520Y-95737151D01*
X128465133Y-95716107D01*
X128479747Y-95696402D01*
X128496223Y-95678223D01*
X128514402Y-95661747D01*
X128534107Y-95647133D01*
X128555151Y-95634520D01*
X128577329Y-95624030D01*
X128600429Y-95615765D01*
X128624227Y-95609804D01*
X128648496Y-95606204D01*
X128673000Y-95605000D01*
X129598000Y-95605000D01*
X129622504Y-95606204D01*
X129622504Y-95606204D01*
G37*
D22*
X129135500Y-96930000D03*
D12*
X134600000Y-52730000D03*
D13*
X132060000Y-52730000D03*
X129520000Y-52730000D03*
X126980000Y-52730000D03*
X124440000Y-52730000D03*
D12*
X104940000Y-64190000D03*
D13*
X104940000Y-66730000D03*
X102400000Y-64190000D03*
X102400000Y-66730000D03*
X99860000Y-64190000D03*
X99860000Y-66730000D03*
D12*
X92080000Y-87290000D03*
D13*
X92080000Y-84750000D03*
D12*
X91870000Y-51910000D03*
D13*
X91870000Y-54450000D03*
X91870000Y-56990000D03*
X91870000Y-59530000D03*
X91870000Y-62070000D03*
X91870000Y-64610000D03*
X91870000Y-67150000D03*
X91870000Y-69690000D03*
X91870000Y-72230000D03*
X91870000Y-74770000D03*
X91870000Y-77310000D03*
X91870000Y-79850000D03*
D23*
X146930000Y-97800000D03*
X146930000Y-95300000D03*
D24*
X115760000Y-94550000D03*
X113260000Y-94550000D03*
X113260000Y-97420000D03*
X115760000Y-97420000D03*
X114620000Y-64000000D03*
X117120000Y-64000000D03*
X176280000Y-83910000D03*
X173780000Y-83910000D03*
X160490000Y-64002000D03*
X157990000Y-64002000D03*
X141410000Y-52930000D03*
X138910000Y-52930000D03*
X176280000Y-94575000D03*
X173780000Y-94575000D03*
D25*
X172580000Y-59420000D03*
X176980000Y-59420000D03*
D23*
X123270000Y-59980000D03*
X123270000Y-57480000D03*
X142754000Y-95300000D03*
X142754000Y-97800000D03*
D25*
X172580000Y-53370000D03*
X176980000Y-53370000D03*
D26*
X163980000Y-52990000D03*
X163980000Y-59090000D03*
D24*
X148150000Y-53040000D03*
X145650000Y-53040000D03*
D27*
X143450200Y-74193300D03*
X161080100Y-95108600D03*
X115742200Y-66175200D03*
X103008200Y-74846000D03*
X131457300Y-60452500D03*
X128554500Y-69838600D03*
X140884500Y-80258900D03*
X139443300Y-72806900D03*
X139604900Y-80257600D03*
X120179700Y-76176500D03*
X120169900Y-78002000D03*
X129121700Y-55289600D03*
X172324800Y-84381100D03*
X100542600Y-57202400D03*
X114870100Y-77930000D03*
X150779900Y-95263000D03*
X108422500Y-84311200D03*
X106266500Y-80593300D03*
X123270100Y-75703600D03*
X122529800Y-81674800D03*
X137814400Y-65482100D03*
X136842900Y-86130900D03*
X153023600Y-75896500D03*
X115246600Y-69486800D03*
X108147100Y-83011100D03*
X107121300Y-82198700D03*
X142490900Y-67251500D03*
X144394800Y-89767300D03*
X164913200Y-80721000D03*
X164446400Y-89153200D03*
X117096900Y-84389200D03*
X164539700Y-87820500D03*
X118545800Y-84101800D03*
X119811800Y-79851900D03*
X120900200Y-72030200D03*
X135487700Y-83923300D03*
X141465000Y-69620600D03*
D28*
X140150000Y-70844000D02*
X140500000Y-71094000D01*
X140500000Y-71094000D02*
X140500000Y-71494000D01*
X140500000Y-71494000D02*
X140500000Y-71659700D01*
X140500000Y-71659700D02*
X140734300Y-71894000D01*
X140734300Y-71894000D02*
X143450200Y-74193300D01*
D29*
X141535000Y-76875000D02*
X141670600Y-76199200D01*
X141670600Y-76199200D02*
X141698000Y-75900500D01*
X141698000Y-75900500D02*
X141698000Y-75383300D01*
X141698000Y-75383300D02*
X141709000Y-75356700D01*
X141709000Y-75356700D02*
X142467400Y-74598300D01*
X142467400Y-74598300D02*
X142494000Y-74587300D01*
X142494000Y-74587300D02*
X143450200Y-74193300D01*
D28*
X140150000Y-70844000D02*
X140264900Y-70594000D01*
X140264900Y-70594000D02*
X140264900Y-70194000D01*
X140264900Y-70194000D02*
X140264900Y-69123500D01*
X140264900Y-69123500D02*
X140967900Y-68420500D01*
X140967900Y-68420500D02*
X141962100Y-68420500D01*
X141962100Y-68420500D02*
X141993800Y-68451600D01*
X141993800Y-68451600D02*
X142988000Y-68451600D01*
X142988000Y-68451600D02*
X148899600Y-66282200D01*
X148899600Y-66282200D02*
X149024600Y-66230400D01*
X149024600Y-66230400D02*
X150100000Y-65382100D01*
X150100000Y-65382100D02*
X150510100Y-64972000D01*
X150510100Y-64972000D02*
X150510100Y-64392000D01*
X150510100Y-64392000D02*
X150510100Y-63092000D01*
X150510100Y-63092000D02*
X148500000Y-53830700D01*
X148500000Y-53830700D02*
X148500000Y-53665000D01*
X148500000Y-53665000D02*
X148500000Y-53265000D01*
X148500000Y-53265000D02*
X148150000Y-53040000D01*
X163980000Y-52990000D02*
X163130000Y-51409900D01*
X163130000Y-51409900D02*
X162730000Y-51409900D01*
X162730000Y-51409900D02*
X151540000Y-51409900D01*
X151540000Y-51409900D02*
X149065700Y-52815000D01*
X149065700Y-52815000D02*
X148900000Y-52815000D01*
X148900000Y-52815000D02*
X148500000Y-52815000D01*
X148500000Y-52815000D02*
X148150000Y-53040000D01*
X158452900Y-84674300D02*
X152525700Y-85090000D01*
X152525700Y-85090000D02*
X152360000Y-85090000D01*
X152360000Y-85090000D02*
X151960000Y-85090000D01*
X151960000Y-85090000D02*
X151510000Y-85540000D01*
D29*
X160300000Y-82095000D02*
X160300000Y-82770600D01*
X160300000Y-82770600D02*
X160300000Y-83070600D01*
X160300000Y-83070600D02*
X160300000Y-83619100D01*
X160300000Y-83619100D02*
X160264200Y-83705600D01*
X160264200Y-83705600D02*
X159459900Y-84509900D01*
X159459900Y-84509900D02*
X159373400Y-84545700D01*
X159373400Y-84545700D02*
X158452900Y-84674300D01*
X111832800Y-77570000D02*
X111869800Y-77135200D01*
X111832800Y-77570000D02*
X111527600Y-77258200D01*
X145155300Y-75274400D02*
X145575500Y-75391900D01*
X145155300Y-75274400D02*
X145518700Y-75032700D01*
X145331600Y-75575700D02*
X145720300Y-75377400D01*
X145331600Y-75575700D02*
X145435100Y-75151800D01*
X112025900Y-76795700D02*
X111610000Y-76927700D01*
X112025900Y-76795700D02*
X111854400Y-77196900D01*
X124205100Y-74968800D02*
X124159700Y-74534800D01*
X124205100Y-74968800D02*
X123846700Y-74719800D01*
X159514600Y-75597000D02*
X159347800Y-75276900D01*
X159514600Y-75597000D02*
X159154800Y-75568700D01*
X143937200Y-82500500D02*
X143774600Y-82653900D01*
X143937200Y-82500500D02*
X144071600Y-82679100D01*
D30*
X161080100Y-95108600D02*
X160587100Y-95210000D01*
X160587100Y-95210000D02*
X160380000Y-95210000D01*
X160380000Y-95210000D02*
X159880000Y-95210000D01*
X159880000Y-95210000D02*
X158630000Y-95510000D01*
X123960800Y-74555600D02*
X123100400Y-71321300D01*
X123100400Y-71321300D02*
X122957300Y-70975700D01*
X122957300Y-70975700D02*
X121954700Y-69973100D01*
X121954700Y-69973100D02*
X115742200Y-66175200D01*
X94538100Y-91869900D02*
X93730100Y-86108600D01*
X93730100Y-86108600D02*
X93261400Y-85639900D01*
X93261400Y-85639900D02*
X92080000Y-84750000D01*
D29*
X113270000Y-78190000D02*
X112770000Y-78190000D01*
X112770000Y-78190000D02*
X112470000Y-78190000D01*
X112470000Y-78190000D02*
X112252500Y-78190000D01*
X112252500Y-78190000D02*
X111945000Y-77882500D01*
X111945000Y-77882500D02*
X111670500Y-77118300D01*
D28*
X173780000Y-94575000D02*
X173430000Y-94700000D01*
X173430000Y-94700000D02*
X173030000Y-94700000D01*
X173030000Y-94700000D02*
X172822900Y-94700000D01*
X172822900Y-94700000D02*
X169230000Y-95370000D01*
D30*
X154750000Y-64032000D02*
X155000000Y-63882000D01*
X155000000Y-63882000D02*
X155000000Y-63382000D01*
X155000000Y-63382000D02*
X155000000Y-63174900D01*
X155000000Y-63174900D02*
X155720000Y-60007100D01*
X155720000Y-60007100D02*
X155720000Y-59800000D01*
X155720000Y-59800000D02*
X155720000Y-59300000D01*
X155720000Y-59300000D02*
X156070000Y-58950000D01*
X158630000Y-95510000D02*
X157380000Y-95210000D01*
X157380000Y-95210000D02*
X156880000Y-95210000D01*
X156880000Y-95210000D02*
X156672900Y-95210000D01*
X156672900Y-95210000D02*
X155311400Y-93909900D01*
X155311400Y-93909900D02*
X151811400Y-93909900D01*
X151811400Y-93909900D02*
X151148600Y-93909900D01*
X151148600Y-93909900D02*
X150250000Y-93962900D01*
X150250000Y-93962900D02*
X150235300Y-93969000D01*
X150235300Y-93969000D02*
X147762100Y-95050000D01*
X147762100Y-95050000D02*
X147555000Y-95050000D01*
X147555000Y-95050000D02*
X147055000Y-95050000D01*
X147055000Y-95050000D02*
X146930000Y-95300000D01*
D29*
X144075000Y-76875000D02*
X144186200Y-76194900D01*
X144186200Y-76194900D02*
X144263800Y-75905100D01*
X144263800Y-75905100D02*
X144263800Y-75904500D01*
X144263800Y-75904500D02*
X144285200Y-75883100D01*
X144285200Y-75883100D02*
X144871100Y-75319500D01*
X144871100Y-75319500D02*
X145629400Y-75199300D01*
X145345000Y-76875000D02*
X145207000Y-76199400D01*
X145207000Y-76199400D02*
X145181900Y-75900500D01*
X145181900Y-75900500D02*
X145181900Y-75764900D01*
X145181900Y-75764900D02*
X145629400Y-75199300D01*
D30*
X120620000Y-63964000D02*
X120370000Y-63982000D01*
X120370000Y-63982000D02*
X119870000Y-63982000D01*
X119870000Y-63982000D02*
X117870000Y-63982000D01*
X117870000Y-63982000D02*
X117370000Y-63982000D01*
X117370000Y-63982000D02*
X117120000Y-64000000D01*
X146930000Y-95300000D02*
X146805000Y-95050000D01*
X146805000Y-95050000D02*
X146805000Y-94550000D01*
X146805000Y-94550000D02*
X146805000Y-94342900D01*
X146805000Y-94342900D02*
X146512100Y-94050000D01*
X146512100Y-94050000D02*
X143352900Y-91450000D01*
X143352900Y-91450000D02*
X143060000Y-91157100D01*
X143060000Y-91157100D02*
X143060000Y-90950000D01*
X143060000Y-90950000D02*
X143060000Y-90450000D01*
X143060000Y-90450000D02*
X142810000Y-90300000D01*
X141410000Y-52930000D02*
X141160000Y-52805000D01*
X141160000Y-52805000D02*
X141160000Y-52305000D01*
X141160000Y-52305000D02*
X141160000Y-52097900D01*
X141160000Y-52097900D02*
X140867100Y-51805000D01*
X140867100Y-51805000D02*
X139991400Y-51504900D01*
X139991400Y-51504900D02*
X138491400Y-51504900D01*
X138491400Y-51504900D02*
X137828600Y-51504900D01*
X137828600Y-51504900D02*
X135657100Y-52380000D01*
X135657100Y-52380000D02*
X135450000Y-52380000D01*
X135450000Y-52380000D02*
X134950000Y-52380000D01*
X134950000Y-52380000D02*
X134600000Y-52730000D01*
X91870000Y-79850000D02*
X92080000Y-84750000D01*
X155753500Y-74700700D02*
X154650000Y-71701100D01*
X154650000Y-71701100D02*
X154650000Y-71494000D01*
X154650000Y-71494000D02*
X154650000Y-70994000D01*
X154650000Y-70994000D02*
X154400000Y-70844000D01*
X176280000Y-83910000D02*
X176530000Y-84035000D01*
X176530000Y-84035000D02*
X176530000Y-84535000D01*
X176530000Y-84535000D02*
X176530000Y-84742100D01*
X176530000Y-84742100D02*
X177970100Y-86668600D01*
X177970100Y-86668600D02*
X178030100Y-90048600D01*
X178030100Y-90048600D02*
X178030100Y-91348600D01*
X178030100Y-91348600D02*
X178030100Y-92011400D01*
X178030100Y-92011400D02*
X177830100Y-95531400D01*
X177830100Y-95531400D02*
X177361400Y-96000100D01*
X177361400Y-96000100D02*
X176698600Y-96000100D01*
X176698600Y-96000100D02*
X175198600Y-96000100D01*
X175198600Y-96000100D02*
X174322900Y-95700000D01*
X174322900Y-95700000D02*
X174030000Y-95407100D01*
X174030000Y-95407100D02*
X174030000Y-95200000D01*
X174030000Y-95200000D02*
X174030000Y-94700000D01*
X174030000Y-94700000D02*
X173780000Y-94575000D01*
X163980000Y-59090000D02*
X163230000Y-59020000D01*
X163230000Y-59020000D02*
X162730000Y-59020000D01*
X162730000Y-59020000D02*
X156920000Y-59020000D01*
X156920000Y-59020000D02*
X156420000Y-59020000D01*
X156420000Y-59020000D02*
X156070000Y-58950000D01*
X159170500Y-75369300D02*
X155753500Y-74700700D01*
X176480000Y-80365000D02*
X176380000Y-80515000D01*
X176380000Y-80515000D02*
X176380000Y-81015000D01*
X176380000Y-81015000D02*
X176380000Y-83285000D01*
X176380000Y-83285000D02*
X176380000Y-83785000D01*
X176380000Y-83785000D02*
X176280000Y-83910000D01*
X142810000Y-90300000D02*
X143060000Y-90150000D01*
X143060000Y-90150000D02*
X143060000Y-89650000D01*
X143060000Y-89650000D02*
X143060000Y-89442900D01*
X143060000Y-89442900D02*
X143912000Y-82805600D01*
X143912000Y-82805600D02*
X143912000Y-82803700D01*
X143912000Y-82803700D02*
X143911900Y-82799400D01*
X113260000Y-94550000D02*
X113260000Y-94675000D01*
X113260000Y-94675000D02*
X113260000Y-95175000D01*
X113260000Y-95175000D02*
X113260000Y-96795000D01*
X113260000Y-96795000D02*
X113260000Y-97295000D01*
X113260000Y-97295000D02*
X113260000Y-97420000D01*
D29*
X113270000Y-76590000D02*
X112770000Y-76590000D01*
X112770000Y-76590000D02*
X112470000Y-76590000D01*
X112470000Y-76590000D02*
X112252500Y-76590000D01*
X112252500Y-76590000D02*
X111670500Y-77118300D01*
D30*
X115742200Y-66175200D02*
X114790400Y-66175200D01*
X114790400Y-66175200D02*
X114683700Y-66131000D01*
X114683700Y-66131000D02*
X113538600Y-65425100D01*
X113538600Y-65425100D02*
X113069900Y-64956400D01*
X113069900Y-64956400D02*
X113069900Y-64293600D01*
X113069900Y-64293600D02*
X113069900Y-63043600D01*
X113069900Y-63043600D02*
X113538600Y-62574900D01*
X113538600Y-62574900D02*
X114201400Y-62574900D01*
X114201400Y-62574900D02*
X115401400Y-62574900D01*
X115401400Y-62574900D02*
X116194200Y-62707500D01*
X116194200Y-62707500D02*
X117112900Y-63073800D01*
X117112900Y-63073800D02*
X117137100Y-63885300D01*
X117137100Y-63885300D02*
X117120000Y-64000000D01*
X113260000Y-97420000D02*
X113010000Y-97380000D01*
X113010000Y-97380000D02*
X112510000Y-97380000D01*
X112510000Y-97380000D02*
X106050000Y-97380000D01*
X103008200Y-74846000D02*
X111670500Y-77118300D01*
X154750000Y-64032000D02*
X154575000Y-64182000D01*
X154575000Y-64182000D02*
X154575000Y-64682000D01*
X154575000Y-64682000D02*
X154575000Y-70194000D01*
X154575000Y-70194000D02*
X154575000Y-70694000D01*
X154575000Y-70694000D02*
X154400000Y-70844000D01*
X155753500Y-74700700D02*
X154317600Y-76441100D01*
X154317600Y-76441100D02*
X153568200Y-77190500D01*
X153568200Y-77190500D02*
X153553500Y-77196600D01*
X153553500Y-77196600D02*
X152558600Y-77375000D01*
X152558600Y-77375000D02*
X151941400Y-77375000D01*
X151941400Y-77375000D02*
X150241400Y-77375000D01*
X150241400Y-77375000D02*
X145946600Y-75199300D01*
X145946600Y-75199300D02*
X145629400Y-75199300D01*
X145650000Y-53040000D02*
X145400000Y-52985000D01*
X145400000Y-52985000D02*
X144900000Y-52985000D01*
X144900000Y-52985000D02*
X142160000Y-52985000D01*
X142160000Y-52985000D02*
X141660000Y-52985000D01*
X141660000Y-52985000D02*
X141410000Y-52930000D01*
X157990000Y-64002000D02*
X157740000Y-64017000D01*
X157740000Y-64017000D02*
X157240000Y-64017000D01*
X157240000Y-64017000D02*
X155500000Y-64017000D01*
X155500000Y-64017000D02*
X155000000Y-64017000D01*
X155000000Y-64017000D02*
X154750000Y-64032000D01*
D29*
X121770000Y-77390000D02*
X122270000Y-77390000D01*
X122270000Y-77390000D02*
X122570000Y-77390000D01*
X122570000Y-77390000D02*
X122798100Y-77390000D01*
X122798100Y-77390000D02*
X123725800Y-76803700D01*
X123725800Y-76803700D02*
X124370200Y-76159300D01*
X124370200Y-76159300D02*
X124370200Y-75247900D01*
X124370200Y-75247900D02*
X123960800Y-74555600D01*
D28*
X94700000Y-92970000D02*
X94538100Y-91869900D01*
D29*
X160300000Y-77145000D02*
X160235000Y-76443500D01*
X160235000Y-76443500D02*
X160063900Y-76197100D01*
X160063900Y-76197100D02*
X159876900Y-75956100D01*
X159876900Y-75956100D02*
X159525400Y-75604600D01*
X159525400Y-75604600D02*
X159514600Y-75597000D01*
X159514600Y-75597000D02*
X159170500Y-75369300D01*
X144075000Y-81825000D02*
X143937200Y-82500500D01*
X143937200Y-82500500D02*
X143911900Y-82799400D01*
D31*
X172960000Y-72190000D02*
X169995700Y-68770700D01*
X169995700Y-68770700D02*
X169689700Y-68031800D01*
X169689700Y-68031800D02*
X167357500Y-56973300D01*
X167357500Y-56973300D02*
X170893600Y-53720000D01*
X170893600Y-53720000D02*
X171080000Y-53720000D01*
X171080000Y-53720000D02*
X171530000Y-53720000D01*
X171530000Y-53720000D02*
X172580000Y-53370000D01*
X167357500Y-56973300D02*
X165540700Y-56339900D01*
X165540700Y-56339900D02*
X162419300Y-55740100D01*
X162419300Y-55740100D02*
X155220000Y-52960000D01*
X118364000Y-56896000D02*
X122458600Y-59680000D01*
X122458600Y-59680000D02*
X122645000Y-59680000D01*
X122645000Y-59680000D02*
X123095000Y-59680000D01*
X123095000Y-59680000D02*
X123270000Y-59980000D01*
X123270000Y-59980000D02*
X123445000Y-60280000D01*
X123445000Y-60280000D02*
X123895000Y-60280000D01*
X123895000Y-60280000D02*
X124081400Y-60280000D01*
X124081400Y-60280000D02*
X131457300Y-60452500D01*
X176980000Y-59420000D02*
X175930000Y-59770000D01*
X175930000Y-59770000D02*
X175930000Y-60220000D01*
X175930000Y-60220000D02*
X175930000Y-60406400D01*
X175930000Y-60406400D02*
X172960000Y-67110000D01*
X176480000Y-76790000D02*
X176780000Y-76590000D01*
X176780000Y-76590000D02*
X176780000Y-76140000D01*
X176780000Y-76140000D02*
X176780000Y-75953600D01*
X176780000Y-75953600D02*
X176970100Y-70213700D01*
X176970100Y-70213700D02*
X176970100Y-69086300D01*
X176970100Y-69086300D02*
X176938100Y-69009100D01*
X176938100Y-69009100D02*
X176140900Y-68211900D01*
X176140900Y-68211900D02*
X176063700Y-68179900D01*
X176063700Y-68179900D02*
X172960000Y-67110000D01*
X176980000Y-59420000D02*
X176980000Y-59070000D01*
X176980000Y-59070000D02*
X176980000Y-58620000D01*
X176980000Y-58620000D02*
X176980000Y-54170000D01*
X176980000Y-54170000D02*
X176980000Y-53720000D01*
X176980000Y-53720000D02*
X176980000Y-53370000D01*
D29*
X140265000Y-81825000D02*
X140376200Y-81144900D01*
X140376200Y-81144900D02*
X140453800Y-80855100D01*
X140453800Y-80855100D02*
X140884500Y-80258900D01*
X128554500Y-69838600D02*
X124370000Y-64489700D01*
X124370000Y-64489700D02*
X124194300Y-64314000D01*
X124194300Y-64314000D02*
X124070000Y-64314000D01*
X124070000Y-64314000D02*
X123770000Y-64314000D01*
X123770000Y-64314000D02*
X123320000Y-63964000D01*
X138995000Y-76875000D02*
X139009500Y-76114300D01*
X139009500Y-76114300D02*
X139280900Y-75986600D01*
X139280900Y-75986600D02*
X139979000Y-75986600D01*
X139979000Y-75986600D02*
X140250400Y-76114300D01*
X140250400Y-76114300D02*
X140265000Y-76875000D01*
X138995000Y-76875000D02*
X139106200Y-76194900D01*
X139106200Y-76194900D02*
X139183800Y-75905100D01*
X139183800Y-75905100D02*
X139443300Y-72806900D01*
X138995000Y-81825000D02*
X139106200Y-81144900D01*
X139106200Y-81144900D02*
X139183800Y-80855100D01*
X139183800Y-80855100D02*
X139604900Y-80257600D01*
X138995000Y-81825000D02*
X138995000Y-82500600D01*
X138995000Y-82500600D02*
X138995000Y-82800600D01*
X138995000Y-82800600D02*
X138995000Y-82871200D01*
X138995000Y-82871200D02*
X138843100Y-86800000D01*
X138843100Y-86800000D02*
X138730400Y-87072100D01*
X138730400Y-87072100D02*
X137896400Y-88992000D01*
X137896400Y-88992000D02*
X137859800Y-89080300D01*
X137859800Y-89080300D02*
X137859800Y-90380300D01*
X137859800Y-90380300D02*
X137859800Y-91519700D01*
X137859800Y-91519700D02*
X137896400Y-91608000D01*
X137896400Y-91608000D02*
X138702000Y-92413600D01*
X138702000Y-92413600D02*
X142004700Y-94850000D01*
X142004700Y-94850000D02*
X142129000Y-94850000D01*
X142129000Y-94850000D02*
X142429000Y-94850000D01*
X142429000Y-94850000D02*
X142754000Y-95300000D01*
X138548000Y-98000000D02*
X138898000Y-97900000D01*
X138898000Y-97900000D02*
X139198000Y-97900000D01*
X139198000Y-97900000D02*
X142129000Y-97900000D01*
X142129000Y-97900000D02*
X142429000Y-97900000D01*
X142429000Y-97900000D02*
X142754000Y-97800000D01*
X136455000Y-81825000D02*
X136454200Y-81014500D01*
X136454200Y-81014500D02*
X136155500Y-80986900D01*
X123270000Y-57480000D02*
X122945000Y-57030000D01*
X122945000Y-57030000D02*
X122645000Y-57030000D01*
X122645000Y-57030000D02*
X122520700Y-57030000D01*
X122520700Y-57030000D02*
X118897900Y-55575900D01*
X118897900Y-55575900D02*
X115824000Y-54356000D01*
X132557400Y-60908200D02*
X132557400Y-59996800D01*
X132557400Y-59996800D02*
X131913000Y-59352400D01*
X131913000Y-59352400D02*
X124019300Y-57930000D01*
X124019300Y-57930000D02*
X123895000Y-57930000D01*
X123595000Y-57930000D02*
X123270000Y-57480000D01*
X123895000Y-57930000D02*
X123595000Y-57930000D01*
X132009800Y-64112300D02*
X132557400Y-60908200D01*
X132009800Y-65251700D02*
X132009800Y-64112300D01*
X132867500Y-78625100D02*
X132009800Y-65251700D01*
X133176100Y-79370100D02*
X132867500Y-78625100D01*
X136155500Y-80986900D02*
X135229300Y-80986900D01*
X135229300Y-80986900D02*
X134484300Y-80678300D01*
X134484300Y-80678300D02*
X133176100Y-79370100D01*
X172580000Y-59420000D02*
X171639900Y-59920000D01*
X171639900Y-59920000D02*
X171639900Y-60220000D01*
X171639900Y-60220000D02*
X171639900Y-67643900D01*
X171639900Y-67643900D02*
X171649000Y-67666000D01*
X171649000Y-67666000D02*
X172404000Y-68421000D01*
X172404000Y-68421000D02*
X172426100Y-68430100D01*
X172426100Y-68430100D02*
X175500000Y-69650000D01*
X164544100Y-91832000D02*
X167777600Y-91969900D01*
X167777600Y-91969900D02*
X175319300Y-92771900D01*
X176280000Y-94575000D02*
X175830000Y-94250000D01*
X175830000Y-94250000D02*
X175830000Y-93950000D01*
X175830000Y-93950000D02*
X175830000Y-93825700D01*
X175830000Y-93825700D02*
X175319300Y-92771900D01*
X127700000Y-90300000D02*
X128150000Y-90650000D01*
X128150000Y-90650000D02*
X128450000Y-90650000D01*
X128450000Y-90650000D02*
X128574300Y-90650000D01*
X128574300Y-90650000D02*
X134008600Y-95199900D01*
X134008600Y-95199900D02*
X134360100Y-95551400D01*
X134360100Y-95551400D02*
X137297900Y-98998600D01*
X137297900Y-98998600D02*
X137649400Y-99350100D01*
X137649400Y-99350100D02*
X138949400Y-99350100D01*
X138949400Y-99350100D02*
X139446600Y-99350100D01*
X139446600Y-99350100D02*
X147803600Y-99150100D01*
X147803600Y-99150100D02*
X160628600Y-96910100D01*
X160628600Y-96910100D02*
X161535800Y-96208700D01*
X161535800Y-96208700D02*
X162180200Y-95564300D01*
X162180200Y-95564300D02*
X164544100Y-91832000D01*
X164544100Y-91832000D02*
X163346300Y-89608900D01*
X163346300Y-89608900D02*
X161570000Y-83141200D01*
X161570000Y-83141200D02*
X161570000Y-83070600D01*
X161570000Y-83070600D02*
X161570000Y-82770600D01*
X161570000Y-82770600D02*
X161570000Y-82095000D01*
X176480000Y-91030000D02*
X176030000Y-91380000D01*
X176030000Y-91380000D02*
X176030000Y-91680000D01*
X176030000Y-91680000D02*
X176030000Y-91804300D01*
X176030000Y-91804300D02*
X175319300Y-92771900D01*
X113270000Y-79790000D02*
X113770000Y-79790000D01*
X113770000Y-79790000D02*
X114070000Y-79790000D01*
X114070000Y-79790000D02*
X114604800Y-79790000D01*
X114604800Y-79790000D02*
X114628700Y-79780100D01*
X114628700Y-79780100D02*
X116227200Y-79013300D01*
X116227200Y-79013300D02*
X116646300Y-78839700D01*
X116646300Y-78839700D02*
X118734500Y-78100400D01*
X118734500Y-78100400D02*
X118910500Y-77924400D01*
X118910500Y-77924400D02*
X119069800Y-77546300D01*
X119069800Y-77546300D02*
X120179700Y-76176500D01*
X113270000Y-80590000D02*
X113770000Y-80590000D01*
X113770000Y-80590000D02*
X114070000Y-80590000D01*
X114070000Y-80590000D02*
X114818700Y-80590000D01*
X114818700Y-80590000D02*
X115237700Y-80416400D01*
X115237700Y-80416400D02*
X116737000Y-79776400D01*
X116737000Y-79776400D02*
X116825300Y-79739800D01*
X116825300Y-79739800D02*
X119107300Y-79000500D01*
X119107300Y-79000500D02*
X119356100Y-78751800D01*
X119356100Y-78751800D02*
X120169900Y-78002000D01*
X126980000Y-52730000D02*
X129121700Y-55289600D01*
X138910000Y-52930000D02*
X138460000Y-53255000D01*
X138460000Y-53255000D02*
X138160000Y-53255000D01*
X138160000Y-53255000D02*
X138035700Y-53255000D01*
X138035700Y-53255000D02*
X135698600Y-54180100D01*
X135698600Y-54180100D02*
X129121700Y-55289600D01*
X161570000Y-77145000D02*
X161570000Y-76469400D01*
X161570000Y-76469400D02*
X161570000Y-76169400D01*
X161570000Y-76169400D02*
X161570000Y-76098800D01*
X161570000Y-76098800D02*
X164316700Y-72493700D01*
X164316700Y-72493700D02*
X172426100Y-73510100D01*
X172426100Y-73510100D02*
X173493900Y-73510100D01*
X173493900Y-73510100D02*
X173516000Y-73501000D01*
X173516000Y-73501000D02*
X174271000Y-72746000D01*
X174271000Y-72746000D02*
X174280100Y-72723900D01*
X174280100Y-72723900D02*
X174280100Y-71656100D01*
X174280100Y-71656100D02*
X174271000Y-71634000D01*
X174271000Y-71634000D02*
X170886000Y-68175800D01*
X170886000Y-68175800D02*
X170739800Y-67822900D01*
X170739800Y-67822900D02*
X170479900Y-60468600D01*
X170479900Y-60468600D02*
X170479900Y-59971400D01*
X170479900Y-59971400D02*
X170479900Y-58371400D01*
X170479900Y-58371400D02*
X170831400Y-58019900D01*
X170831400Y-58019900D02*
X174328600Y-54770100D01*
X174328600Y-54770100D02*
X174680100Y-54418600D01*
X174680100Y-54418600D02*
X174879900Y-52321400D01*
X174879900Y-52321400D02*
X175231400Y-51969900D01*
X175231400Y-51969900D02*
X175728600Y-51969900D01*
X175728600Y-51969900D02*
X178728600Y-51969900D01*
X178728600Y-51969900D02*
X179080100Y-52321400D01*
X179080100Y-52321400D02*
X179080100Y-59971400D01*
X179080100Y-59971400D02*
X179080100Y-60468600D01*
X179080100Y-60468600D02*
X177830100Y-77688600D01*
X177830100Y-77688600D02*
X177478600Y-78040100D01*
X177478600Y-78040100D02*
X175481500Y-79115000D01*
X175481500Y-79115000D02*
X175130000Y-79466500D01*
X175130000Y-79466500D02*
X175130000Y-81263500D01*
X175130000Y-81263500D02*
X174778500Y-81615000D01*
X174778500Y-81615000D02*
X172781400Y-82684900D01*
X172781400Y-82684900D02*
X171869100Y-83281000D01*
X171869100Y-83281000D02*
X171224700Y-83925400D01*
X171224700Y-83925400D02*
X171224700Y-84836800D01*
X171224700Y-84836800D02*
X171869100Y-85481200D01*
X171869100Y-85481200D02*
X175794300Y-86700000D01*
X175794300Y-86700000D02*
X175970000Y-86875700D01*
X175970000Y-86875700D02*
X175970000Y-87000000D01*
X175970000Y-87000000D02*
X175970000Y-87300000D01*
X175970000Y-87300000D02*
X176420000Y-87650000D01*
X160490000Y-64002000D02*
X160940000Y-64327000D01*
X160940000Y-64327000D02*
X160940000Y-64627000D01*
X160940000Y-64627000D02*
X160940000Y-64751300D01*
X160940000Y-64751300D02*
X164316700Y-72493700D01*
D30*
X129135500Y-96930000D02*
X129349000Y-96790000D01*
X129349000Y-96790000D02*
X129849000Y-96790000D01*
X129849000Y-96790000D02*
X132060000Y-96790000D01*
X132060000Y-96790000D02*
X132560000Y-96790000D01*
X132560000Y-96790000D02*
X132910000Y-96650000D01*
X95530000Y-80480000D02*
X95680000Y-80730000D01*
X95680000Y-80730000D02*
X95680000Y-81230000D01*
X95680000Y-81230000D02*
X95680000Y-81437100D01*
X95680000Y-81437100D02*
X106050000Y-92300000D01*
X173780000Y-83910000D02*
X173530000Y-84035000D01*
X173530000Y-84035000D02*
X173030000Y-84035000D01*
X173030000Y-84035000D02*
X172822900Y-84035000D01*
X172822900Y-84035000D02*
X172324800Y-84381100D01*
D29*
X113270000Y-78990000D02*
X113770000Y-78990000D01*
X113770000Y-78990000D02*
X114070000Y-78990000D01*
X114070000Y-78990000D02*
X114287500Y-78990000D01*
X114287500Y-78990000D02*
X114595000Y-78682500D01*
X114595000Y-78682500D02*
X114870100Y-77930000D01*
D30*
X153230000Y-95510000D02*
X151980000Y-95263000D01*
X151980000Y-95263000D02*
X151480000Y-95263000D01*
X151480000Y-95263000D02*
X150779900Y-95263000D01*
X91870000Y-51910000D02*
X92220000Y-52260000D01*
X92220000Y-52260000D02*
X92720000Y-52260000D01*
X92720000Y-52260000D02*
X92927100Y-52260000D01*
X92927100Y-52260000D02*
X100542600Y-57202400D01*
D29*
X113270000Y-77390000D02*
X113770000Y-77390000D01*
X113770000Y-77390000D02*
X114070000Y-77390000D01*
X114070000Y-77390000D02*
X114287500Y-77390000D01*
X114287500Y-77390000D02*
X114870100Y-77930000D01*
X121770000Y-78190000D02*
X122270000Y-78190000D01*
X122270000Y-78190000D02*
X122570000Y-78190000D01*
X122570000Y-78190000D02*
X123109900Y-78190000D01*
X123109900Y-78190000D02*
X123143200Y-78176200D01*
X123143200Y-78176200D02*
X124211300Y-77591100D01*
X124211300Y-77591100D02*
X125157600Y-76644800D01*
X125157600Y-76644800D02*
X125270300Y-76372700D01*
X125270300Y-76372700D02*
X125270300Y-75034500D01*
X125270300Y-75034500D02*
X125060900Y-74099900D01*
X125060900Y-74099900D02*
X124200500Y-71102500D01*
X124200500Y-71102500D02*
X123889900Y-70352600D01*
X123889900Y-70352600D02*
X122577800Y-69040500D01*
X122577800Y-69040500D02*
X116166800Y-65150100D01*
X116166800Y-65150100D02*
X116152500Y-65150100D01*
X116152500Y-65150100D02*
X115245700Y-64925000D01*
X115245700Y-64925000D02*
X115070000Y-64749300D01*
X115070000Y-64749300D02*
X115070000Y-64625000D01*
X115070000Y-64625000D02*
X115070000Y-64325000D01*
X115070000Y-64325000D02*
X114620000Y-64000000D01*
X102400000Y-64190000D02*
X104190100Y-57429900D01*
X104190100Y-57429900D02*
X104190100Y-56362100D01*
X104190100Y-56362100D02*
X104089900Y-54889900D01*
X104089900Y-54889900D02*
X104089900Y-53822100D01*
X104089900Y-53822100D02*
X104099000Y-53800000D01*
X104099000Y-53800000D02*
X104854000Y-53045000D01*
X104854000Y-53045000D02*
X104876100Y-53035900D01*
X104876100Y-53035900D02*
X123880300Y-51279900D01*
X123880300Y-51279900D02*
X124999700Y-51279900D01*
X124999700Y-51279900D02*
X130079700Y-51279900D01*
X130079700Y-51279900D02*
X130149600Y-51308800D01*
X130149600Y-51308800D02*
X132060000Y-52730000D01*
X108422500Y-84311200D02*
X110195100Y-85431700D01*
X110195100Y-85431700D02*
X112296400Y-86609000D01*
X112296400Y-86609000D02*
X113299200Y-87024300D01*
X113299200Y-87024300D02*
X113380400Y-87040500D01*
X113380400Y-87040500D02*
X116248700Y-87289500D01*
X116248700Y-87289500D02*
X117945100Y-87289500D01*
X117945100Y-87289500D02*
X119394000Y-87002100D01*
X119394000Y-87002100D02*
X119996900Y-86752400D01*
X119996900Y-86752400D02*
X121196400Y-85552900D01*
X121196400Y-85552900D02*
X121446100Y-84950000D01*
X121446100Y-84950000D02*
X121446100Y-83253600D01*
X121446100Y-83253600D02*
X121442000Y-82125400D01*
X121442000Y-82125400D02*
X121442000Y-80865000D01*
X121442000Y-80865000D02*
X121442000Y-80565000D01*
X121442000Y-80565000D02*
X121770000Y-80590000D01*
X121770000Y-79790000D02*
X122270000Y-79790000D01*
X122270000Y-79790000D02*
X122570000Y-79790000D01*
X122570000Y-79790000D02*
X122787500Y-79790000D01*
X122787500Y-79790000D02*
X123095000Y-80097500D01*
X123095000Y-80097500D02*
X123320100Y-80556900D01*
D31*
X126160500Y-96930000D02*
X125838400Y-95997400D01*
X125838400Y-95997400D02*
X125521200Y-95678200D01*
X125521200Y-95678200D02*
X125507600Y-95664600D01*
X125507600Y-95664600D02*
X123499900Y-91260700D01*
X123499900Y-91260700D02*
X123499900Y-90639300D01*
X123499900Y-90639300D02*
X123499900Y-89339300D01*
X123499900Y-89339300D02*
X123779900Y-82192600D01*
X123779900Y-82192600D02*
X123779900Y-81157000D01*
X123779900Y-81157000D02*
X123320100Y-80556900D01*
X106266500Y-80593300D02*
X105871200Y-81680900D01*
X105871200Y-81680900D02*
X105871200Y-82716500D01*
X105871200Y-82716500D02*
X105996900Y-83710100D01*
X105996900Y-83710100D02*
X107520100Y-91736300D01*
X107520100Y-91736300D02*
X107520100Y-92863700D01*
X107520100Y-92863700D02*
X107488100Y-92940900D01*
X107488100Y-92940900D02*
X104611900Y-96739100D01*
X104611900Y-96739100D02*
X104579900Y-96816300D01*
X104579900Y-96816300D02*
X104579900Y-97943700D01*
X104579900Y-97943700D02*
X104611900Y-98020900D01*
X104611900Y-98020900D02*
X105409100Y-98818100D01*
X105409100Y-98818100D02*
X105486300Y-98850100D01*
X105486300Y-98850100D02*
X106613700Y-98850100D01*
X106613700Y-98850100D02*
X114320700Y-98795100D01*
X114320700Y-98795100D02*
X115196400Y-98495000D01*
X115196400Y-98495000D02*
X115460000Y-98231400D01*
X115460000Y-98231400D02*
X115460000Y-98045000D01*
X115460000Y-98045000D02*
X115460000Y-97595000D01*
X115460000Y-97595000D02*
X115760000Y-97420000D01*
X126160500Y-96930000D02*
X125897000Y-97555000D01*
X125897000Y-97555000D02*
X125447000Y-97555000D01*
X125447000Y-97555000D02*
X125246400Y-97555000D01*
X125246400Y-97555000D02*
X121600700Y-98120100D01*
X121600700Y-98120100D02*
X120979300Y-98120100D01*
X120979300Y-98120100D02*
X119279300Y-98120100D01*
X119279300Y-98120100D02*
X116696400Y-97595000D01*
X116696400Y-97595000D02*
X116510000Y-97595000D01*
X116510000Y-97595000D02*
X116060000Y-97595000D01*
X116060000Y-97595000D02*
X115760000Y-97420000D01*
D29*
X140400000Y-64032000D02*
X139950000Y-64382000D01*
X139950000Y-64382000D02*
X139650000Y-64382000D01*
X139650000Y-64382000D02*
X139525700Y-64382000D01*
X139525700Y-64382000D02*
X137814400Y-65482100D01*
X115760000Y-94550000D02*
X115310000Y-94225000D01*
X115310000Y-94225000D02*
X115310000Y-93925000D01*
X115310000Y-93925000D02*
X115310000Y-93800700D01*
X115310000Y-93800700D02*
X114610000Y-91508500D01*
X114610000Y-91508500D02*
X114610000Y-91011500D01*
X114610000Y-91011500D02*
X114610000Y-89711500D01*
X114610000Y-89711500D02*
X114961500Y-89360000D01*
X114961500Y-89360000D02*
X119574900Y-87901400D01*
X119574900Y-87901400D02*
X120504800Y-87516200D01*
X120504800Y-87516200D02*
X120508200Y-87514000D01*
X120508200Y-87514000D02*
X121958000Y-86064200D01*
X121958000Y-86064200D02*
X121960200Y-86060800D01*
X121960200Y-86060800D02*
X122345400Y-85130900D01*
X122345400Y-85130900D02*
X122346200Y-85127000D01*
X122346200Y-85127000D02*
X122529800Y-81674800D01*
X121770000Y-75790000D02*
X122270000Y-75790000D01*
X122270000Y-75790000D02*
X122570000Y-75790000D01*
X122570000Y-75790000D02*
X122683900Y-75790000D01*
X122683900Y-75790000D02*
X123270100Y-75703600D01*
X141535000Y-81825000D02*
X141535000Y-82500600D01*
X141535000Y-82500600D02*
X141535000Y-82800600D01*
X141535000Y-82800600D02*
X141535000Y-82873100D01*
X141535000Y-82873100D02*
X138759900Y-89401400D01*
X138759900Y-89401400D02*
X138759900Y-90701400D01*
X138759900Y-90701400D02*
X138759900Y-91198600D01*
X138759900Y-91198600D02*
X139111400Y-91550100D01*
X139111400Y-91550100D02*
X143627600Y-93949900D01*
X143627600Y-93949900D02*
X143979100Y-94301400D01*
X143979100Y-94301400D02*
X146005000Y-97174300D01*
X146005000Y-97174300D02*
X146180700Y-97350000D01*
X146180700Y-97350000D02*
X146305000Y-97350000D01*
X146305000Y-97350000D02*
X146605000Y-97350000D01*
X146605000Y-97350000D02*
X146930000Y-97800000D01*
X115960000Y-90610000D02*
X116410000Y-90960000D01*
X116410000Y-90960000D02*
X116410000Y-91260000D01*
X116410000Y-91260000D02*
X116410000Y-91384300D01*
X116410000Y-91384300D02*
X119890000Y-95545700D01*
X119890000Y-95545700D02*
X119890000Y-95670000D01*
X119890000Y-95670000D02*
X119890000Y-95970000D01*
X119890000Y-95970000D02*
X120440000Y-96520000D01*
X142805000Y-76875000D02*
X142890700Y-76185400D01*
X142890700Y-76185400D02*
X143018400Y-75914000D01*
X143018400Y-75914000D02*
X143238800Y-75678500D01*
X143238800Y-75678500D02*
X143590300Y-75327000D01*
X143590300Y-75327000D02*
X143601100Y-75319500D01*
X143601100Y-75319500D02*
X143613000Y-75313900D01*
X143613000Y-75313900D02*
X143624900Y-75308400D01*
X143624900Y-75308400D02*
X143878400Y-75227000D01*
X143878400Y-75227000D02*
X144537000Y-74568600D01*
X144537000Y-74568600D02*
X148024300Y-71794000D01*
X148024300Y-71794000D02*
X148200000Y-71618300D01*
X148200000Y-71618300D02*
X148200000Y-71494000D01*
X148200000Y-71494000D02*
X148200000Y-71194000D01*
X148200000Y-71194000D02*
X148650000Y-70844000D01*
X151400000Y-75780000D02*
X150850000Y-75230000D01*
X150850000Y-75230000D02*
X150850000Y-74930000D01*
X150850000Y-74930000D02*
X150850000Y-74805700D01*
X150850000Y-74805700D02*
X149100000Y-71618300D01*
X149100000Y-71618300D02*
X149100000Y-71494000D01*
X149100000Y-71494000D02*
X149100000Y-71194000D01*
X149100000Y-71194000D02*
X148650000Y-70844000D01*
X152050000Y-64032000D02*
X151600000Y-64382000D01*
X151600000Y-64382000D02*
X151600000Y-64682000D01*
X151600000Y-64682000D02*
X151600000Y-64806300D01*
X151600000Y-64806300D02*
X151510200Y-65291500D01*
X151510200Y-65291500D02*
X151443200Y-65453300D01*
X151443200Y-65453300D02*
X149100000Y-70069700D01*
X149100000Y-70069700D02*
X149100000Y-70194000D01*
X149100000Y-70194000D02*
X149100000Y-70494000D01*
X149100000Y-70494000D02*
X148650000Y-70844000D01*
X134960000Y-90300000D02*
X135410000Y-89950000D01*
X135410000Y-89950000D02*
X135410000Y-89650000D01*
X135410000Y-89650000D02*
X135410000Y-89525700D01*
X135410000Y-89525700D02*
X136842900Y-86130900D01*
X145345000Y-81825000D02*
X145345600Y-81300000D01*
X145345600Y-81300000D02*
X145645600Y-81300000D01*
X145645600Y-81300000D02*
X145769900Y-81300000D01*
X145769900Y-81300000D02*
X150515700Y-81210000D01*
X150515700Y-81210000D02*
X150640000Y-81210000D01*
X150640000Y-81210000D02*
X150940000Y-81210000D01*
X150940000Y-81210000D02*
X151490000Y-80660000D01*
X151700000Y-70844000D02*
X152150000Y-71194000D01*
X152150000Y-71194000D02*
X152150000Y-71494000D01*
X152150000Y-71494000D02*
X152150000Y-71618300D01*
X152150000Y-71618300D02*
X152850100Y-74681400D01*
X152850100Y-74681400D02*
X153023600Y-75896500D01*
X91870000Y-59530000D02*
X93291200Y-61440400D01*
X93291200Y-61440400D02*
X97675800Y-67869500D01*
X97675800Y-67869500D02*
X98720500Y-68914200D01*
X98720500Y-68914200D02*
X99121200Y-69080200D01*
X99121200Y-69080200D02*
X114602000Y-71363400D01*
X114602000Y-71363400D02*
X115265100Y-71363400D01*
X115265100Y-71363400D02*
X115529800Y-71415000D01*
X115529800Y-71415000D02*
X115553700Y-71424900D01*
X115553700Y-71424900D02*
X116310100Y-72181300D01*
X116310100Y-72181300D02*
X116320000Y-72205200D01*
X116320000Y-72205200D02*
X116320000Y-72740000D01*
X116320000Y-72740000D02*
X116320000Y-73040000D01*
X116320000Y-73040000D02*
X116320000Y-73540000D01*
X91870000Y-62070000D02*
X96912700Y-68379300D01*
X96912700Y-68379300D02*
X98210700Y-69677300D01*
X98210700Y-69677300D02*
X98942200Y-69980300D01*
X98942200Y-69980300D02*
X114435300Y-72201700D01*
X114435300Y-72201700D02*
X114943000Y-72201700D01*
X114943000Y-72201700D02*
X115212500Y-72215000D01*
X115212500Y-72215000D02*
X115520000Y-72522500D01*
X115520000Y-72522500D02*
X115520000Y-72740000D01*
X115520000Y-72740000D02*
X115520000Y-73040000D01*
X115520000Y-73040000D02*
X115520000Y-73540000D01*
X91870000Y-64610000D02*
X97674500Y-70414100D01*
X97674500Y-70414100D02*
X97735200Y-70454600D01*
X97735200Y-70454600D02*
X98728800Y-70866200D01*
X98728800Y-70866200D02*
X98800400Y-70880400D01*
X98800400Y-70880400D02*
X114268500Y-73040000D01*
X114268500Y-73040000D02*
X114445000Y-73040000D01*
X114445000Y-73040000D02*
X114745000Y-73040000D01*
X114745000Y-73040000D02*
X114720000Y-73540000D01*
X91870000Y-67150000D02*
X97100700Y-71113200D01*
X97100700Y-71113200D02*
X97308800Y-71252300D01*
X97308800Y-71252300D02*
X98466200Y-71731700D01*
X98466200Y-71731700D02*
X112241900Y-75790000D01*
X112241900Y-75790000D02*
X112470000Y-75790000D01*
X112470000Y-75790000D02*
X112770000Y-75790000D01*
X112770000Y-75790000D02*
X113270000Y-75790000D01*
X91870000Y-69690000D02*
X102552500Y-75946100D01*
X102552500Y-75946100D02*
X107114700Y-77693000D01*
X107114700Y-77693000D02*
X107717600Y-77942700D01*
X107717600Y-77942700D02*
X110109500Y-79598900D01*
X110109500Y-79598900D02*
X110957700Y-80201000D01*
X110957700Y-80201000D02*
X112221600Y-81464800D01*
X112221600Y-81464800D02*
X114320700Y-81540000D01*
X114320700Y-81540000D02*
X114445000Y-81540000D01*
X114445000Y-81540000D02*
X114745000Y-81540000D01*
X114745000Y-81540000D02*
X114720000Y-82040000D01*
X91870000Y-72230000D02*
X102067000Y-76733500D01*
X102067000Y-76733500D02*
X102339100Y-76846200D01*
X102339100Y-76846200D02*
X106935600Y-78593100D01*
X106935600Y-78593100D02*
X107207700Y-78705800D01*
X107207700Y-78705800D02*
X110384100Y-80899900D01*
X110384100Y-80899900D02*
X111812400Y-82328100D01*
X111812400Y-82328100D02*
X114196400Y-83440100D01*
X114196400Y-83440100D02*
X114471400Y-83440100D01*
X114471400Y-83440100D02*
X114968600Y-83440100D01*
X114968600Y-83440100D02*
X115212500Y-83365000D01*
X115212500Y-83365000D02*
X115520000Y-83057500D01*
X115520000Y-83057500D02*
X115520000Y-82840000D01*
X115520000Y-82840000D02*
X115520000Y-82540000D01*
X115520000Y-82540000D02*
X115520000Y-82040000D01*
X91870000Y-74770000D02*
X106722200Y-79493200D01*
X106722200Y-79493200D02*
X109873100Y-81661400D01*
X109873100Y-81661400D02*
X111302700Y-83090900D01*
X111302700Y-83090900D02*
X113787000Y-84303600D01*
X113787000Y-84303600D02*
X113875300Y-84340200D01*
X113875300Y-84340200D02*
X114150300Y-84340200D01*
X114150300Y-84340200D02*
X115289700Y-84340200D01*
X115289700Y-84340200D02*
X115378000Y-84303600D01*
X115378000Y-84303600D02*
X115553700Y-84155100D01*
X115553700Y-84155100D02*
X116310100Y-83398700D01*
X116310100Y-83398700D02*
X116320000Y-83374800D01*
X116320000Y-83374800D02*
X116320000Y-82840000D01*
X116320000Y-82840000D02*
X116320000Y-82540000D01*
X116320000Y-82540000D02*
X116320000Y-82040000D01*
X91870000Y-77310000D02*
X94755700Y-77330000D01*
X94755700Y-77330000D02*
X94880000Y-77330000D01*
X94880000Y-77330000D02*
X95180000Y-77330000D01*
X95180000Y-77330000D02*
X95530000Y-77780000D01*
X119520000Y-73540000D02*
X119520000Y-73040000D01*
X119520000Y-73040000D02*
X119520000Y-72740000D01*
X119520000Y-72740000D02*
X119520000Y-72511900D01*
X119520000Y-72511900D02*
X118194800Y-71089000D01*
X118194800Y-71089000D02*
X116896000Y-69790200D01*
X116896000Y-69790200D02*
X116163400Y-69486800D01*
X116163400Y-69486800D02*
X115246600Y-69486800D01*
X108147100Y-83011100D02*
X108878100Y-83211400D01*
X108878100Y-83211400D02*
X110253500Y-84586800D01*
X110253500Y-84586800D02*
X110322200Y-84632700D01*
X110322200Y-84632700D02*
X112767300Y-85829800D01*
X112767300Y-85829800D02*
X113517200Y-86140400D01*
X113517200Y-86140400D02*
X116427800Y-86389400D01*
X116427800Y-86389400D02*
X117766000Y-86389400D01*
X117766000Y-86389400D02*
X119180600Y-85929300D01*
X119180600Y-85929300D02*
X119389200Y-85842900D01*
X119389200Y-85842900D02*
X120286900Y-84945200D01*
X120286900Y-84945200D02*
X120373300Y-84736600D01*
X120373300Y-84736600D02*
X120373300Y-83467000D01*
X120373300Y-83467000D02*
X120320000Y-82953900D01*
X120320000Y-82953900D02*
X120320000Y-82840000D01*
X120320000Y-82840000D02*
X120320000Y-82540000D01*
X120320000Y-82540000D02*
X120320000Y-82040000D01*
X119520000Y-82040000D02*
X119520000Y-82540000D01*
X119520000Y-82540000D02*
X119520000Y-82840000D01*
X119520000Y-82840000D02*
X119520000Y-83285300D01*
X119520000Y-83285300D02*
X119559500Y-83681900D01*
X119559500Y-83681900D02*
X119559500Y-84521700D01*
X119559500Y-84521700D02*
X118965700Y-85115500D01*
X118965700Y-85115500D02*
X117552600Y-85489300D01*
X117552600Y-85489300D02*
X116641200Y-85489300D01*
X116641200Y-85489300D02*
X113696300Y-85240300D01*
X113696300Y-85240300D02*
X113277200Y-85066700D01*
X113277200Y-85066700D02*
X110793000Y-83853800D01*
X110793000Y-83853800D02*
X109363400Y-82424200D01*
X109363400Y-82424200D02*
X108602800Y-81911000D01*
X108602800Y-81911000D02*
X107691400Y-81911000D01*
X107691400Y-81911000D02*
X107121300Y-82198700D01*
X107121300Y-82198700D02*
X107047000Y-82555400D01*
X107047000Y-82555400D02*
X107047000Y-83466800D01*
X107047000Y-83466800D02*
X107322400Y-84766900D01*
X107322400Y-84766900D02*
X107966800Y-85411300D01*
X107966800Y-85411300D02*
X112634300Y-89660000D01*
X112634300Y-89660000D02*
X112810000Y-89835700D01*
X112810000Y-89835700D02*
X112810000Y-89960000D01*
X112810000Y-89960000D02*
X112810000Y-90260000D01*
X112810000Y-90260000D02*
X113260000Y-90610000D01*
X99860000Y-64190000D02*
X98438800Y-66100400D01*
X98438800Y-66100400D02*
X98409900Y-66170300D01*
X98409900Y-66170300D02*
X98409900Y-67289700D01*
X98409900Y-67289700D02*
X98438800Y-67359600D01*
X98438800Y-67359600D02*
X99230400Y-68151200D01*
X99230400Y-68151200D02*
X99300300Y-68180100D01*
X99300300Y-68180100D02*
X114816500Y-70525100D01*
X114816500Y-70525100D02*
X115431900Y-70525100D01*
X115431900Y-70525100D02*
X115689000Y-70615000D01*
X115689000Y-70615000D02*
X116006900Y-70746700D01*
X116006900Y-70746700D02*
X116988300Y-71728100D01*
X116988300Y-71728100D02*
X117120000Y-72046000D01*
X117120000Y-72046000D02*
X117120000Y-72740000D01*
X117120000Y-72740000D02*
X117120000Y-73040000D01*
X117120000Y-73040000D02*
X117120000Y-73540000D01*
X173780000Y-76790000D02*
X173330000Y-77140000D01*
X173330000Y-77140000D02*
X173030000Y-77140000D01*
X173030000Y-77140000D02*
X172905700Y-77140000D01*
X172905700Y-77140000D02*
X164881200Y-79611700D01*
X164881200Y-79611700D02*
X164855800Y-79618500D01*
X164855800Y-79618500D02*
X164829700Y-79620800D01*
X164829700Y-79620800D02*
X164462400Y-79632600D01*
X164462400Y-79632600D02*
X162939300Y-80338200D01*
X162939300Y-80338200D02*
X162520200Y-80511800D01*
X162520200Y-80511800D02*
X162494800Y-80518600D01*
X162494800Y-80518600D02*
X162481700Y-80519400D01*
X162481700Y-80519400D02*
X162468500Y-80519700D01*
X162468500Y-80519700D02*
X159901600Y-80519700D01*
X159901600Y-80519700D02*
X159888400Y-80520500D01*
X159888400Y-80520500D02*
X159875300Y-80521600D01*
X159875300Y-80521600D02*
X159849900Y-80528400D01*
X159849900Y-80528400D02*
X159838000Y-80533900D01*
X159838000Y-80533900D02*
X159233000Y-81109000D01*
X159233000Y-81109000D02*
X159226200Y-81115800D01*
X159226200Y-81115800D02*
X159218800Y-81123200D01*
X159218800Y-81123200D02*
X159218800Y-81125100D01*
X159218800Y-81125100D02*
X159141200Y-81414900D01*
X159141200Y-81414900D02*
X159030000Y-82095000D01*
X149600000Y-90300000D02*
X150050000Y-89950000D01*
X150050000Y-89950000D02*
X150050000Y-89650000D01*
X150050000Y-89650000D02*
X150050000Y-89525700D01*
X150050000Y-89525700D02*
X150059900Y-84441400D01*
X150059900Y-84441400D02*
X150411400Y-84089900D01*
X150411400Y-84089900D02*
X158038600Y-83674200D01*
X158038600Y-83674200D02*
X158158600Y-83670700D01*
X158158600Y-83670700D02*
X158184700Y-83668400D01*
X158184700Y-83668400D02*
X158210100Y-83661600D01*
X158210100Y-83661600D02*
X158233900Y-83650500D01*
X158233900Y-83650500D02*
X158244600Y-83642900D01*
X158244600Y-83642900D02*
X158596100Y-83291400D01*
X158596100Y-83291400D02*
X158816600Y-83055900D01*
X158816600Y-83055900D02*
X158942500Y-82783600D01*
X158942500Y-82783600D02*
X159030000Y-82095000D01*
X173780000Y-80365000D02*
X174230000Y-80015000D01*
X174230000Y-80015000D02*
X174230000Y-79715000D01*
X174230000Y-79715000D02*
X174230000Y-79145400D01*
X174230000Y-79145400D02*
X174266500Y-79057100D01*
X174266500Y-79057100D02*
X175130000Y-77688500D01*
X175130000Y-77688500D02*
X175130000Y-77191500D01*
X175130000Y-77191500D02*
X175130000Y-75891500D01*
X175130000Y-75891500D02*
X174778500Y-75540000D01*
X174778500Y-75540000D02*
X174478600Y-75539900D01*
X174478600Y-75539900D02*
X173278600Y-75539900D01*
X173278600Y-75539900D02*
X172781400Y-75539900D01*
X172781400Y-75539900D02*
X164560100Y-78711600D01*
X164560100Y-78711600D02*
X164534700Y-78718400D01*
X164534700Y-78718400D02*
X164248700Y-78744200D01*
X164248700Y-78744200D02*
X163985300Y-78853300D01*
X163985300Y-78853300D02*
X162429500Y-79575100D01*
X162429500Y-79575100D02*
X162341200Y-79611700D01*
X162341200Y-79611700D02*
X162315800Y-79618500D01*
X162315800Y-79618500D02*
X162302600Y-79619400D01*
X162302600Y-79619400D02*
X162289500Y-79620000D01*
X162289500Y-79620000D02*
X159580500Y-79620000D01*
X159580500Y-79620000D02*
X159567300Y-79620500D01*
X159567300Y-79620500D02*
X159554200Y-79621500D01*
X159554200Y-79621500D02*
X159528800Y-79628300D01*
X159528800Y-79628300D02*
X159440500Y-79664900D01*
X159440500Y-79664900D02*
X157963000Y-81109000D01*
X157963000Y-81109000D02*
X157956200Y-81115800D01*
X157956200Y-81115800D02*
X157948800Y-81123200D01*
X157948800Y-81123200D02*
X157948800Y-81125100D01*
X157948800Y-81125100D02*
X157871200Y-81414900D01*
X157871200Y-81414900D02*
X157760000Y-82095000D01*
X142490900Y-67251500D02*
X140756100Y-67420400D01*
X140756100Y-67420400D02*
X140410500Y-67563500D01*
X140410500Y-67563500D02*
X139407900Y-68566100D01*
X139407900Y-68566100D02*
X138799900Y-69945400D01*
X138799900Y-69945400D02*
X138343200Y-72351200D01*
X138343200Y-72351200D02*
X137888000Y-75376900D01*
X137888000Y-75376900D02*
X137888000Y-75900500D01*
X137888000Y-75900500D02*
X137860600Y-76199200D01*
X137860600Y-76199200D02*
X137725000Y-76875000D01*
X138548000Y-95300000D02*
X138198000Y-94850000D01*
X138198000Y-94850000D02*
X138198000Y-94550000D01*
X138198000Y-94550000D02*
X138198000Y-94425700D01*
X138198000Y-94425700D02*
X137133300Y-92117800D01*
X137133300Y-92117800D02*
X136959700Y-91698700D01*
X136959700Y-91698700D02*
X136959700Y-90201300D01*
X136959700Y-90201300D02*
X136959700Y-88901300D01*
X136959700Y-88901300D02*
X137133300Y-88482200D01*
X137133300Y-88482200D02*
X137943000Y-86586600D01*
X137943000Y-86586600D02*
X137943000Y-85675200D01*
X137943000Y-85675200D02*
X137725000Y-83357200D01*
X137725000Y-83357200D02*
X137725000Y-82800600D01*
X137725000Y-82800600D02*
X137725000Y-82500600D01*
X137725000Y-82500600D02*
X137725000Y-81825000D01*
X134260000Y-64032000D02*
X133810000Y-64382000D01*
X133810000Y-64382000D02*
X133510000Y-64382000D01*
X133510000Y-64382000D02*
X133385700Y-64382000D01*
X133385700Y-64382000D02*
X133210000Y-64557700D01*
X133210000Y-64557700D02*
X133209900Y-64930600D01*
X133209900Y-64930600D02*
X133754100Y-78448700D01*
X133754100Y-78448700D02*
X133755200Y-78461700D01*
X133755200Y-78461700D02*
X133756400Y-78474800D01*
X133756400Y-78474800D02*
X133763200Y-78500200D01*
X133763200Y-78500200D02*
X133936800Y-78919300D01*
X133936800Y-78919300D02*
X133942300Y-78931200D01*
X133942300Y-78931200D02*
X133947900Y-78943100D01*
X133947900Y-78943100D02*
X133955400Y-78953800D01*
X133955400Y-78953800D02*
X133963000Y-78964600D01*
X133963000Y-78964600D02*
X133981500Y-78983100D01*
X133981500Y-78983100D02*
X135040400Y-80042000D01*
X135040400Y-80042000D02*
X135061900Y-80057100D01*
X135061900Y-80057100D02*
X135085700Y-80068200D01*
X135085700Y-80068200D02*
X135504800Y-80241800D01*
X135504800Y-80241800D02*
X135530200Y-80248600D01*
X135530200Y-80248600D02*
X135543200Y-80249700D01*
X135543200Y-80249700D02*
X136853400Y-80249700D01*
X136853400Y-80249700D02*
X136866500Y-80250500D01*
X136866500Y-80250500D02*
X136879700Y-80251600D01*
X136879700Y-80251600D02*
X136905100Y-80258400D01*
X136905100Y-80258400D02*
X136917000Y-80263900D01*
X136917000Y-80263900D02*
X137522000Y-80839000D01*
X137522000Y-80839000D02*
X137528800Y-80845800D01*
X137528800Y-80845800D02*
X137536200Y-80853200D01*
X137536200Y-80853200D02*
X137536200Y-80855100D01*
X137536200Y-80855100D02*
X137613800Y-81144900D01*
X137613800Y-81144900D02*
X137725000Y-81825000D01*
X146900000Y-90300000D02*
X146450000Y-89950000D01*
X146450000Y-89950000D02*
X146150000Y-89950000D01*
X146150000Y-89950000D02*
X146025700Y-89950000D01*
X146025700Y-89950000D02*
X144394800Y-89767300D01*
X164913200Y-80721000D02*
X164382800Y-81183900D01*
X164382800Y-81183900D02*
X164137500Y-81356500D01*
X164137500Y-81356500D02*
X164110000Y-82095000D01*
X162840000Y-82095000D02*
X162854500Y-81334300D01*
X162854500Y-81334300D02*
X163125900Y-81206600D01*
X163125900Y-81206600D02*
X163824000Y-81206600D01*
X163824000Y-81206600D02*
X164095400Y-81334300D01*
X164095400Y-81334300D02*
X164110000Y-82095000D01*
X146360000Y-64032000D02*
X145910000Y-64032000D01*
X145910000Y-64032000D02*
X145610000Y-64032000D01*
X145610000Y-64032000D02*
X143850000Y-64032000D01*
X143850000Y-64032000D02*
X143550000Y-64032000D01*
X143550000Y-64032000D02*
X143100000Y-64032000D01*
X156490000Y-82095000D02*
X156461700Y-81357600D01*
X156461700Y-81357600D02*
X156217100Y-81183900D01*
X156217100Y-81183900D02*
X152565700Y-79265000D01*
X152565700Y-79265000D02*
X150865700Y-79265000D01*
X150865700Y-79265000D02*
X150414300Y-79265000D01*
X150414300Y-79265000D02*
X146064700Y-79350800D01*
X146064700Y-79350800D02*
X144925300Y-79350800D01*
X144925300Y-79350800D02*
X142085300Y-79350800D01*
X142085300Y-79350800D02*
X142059200Y-79348500D01*
X142059200Y-79348500D02*
X141313700Y-79222800D01*
X141313700Y-79222800D02*
X140033900Y-79221900D01*
X140033900Y-79221900D02*
X139175900Y-79221900D01*
X139175900Y-79221900D02*
X138470800Y-79348500D01*
X138470800Y-79348500D02*
X138444700Y-79350800D01*
X138444700Y-79350800D02*
X137305300Y-79350800D01*
X137305300Y-79350800D02*
X137174500Y-79350000D01*
X137174500Y-79350000D02*
X135735500Y-79350000D01*
X135735500Y-79350000D02*
X135722200Y-79349600D01*
X135722200Y-79349600D02*
X135709200Y-79348500D01*
X135709200Y-79348500D02*
X135683800Y-79341700D01*
X135683800Y-79341700D02*
X135595500Y-79305100D01*
X135595500Y-79305100D02*
X135571700Y-79294000D01*
X135571700Y-79294000D02*
X135550200Y-79278900D01*
X135550200Y-79278900D02*
X134744600Y-78473300D01*
X134744600Y-78473300D02*
X134726100Y-78454800D01*
X134726100Y-78454800D02*
X134718500Y-78444000D01*
X134718500Y-78444000D02*
X134711000Y-78433300D01*
X134711000Y-78433300D02*
X134705400Y-78421400D01*
X134705400Y-78421400D02*
X134699900Y-78409500D01*
X134699900Y-78409500D02*
X134663300Y-78321200D01*
X134663300Y-78321200D02*
X134656500Y-78295800D01*
X134656500Y-78295800D02*
X134655300Y-78282700D01*
X134655300Y-78282700D02*
X134654200Y-78269700D01*
X134654200Y-78269700D02*
X134654200Y-77130300D01*
X134654200Y-77130300D02*
X134654200Y-75480300D01*
X134654200Y-75480300D02*
X134655300Y-75467200D01*
X134655300Y-75467200D02*
X135610000Y-64930500D01*
X135610000Y-64930500D02*
X135610000Y-63133500D01*
X135610000Y-63133500D02*
X135737700Y-62970000D01*
X143100000Y-64032000D02*
X142650000Y-63682000D01*
X142650000Y-63682000D02*
X142650000Y-63382000D01*
X142650000Y-63382000D02*
X142650000Y-63257700D01*
X142650000Y-63257700D02*
X142474300Y-63082000D01*
X142474300Y-63082000D02*
X141398600Y-62781900D01*
X141398600Y-62781900D02*
X136458600Y-62781900D01*
X136458600Y-62781900D02*
X135961400Y-62781900D01*
X135961400Y-62781900D02*
X135737700Y-62970000D01*
X105410000Y-54356000D02*
X115290100Y-53035900D01*
X115290100Y-53035900D02*
X116357900Y-53035900D01*
X116357900Y-53035900D02*
X132126400Y-58452300D01*
X132126400Y-58452300D02*
X132398500Y-58565000D01*
X132398500Y-58565000D02*
X133344800Y-59511300D01*
X133344800Y-59511300D02*
X135737700Y-62970000D01*
X149060000Y-64032000D02*
X148610000Y-64382000D01*
X148610000Y-64382000D02*
X148610000Y-64682000D01*
X148610000Y-64682000D02*
X148610000Y-64806300D01*
X148610000Y-64806300D02*
X148434300Y-64982000D01*
X148434300Y-64982000D02*
X147358600Y-65282100D01*
X147358600Y-65282100D02*
X142035200Y-66151400D01*
X142035200Y-66151400D02*
X140577000Y-66520300D01*
X140577000Y-66520300D02*
X139900600Y-66800500D01*
X139900600Y-66800500D02*
X138644900Y-68056200D01*
X138644900Y-68056200D02*
X137936400Y-69536000D01*
X137936400Y-69536000D02*
X137899800Y-69624300D01*
X137899800Y-69624300D02*
X136701000Y-75404600D01*
X136701000Y-75404600D02*
X136618000Y-75896300D01*
X136618000Y-75896300D02*
X136618000Y-75900500D01*
X136618000Y-75900500D02*
X136590600Y-76199200D01*
X136590600Y-76199200D02*
X136455000Y-76875000D01*
X173780000Y-91030000D02*
X173330000Y-90680000D01*
X173330000Y-90680000D02*
X173030000Y-90680000D01*
X173030000Y-90680000D02*
X172905700Y-90680000D01*
X172905700Y-90680000D02*
X164446400Y-89153200D01*
X117096900Y-84389200D02*
X117531200Y-83681500D01*
X117531200Y-83681500D02*
X117920000Y-83057500D01*
X117920000Y-83057500D02*
X117920000Y-82840000D01*
X117920000Y-82840000D02*
X117920000Y-82540000D01*
X117920000Y-82540000D02*
X117920000Y-82040000D01*
X118545800Y-84101800D02*
X118720000Y-83285300D01*
X118720000Y-83285300D02*
X118720000Y-82840000D01*
X118720000Y-82840000D02*
X118720000Y-82540000D01*
X118720000Y-82540000D02*
X118720000Y-82040000D01*
X173720000Y-87650000D02*
X173270000Y-87820500D01*
X173270000Y-87820500D02*
X172970000Y-87820500D01*
X172970000Y-87820500D02*
X164539700Y-87820500D01*
X136960000Y-64032000D02*
X136510000Y-64382000D01*
X136510000Y-64382000D02*
X136510000Y-64682000D01*
X136510000Y-64682000D02*
X136510000Y-65251600D01*
X136510000Y-65251600D02*
X135555400Y-75788300D01*
X135555400Y-75788300D02*
X135554300Y-75801400D01*
X135554300Y-75801400D02*
X135554300Y-77451400D01*
X135554300Y-77451400D02*
X135554300Y-77948600D01*
X135554300Y-77948600D02*
X135555400Y-77961600D01*
X135555400Y-77961600D02*
X135556600Y-77974700D01*
X135556600Y-77974700D02*
X135563400Y-78000100D01*
X135563400Y-78000100D02*
X135568900Y-78012000D01*
X135568900Y-78012000D02*
X135574500Y-78023900D01*
X135574500Y-78023900D02*
X135582000Y-78034600D01*
X135582000Y-78034600D02*
X135589600Y-78045400D01*
X135589600Y-78045400D02*
X135608100Y-78063900D01*
X135608100Y-78063900D02*
X135959600Y-78415400D01*
X135959600Y-78415400D02*
X135981100Y-78430500D01*
X135981100Y-78430500D02*
X136004900Y-78441600D01*
X136004900Y-78441600D02*
X136030300Y-78448400D01*
X136030300Y-78448400D02*
X136043300Y-78449500D01*
X136043300Y-78449500D02*
X136056600Y-78450300D01*
X136056600Y-78450300D02*
X137626400Y-78450700D01*
X137626400Y-78450700D02*
X138123600Y-78450700D01*
X138123600Y-78450700D02*
X138961400Y-78386300D01*
X138961400Y-78386300D02*
X140248400Y-78386300D01*
X140248400Y-78386300D02*
X141528200Y-78386700D01*
X141528200Y-78386700D02*
X142406400Y-78450700D01*
X142406400Y-78450700D02*
X145246400Y-78450700D01*
X145246400Y-78450700D02*
X145743600Y-78450700D01*
X145743600Y-78450700D02*
X150092200Y-78420000D01*
X150092200Y-78420000D02*
X151187800Y-78420000D01*
X151187800Y-78420000D02*
X152887800Y-78420000D01*
X152887800Y-78420000D02*
X156065300Y-78718400D01*
X156065300Y-78718400D02*
X156091400Y-78720700D01*
X156091400Y-78720700D02*
X158657000Y-78720700D01*
X158657000Y-78720700D02*
X161968400Y-78720300D01*
X161968400Y-78720300D02*
X161981600Y-78719500D01*
X161981600Y-78719500D02*
X161994700Y-78718400D01*
X161994700Y-78718400D02*
X162020100Y-78711600D01*
X162020100Y-78711600D02*
X162032000Y-78706000D01*
X162032000Y-78706000D02*
X162637000Y-78130900D01*
X162637000Y-78130900D02*
X162643800Y-78124200D01*
X162643800Y-78124200D02*
X162651200Y-78116800D01*
X162651200Y-78116800D02*
X162651200Y-78114900D01*
X162651200Y-78114900D02*
X162728800Y-77825100D01*
X162728800Y-77825100D02*
X162840000Y-77145000D01*
X162840000Y-77145000D02*
X162854500Y-76384300D01*
X162854500Y-76384300D02*
X163125900Y-76256600D01*
X163125900Y-76256600D02*
X163824000Y-76256600D01*
X163824000Y-76256600D02*
X164095400Y-76384300D01*
X164095400Y-76384300D02*
X164110000Y-77145000D01*
X117120000Y-82040000D02*
X117120000Y-81540000D01*
X117120000Y-81540000D02*
X117120000Y-81240000D01*
X117120000Y-81240000D02*
X117120000Y-81022500D01*
X117120000Y-81022500D02*
X117427500Y-80715000D01*
X117427500Y-80715000D02*
X119811800Y-79851900D01*
X120900200Y-72030200D02*
X120320000Y-72626100D01*
X120320000Y-72626100D02*
X120320000Y-72740000D01*
X120320000Y-72740000D02*
X120320000Y-73040000D01*
X120320000Y-73040000D02*
X120320000Y-73540000D01*
X142850000Y-70844000D02*
X143300000Y-70844000D01*
X143300000Y-70844000D02*
X143600000Y-70844000D01*
X143600000Y-70844000D02*
X145200000Y-70844000D01*
X145200000Y-70844000D02*
X145500000Y-70844000D01*
X145500000Y-70844000D02*
X145950000Y-70844000D01*
X141465000Y-69620600D02*
X141800000Y-70318300D01*
X141800000Y-70318300D02*
X141975700Y-70494000D01*
X141975700Y-70494000D02*
X142100000Y-70494000D01*
X142100000Y-70494000D02*
X142400000Y-70494000D01*
X142400000Y-70494000D02*
X142850000Y-70844000D01*
X132260000Y-90300000D02*
X132710000Y-89950000D01*
X132710000Y-89950000D02*
X132710000Y-89650000D01*
X132710000Y-89650000D02*
X132710000Y-89525700D01*
X132710000Y-89525700D02*
X135487700Y-83923300D01*
X125000000Y-90300000D02*
X125450000Y-89950000D01*
X125450000Y-89950000D02*
X125450000Y-89650000D01*
X125450000Y-89650000D02*
X125450000Y-89525700D01*
X125450000Y-89525700D02*
X126170400Y-76551800D01*
X126170400Y-76551800D02*
X126170400Y-74855400D01*
X126170400Y-74855400D02*
X125961000Y-73886500D01*
X125961000Y-73886500D02*
X125084400Y-70884400D01*
X125084400Y-70884400D02*
X124669100Y-69881700D01*
X124669100Y-69881700D02*
X121970000Y-64862500D01*
X121970000Y-64862500D02*
X121970000Y-63065500D01*
X121970000Y-63065500D02*
X121618500Y-62714000D01*
X121618500Y-62714000D02*
X116019300Y-61474800D01*
X116019300Y-61474800D02*
X114519300Y-61474800D01*
X114519300Y-61474800D02*
X113220700Y-61474800D01*
X113220700Y-61474800D02*
X112985400Y-61572300D01*
X112985400Y-61572300D02*
X112067300Y-62490400D01*
X112067300Y-62490400D02*
X111969800Y-62725700D01*
X111969800Y-62725700D02*
X111969800Y-63975700D01*
X111969800Y-63975700D02*
X111969800Y-65274300D01*
X111969800Y-65274300D02*
X112067300Y-65509600D01*
X112067300Y-65509600D02*
X112985400Y-66427700D01*
X112985400Y-66427700D02*
X114060500Y-67063600D01*
X114060500Y-67063600D02*
X121355900Y-70930100D01*
X121355900Y-70930100D02*
X122000300Y-71574500D01*
X122000300Y-71574500D02*
X122000300Y-74715000D01*
X122000300Y-74715000D02*
X122000300Y-75015000D01*
X122000300Y-75015000D02*
X121770000Y-74990000D01*
X140110000Y-90300000D02*
X140560000Y-89950000D01*
X140560000Y-89950000D02*
X140560000Y-89650000D01*
X140560000Y-89650000D02*
X140560000Y-89525700D01*
X140560000Y-89525700D02*
X142805000Y-83357200D01*
X142805000Y-83357200D02*
X142805000Y-82800600D01*
X142805000Y-82800600D02*
X142805000Y-82500600D01*
X142805000Y-82500600D02*
X142805000Y-81825000D01*
M02*
