G04 #@! TF.GenerationSoftware,KiCad,Pcbnew,(5.1.4)-1*
G04 #@! TF.CreationDate,2019-11-08T19:54:44+05:00*
G04 #@! TF.ProjectId,powerSupplyArduino,706f7765-7253-4757-9070-6c7941726475,rev?*
G04 #@! TF.SameCoordinates,Original*
G04 #@! TF.FileFunction,Paste,Top*
G04 #@! TF.FilePolarity,Positive*
%FSLAX46Y46*%
G04 Gerber Fmt 4.6, Leading zero omitted, Abs format (unit mm)*
G04 Created by KiCad (PCBNEW (5.1.4)-1) date 2019-11-08 19:54:44*
%MOMM*%
%LPD*%
G04 APERTURE LIST*
%ADD10R,3.500000X1.600000*%
%ADD11R,0.550000X1.600000*%
%ADD12R,1.600000X0.550000*%
%ADD13C,0.100000*%
%ADD14C,0.600000*%
%ADD15R,1.500000X1.300000*%
%ADD16R,1.300000X1.500000*%
%ADD17C,1.425000*%
%ADD18R,1.250000X1.500000*%
%ADD19R,1.500000X1.250000*%
%ADD20R,3.000000X1.600000*%
%ADD21R,2.500000X4.000000*%
G04 APERTURE END LIST*
D10*
X153230000Y-95510000D03*
X158630000Y-95510000D03*
D11*
X114720000Y-73540000D03*
X115520000Y-73540000D03*
X116320000Y-73540000D03*
X117120000Y-73540000D03*
X117920000Y-73540000D03*
X118720000Y-73540000D03*
X119520000Y-73540000D03*
X120320000Y-73540000D03*
D12*
X121770000Y-74990000D03*
X121770000Y-75790000D03*
X121770000Y-76590000D03*
X121770000Y-77390000D03*
X121770000Y-78190000D03*
X121770000Y-78990000D03*
X121770000Y-79790000D03*
X121770000Y-80590000D03*
D11*
X120320000Y-82040000D03*
X119520000Y-82040000D03*
X118720000Y-82040000D03*
X117920000Y-82040000D03*
X117120000Y-82040000D03*
X116320000Y-82040000D03*
X115520000Y-82040000D03*
X114720000Y-82040000D03*
D12*
X113270000Y-80590000D03*
X113270000Y-79790000D03*
X113270000Y-78990000D03*
X113270000Y-78190000D03*
X113270000Y-77390000D03*
X113270000Y-76590000D03*
X113270000Y-75790000D03*
X113270000Y-74990000D03*
D13*
G36*
X136619703Y-75900722D02*
G01*
X136634264Y-75902882D01*
X136648543Y-75906459D01*
X136662403Y-75911418D01*
X136675710Y-75917712D01*
X136688336Y-75925280D01*
X136700159Y-75934048D01*
X136711066Y-75943934D01*
X136720952Y-75954841D01*
X136729720Y-75966664D01*
X136737288Y-75979290D01*
X136743582Y-75992597D01*
X136748541Y-76006457D01*
X136752118Y-76020736D01*
X136754278Y-76035297D01*
X136755000Y-76050000D01*
X136755000Y-77700000D01*
X136754278Y-77714703D01*
X136752118Y-77729264D01*
X136748541Y-77743543D01*
X136743582Y-77757403D01*
X136737288Y-77770710D01*
X136729720Y-77783336D01*
X136720952Y-77795159D01*
X136711066Y-77806066D01*
X136700159Y-77815952D01*
X136688336Y-77824720D01*
X136675710Y-77832288D01*
X136662403Y-77838582D01*
X136648543Y-77843541D01*
X136634264Y-77847118D01*
X136619703Y-77849278D01*
X136605000Y-77850000D01*
X136305000Y-77850000D01*
X136290297Y-77849278D01*
X136275736Y-77847118D01*
X136261457Y-77843541D01*
X136247597Y-77838582D01*
X136234290Y-77832288D01*
X136221664Y-77824720D01*
X136209841Y-77815952D01*
X136198934Y-77806066D01*
X136189048Y-77795159D01*
X136180280Y-77783336D01*
X136172712Y-77770710D01*
X136166418Y-77757403D01*
X136161459Y-77743543D01*
X136157882Y-77729264D01*
X136155722Y-77714703D01*
X136155000Y-77700000D01*
X136155000Y-76050000D01*
X136155722Y-76035297D01*
X136157882Y-76020736D01*
X136161459Y-76006457D01*
X136166418Y-75992597D01*
X136172712Y-75979290D01*
X136180280Y-75966664D01*
X136189048Y-75954841D01*
X136198934Y-75943934D01*
X136209841Y-75934048D01*
X136221664Y-75925280D01*
X136234290Y-75917712D01*
X136247597Y-75911418D01*
X136261457Y-75906459D01*
X136275736Y-75902882D01*
X136290297Y-75900722D01*
X136305000Y-75900000D01*
X136605000Y-75900000D01*
X136619703Y-75900722D01*
X136619703Y-75900722D01*
G37*
D14*
X136455000Y-76875000D03*
D13*
G36*
X137889703Y-75900722D02*
G01*
X137904264Y-75902882D01*
X137918543Y-75906459D01*
X137932403Y-75911418D01*
X137945710Y-75917712D01*
X137958336Y-75925280D01*
X137970159Y-75934048D01*
X137981066Y-75943934D01*
X137990952Y-75954841D01*
X137999720Y-75966664D01*
X138007288Y-75979290D01*
X138013582Y-75992597D01*
X138018541Y-76006457D01*
X138022118Y-76020736D01*
X138024278Y-76035297D01*
X138025000Y-76050000D01*
X138025000Y-77700000D01*
X138024278Y-77714703D01*
X138022118Y-77729264D01*
X138018541Y-77743543D01*
X138013582Y-77757403D01*
X138007288Y-77770710D01*
X137999720Y-77783336D01*
X137990952Y-77795159D01*
X137981066Y-77806066D01*
X137970159Y-77815952D01*
X137958336Y-77824720D01*
X137945710Y-77832288D01*
X137932403Y-77838582D01*
X137918543Y-77843541D01*
X137904264Y-77847118D01*
X137889703Y-77849278D01*
X137875000Y-77850000D01*
X137575000Y-77850000D01*
X137560297Y-77849278D01*
X137545736Y-77847118D01*
X137531457Y-77843541D01*
X137517597Y-77838582D01*
X137504290Y-77832288D01*
X137491664Y-77824720D01*
X137479841Y-77815952D01*
X137468934Y-77806066D01*
X137459048Y-77795159D01*
X137450280Y-77783336D01*
X137442712Y-77770710D01*
X137436418Y-77757403D01*
X137431459Y-77743543D01*
X137427882Y-77729264D01*
X137425722Y-77714703D01*
X137425000Y-77700000D01*
X137425000Y-76050000D01*
X137425722Y-76035297D01*
X137427882Y-76020736D01*
X137431459Y-76006457D01*
X137436418Y-75992597D01*
X137442712Y-75979290D01*
X137450280Y-75966664D01*
X137459048Y-75954841D01*
X137468934Y-75943934D01*
X137479841Y-75934048D01*
X137491664Y-75925280D01*
X137504290Y-75917712D01*
X137517597Y-75911418D01*
X137531457Y-75906459D01*
X137545736Y-75902882D01*
X137560297Y-75900722D01*
X137575000Y-75900000D01*
X137875000Y-75900000D01*
X137889703Y-75900722D01*
X137889703Y-75900722D01*
G37*
D14*
X137725000Y-76875000D03*
D13*
G36*
X139159703Y-75900722D02*
G01*
X139174264Y-75902882D01*
X139188543Y-75906459D01*
X139202403Y-75911418D01*
X139215710Y-75917712D01*
X139228336Y-75925280D01*
X139240159Y-75934048D01*
X139251066Y-75943934D01*
X139260952Y-75954841D01*
X139269720Y-75966664D01*
X139277288Y-75979290D01*
X139283582Y-75992597D01*
X139288541Y-76006457D01*
X139292118Y-76020736D01*
X139294278Y-76035297D01*
X139295000Y-76050000D01*
X139295000Y-77700000D01*
X139294278Y-77714703D01*
X139292118Y-77729264D01*
X139288541Y-77743543D01*
X139283582Y-77757403D01*
X139277288Y-77770710D01*
X139269720Y-77783336D01*
X139260952Y-77795159D01*
X139251066Y-77806066D01*
X139240159Y-77815952D01*
X139228336Y-77824720D01*
X139215710Y-77832288D01*
X139202403Y-77838582D01*
X139188543Y-77843541D01*
X139174264Y-77847118D01*
X139159703Y-77849278D01*
X139145000Y-77850000D01*
X138845000Y-77850000D01*
X138830297Y-77849278D01*
X138815736Y-77847118D01*
X138801457Y-77843541D01*
X138787597Y-77838582D01*
X138774290Y-77832288D01*
X138761664Y-77824720D01*
X138749841Y-77815952D01*
X138738934Y-77806066D01*
X138729048Y-77795159D01*
X138720280Y-77783336D01*
X138712712Y-77770710D01*
X138706418Y-77757403D01*
X138701459Y-77743543D01*
X138697882Y-77729264D01*
X138695722Y-77714703D01*
X138695000Y-77700000D01*
X138695000Y-76050000D01*
X138695722Y-76035297D01*
X138697882Y-76020736D01*
X138701459Y-76006457D01*
X138706418Y-75992597D01*
X138712712Y-75979290D01*
X138720280Y-75966664D01*
X138729048Y-75954841D01*
X138738934Y-75943934D01*
X138749841Y-75934048D01*
X138761664Y-75925280D01*
X138774290Y-75917712D01*
X138787597Y-75911418D01*
X138801457Y-75906459D01*
X138815736Y-75902882D01*
X138830297Y-75900722D01*
X138845000Y-75900000D01*
X139145000Y-75900000D01*
X139159703Y-75900722D01*
X139159703Y-75900722D01*
G37*
D14*
X138995000Y-76875000D03*
D13*
G36*
X140429703Y-75900722D02*
G01*
X140444264Y-75902882D01*
X140458543Y-75906459D01*
X140472403Y-75911418D01*
X140485710Y-75917712D01*
X140498336Y-75925280D01*
X140510159Y-75934048D01*
X140521066Y-75943934D01*
X140530952Y-75954841D01*
X140539720Y-75966664D01*
X140547288Y-75979290D01*
X140553582Y-75992597D01*
X140558541Y-76006457D01*
X140562118Y-76020736D01*
X140564278Y-76035297D01*
X140565000Y-76050000D01*
X140565000Y-77700000D01*
X140564278Y-77714703D01*
X140562118Y-77729264D01*
X140558541Y-77743543D01*
X140553582Y-77757403D01*
X140547288Y-77770710D01*
X140539720Y-77783336D01*
X140530952Y-77795159D01*
X140521066Y-77806066D01*
X140510159Y-77815952D01*
X140498336Y-77824720D01*
X140485710Y-77832288D01*
X140472403Y-77838582D01*
X140458543Y-77843541D01*
X140444264Y-77847118D01*
X140429703Y-77849278D01*
X140415000Y-77850000D01*
X140115000Y-77850000D01*
X140100297Y-77849278D01*
X140085736Y-77847118D01*
X140071457Y-77843541D01*
X140057597Y-77838582D01*
X140044290Y-77832288D01*
X140031664Y-77824720D01*
X140019841Y-77815952D01*
X140008934Y-77806066D01*
X139999048Y-77795159D01*
X139990280Y-77783336D01*
X139982712Y-77770710D01*
X139976418Y-77757403D01*
X139971459Y-77743543D01*
X139967882Y-77729264D01*
X139965722Y-77714703D01*
X139965000Y-77700000D01*
X139965000Y-76050000D01*
X139965722Y-76035297D01*
X139967882Y-76020736D01*
X139971459Y-76006457D01*
X139976418Y-75992597D01*
X139982712Y-75979290D01*
X139990280Y-75966664D01*
X139999048Y-75954841D01*
X140008934Y-75943934D01*
X140019841Y-75934048D01*
X140031664Y-75925280D01*
X140044290Y-75917712D01*
X140057597Y-75911418D01*
X140071457Y-75906459D01*
X140085736Y-75902882D01*
X140100297Y-75900722D01*
X140115000Y-75900000D01*
X140415000Y-75900000D01*
X140429703Y-75900722D01*
X140429703Y-75900722D01*
G37*
D14*
X140265000Y-76875000D03*
D13*
G36*
X141699703Y-75900722D02*
G01*
X141714264Y-75902882D01*
X141728543Y-75906459D01*
X141742403Y-75911418D01*
X141755710Y-75917712D01*
X141768336Y-75925280D01*
X141780159Y-75934048D01*
X141791066Y-75943934D01*
X141800952Y-75954841D01*
X141809720Y-75966664D01*
X141817288Y-75979290D01*
X141823582Y-75992597D01*
X141828541Y-76006457D01*
X141832118Y-76020736D01*
X141834278Y-76035297D01*
X141835000Y-76050000D01*
X141835000Y-77700000D01*
X141834278Y-77714703D01*
X141832118Y-77729264D01*
X141828541Y-77743543D01*
X141823582Y-77757403D01*
X141817288Y-77770710D01*
X141809720Y-77783336D01*
X141800952Y-77795159D01*
X141791066Y-77806066D01*
X141780159Y-77815952D01*
X141768336Y-77824720D01*
X141755710Y-77832288D01*
X141742403Y-77838582D01*
X141728543Y-77843541D01*
X141714264Y-77847118D01*
X141699703Y-77849278D01*
X141685000Y-77850000D01*
X141385000Y-77850000D01*
X141370297Y-77849278D01*
X141355736Y-77847118D01*
X141341457Y-77843541D01*
X141327597Y-77838582D01*
X141314290Y-77832288D01*
X141301664Y-77824720D01*
X141289841Y-77815952D01*
X141278934Y-77806066D01*
X141269048Y-77795159D01*
X141260280Y-77783336D01*
X141252712Y-77770710D01*
X141246418Y-77757403D01*
X141241459Y-77743543D01*
X141237882Y-77729264D01*
X141235722Y-77714703D01*
X141235000Y-77700000D01*
X141235000Y-76050000D01*
X141235722Y-76035297D01*
X141237882Y-76020736D01*
X141241459Y-76006457D01*
X141246418Y-75992597D01*
X141252712Y-75979290D01*
X141260280Y-75966664D01*
X141269048Y-75954841D01*
X141278934Y-75943934D01*
X141289841Y-75934048D01*
X141301664Y-75925280D01*
X141314290Y-75917712D01*
X141327597Y-75911418D01*
X141341457Y-75906459D01*
X141355736Y-75902882D01*
X141370297Y-75900722D01*
X141385000Y-75900000D01*
X141685000Y-75900000D01*
X141699703Y-75900722D01*
X141699703Y-75900722D01*
G37*
D14*
X141535000Y-76875000D03*
D13*
G36*
X142969703Y-75900722D02*
G01*
X142984264Y-75902882D01*
X142998543Y-75906459D01*
X143012403Y-75911418D01*
X143025710Y-75917712D01*
X143038336Y-75925280D01*
X143050159Y-75934048D01*
X143061066Y-75943934D01*
X143070952Y-75954841D01*
X143079720Y-75966664D01*
X143087288Y-75979290D01*
X143093582Y-75992597D01*
X143098541Y-76006457D01*
X143102118Y-76020736D01*
X143104278Y-76035297D01*
X143105000Y-76050000D01*
X143105000Y-77700000D01*
X143104278Y-77714703D01*
X143102118Y-77729264D01*
X143098541Y-77743543D01*
X143093582Y-77757403D01*
X143087288Y-77770710D01*
X143079720Y-77783336D01*
X143070952Y-77795159D01*
X143061066Y-77806066D01*
X143050159Y-77815952D01*
X143038336Y-77824720D01*
X143025710Y-77832288D01*
X143012403Y-77838582D01*
X142998543Y-77843541D01*
X142984264Y-77847118D01*
X142969703Y-77849278D01*
X142955000Y-77850000D01*
X142655000Y-77850000D01*
X142640297Y-77849278D01*
X142625736Y-77847118D01*
X142611457Y-77843541D01*
X142597597Y-77838582D01*
X142584290Y-77832288D01*
X142571664Y-77824720D01*
X142559841Y-77815952D01*
X142548934Y-77806066D01*
X142539048Y-77795159D01*
X142530280Y-77783336D01*
X142522712Y-77770710D01*
X142516418Y-77757403D01*
X142511459Y-77743543D01*
X142507882Y-77729264D01*
X142505722Y-77714703D01*
X142505000Y-77700000D01*
X142505000Y-76050000D01*
X142505722Y-76035297D01*
X142507882Y-76020736D01*
X142511459Y-76006457D01*
X142516418Y-75992597D01*
X142522712Y-75979290D01*
X142530280Y-75966664D01*
X142539048Y-75954841D01*
X142548934Y-75943934D01*
X142559841Y-75934048D01*
X142571664Y-75925280D01*
X142584290Y-75917712D01*
X142597597Y-75911418D01*
X142611457Y-75906459D01*
X142625736Y-75902882D01*
X142640297Y-75900722D01*
X142655000Y-75900000D01*
X142955000Y-75900000D01*
X142969703Y-75900722D01*
X142969703Y-75900722D01*
G37*
D14*
X142805000Y-76875000D03*
D13*
G36*
X144239703Y-75900722D02*
G01*
X144254264Y-75902882D01*
X144268543Y-75906459D01*
X144282403Y-75911418D01*
X144295710Y-75917712D01*
X144308336Y-75925280D01*
X144320159Y-75934048D01*
X144331066Y-75943934D01*
X144340952Y-75954841D01*
X144349720Y-75966664D01*
X144357288Y-75979290D01*
X144363582Y-75992597D01*
X144368541Y-76006457D01*
X144372118Y-76020736D01*
X144374278Y-76035297D01*
X144375000Y-76050000D01*
X144375000Y-77700000D01*
X144374278Y-77714703D01*
X144372118Y-77729264D01*
X144368541Y-77743543D01*
X144363582Y-77757403D01*
X144357288Y-77770710D01*
X144349720Y-77783336D01*
X144340952Y-77795159D01*
X144331066Y-77806066D01*
X144320159Y-77815952D01*
X144308336Y-77824720D01*
X144295710Y-77832288D01*
X144282403Y-77838582D01*
X144268543Y-77843541D01*
X144254264Y-77847118D01*
X144239703Y-77849278D01*
X144225000Y-77850000D01*
X143925000Y-77850000D01*
X143910297Y-77849278D01*
X143895736Y-77847118D01*
X143881457Y-77843541D01*
X143867597Y-77838582D01*
X143854290Y-77832288D01*
X143841664Y-77824720D01*
X143829841Y-77815952D01*
X143818934Y-77806066D01*
X143809048Y-77795159D01*
X143800280Y-77783336D01*
X143792712Y-77770710D01*
X143786418Y-77757403D01*
X143781459Y-77743543D01*
X143777882Y-77729264D01*
X143775722Y-77714703D01*
X143775000Y-77700000D01*
X143775000Y-76050000D01*
X143775722Y-76035297D01*
X143777882Y-76020736D01*
X143781459Y-76006457D01*
X143786418Y-75992597D01*
X143792712Y-75979290D01*
X143800280Y-75966664D01*
X143809048Y-75954841D01*
X143818934Y-75943934D01*
X143829841Y-75934048D01*
X143841664Y-75925280D01*
X143854290Y-75917712D01*
X143867597Y-75911418D01*
X143881457Y-75906459D01*
X143895736Y-75902882D01*
X143910297Y-75900722D01*
X143925000Y-75900000D01*
X144225000Y-75900000D01*
X144239703Y-75900722D01*
X144239703Y-75900722D01*
G37*
D14*
X144075000Y-76875000D03*
D13*
G36*
X145509703Y-75900722D02*
G01*
X145524264Y-75902882D01*
X145538543Y-75906459D01*
X145552403Y-75911418D01*
X145565710Y-75917712D01*
X145578336Y-75925280D01*
X145590159Y-75934048D01*
X145601066Y-75943934D01*
X145610952Y-75954841D01*
X145619720Y-75966664D01*
X145627288Y-75979290D01*
X145633582Y-75992597D01*
X145638541Y-76006457D01*
X145642118Y-76020736D01*
X145644278Y-76035297D01*
X145645000Y-76050000D01*
X145645000Y-77700000D01*
X145644278Y-77714703D01*
X145642118Y-77729264D01*
X145638541Y-77743543D01*
X145633582Y-77757403D01*
X145627288Y-77770710D01*
X145619720Y-77783336D01*
X145610952Y-77795159D01*
X145601066Y-77806066D01*
X145590159Y-77815952D01*
X145578336Y-77824720D01*
X145565710Y-77832288D01*
X145552403Y-77838582D01*
X145538543Y-77843541D01*
X145524264Y-77847118D01*
X145509703Y-77849278D01*
X145495000Y-77850000D01*
X145195000Y-77850000D01*
X145180297Y-77849278D01*
X145165736Y-77847118D01*
X145151457Y-77843541D01*
X145137597Y-77838582D01*
X145124290Y-77832288D01*
X145111664Y-77824720D01*
X145099841Y-77815952D01*
X145088934Y-77806066D01*
X145079048Y-77795159D01*
X145070280Y-77783336D01*
X145062712Y-77770710D01*
X145056418Y-77757403D01*
X145051459Y-77743543D01*
X145047882Y-77729264D01*
X145045722Y-77714703D01*
X145045000Y-77700000D01*
X145045000Y-76050000D01*
X145045722Y-76035297D01*
X145047882Y-76020736D01*
X145051459Y-76006457D01*
X145056418Y-75992597D01*
X145062712Y-75979290D01*
X145070280Y-75966664D01*
X145079048Y-75954841D01*
X145088934Y-75943934D01*
X145099841Y-75934048D01*
X145111664Y-75925280D01*
X145124290Y-75917712D01*
X145137597Y-75911418D01*
X145151457Y-75906459D01*
X145165736Y-75902882D01*
X145180297Y-75900722D01*
X145195000Y-75900000D01*
X145495000Y-75900000D01*
X145509703Y-75900722D01*
X145509703Y-75900722D01*
G37*
D14*
X145345000Y-76875000D03*
D13*
G36*
X145509703Y-80850722D02*
G01*
X145524264Y-80852882D01*
X145538543Y-80856459D01*
X145552403Y-80861418D01*
X145565710Y-80867712D01*
X145578336Y-80875280D01*
X145590159Y-80884048D01*
X145601066Y-80893934D01*
X145610952Y-80904841D01*
X145619720Y-80916664D01*
X145627288Y-80929290D01*
X145633582Y-80942597D01*
X145638541Y-80956457D01*
X145642118Y-80970736D01*
X145644278Y-80985297D01*
X145645000Y-81000000D01*
X145645000Y-82650000D01*
X145644278Y-82664703D01*
X145642118Y-82679264D01*
X145638541Y-82693543D01*
X145633582Y-82707403D01*
X145627288Y-82720710D01*
X145619720Y-82733336D01*
X145610952Y-82745159D01*
X145601066Y-82756066D01*
X145590159Y-82765952D01*
X145578336Y-82774720D01*
X145565710Y-82782288D01*
X145552403Y-82788582D01*
X145538543Y-82793541D01*
X145524264Y-82797118D01*
X145509703Y-82799278D01*
X145495000Y-82800000D01*
X145195000Y-82800000D01*
X145180297Y-82799278D01*
X145165736Y-82797118D01*
X145151457Y-82793541D01*
X145137597Y-82788582D01*
X145124290Y-82782288D01*
X145111664Y-82774720D01*
X145099841Y-82765952D01*
X145088934Y-82756066D01*
X145079048Y-82745159D01*
X145070280Y-82733336D01*
X145062712Y-82720710D01*
X145056418Y-82707403D01*
X145051459Y-82693543D01*
X145047882Y-82679264D01*
X145045722Y-82664703D01*
X145045000Y-82650000D01*
X145045000Y-81000000D01*
X145045722Y-80985297D01*
X145047882Y-80970736D01*
X145051459Y-80956457D01*
X145056418Y-80942597D01*
X145062712Y-80929290D01*
X145070280Y-80916664D01*
X145079048Y-80904841D01*
X145088934Y-80893934D01*
X145099841Y-80884048D01*
X145111664Y-80875280D01*
X145124290Y-80867712D01*
X145137597Y-80861418D01*
X145151457Y-80856459D01*
X145165736Y-80852882D01*
X145180297Y-80850722D01*
X145195000Y-80850000D01*
X145495000Y-80850000D01*
X145509703Y-80850722D01*
X145509703Y-80850722D01*
G37*
D14*
X145345000Y-81825000D03*
D13*
G36*
X144239703Y-80850722D02*
G01*
X144254264Y-80852882D01*
X144268543Y-80856459D01*
X144282403Y-80861418D01*
X144295710Y-80867712D01*
X144308336Y-80875280D01*
X144320159Y-80884048D01*
X144331066Y-80893934D01*
X144340952Y-80904841D01*
X144349720Y-80916664D01*
X144357288Y-80929290D01*
X144363582Y-80942597D01*
X144368541Y-80956457D01*
X144372118Y-80970736D01*
X144374278Y-80985297D01*
X144375000Y-81000000D01*
X144375000Y-82650000D01*
X144374278Y-82664703D01*
X144372118Y-82679264D01*
X144368541Y-82693543D01*
X144363582Y-82707403D01*
X144357288Y-82720710D01*
X144349720Y-82733336D01*
X144340952Y-82745159D01*
X144331066Y-82756066D01*
X144320159Y-82765952D01*
X144308336Y-82774720D01*
X144295710Y-82782288D01*
X144282403Y-82788582D01*
X144268543Y-82793541D01*
X144254264Y-82797118D01*
X144239703Y-82799278D01*
X144225000Y-82800000D01*
X143925000Y-82800000D01*
X143910297Y-82799278D01*
X143895736Y-82797118D01*
X143881457Y-82793541D01*
X143867597Y-82788582D01*
X143854290Y-82782288D01*
X143841664Y-82774720D01*
X143829841Y-82765952D01*
X143818934Y-82756066D01*
X143809048Y-82745159D01*
X143800280Y-82733336D01*
X143792712Y-82720710D01*
X143786418Y-82707403D01*
X143781459Y-82693543D01*
X143777882Y-82679264D01*
X143775722Y-82664703D01*
X143775000Y-82650000D01*
X143775000Y-81000000D01*
X143775722Y-80985297D01*
X143777882Y-80970736D01*
X143781459Y-80956457D01*
X143786418Y-80942597D01*
X143792712Y-80929290D01*
X143800280Y-80916664D01*
X143809048Y-80904841D01*
X143818934Y-80893934D01*
X143829841Y-80884048D01*
X143841664Y-80875280D01*
X143854290Y-80867712D01*
X143867597Y-80861418D01*
X143881457Y-80856459D01*
X143895736Y-80852882D01*
X143910297Y-80850722D01*
X143925000Y-80850000D01*
X144225000Y-80850000D01*
X144239703Y-80850722D01*
X144239703Y-80850722D01*
G37*
D14*
X144075000Y-81825000D03*
D13*
G36*
X142969703Y-80850722D02*
G01*
X142984264Y-80852882D01*
X142998543Y-80856459D01*
X143012403Y-80861418D01*
X143025710Y-80867712D01*
X143038336Y-80875280D01*
X143050159Y-80884048D01*
X143061066Y-80893934D01*
X143070952Y-80904841D01*
X143079720Y-80916664D01*
X143087288Y-80929290D01*
X143093582Y-80942597D01*
X143098541Y-80956457D01*
X143102118Y-80970736D01*
X143104278Y-80985297D01*
X143105000Y-81000000D01*
X143105000Y-82650000D01*
X143104278Y-82664703D01*
X143102118Y-82679264D01*
X143098541Y-82693543D01*
X143093582Y-82707403D01*
X143087288Y-82720710D01*
X143079720Y-82733336D01*
X143070952Y-82745159D01*
X143061066Y-82756066D01*
X143050159Y-82765952D01*
X143038336Y-82774720D01*
X143025710Y-82782288D01*
X143012403Y-82788582D01*
X142998543Y-82793541D01*
X142984264Y-82797118D01*
X142969703Y-82799278D01*
X142955000Y-82800000D01*
X142655000Y-82800000D01*
X142640297Y-82799278D01*
X142625736Y-82797118D01*
X142611457Y-82793541D01*
X142597597Y-82788582D01*
X142584290Y-82782288D01*
X142571664Y-82774720D01*
X142559841Y-82765952D01*
X142548934Y-82756066D01*
X142539048Y-82745159D01*
X142530280Y-82733336D01*
X142522712Y-82720710D01*
X142516418Y-82707403D01*
X142511459Y-82693543D01*
X142507882Y-82679264D01*
X142505722Y-82664703D01*
X142505000Y-82650000D01*
X142505000Y-81000000D01*
X142505722Y-80985297D01*
X142507882Y-80970736D01*
X142511459Y-80956457D01*
X142516418Y-80942597D01*
X142522712Y-80929290D01*
X142530280Y-80916664D01*
X142539048Y-80904841D01*
X142548934Y-80893934D01*
X142559841Y-80884048D01*
X142571664Y-80875280D01*
X142584290Y-80867712D01*
X142597597Y-80861418D01*
X142611457Y-80856459D01*
X142625736Y-80852882D01*
X142640297Y-80850722D01*
X142655000Y-80850000D01*
X142955000Y-80850000D01*
X142969703Y-80850722D01*
X142969703Y-80850722D01*
G37*
D14*
X142805000Y-81825000D03*
D13*
G36*
X141699703Y-80850722D02*
G01*
X141714264Y-80852882D01*
X141728543Y-80856459D01*
X141742403Y-80861418D01*
X141755710Y-80867712D01*
X141768336Y-80875280D01*
X141780159Y-80884048D01*
X141791066Y-80893934D01*
X141800952Y-80904841D01*
X141809720Y-80916664D01*
X141817288Y-80929290D01*
X141823582Y-80942597D01*
X141828541Y-80956457D01*
X141832118Y-80970736D01*
X141834278Y-80985297D01*
X141835000Y-81000000D01*
X141835000Y-82650000D01*
X141834278Y-82664703D01*
X141832118Y-82679264D01*
X141828541Y-82693543D01*
X141823582Y-82707403D01*
X141817288Y-82720710D01*
X141809720Y-82733336D01*
X141800952Y-82745159D01*
X141791066Y-82756066D01*
X141780159Y-82765952D01*
X141768336Y-82774720D01*
X141755710Y-82782288D01*
X141742403Y-82788582D01*
X141728543Y-82793541D01*
X141714264Y-82797118D01*
X141699703Y-82799278D01*
X141685000Y-82800000D01*
X141385000Y-82800000D01*
X141370297Y-82799278D01*
X141355736Y-82797118D01*
X141341457Y-82793541D01*
X141327597Y-82788582D01*
X141314290Y-82782288D01*
X141301664Y-82774720D01*
X141289841Y-82765952D01*
X141278934Y-82756066D01*
X141269048Y-82745159D01*
X141260280Y-82733336D01*
X141252712Y-82720710D01*
X141246418Y-82707403D01*
X141241459Y-82693543D01*
X141237882Y-82679264D01*
X141235722Y-82664703D01*
X141235000Y-82650000D01*
X141235000Y-81000000D01*
X141235722Y-80985297D01*
X141237882Y-80970736D01*
X141241459Y-80956457D01*
X141246418Y-80942597D01*
X141252712Y-80929290D01*
X141260280Y-80916664D01*
X141269048Y-80904841D01*
X141278934Y-80893934D01*
X141289841Y-80884048D01*
X141301664Y-80875280D01*
X141314290Y-80867712D01*
X141327597Y-80861418D01*
X141341457Y-80856459D01*
X141355736Y-80852882D01*
X141370297Y-80850722D01*
X141385000Y-80850000D01*
X141685000Y-80850000D01*
X141699703Y-80850722D01*
X141699703Y-80850722D01*
G37*
D14*
X141535000Y-81825000D03*
D13*
G36*
X140429703Y-80850722D02*
G01*
X140444264Y-80852882D01*
X140458543Y-80856459D01*
X140472403Y-80861418D01*
X140485710Y-80867712D01*
X140498336Y-80875280D01*
X140510159Y-80884048D01*
X140521066Y-80893934D01*
X140530952Y-80904841D01*
X140539720Y-80916664D01*
X140547288Y-80929290D01*
X140553582Y-80942597D01*
X140558541Y-80956457D01*
X140562118Y-80970736D01*
X140564278Y-80985297D01*
X140565000Y-81000000D01*
X140565000Y-82650000D01*
X140564278Y-82664703D01*
X140562118Y-82679264D01*
X140558541Y-82693543D01*
X140553582Y-82707403D01*
X140547288Y-82720710D01*
X140539720Y-82733336D01*
X140530952Y-82745159D01*
X140521066Y-82756066D01*
X140510159Y-82765952D01*
X140498336Y-82774720D01*
X140485710Y-82782288D01*
X140472403Y-82788582D01*
X140458543Y-82793541D01*
X140444264Y-82797118D01*
X140429703Y-82799278D01*
X140415000Y-82800000D01*
X140115000Y-82800000D01*
X140100297Y-82799278D01*
X140085736Y-82797118D01*
X140071457Y-82793541D01*
X140057597Y-82788582D01*
X140044290Y-82782288D01*
X140031664Y-82774720D01*
X140019841Y-82765952D01*
X140008934Y-82756066D01*
X139999048Y-82745159D01*
X139990280Y-82733336D01*
X139982712Y-82720710D01*
X139976418Y-82707403D01*
X139971459Y-82693543D01*
X139967882Y-82679264D01*
X139965722Y-82664703D01*
X139965000Y-82650000D01*
X139965000Y-81000000D01*
X139965722Y-80985297D01*
X139967882Y-80970736D01*
X139971459Y-80956457D01*
X139976418Y-80942597D01*
X139982712Y-80929290D01*
X139990280Y-80916664D01*
X139999048Y-80904841D01*
X140008934Y-80893934D01*
X140019841Y-80884048D01*
X140031664Y-80875280D01*
X140044290Y-80867712D01*
X140057597Y-80861418D01*
X140071457Y-80856459D01*
X140085736Y-80852882D01*
X140100297Y-80850722D01*
X140115000Y-80850000D01*
X140415000Y-80850000D01*
X140429703Y-80850722D01*
X140429703Y-80850722D01*
G37*
D14*
X140265000Y-81825000D03*
D13*
G36*
X139159703Y-80850722D02*
G01*
X139174264Y-80852882D01*
X139188543Y-80856459D01*
X139202403Y-80861418D01*
X139215710Y-80867712D01*
X139228336Y-80875280D01*
X139240159Y-80884048D01*
X139251066Y-80893934D01*
X139260952Y-80904841D01*
X139269720Y-80916664D01*
X139277288Y-80929290D01*
X139283582Y-80942597D01*
X139288541Y-80956457D01*
X139292118Y-80970736D01*
X139294278Y-80985297D01*
X139295000Y-81000000D01*
X139295000Y-82650000D01*
X139294278Y-82664703D01*
X139292118Y-82679264D01*
X139288541Y-82693543D01*
X139283582Y-82707403D01*
X139277288Y-82720710D01*
X139269720Y-82733336D01*
X139260952Y-82745159D01*
X139251066Y-82756066D01*
X139240159Y-82765952D01*
X139228336Y-82774720D01*
X139215710Y-82782288D01*
X139202403Y-82788582D01*
X139188543Y-82793541D01*
X139174264Y-82797118D01*
X139159703Y-82799278D01*
X139145000Y-82800000D01*
X138845000Y-82800000D01*
X138830297Y-82799278D01*
X138815736Y-82797118D01*
X138801457Y-82793541D01*
X138787597Y-82788582D01*
X138774290Y-82782288D01*
X138761664Y-82774720D01*
X138749841Y-82765952D01*
X138738934Y-82756066D01*
X138729048Y-82745159D01*
X138720280Y-82733336D01*
X138712712Y-82720710D01*
X138706418Y-82707403D01*
X138701459Y-82693543D01*
X138697882Y-82679264D01*
X138695722Y-82664703D01*
X138695000Y-82650000D01*
X138695000Y-81000000D01*
X138695722Y-80985297D01*
X138697882Y-80970736D01*
X138701459Y-80956457D01*
X138706418Y-80942597D01*
X138712712Y-80929290D01*
X138720280Y-80916664D01*
X138729048Y-80904841D01*
X138738934Y-80893934D01*
X138749841Y-80884048D01*
X138761664Y-80875280D01*
X138774290Y-80867712D01*
X138787597Y-80861418D01*
X138801457Y-80856459D01*
X138815736Y-80852882D01*
X138830297Y-80850722D01*
X138845000Y-80850000D01*
X139145000Y-80850000D01*
X139159703Y-80850722D01*
X139159703Y-80850722D01*
G37*
D14*
X138995000Y-81825000D03*
D13*
G36*
X137889703Y-80850722D02*
G01*
X137904264Y-80852882D01*
X137918543Y-80856459D01*
X137932403Y-80861418D01*
X137945710Y-80867712D01*
X137958336Y-80875280D01*
X137970159Y-80884048D01*
X137981066Y-80893934D01*
X137990952Y-80904841D01*
X137999720Y-80916664D01*
X138007288Y-80929290D01*
X138013582Y-80942597D01*
X138018541Y-80956457D01*
X138022118Y-80970736D01*
X138024278Y-80985297D01*
X138025000Y-81000000D01*
X138025000Y-82650000D01*
X138024278Y-82664703D01*
X138022118Y-82679264D01*
X138018541Y-82693543D01*
X138013582Y-82707403D01*
X138007288Y-82720710D01*
X137999720Y-82733336D01*
X137990952Y-82745159D01*
X137981066Y-82756066D01*
X137970159Y-82765952D01*
X137958336Y-82774720D01*
X137945710Y-82782288D01*
X137932403Y-82788582D01*
X137918543Y-82793541D01*
X137904264Y-82797118D01*
X137889703Y-82799278D01*
X137875000Y-82800000D01*
X137575000Y-82800000D01*
X137560297Y-82799278D01*
X137545736Y-82797118D01*
X137531457Y-82793541D01*
X137517597Y-82788582D01*
X137504290Y-82782288D01*
X137491664Y-82774720D01*
X137479841Y-82765952D01*
X137468934Y-82756066D01*
X137459048Y-82745159D01*
X137450280Y-82733336D01*
X137442712Y-82720710D01*
X137436418Y-82707403D01*
X137431459Y-82693543D01*
X137427882Y-82679264D01*
X137425722Y-82664703D01*
X137425000Y-82650000D01*
X137425000Y-81000000D01*
X137425722Y-80985297D01*
X137427882Y-80970736D01*
X137431459Y-80956457D01*
X137436418Y-80942597D01*
X137442712Y-80929290D01*
X137450280Y-80916664D01*
X137459048Y-80904841D01*
X137468934Y-80893934D01*
X137479841Y-80884048D01*
X137491664Y-80875280D01*
X137504290Y-80867712D01*
X137517597Y-80861418D01*
X137531457Y-80856459D01*
X137545736Y-80852882D01*
X137560297Y-80850722D01*
X137575000Y-80850000D01*
X137875000Y-80850000D01*
X137889703Y-80850722D01*
X137889703Y-80850722D01*
G37*
D14*
X137725000Y-81825000D03*
D13*
G36*
X136619703Y-80850722D02*
G01*
X136634264Y-80852882D01*
X136648543Y-80856459D01*
X136662403Y-80861418D01*
X136675710Y-80867712D01*
X136688336Y-80875280D01*
X136700159Y-80884048D01*
X136711066Y-80893934D01*
X136720952Y-80904841D01*
X136729720Y-80916664D01*
X136737288Y-80929290D01*
X136743582Y-80942597D01*
X136748541Y-80956457D01*
X136752118Y-80970736D01*
X136754278Y-80985297D01*
X136755000Y-81000000D01*
X136755000Y-82650000D01*
X136754278Y-82664703D01*
X136752118Y-82679264D01*
X136748541Y-82693543D01*
X136743582Y-82707403D01*
X136737288Y-82720710D01*
X136729720Y-82733336D01*
X136720952Y-82745159D01*
X136711066Y-82756066D01*
X136700159Y-82765952D01*
X136688336Y-82774720D01*
X136675710Y-82782288D01*
X136662403Y-82788582D01*
X136648543Y-82793541D01*
X136634264Y-82797118D01*
X136619703Y-82799278D01*
X136605000Y-82800000D01*
X136305000Y-82800000D01*
X136290297Y-82799278D01*
X136275736Y-82797118D01*
X136261457Y-82793541D01*
X136247597Y-82788582D01*
X136234290Y-82782288D01*
X136221664Y-82774720D01*
X136209841Y-82765952D01*
X136198934Y-82756066D01*
X136189048Y-82745159D01*
X136180280Y-82733336D01*
X136172712Y-82720710D01*
X136166418Y-82707403D01*
X136161459Y-82693543D01*
X136157882Y-82679264D01*
X136155722Y-82664703D01*
X136155000Y-82650000D01*
X136155000Y-81000000D01*
X136155722Y-80985297D01*
X136157882Y-80970736D01*
X136161459Y-80956457D01*
X136166418Y-80942597D01*
X136172712Y-80929290D01*
X136180280Y-80916664D01*
X136189048Y-80904841D01*
X136198934Y-80893934D01*
X136209841Y-80884048D01*
X136221664Y-80875280D01*
X136234290Y-80867712D01*
X136247597Y-80861418D01*
X136261457Y-80856459D01*
X136275736Y-80852882D01*
X136290297Y-80850722D01*
X136305000Y-80850000D01*
X136605000Y-80850000D01*
X136619703Y-80850722D01*
X136619703Y-80850722D01*
G37*
D14*
X136455000Y-81825000D03*
D13*
G36*
X156654703Y-76170722D02*
G01*
X156669264Y-76172882D01*
X156683543Y-76176459D01*
X156697403Y-76181418D01*
X156710710Y-76187712D01*
X156723336Y-76195280D01*
X156735159Y-76204048D01*
X156746066Y-76213934D01*
X156755952Y-76224841D01*
X156764720Y-76236664D01*
X156772288Y-76249290D01*
X156778582Y-76262597D01*
X156783541Y-76276457D01*
X156787118Y-76290736D01*
X156789278Y-76305297D01*
X156790000Y-76320000D01*
X156790000Y-77970000D01*
X156789278Y-77984703D01*
X156787118Y-77999264D01*
X156783541Y-78013543D01*
X156778582Y-78027403D01*
X156772288Y-78040710D01*
X156764720Y-78053336D01*
X156755952Y-78065159D01*
X156746066Y-78076066D01*
X156735159Y-78085952D01*
X156723336Y-78094720D01*
X156710710Y-78102288D01*
X156697403Y-78108582D01*
X156683543Y-78113541D01*
X156669264Y-78117118D01*
X156654703Y-78119278D01*
X156640000Y-78120000D01*
X156340000Y-78120000D01*
X156325297Y-78119278D01*
X156310736Y-78117118D01*
X156296457Y-78113541D01*
X156282597Y-78108582D01*
X156269290Y-78102288D01*
X156256664Y-78094720D01*
X156244841Y-78085952D01*
X156233934Y-78076066D01*
X156224048Y-78065159D01*
X156215280Y-78053336D01*
X156207712Y-78040710D01*
X156201418Y-78027403D01*
X156196459Y-78013543D01*
X156192882Y-77999264D01*
X156190722Y-77984703D01*
X156190000Y-77970000D01*
X156190000Y-76320000D01*
X156190722Y-76305297D01*
X156192882Y-76290736D01*
X156196459Y-76276457D01*
X156201418Y-76262597D01*
X156207712Y-76249290D01*
X156215280Y-76236664D01*
X156224048Y-76224841D01*
X156233934Y-76213934D01*
X156244841Y-76204048D01*
X156256664Y-76195280D01*
X156269290Y-76187712D01*
X156282597Y-76181418D01*
X156296457Y-76176459D01*
X156310736Y-76172882D01*
X156325297Y-76170722D01*
X156340000Y-76170000D01*
X156640000Y-76170000D01*
X156654703Y-76170722D01*
X156654703Y-76170722D01*
G37*
D14*
X156490000Y-77145000D03*
D13*
G36*
X157924703Y-76170722D02*
G01*
X157939264Y-76172882D01*
X157953543Y-76176459D01*
X157967403Y-76181418D01*
X157980710Y-76187712D01*
X157993336Y-76195280D01*
X158005159Y-76204048D01*
X158016066Y-76213934D01*
X158025952Y-76224841D01*
X158034720Y-76236664D01*
X158042288Y-76249290D01*
X158048582Y-76262597D01*
X158053541Y-76276457D01*
X158057118Y-76290736D01*
X158059278Y-76305297D01*
X158060000Y-76320000D01*
X158060000Y-77970000D01*
X158059278Y-77984703D01*
X158057118Y-77999264D01*
X158053541Y-78013543D01*
X158048582Y-78027403D01*
X158042288Y-78040710D01*
X158034720Y-78053336D01*
X158025952Y-78065159D01*
X158016066Y-78076066D01*
X158005159Y-78085952D01*
X157993336Y-78094720D01*
X157980710Y-78102288D01*
X157967403Y-78108582D01*
X157953543Y-78113541D01*
X157939264Y-78117118D01*
X157924703Y-78119278D01*
X157910000Y-78120000D01*
X157610000Y-78120000D01*
X157595297Y-78119278D01*
X157580736Y-78117118D01*
X157566457Y-78113541D01*
X157552597Y-78108582D01*
X157539290Y-78102288D01*
X157526664Y-78094720D01*
X157514841Y-78085952D01*
X157503934Y-78076066D01*
X157494048Y-78065159D01*
X157485280Y-78053336D01*
X157477712Y-78040710D01*
X157471418Y-78027403D01*
X157466459Y-78013543D01*
X157462882Y-77999264D01*
X157460722Y-77984703D01*
X157460000Y-77970000D01*
X157460000Y-76320000D01*
X157460722Y-76305297D01*
X157462882Y-76290736D01*
X157466459Y-76276457D01*
X157471418Y-76262597D01*
X157477712Y-76249290D01*
X157485280Y-76236664D01*
X157494048Y-76224841D01*
X157503934Y-76213934D01*
X157514841Y-76204048D01*
X157526664Y-76195280D01*
X157539290Y-76187712D01*
X157552597Y-76181418D01*
X157566457Y-76176459D01*
X157580736Y-76172882D01*
X157595297Y-76170722D01*
X157610000Y-76170000D01*
X157910000Y-76170000D01*
X157924703Y-76170722D01*
X157924703Y-76170722D01*
G37*
D14*
X157760000Y-77145000D03*
D13*
G36*
X159194703Y-76170722D02*
G01*
X159209264Y-76172882D01*
X159223543Y-76176459D01*
X159237403Y-76181418D01*
X159250710Y-76187712D01*
X159263336Y-76195280D01*
X159275159Y-76204048D01*
X159286066Y-76213934D01*
X159295952Y-76224841D01*
X159304720Y-76236664D01*
X159312288Y-76249290D01*
X159318582Y-76262597D01*
X159323541Y-76276457D01*
X159327118Y-76290736D01*
X159329278Y-76305297D01*
X159330000Y-76320000D01*
X159330000Y-77970000D01*
X159329278Y-77984703D01*
X159327118Y-77999264D01*
X159323541Y-78013543D01*
X159318582Y-78027403D01*
X159312288Y-78040710D01*
X159304720Y-78053336D01*
X159295952Y-78065159D01*
X159286066Y-78076066D01*
X159275159Y-78085952D01*
X159263336Y-78094720D01*
X159250710Y-78102288D01*
X159237403Y-78108582D01*
X159223543Y-78113541D01*
X159209264Y-78117118D01*
X159194703Y-78119278D01*
X159180000Y-78120000D01*
X158880000Y-78120000D01*
X158865297Y-78119278D01*
X158850736Y-78117118D01*
X158836457Y-78113541D01*
X158822597Y-78108582D01*
X158809290Y-78102288D01*
X158796664Y-78094720D01*
X158784841Y-78085952D01*
X158773934Y-78076066D01*
X158764048Y-78065159D01*
X158755280Y-78053336D01*
X158747712Y-78040710D01*
X158741418Y-78027403D01*
X158736459Y-78013543D01*
X158732882Y-77999264D01*
X158730722Y-77984703D01*
X158730000Y-77970000D01*
X158730000Y-76320000D01*
X158730722Y-76305297D01*
X158732882Y-76290736D01*
X158736459Y-76276457D01*
X158741418Y-76262597D01*
X158747712Y-76249290D01*
X158755280Y-76236664D01*
X158764048Y-76224841D01*
X158773934Y-76213934D01*
X158784841Y-76204048D01*
X158796664Y-76195280D01*
X158809290Y-76187712D01*
X158822597Y-76181418D01*
X158836457Y-76176459D01*
X158850736Y-76172882D01*
X158865297Y-76170722D01*
X158880000Y-76170000D01*
X159180000Y-76170000D01*
X159194703Y-76170722D01*
X159194703Y-76170722D01*
G37*
D14*
X159030000Y-77145000D03*
D13*
G36*
X160464703Y-76170722D02*
G01*
X160479264Y-76172882D01*
X160493543Y-76176459D01*
X160507403Y-76181418D01*
X160520710Y-76187712D01*
X160533336Y-76195280D01*
X160545159Y-76204048D01*
X160556066Y-76213934D01*
X160565952Y-76224841D01*
X160574720Y-76236664D01*
X160582288Y-76249290D01*
X160588582Y-76262597D01*
X160593541Y-76276457D01*
X160597118Y-76290736D01*
X160599278Y-76305297D01*
X160600000Y-76320000D01*
X160600000Y-77970000D01*
X160599278Y-77984703D01*
X160597118Y-77999264D01*
X160593541Y-78013543D01*
X160588582Y-78027403D01*
X160582288Y-78040710D01*
X160574720Y-78053336D01*
X160565952Y-78065159D01*
X160556066Y-78076066D01*
X160545159Y-78085952D01*
X160533336Y-78094720D01*
X160520710Y-78102288D01*
X160507403Y-78108582D01*
X160493543Y-78113541D01*
X160479264Y-78117118D01*
X160464703Y-78119278D01*
X160450000Y-78120000D01*
X160150000Y-78120000D01*
X160135297Y-78119278D01*
X160120736Y-78117118D01*
X160106457Y-78113541D01*
X160092597Y-78108582D01*
X160079290Y-78102288D01*
X160066664Y-78094720D01*
X160054841Y-78085952D01*
X160043934Y-78076066D01*
X160034048Y-78065159D01*
X160025280Y-78053336D01*
X160017712Y-78040710D01*
X160011418Y-78027403D01*
X160006459Y-78013543D01*
X160002882Y-77999264D01*
X160000722Y-77984703D01*
X160000000Y-77970000D01*
X160000000Y-76320000D01*
X160000722Y-76305297D01*
X160002882Y-76290736D01*
X160006459Y-76276457D01*
X160011418Y-76262597D01*
X160017712Y-76249290D01*
X160025280Y-76236664D01*
X160034048Y-76224841D01*
X160043934Y-76213934D01*
X160054841Y-76204048D01*
X160066664Y-76195280D01*
X160079290Y-76187712D01*
X160092597Y-76181418D01*
X160106457Y-76176459D01*
X160120736Y-76172882D01*
X160135297Y-76170722D01*
X160150000Y-76170000D01*
X160450000Y-76170000D01*
X160464703Y-76170722D01*
X160464703Y-76170722D01*
G37*
D14*
X160300000Y-77145000D03*
D13*
G36*
X161734703Y-76170722D02*
G01*
X161749264Y-76172882D01*
X161763543Y-76176459D01*
X161777403Y-76181418D01*
X161790710Y-76187712D01*
X161803336Y-76195280D01*
X161815159Y-76204048D01*
X161826066Y-76213934D01*
X161835952Y-76224841D01*
X161844720Y-76236664D01*
X161852288Y-76249290D01*
X161858582Y-76262597D01*
X161863541Y-76276457D01*
X161867118Y-76290736D01*
X161869278Y-76305297D01*
X161870000Y-76320000D01*
X161870000Y-77970000D01*
X161869278Y-77984703D01*
X161867118Y-77999264D01*
X161863541Y-78013543D01*
X161858582Y-78027403D01*
X161852288Y-78040710D01*
X161844720Y-78053336D01*
X161835952Y-78065159D01*
X161826066Y-78076066D01*
X161815159Y-78085952D01*
X161803336Y-78094720D01*
X161790710Y-78102288D01*
X161777403Y-78108582D01*
X161763543Y-78113541D01*
X161749264Y-78117118D01*
X161734703Y-78119278D01*
X161720000Y-78120000D01*
X161420000Y-78120000D01*
X161405297Y-78119278D01*
X161390736Y-78117118D01*
X161376457Y-78113541D01*
X161362597Y-78108582D01*
X161349290Y-78102288D01*
X161336664Y-78094720D01*
X161324841Y-78085952D01*
X161313934Y-78076066D01*
X161304048Y-78065159D01*
X161295280Y-78053336D01*
X161287712Y-78040710D01*
X161281418Y-78027403D01*
X161276459Y-78013543D01*
X161272882Y-77999264D01*
X161270722Y-77984703D01*
X161270000Y-77970000D01*
X161270000Y-76320000D01*
X161270722Y-76305297D01*
X161272882Y-76290736D01*
X161276459Y-76276457D01*
X161281418Y-76262597D01*
X161287712Y-76249290D01*
X161295280Y-76236664D01*
X161304048Y-76224841D01*
X161313934Y-76213934D01*
X161324841Y-76204048D01*
X161336664Y-76195280D01*
X161349290Y-76187712D01*
X161362597Y-76181418D01*
X161376457Y-76176459D01*
X161390736Y-76172882D01*
X161405297Y-76170722D01*
X161420000Y-76170000D01*
X161720000Y-76170000D01*
X161734703Y-76170722D01*
X161734703Y-76170722D01*
G37*
D14*
X161570000Y-77145000D03*
D13*
G36*
X163004703Y-76170722D02*
G01*
X163019264Y-76172882D01*
X163033543Y-76176459D01*
X163047403Y-76181418D01*
X163060710Y-76187712D01*
X163073336Y-76195280D01*
X163085159Y-76204048D01*
X163096066Y-76213934D01*
X163105952Y-76224841D01*
X163114720Y-76236664D01*
X163122288Y-76249290D01*
X163128582Y-76262597D01*
X163133541Y-76276457D01*
X163137118Y-76290736D01*
X163139278Y-76305297D01*
X163140000Y-76320000D01*
X163140000Y-77970000D01*
X163139278Y-77984703D01*
X163137118Y-77999264D01*
X163133541Y-78013543D01*
X163128582Y-78027403D01*
X163122288Y-78040710D01*
X163114720Y-78053336D01*
X163105952Y-78065159D01*
X163096066Y-78076066D01*
X163085159Y-78085952D01*
X163073336Y-78094720D01*
X163060710Y-78102288D01*
X163047403Y-78108582D01*
X163033543Y-78113541D01*
X163019264Y-78117118D01*
X163004703Y-78119278D01*
X162990000Y-78120000D01*
X162690000Y-78120000D01*
X162675297Y-78119278D01*
X162660736Y-78117118D01*
X162646457Y-78113541D01*
X162632597Y-78108582D01*
X162619290Y-78102288D01*
X162606664Y-78094720D01*
X162594841Y-78085952D01*
X162583934Y-78076066D01*
X162574048Y-78065159D01*
X162565280Y-78053336D01*
X162557712Y-78040710D01*
X162551418Y-78027403D01*
X162546459Y-78013543D01*
X162542882Y-77999264D01*
X162540722Y-77984703D01*
X162540000Y-77970000D01*
X162540000Y-76320000D01*
X162540722Y-76305297D01*
X162542882Y-76290736D01*
X162546459Y-76276457D01*
X162551418Y-76262597D01*
X162557712Y-76249290D01*
X162565280Y-76236664D01*
X162574048Y-76224841D01*
X162583934Y-76213934D01*
X162594841Y-76204048D01*
X162606664Y-76195280D01*
X162619290Y-76187712D01*
X162632597Y-76181418D01*
X162646457Y-76176459D01*
X162660736Y-76172882D01*
X162675297Y-76170722D01*
X162690000Y-76170000D01*
X162990000Y-76170000D01*
X163004703Y-76170722D01*
X163004703Y-76170722D01*
G37*
D14*
X162840000Y-77145000D03*
D13*
G36*
X164274703Y-76170722D02*
G01*
X164289264Y-76172882D01*
X164303543Y-76176459D01*
X164317403Y-76181418D01*
X164330710Y-76187712D01*
X164343336Y-76195280D01*
X164355159Y-76204048D01*
X164366066Y-76213934D01*
X164375952Y-76224841D01*
X164384720Y-76236664D01*
X164392288Y-76249290D01*
X164398582Y-76262597D01*
X164403541Y-76276457D01*
X164407118Y-76290736D01*
X164409278Y-76305297D01*
X164410000Y-76320000D01*
X164410000Y-77970000D01*
X164409278Y-77984703D01*
X164407118Y-77999264D01*
X164403541Y-78013543D01*
X164398582Y-78027403D01*
X164392288Y-78040710D01*
X164384720Y-78053336D01*
X164375952Y-78065159D01*
X164366066Y-78076066D01*
X164355159Y-78085952D01*
X164343336Y-78094720D01*
X164330710Y-78102288D01*
X164317403Y-78108582D01*
X164303543Y-78113541D01*
X164289264Y-78117118D01*
X164274703Y-78119278D01*
X164260000Y-78120000D01*
X163960000Y-78120000D01*
X163945297Y-78119278D01*
X163930736Y-78117118D01*
X163916457Y-78113541D01*
X163902597Y-78108582D01*
X163889290Y-78102288D01*
X163876664Y-78094720D01*
X163864841Y-78085952D01*
X163853934Y-78076066D01*
X163844048Y-78065159D01*
X163835280Y-78053336D01*
X163827712Y-78040710D01*
X163821418Y-78027403D01*
X163816459Y-78013543D01*
X163812882Y-77999264D01*
X163810722Y-77984703D01*
X163810000Y-77970000D01*
X163810000Y-76320000D01*
X163810722Y-76305297D01*
X163812882Y-76290736D01*
X163816459Y-76276457D01*
X163821418Y-76262597D01*
X163827712Y-76249290D01*
X163835280Y-76236664D01*
X163844048Y-76224841D01*
X163853934Y-76213934D01*
X163864841Y-76204048D01*
X163876664Y-76195280D01*
X163889290Y-76187712D01*
X163902597Y-76181418D01*
X163916457Y-76176459D01*
X163930736Y-76172882D01*
X163945297Y-76170722D01*
X163960000Y-76170000D01*
X164260000Y-76170000D01*
X164274703Y-76170722D01*
X164274703Y-76170722D01*
G37*
D14*
X164110000Y-77145000D03*
D13*
G36*
X164274703Y-81120722D02*
G01*
X164289264Y-81122882D01*
X164303543Y-81126459D01*
X164317403Y-81131418D01*
X164330710Y-81137712D01*
X164343336Y-81145280D01*
X164355159Y-81154048D01*
X164366066Y-81163934D01*
X164375952Y-81174841D01*
X164384720Y-81186664D01*
X164392288Y-81199290D01*
X164398582Y-81212597D01*
X164403541Y-81226457D01*
X164407118Y-81240736D01*
X164409278Y-81255297D01*
X164410000Y-81270000D01*
X164410000Y-82920000D01*
X164409278Y-82934703D01*
X164407118Y-82949264D01*
X164403541Y-82963543D01*
X164398582Y-82977403D01*
X164392288Y-82990710D01*
X164384720Y-83003336D01*
X164375952Y-83015159D01*
X164366066Y-83026066D01*
X164355159Y-83035952D01*
X164343336Y-83044720D01*
X164330710Y-83052288D01*
X164317403Y-83058582D01*
X164303543Y-83063541D01*
X164289264Y-83067118D01*
X164274703Y-83069278D01*
X164260000Y-83070000D01*
X163960000Y-83070000D01*
X163945297Y-83069278D01*
X163930736Y-83067118D01*
X163916457Y-83063541D01*
X163902597Y-83058582D01*
X163889290Y-83052288D01*
X163876664Y-83044720D01*
X163864841Y-83035952D01*
X163853934Y-83026066D01*
X163844048Y-83015159D01*
X163835280Y-83003336D01*
X163827712Y-82990710D01*
X163821418Y-82977403D01*
X163816459Y-82963543D01*
X163812882Y-82949264D01*
X163810722Y-82934703D01*
X163810000Y-82920000D01*
X163810000Y-81270000D01*
X163810722Y-81255297D01*
X163812882Y-81240736D01*
X163816459Y-81226457D01*
X163821418Y-81212597D01*
X163827712Y-81199290D01*
X163835280Y-81186664D01*
X163844048Y-81174841D01*
X163853934Y-81163934D01*
X163864841Y-81154048D01*
X163876664Y-81145280D01*
X163889290Y-81137712D01*
X163902597Y-81131418D01*
X163916457Y-81126459D01*
X163930736Y-81122882D01*
X163945297Y-81120722D01*
X163960000Y-81120000D01*
X164260000Y-81120000D01*
X164274703Y-81120722D01*
X164274703Y-81120722D01*
G37*
D14*
X164110000Y-82095000D03*
D13*
G36*
X163004703Y-81120722D02*
G01*
X163019264Y-81122882D01*
X163033543Y-81126459D01*
X163047403Y-81131418D01*
X163060710Y-81137712D01*
X163073336Y-81145280D01*
X163085159Y-81154048D01*
X163096066Y-81163934D01*
X163105952Y-81174841D01*
X163114720Y-81186664D01*
X163122288Y-81199290D01*
X163128582Y-81212597D01*
X163133541Y-81226457D01*
X163137118Y-81240736D01*
X163139278Y-81255297D01*
X163140000Y-81270000D01*
X163140000Y-82920000D01*
X163139278Y-82934703D01*
X163137118Y-82949264D01*
X163133541Y-82963543D01*
X163128582Y-82977403D01*
X163122288Y-82990710D01*
X163114720Y-83003336D01*
X163105952Y-83015159D01*
X163096066Y-83026066D01*
X163085159Y-83035952D01*
X163073336Y-83044720D01*
X163060710Y-83052288D01*
X163047403Y-83058582D01*
X163033543Y-83063541D01*
X163019264Y-83067118D01*
X163004703Y-83069278D01*
X162990000Y-83070000D01*
X162690000Y-83070000D01*
X162675297Y-83069278D01*
X162660736Y-83067118D01*
X162646457Y-83063541D01*
X162632597Y-83058582D01*
X162619290Y-83052288D01*
X162606664Y-83044720D01*
X162594841Y-83035952D01*
X162583934Y-83026066D01*
X162574048Y-83015159D01*
X162565280Y-83003336D01*
X162557712Y-82990710D01*
X162551418Y-82977403D01*
X162546459Y-82963543D01*
X162542882Y-82949264D01*
X162540722Y-82934703D01*
X162540000Y-82920000D01*
X162540000Y-81270000D01*
X162540722Y-81255297D01*
X162542882Y-81240736D01*
X162546459Y-81226457D01*
X162551418Y-81212597D01*
X162557712Y-81199290D01*
X162565280Y-81186664D01*
X162574048Y-81174841D01*
X162583934Y-81163934D01*
X162594841Y-81154048D01*
X162606664Y-81145280D01*
X162619290Y-81137712D01*
X162632597Y-81131418D01*
X162646457Y-81126459D01*
X162660736Y-81122882D01*
X162675297Y-81120722D01*
X162690000Y-81120000D01*
X162990000Y-81120000D01*
X163004703Y-81120722D01*
X163004703Y-81120722D01*
G37*
D14*
X162840000Y-82095000D03*
D13*
G36*
X161734703Y-81120722D02*
G01*
X161749264Y-81122882D01*
X161763543Y-81126459D01*
X161777403Y-81131418D01*
X161790710Y-81137712D01*
X161803336Y-81145280D01*
X161815159Y-81154048D01*
X161826066Y-81163934D01*
X161835952Y-81174841D01*
X161844720Y-81186664D01*
X161852288Y-81199290D01*
X161858582Y-81212597D01*
X161863541Y-81226457D01*
X161867118Y-81240736D01*
X161869278Y-81255297D01*
X161870000Y-81270000D01*
X161870000Y-82920000D01*
X161869278Y-82934703D01*
X161867118Y-82949264D01*
X161863541Y-82963543D01*
X161858582Y-82977403D01*
X161852288Y-82990710D01*
X161844720Y-83003336D01*
X161835952Y-83015159D01*
X161826066Y-83026066D01*
X161815159Y-83035952D01*
X161803336Y-83044720D01*
X161790710Y-83052288D01*
X161777403Y-83058582D01*
X161763543Y-83063541D01*
X161749264Y-83067118D01*
X161734703Y-83069278D01*
X161720000Y-83070000D01*
X161420000Y-83070000D01*
X161405297Y-83069278D01*
X161390736Y-83067118D01*
X161376457Y-83063541D01*
X161362597Y-83058582D01*
X161349290Y-83052288D01*
X161336664Y-83044720D01*
X161324841Y-83035952D01*
X161313934Y-83026066D01*
X161304048Y-83015159D01*
X161295280Y-83003336D01*
X161287712Y-82990710D01*
X161281418Y-82977403D01*
X161276459Y-82963543D01*
X161272882Y-82949264D01*
X161270722Y-82934703D01*
X161270000Y-82920000D01*
X161270000Y-81270000D01*
X161270722Y-81255297D01*
X161272882Y-81240736D01*
X161276459Y-81226457D01*
X161281418Y-81212597D01*
X161287712Y-81199290D01*
X161295280Y-81186664D01*
X161304048Y-81174841D01*
X161313934Y-81163934D01*
X161324841Y-81154048D01*
X161336664Y-81145280D01*
X161349290Y-81137712D01*
X161362597Y-81131418D01*
X161376457Y-81126459D01*
X161390736Y-81122882D01*
X161405297Y-81120722D01*
X161420000Y-81120000D01*
X161720000Y-81120000D01*
X161734703Y-81120722D01*
X161734703Y-81120722D01*
G37*
D14*
X161570000Y-82095000D03*
D13*
G36*
X160464703Y-81120722D02*
G01*
X160479264Y-81122882D01*
X160493543Y-81126459D01*
X160507403Y-81131418D01*
X160520710Y-81137712D01*
X160533336Y-81145280D01*
X160545159Y-81154048D01*
X160556066Y-81163934D01*
X160565952Y-81174841D01*
X160574720Y-81186664D01*
X160582288Y-81199290D01*
X160588582Y-81212597D01*
X160593541Y-81226457D01*
X160597118Y-81240736D01*
X160599278Y-81255297D01*
X160600000Y-81270000D01*
X160600000Y-82920000D01*
X160599278Y-82934703D01*
X160597118Y-82949264D01*
X160593541Y-82963543D01*
X160588582Y-82977403D01*
X160582288Y-82990710D01*
X160574720Y-83003336D01*
X160565952Y-83015159D01*
X160556066Y-83026066D01*
X160545159Y-83035952D01*
X160533336Y-83044720D01*
X160520710Y-83052288D01*
X160507403Y-83058582D01*
X160493543Y-83063541D01*
X160479264Y-83067118D01*
X160464703Y-83069278D01*
X160450000Y-83070000D01*
X160150000Y-83070000D01*
X160135297Y-83069278D01*
X160120736Y-83067118D01*
X160106457Y-83063541D01*
X160092597Y-83058582D01*
X160079290Y-83052288D01*
X160066664Y-83044720D01*
X160054841Y-83035952D01*
X160043934Y-83026066D01*
X160034048Y-83015159D01*
X160025280Y-83003336D01*
X160017712Y-82990710D01*
X160011418Y-82977403D01*
X160006459Y-82963543D01*
X160002882Y-82949264D01*
X160000722Y-82934703D01*
X160000000Y-82920000D01*
X160000000Y-81270000D01*
X160000722Y-81255297D01*
X160002882Y-81240736D01*
X160006459Y-81226457D01*
X160011418Y-81212597D01*
X160017712Y-81199290D01*
X160025280Y-81186664D01*
X160034048Y-81174841D01*
X160043934Y-81163934D01*
X160054841Y-81154048D01*
X160066664Y-81145280D01*
X160079290Y-81137712D01*
X160092597Y-81131418D01*
X160106457Y-81126459D01*
X160120736Y-81122882D01*
X160135297Y-81120722D01*
X160150000Y-81120000D01*
X160450000Y-81120000D01*
X160464703Y-81120722D01*
X160464703Y-81120722D01*
G37*
D14*
X160300000Y-82095000D03*
D13*
G36*
X159194703Y-81120722D02*
G01*
X159209264Y-81122882D01*
X159223543Y-81126459D01*
X159237403Y-81131418D01*
X159250710Y-81137712D01*
X159263336Y-81145280D01*
X159275159Y-81154048D01*
X159286066Y-81163934D01*
X159295952Y-81174841D01*
X159304720Y-81186664D01*
X159312288Y-81199290D01*
X159318582Y-81212597D01*
X159323541Y-81226457D01*
X159327118Y-81240736D01*
X159329278Y-81255297D01*
X159330000Y-81270000D01*
X159330000Y-82920000D01*
X159329278Y-82934703D01*
X159327118Y-82949264D01*
X159323541Y-82963543D01*
X159318582Y-82977403D01*
X159312288Y-82990710D01*
X159304720Y-83003336D01*
X159295952Y-83015159D01*
X159286066Y-83026066D01*
X159275159Y-83035952D01*
X159263336Y-83044720D01*
X159250710Y-83052288D01*
X159237403Y-83058582D01*
X159223543Y-83063541D01*
X159209264Y-83067118D01*
X159194703Y-83069278D01*
X159180000Y-83070000D01*
X158880000Y-83070000D01*
X158865297Y-83069278D01*
X158850736Y-83067118D01*
X158836457Y-83063541D01*
X158822597Y-83058582D01*
X158809290Y-83052288D01*
X158796664Y-83044720D01*
X158784841Y-83035952D01*
X158773934Y-83026066D01*
X158764048Y-83015159D01*
X158755280Y-83003336D01*
X158747712Y-82990710D01*
X158741418Y-82977403D01*
X158736459Y-82963543D01*
X158732882Y-82949264D01*
X158730722Y-82934703D01*
X158730000Y-82920000D01*
X158730000Y-81270000D01*
X158730722Y-81255297D01*
X158732882Y-81240736D01*
X158736459Y-81226457D01*
X158741418Y-81212597D01*
X158747712Y-81199290D01*
X158755280Y-81186664D01*
X158764048Y-81174841D01*
X158773934Y-81163934D01*
X158784841Y-81154048D01*
X158796664Y-81145280D01*
X158809290Y-81137712D01*
X158822597Y-81131418D01*
X158836457Y-81126459D01*
X158850736Y-81122882D01*
X158865297Y-81120722D01*
X158880000Y-81120000D01*
X159180000Y-81120000D01*
X159194703Y-81120722D01*
X159194703Y-81120722D01*
G37*
D14*
X159030000Y-82095000D03*
D13*
G36*
X157924703Y-81120722D02*
G01*
X157939264Y-81122882D01*
X157953543Y-81126459D01*
X157967403Y-81131418D01*
X157980710Y-81137712D01*
X157993336Y-81145280D01*
X158005159Y-81154048D01*
X158016066Y-81163934D01*
X158025952Y-81174841D01*
X158034720Y-81186664D01*
X158042288Y-81199290D01*
X158048582Y-81212597D01*
X158053541Y-81226457D01*
X158057118Y-81240736D01*
X158059278Y-81255297D01*
X158060000Y-81270000D01*
X158060000Y-82920000D01*
X158059278Y-82934703D01*
X158057118Y-82949264D01*
X158053541Y-82963543D01*
X158048582Y-82977403D01*
X158042288Y-82990710D01*
X158034720Y-83003336D01*
X158025952Y-83015159D01*
X158016066Y-83026066D01*
X158005159Y-83035952D01*
X157993336Y-83044720D01*
X157980710Y-83052288D01*
X157967403Y-83058582D01*
X157953543Y-83063541D01*
X157939264Y-83067118D01*
X157924703Y-83069278D01*
X157910000Y-83070000D01*
X157610000Y-83070000D01*
X157595297Y-83069278D01*
X157580736Y-83067118D01*
X157566457Y-83063541D01*
X157552597Y-83058582D01*
X157539290Y-83052288D01*
X157526664Y-83044720D01*
X157514841Y-83035952D01*
X157503934Y-83026066D01*
X157494048Y-83015159D01*
X157485280Y-83003336D01*
X157477712Y-82990710D01*
X157471418Y-82977403D01*
X157466459Y-82963543D01*
X157462882Y-82949264D01*
X157460722Y-82934703D01*
X157460000Y-82920000D01*
X157460000Y-81270000D01*
X157460722Y-81255297D01*
X157462882Y-81240736D01*
X157466459Y-81226457D01*
X157471418Y-81212597D01*
X157477712Y-81199290D01*
X157485280Y-81186664D01*
X157494048Y-81174841D01*
X157503934Y-81163934D01*
X157514841Y-81154048D01*
X157526664Y-81145280D01*
X157539290Y-81137712D01*
X157552597Y-81131418D01*
X157566457Y-81126459D01*
X157580736Y-81122882D01*
X157595297Y-81120722D01*
X157610000Y-81120000D01*
X157910000Y-81120000D01*
X157924703Y-81120722D01*
X157924703Y-81120722D01*
G37*
D14*
X157760000Y-82095000D03*
D13*
G36*
X156654703Y-81120722D02*
G01*
X156669264Y-81122882D01*
X156683543Y-81126459D01*
X156697403Y-81131418D01*
X156710710Y-81137712D01*
X156723336Y-81145280D01*
X156735159Y-81154048D01*
X156746066Y-81163934D01*
X156755952Y-81174841D01*
X156764720Y-81186664D01*
X156772288Y-81199290D01*
X156778582Y-81212597D01*
X156783541Y-81226457D01*
X156787118Y-81240736D01*
X156789278Y-81255297D01*
X156790000Y-81270000D01*
X156790000Y-82920000D01*
X156789278Y-82934703D01*
X156787118Y-82949264D01*
X156783541Y-82963543D01*
X156778582Y-82977403D01*
X156772288Y-82990710D01*
X156764720Y-83003336D01*
X156755952Y-83015159D01*
X156746066Y-83026066D01*
X156735159Y-83035952D01*
X156723336Y-83044720D01*
X156710710Y-83052288D01*
X156697403Y-83058582D01*
X156683543Y-83063541D01*
X156669264Y-83067118D01*
X156654703Y-83069278D01*
X156640000Y-83070000D01*
X156340000Y-83070000D01*
X156325297Y-83069278D01*
X156310736Y-83067118D01*
X156296457Y-83063541D01*
X156282597Y-83058582D01*
X156269290Y-83052288D01*
X156256664Y-83044720D01*
X156244841Y-83035952D01*
X156233934Y-83026066D01*
X156224048Y-83015159D01*
X156215280Y-83003336D01*
X156207712Y-82990710D01*
X156201418Y-82977403D01*
X156196459Y-82963543D01*
X156192882Y-82949264D01*
X156190722Y-82934703D01*
X156190000Y-82920000D01*
X156190000Y-81270000D01*
X156190722Y-81255297D01*
X156192882Y-81240736D01*
X156196459Y-81226457D01*
X156201418Y-81212597D01*
X156207712Y-81199290D01*
X156215280Y-81186664D01*
X156224048Y-81174841D01*
X156233934Y-81163934D01*
X156244841Y-81154048D01*
X156256664Y-81145280D01*
X156269290Y-81137712D01*
X156282597Y-81131418D01*
X156296457Y-81126459D01*
X156310736Y-81122882D01*
X156325297Y-81120722D01*
X156340000Y-81120000D01*
X156640000Y-81120000D01*
X156654703Y-81120722D01*
X156654703Y-81120722D01*
G37*
D14*
X156490000Y-82095000D03*
D15*
X142810000Y-90300000D03*
X140110000Y-90300000D03*
X140400000Y-64032000D03*
X143100000Y-64032000D03*
X115960000Y-90610000D03*
X113260000Y-90610000D03*
X125000000Y-90300000D03*
X127700000Y-90300000D03*
X132260000Y-90300000D03*
X134960000Y-90300000D03*
X145950000Y-70844000D03*
X148650000Y-70844000D03*
X154750000Y-64032000D03*
X152050000Y-64032000D03*
X154400000Y-70844000D03*
X151700000Y-70844000D03*
X140150000Y-70844000D03*
X142850000Y-70844000D03*
D16*
X95530000Y-77780000D03*
X95530000Y-80480000D03*
D15*
X134260000Y-64032000D03*
X136960000Y-64032000D03*
X176420000Y-87650000D03*
X173720000Y-87650000D03*
X173780000Y-91030000D03*
X176480000Y-91030000D03*
X146360000Y-64032000D03*
X149060000Y-64032000D03*
X146900000Y-90300000D03*
X149600000Y-90300000D03*
X123320000Y-63964000D03*
X120620000Y-63964000D03*
D16*
X138548000Y-98000000D03*
X138548000Y-95300000D03*
D15*
X173780000Y-80365000D03*
X176480000Y-80365000D03*
X176480000Y-76790000D03*
X173780000Y-76790000D03*
D13*
G36*
X126647504Y-95606204D02*
G01*
X126671773Y-95609804D01*
X126695571Y-95615765D01*
X126718671Y-95624030D01*
X126740849Y-95634520D01*
X126761893Y-95647133D01*
X126781598Y-95661747D01*
X126799777Y-95678223D01*
X126816253Y-95696402D01*
X126830867Y-95716107D01*
X126843480Y-95737151D01*
X126853970Y-95759329D01*
X126862235Y-95782429D01*
X126868196Y-95806227D01*
X126871796Y-95830496D01*
X126873000Y-95855000D01*
X126873000Y-98005000D01*
X126871796Y-98029504D01*
X126868196Y-98053773D01*
X126862235Y-98077571D01*
X126853970Y-98100671D01*
X126843480Y-98122849D01*
X126830867Y-98143893D01*
X126816253Y-98163598D01*
X126799777Y-98181777D01*
X126781598Y-98198253D01*
X126761893Y-98212867D01*
X126740849Y-98225480D01*
X126718671Y-98235970D01*
X126695571Y-98244235D01*
X126671773Y-98250196D01*
X126647504Y-98253796D01*
X126623000Y-98255000D01*
X125698000Y-98255000D01*
X125673496Y-98253796D01*
X125649227Y-98250196D01*
X125625429Y-98244235D01*
X125602329Y-98235970D01*
X125580151Y-98225480D01*
X125559107Y-98212867D01*
X125539402Y-98198253D01*
X125521223Y-98181777D01*
X125504747Y-98163598D01*
X125490133Y-98143893D01*
X125477520Y-98122849D01*
X125467030Y-98100671D01*
X125458765Y-98077571D01*
X125452804Y-98053773D01*
X125449204Y-98029504D01*
X125448000Y-98005000D01*
X125448000Y-95855000D01*
X125449204Y-95830496D01*
X125452804Y-95806227D01*
X125458765Y-95782429D01*
X125467030Y-95759329D01*
X125477520Y-95737151D01*
X125490133Y-95716107D01*
X125504747Y-95696402D01*
X125521223Y-95678223D01*
X125539402Y-95661747D01*
X125559107Y-95647133D01*
X125580151Y-95634520D01*
X125602329Y-95624030D01*
X125625429Y-95615765D01*
X125649227Y-95609804D01*
X125673496Y-95606204D01*
X125698000Y-95605000D01*
X126623000Y-95605000D01*
X126647504Y-95606204D01*
X126647504Y-95606204D01*
G37*
D17*
X126160500Y-96930000D03*
D13*
G36*
X129622504Y-95606204D02*
G01*
X129646773Y-95609804D01*
X129670571Y-95615765D01*
X129693671Y-95624030D01*
X129715849Y-95634520D01*
X129736893Y-95647133D01*
X129756598Y-95661747D01*
X129774777Y-95678223D01*
X129791253Y-95696402D01*
X129805867Y-95716107D01*
X129818480Y-95737151D01*
X129828970Y-95759329D01*
X129837235Y-95782429D01*
X129843196Y-95806227D01*
X129846796Y-95830496D01*
X129848000Y-95855000D01*
X129848000Y-98005000D01*
X129846796Y-98029504D01*
X129843196Y-98053773D01*
X129837235Y-98077571D01*
X129828970Y-98100671D01*
X129818480Y-98122849D01*
X129805867Y-98143893D01*
X129791253Y-98163598D01*
X129774777Y-98181777D01*
X129756598Y-98198253D01*
X129736893Y-98212867D01*
X129715849Y-98225480D01*
X129693671Y-98235970D01*
X129670571Y-98244235D01*
X129646773Y-98250196D01*
X129622504Y-98253796D01*
X129598000Y-98255000D01*
X128673000Y-98255000D01*
X128648496Y-98253796D01*
X128624227Y-98250196D01*
X128600429Y-98244235D01*
X128577329Y-98235970D01*
X128555151Y-98225480D01*
X128534107Y-98212867D01*
X128514402Y-98198253D01*
X128496223Y-98181777D01*
X128479747Y-98163598D01*
X128465133Y-98143893D01*
X128452520Y-98122849D01*
X128442030Y-98100671D01*
X128433765Y-98077571D01*
X128427804Y-98053773D01*
X128424204Y-98029504D01*
X128423000Y-98005000D01*
X128423000Y-95855000D01*
X128424204Y-95830496D01*
X128427804Y-95806227D01*
X128433765Y-95782429D01*
X128442030Y-95759329D01*
X128452520Y-95737151D01*
X128465133Y-95716107D01*
X128479747Y-95696402D01*
X128496223Y-95678223D01*
X128514402Y-95661747D01*
X128534107Y-95647133D01*
X128555151Y-95634520D01*
X128577329Y-95624030D01*
X128600429Y-95615765D01*
X128624227Y-95609804D01*
X128648496Y-95606204D01*
X128673000Y-95605000D01*
X129598000Y-95605000D01*
X129622504Y-95606204D01*
X129622504Y-95606204D01*
G37*
D17*
X129135500Y-96930000D03*
D18*
X146930000Y-97800000D03*
X146930000Y-95300000D03*
D19*
X115760000Y-94550000D03*
X113260000Y-94550000D03*
X113260000Y-97420000D03*
X115760000Y-97420000D03*
X114620000Y-64000000D03*
X117120000Y-64000000D03*
X176280000Y-83910000D03*
X173780000Y-83910000D03*
X160490000Y-64002000D03*
X157990000Y-64002000D03*
X141410000Y-52930000D03*
X138910000Y-52930000D03*
X176280000Y-94575000D03*
X173780000Y-94575000D03*
D20*
X172580000Y-59420000D03*
X176980000Y-59420000D03*
D18*
X123270000Y-59980000D03*
X123270000Y-57480000D03*
X142754000Y-95300000D03*
X142754000Y-97800000D03*
D20*
X172580000Y-53370000D03*
X176980000Y-53370000D03*
D21*
X163980000Y-52990000D03*
X163980000Y-59090000D03*
D19*
X148150000Y-53040000D03*
X145650000Y-53040000D03*
M02*
