M48
; DRILL file {KiCad (5.1.4)-1} date 08.11.2019 19:35:37
; FORMAT={-:-/ absolute / metric / decimal}
; #@! TF.CreationDate,2019-11-08T19:35:37+05:00
; #@! TF.GenerationSoftware,Kicad,Pcbnew,(5.1.4)-1
; #@! TF.FileFunction,Plated,1,2,PTH
FMAT,2
METRIC
T1C0.500
T2C0.700
T3C0.800
T4C1.000
T5C3.200
%
G90
G05
T1
X164.43Y-95.37
X165.133Y-93.673
X165.133Y-97.067
X166.83Y-92.97
X166.83Y-97.77
X168.527Y-93.673
X168.527Y-97.067
X169.23Y-95.37
X92.3Y-95.37
X93.003Y-93.673
X93.003Y-97.067
X94.7Y-92.97
X94.7Y-97.77
X96.397Y-93.673
X96.397Y-97.067
X97.1Y-95.37
T2
X100.543Y-57.202
X103.008Y-74.846
X106.266Y-80.593
X107.121Y-82.199
X108.147Y-83.011
X108.422Y-84.311
X114.87Y-77.93
X115.247Y-69.487
X115.742Y-66.175
X117.097Y-84.389
X118.546Y-84.102
X119.812Y-79.852
X120.17Y-78.002
X120.18Y-76.176
X120.9Y-72.03
X122.53Y-81.675
X123.27Y-75.704
X128.554Y-69.839
X129.122Y-55.29
X131.457Y-60.453
X135.488Y-83.923
X136.843Y-86.131
X137.814Y-65.482
X139.443Y-72.807
X139.605Y-80.258
X140.885Y-80.259
X141.465Y-69.621
X142.491Y-67.251
X143.45Y-74.193
X144.395Y-89.767
X150.78Y-95.263
X153.024Y-75.897
X161.08Y-95.109
X164.446Y-89.153
X164.54Y-87.82
X164.913Y-80.721
X172.325Y-84.381
T3
X172.96Y-67.11
X172.96Y-72.19
X175.5Y-69.65
X102.87Y-56.896
X105.41Y-54.356
X107.95Y-56.896
X103.51Y-94.84
X106.05Y-92.3
X106.05Y-97.38
X113.284Y-56.896
X115.824Y-54.356
X118.364Y-56.896
T4
X99.86Y-64.19
X99.86Y-66.73
X102.4Y-64.19
X102.4Y-66.73
X104.94Y-64.19
X104.94Y-66.73
X120.44Y-96.52
X151.51Y-85.54
X124.44Y-52.73
X126.98Y-52.73
X129.52Y-52.73
X132.06Y-52.73
X134.6Y-52.73
X152.68Y-52.96
X155.22Y-52.96
X91.87Y-51.91
X91.87Y-54.45
X91.87Y-56.99
X91.87Y-59.53
X91.87Y-62.07
X91.87Y-64.61
X91.87Y-67.15
X91.87Y-69.69
X91.87Y-72.23
X91.87Y-74.77
X91.87Y-77.31
X91.87Y-79.85
X156.07Y-58.95
X151.49Y-80.66
X92.08Y-84.75
X92.08Y-87.29
X132.91Y-96.65
X151.4Y-75.78
T5
X166.83Y-95.37
X94.7Y-95.37
T0
M30
